<svg width="549" height="409" viewBox="0 0 549 409" fill="none" xmlns="http://www.w3.org/2000/svg">
<g clip-path="url(#clip0_553_575)">
<path d="M549 359.43H0V359.704H549V359.43Z" fill="#EBEBEB"/>
<path d="M493.99 377.091H457.625V377.365H493.99V377.091Z" fill="#EBEBEB"/>
<path d="M324.152 368.606H294.11V368.88H324.152V368.606Z" fill="#EBEBEB"/>
<path d="M456.527 366.905H435.456V367.179H456.527V366.905Z" fill="#EBEBEB"/>
<path d="M76.4318 368.749H57.6011V369.023H76.4318V368.749Z" fill="#EBEBEB"/>
<path d="M121.757 368.749H86.2041V369.023H121.757V368.749Z" fill="#EBEBEB"/>
<path d="M247.214 373.381H180.928V373.655H247.214V373.381Z" fill="#EBEBEB"/>
<path d="M260.237 310.474H48.2129C44.7542 310.474 41.9434 307.664 41.9434 304.206V6.26765C41.9434 2.81002 44.7542 0 48.2129 0H260.237C263.695 0 266.506 2.81002 266.506 6.26765V304.206C266.506 307.664 263.695 310.474 260.237 310.474ZM48.2129 0.274416C44.908 0.274416 42.2179 2.96369 42.2179 6.26765V304.206C42.2179 307.51 44.908 310.199 48.2129 310.199H260.237C263.542 310.199 266.232 307.51 266.232 304.206V6.26765C266.232 2.96369 263.542 0.274416 260.237 0.274416H48.2129Z" fill="#EBEBEB"/>
<path d="M497.734 310.474H285.71C282.252 310.474 279.441 307.664 279.441 304.206V6.26765C279.441 2.81002 282.252 0 285.71 0H497.734C501.193 0 504.004 2.81002 504.004 6.26765V304.206C504.004 307.664 501.193 310.474 497.734 310.474ZM285.71 0.274416C282.406 0.274416 279.715 2.96369 279.715 6.26765V304.206C279.715 307.51 282.406 310.199 285.71 310.199H497.734C501.039 310.199 503.729 307.51 503.729 304.206V6.26765C503.729 2.96369 501.039 0.274416 497.734 0.274416H285.71Z" fill="#EBEBEB"/>
<path d="M78.2546 352.92H249.74L249.74 43.4784H78.2546L78.2546 352.92Z" fill="#F5F5F5"/>
<path d="M235.192 344.194H92.8142C89.9594 344.194 87.6426 341.878 87.6426 339.024V57.3638C87.6426 54.5099 89.9594 52.1938 92.8142 52.1938H235.192C238.047 52.1938 240.363 54.5099 240.363 57.3638V339.024C240.363 341.878 238.047 344.194 235.192 344.194ZM92.8142 52.8634C90.3327 52.8634 88.3124 54.8831 88.3124 57.3638V339.024C88.3124 341.505 90.3327 343.524 92.8142 343.524H235.192C237.673 343.524 239.694 341.505 239.694 339.024V57.3638C239.694 54.8831 237.673 52.8634 235.192 52.8634H92.8142Z" fill="#E0E0E0"/>
<path d="M78.2656 359.43H96.9206L102.169 352.92H78.2656V359.43Z" fill="#F5F5F5"/>
<path d="M233.512 359.43H214.857L209.608 352.92H233.512V359.43Z" fill="#E0E0E0"/>
<path d="M249.74 359.43H231.085L225.848 352.92H249.74V359.43Z" fill="#F5F5F5"/>
<path d="M78.2655 43.4673H61.6089V359.418H78.2655V43.4673Z" fill="#E0E0E0"/>
<path d="M164.009 344.194C163.822 344.194 163.679 344.04 163.679 343.853V52.5229C163.679 52.3363 163.833 52.1826 164.009 52.1826C164.184 52.1826 164.338 52.3363 164.338 52.5229V343.864C164.338 344.051 164.184 344.205 164.009 344.205V344.194Z" fill="#E0E0E0"/>
<path d="M154.434 216.448C151.996 216.448 151.107 205.537 151.107 198.194C151.107 190.85 151.996 179.939 154.434 179.939C156.871 179.939 157.761 190.85 157.761 198.194C157.761 205.537 156.871 216.448 154.434 216.448ZM154.434 180.62C153.325 180.62 151.777 187.305 151.777 198.205C151.777 209.104 153.325 215.789 154.434 215.789C155.543 215.789 157.091 209.104 157.091 198.205C157.091 187.305 155.543 180.62 154.434 180.62Z" fill="#E0E0E0"/>
<path d="M173.572 216.448C171.134 216.448 170.245 205.537 170.245 198.194C170.245 190.85 171.134 179.939 173.572 179.939C176.01 179.939 176.899 190.85 176.899 198.194C176.899 205.537 176.01 216.448 173.572 216.448ZM173.572 180.62C172.463 180.62 170.915 187.305 170.915 198.205C170.915 209.104 172.463 215.789 173.572 215.789C174.681 215.789 176.229 209.104 176.229 198.205C176.229 187.305 174.681 180.62 173.572 180.62Z" fill="#E0E0E0"/>
<path d="M471.02 225.515H424.827V359.429H471.02V225.515Z" fill="#E6E6E6"/>
<path d="M462.236 359.43H471.02V349.331H453.046L462.236 359.43Z" fill="#F0F0F0"/>
<path d="M298.381 225.515H269.79V359.429H298.381V225.515Z" fill="#E6E6E6"/>
<path d="M295.505 216.327H264.827V225.515H295.505V216.327Z" fill="#E0E0E0"/>
<path d="M471.009 225.515H290.717V356.773H471.009V225.515Z" fill="#F0F0F0"/>
<path d="M475.972 216.327H287.5V225.515H475.972V216.327Z" fill="#F5F5F5"/>
<path d="M383.806 289.223V329.375C383.806 331.224 385.306 332.723 387.155 332.723H460.853C462.702 332.723 464.202 331.224 464.202 329.375V289.223C464.202 287.374 462.702 285.875 460.853 285.875H387.155C385.306 285.875 383.806 287.374 383.806 289.223Z" fill="#E6E6E6"/>
<path d="M297.525 289.212V329.365C297.525 331.213 299.024 332.712 300.874 332.712H374.572C376.421 332.712 377.92 331.213 377.92 329.365V289.212C377.92 287.363 376.421 285.864 374.572 285.864H300.874C299.024 285.864 297.525 287.363 297.525 289.212Z" fill="#E6E6E6"/>
<path d="M464.212 343.009C464.212 344.853 462.708 346.356 460.863 346.356H300.874C299.029 346.356 297.525 344.853 297.525 343.009C297.525 341.164 299.029 339.661 300.874 339.661H460.863C462.708 339.661 464.212 341.164 464.212 343.009Z" fill="#E6E6E6"/>
<path d="M345.672 291.243H329.762C322.856 291.243 316.246 289.047 311.492 285.184H363.932C359.178 289.047 352.579 291.243 345.661 291.243H345.672Z" fill="#F0F0F0"/>
<path d="M432.777 291.243H416.867C409.961 291.243 403.351 289.047 398.596 285.184H451.037C446.282 289.047 439.683 291.243 432.766 291.243H432.777Z" fill="#F0F0F0"/>
<path d="M383.806 236.074V276.226C383.806 278.075 385.305 279.574 387.155 279.574H460.853C462.702 279.574 464.202 278.075 464.202 276.226V236.074C464.202 234.225 462.702 232.726 460.853 232.726H387.155C385.305 232.726 383.806 234.225 383.806 236.074Z" fill="#E6E6E6"/>
<path d="M297.525 236.063V276.216C297.525 278.065 299.024 279.563 300.874 279.563H374.572C376.421 279.563 377.92 278.065 377.92 276.216V236.063C377.92 234.214 376.421 232.715 374.572 232.715H300.874C299.024 232.715 297.525 234.214 297.525 236.063Z" fill="#E6E6E6"/>
<path d="M345.672 238.105H329.762C322.856 238.105 316.246 235.91 311.492 232.046H363.932C359.178 235.91 352.579 238.105 345.661 238.105H345.672Z" fill="#F0F0F0"/>
<path d="M432.777 238.105H416.867C409.961 238.105 403.351 235.91 398.596 232.046H451.037C446.282 235.91 439.683 238.105 432.766 238.105H432.777Z" fill="#F0F0F0"/>
<path d="M299.49 359.43H290.717V349.331H308.692L299.49 359.43Z" fill="#F0F0F0"/>
<path d="M376.427 187.766C376.427 197.426 393.128 205.252 413.737 205.252C434.347 205.252 451.047 197.426 451.047 187.766H376.438H376.427Z" fill="#F0F0F0"/>
<path d="M376.427 198.841C376.427 208.501 393.128 216.327 413.737 216.327C434.347 216.327 451.047 208.501 451.047 198.841H376.438H376.427Z" fill="#E0E0E0"/>
<path d="M459.634 24.2363H303.707V170.182H459.634V24.2363Z" fill="#E6E6E6"/>
<path d="M463.916 24.2363H307.989V170.182H463.916V24.2363Z" fill="#F5F5F5"/>
<path d="M456.23 163.014V31.4038L315.665 31.4038V163.014H456.23Z" fill="white"/>
<path d="M456.23 163.014V31.4043H453.002V163.014H456.23Z" fill="#E6E6E6"/>
<path d="M460.732 133.575H311.163V143.19H460.732V133.575Z" fill="#F5F5F5"/>
<path d="M460.732 108.218H311.163V117.834H460.732V108.218Z" fill="#F5F5F5"/>
<path d="M274.5 409C392.077 409 487.391 403.437 487.391 396.574C487.391 389.712 392.077 384.149 274.5 384.149C156.924 384.149 61.6089 389.712 61.6089 396.574C61.6089 403.437 156.924 409 274.5 409Z" fill="#F5F5F5"/>
<path d="M316.07 233.539L258.326 355.105L259.907 371.01L331.98 302.582L319.419 301.759L359.518 265.316C355.51 261.672 351.722 257.841 348.296 253.736C338.096 241.497 332.441 227.436 328.115 212.64L331.058 211.882C331.058 211.882 330.421 198.348 326.018 184.045L303.849 236.327L316.07 233.528V233.539Z" fill="#263238"/>
<path d="M413.968 291.726L269.142 361.845C266.539 361.351 264.003 360.813 261.521 360.242V359.946L341.478 296.391L328.785 294.404L373.111 260.706C376.076 263.966 379.172 267.127 382.356 270.201C385.947 273.669 389.658 277.039 393.38 280.376C396.751 283.395 399.386 286.468 404.13 287.72C407.709 288.674 411.135 289.794 413.979 291.737L413.968 291.726Z" fill="#263238"/>
<path d="M412.804 298.4C411.915 297.335 410.882 296.468 409.773 295.7L267.879 363.118C283.888 366.29 301.686 368.08 317.882 367.037C368.489 360.934 395.038 342.46 411.651 314.426L416.91 311.232C419.348 309.75 419.897 306.841 418.129 304.744L412.793 298.4H412.804Z" fill="#263238"/>
<path d="M166.797 293.932L166.38 305.82L144.442 289.904C148.087 300.957 152.139 311.067 156.729 319.661C171.475 347.279 197.739 375.456 246.677 380.494C252.518 381.098 260.973 380.56 270.767 378.99L269.548 375.028L166.786 293.943L166.797 293.932Z" fill="#263238"/>
<path d="M201.845 89.1415L195.213 37.7051C190.163 42.3921 185.716 48.2426 182.191 55.3774C162.504 95.3433 169.333 117.703 196.619 134.091C196.959 134.299 197.3 134.486 197.64 134.684L186.122 80.481L201.845 89.1306V89.1415Z" fill="#407BFF"/>
<path d="M325.228 166.67L363.921 70.9204V95.4312L325.228 166.67Z" fill="#263238"/>
<path d="M375.11 237.995L425.365 172.531L420.128 191.4L375.11 237.995Z" fill="#407BFF"/>
<path d="M153.347 168.052L131.013 118.339L128.708 130.798L153.347 168.052Z" fill="#407BFF"/>
<path d="M177.25 292.769L264.86 388.737L262.466 370.022L196.816 261.507L197.53 271.09L168.719 233.517L186.792 236.492L155.367 180.708C152.029 186.471 150.239 193.024 150.371 199.863C150.964 228.468 151.952 259.147 155.872 285.316L174.813 304.437L177.25 292.769Z" fill="#407BFF"/>
<path d="M215.351 173.628L238.815 323.251L253.353 108.219L242.943 114.903L240.506 28.2869C226.298 28.0015 211.244 32.2385 199.375 42.809L205.414 94.3552L189.778 85.2995L200.681 139.744C206.852 143.541 213.44 146.692 220.204 149.293C219.787 150.358 219.38 151.412 218.974 152.433C213.956 151.906 208.675 151.664 203.075 151.708L208.291 177.723L215.362 173.661L215.351 173.628Z" fill="#263238"/>
<path d="M171.431 227.963L196.663 267.731L196.838 258.126L252.2 371.548L250.564 324.359L213.506 181.751L206.775 186.306L201.099 155.846C198.529 156.055 195.905 156.318 193.204 156.658C180.324 158.305 169.553 164.957 162.998 174.254L189.152 232.375L171.42 227.952L171.431 227.963Z" fill="#263238"/>
<path d="M291.036 123.564L280.1 157.153C293.55 156.626 305.09 154.771 312.458 152.509C302.795 146.889 299.995 130.951 300.621 114.574L291.738 129.217L291.036 123.564Z" fill="#407BFF"/>
<path d="M292.727 169.732C292.727 169.732 292.672 169.699 292.65 169.677C292.123 169.337 291.585 169.018 291.047 168.711C281.461 163.332 272.513 158.492 263.377 154.507C262.499 153.069 261.895 151.587 261.533 150.084C266.913 150.896 272.15 151.434 277.157 151.752L291.64 117.11L291.728 123.213L302.137 108.537C303.564 98.0873 306.243 87.5937 309.208 79.2734C317.19 56.8262 300.369 41.415 291.859 43.4786C286.556 30.1859 268.417 20.7241 248.51 20.1313L247.83 99.6899L258.326 93.1039L243.207 315.073L251.255 370.856L303.575 246.733L291.497 250.092L311.338 196.833C307.594 186.35 301.763 175.549 292.749 169.721L292.727 169.732Z" fill="#263238"/>
<path d="M243.635 209.906C234.06 229.51 236.926 240.805 249.487 249.345C265.826 260.442 288.895 260.749 298.282 258.258C291.332 252.638 293.528 233.462 296.822 222.32C300.116 211.179 292.199 203.858 288.345 204.955C283.152 192.146 254.582 187.459 243.624 209.906H243.635Z" fill="#263238"/>
<path opacity="0.6" d="M243.635 209.906C234.06 229.51 236.926 240.805 249.487 249.345C265.826 260.442 288.895 260.749 298.282 258.258C291.332 252.638 293.528 233.462 296.822 222.32C300.116 211.179 292.199 203.858 288.345 204.955C283.152 192.146 254.582 187.459 243.624 209.906H243.635Z" fill="white"/>
<path d="M296.065 276.731L296.559 278.938L297.108 281.265L298.283 285.93C299.117 289.036 299.974 292.121 300.951 295.139C301.906 298.169 302.949 301.144 304.113 303.997C305.233 306.873 306.518 309.617 307.912 312.153C308.604 313.404 309.318 314.645 310.086 315.742C310.46 316.324 310.855 316.818 311.25 317.345L312.546 318.959C314.336 321.143 316.499 323.228 318.782 325.314C321.088 327.367 323.559 329.386 326.128 331.34C326.765 331.834 327.413 332.317 328.071 332.789C328.719 333.283 329.378 333.766 330.037 334.238L333.968 337.048L334.253 337.257C336.361 338.771 336.855 341.702 335.34 343.821C334.198 345.412 332.244 346.082 330.454 345.665C328.533 345.215 326.853 344.754 325.107 344.194C323.383 343.634 321.67 343.019 319.99 342.328C316.619 340.956 313.303 339.353 310.075 337.443C306.825 335.555 303.718 333.305 300.709 330.66C299.974 329.957 299.238 329.277 298.513 328.552C297.811 327.773 297.086 326.993 296.449 326.192C295.121 324.601 293.968 322.987 292.881 321.34C288.62 314.755 285.656 307.982 283.196 301.144C281.988 297.719 280.912 294.283 279.99 290.804C279.518 289.069 279.09 287.324 278.694 285.568C278.497 284.69 278.299 283.811 278.123 282.911L277.596 280.112C276.652 275.019 280.012 270.124 285.107 269.169C290.081 268.247 294.857 271.419 295.977 276.303L296.076 276.731H296.065Z" fill="#B65B52"/>
<path d="M289.696 268.137C300.621 274.426 303.301 297.543 303.301 297.543C295.011 298.158 284.843 301.857 276.806 307.51C276.806 307.51 273.139 293.504 273.424 286.544C273.721 279.3 283.438 264.525 289.707 268.137H289.696Z" fill="white"/>
<path d="M342.378 351.746L346.682 347.289C347.714 346.225 347.681 344.523 346.605 343.491L343.366 340.407C342.104 339.211 340.511 338.42 338.788 338.157L328.17 336.554L325.216 342.525C329.586 347.136 332.749 348.464 332.749 348.464L339.084 352.185C340.149 352.811 341.5 352.624 342.367 351.735L342.378 351.746Z" fill="#B55B52"/>
<path d="M275.653 333.909L237.651 340.879C234.192 360.747 242.845 386.278 276.982 386.278C318.563 386.278 355.664 379.187 349.768 360.099C342.664 337.125 275.653 333.92 275.653 333.92V333.909Z" fill="#407BFF"/>
<path d="M219.49 340.879C216.031 360.746 224.684 392.864 258.82 392.864C314.84 392.864 347.528 393.753 352.074 374.292C356.619 354.83 280.901 349.111 280.901 349.111C280.901 349.111 283.449 343.151 279.638 329.935C242.647 330.583 219.49 340.879 219.49 340.879Z" fill="#407BFF"/>
<path opacity="0.1" d="M219.49 340.879C216.031 360.746 224.684 392.864 258.82 392.864C314.84 392.864 347.528 393.753 352.074 374.292C356.619 354.83 280.901 349.111 280.901 349.111C280.901 349.111 283.449 343.151 279.638 329.935C242.647 330.583 219.49 340.879 219.49 340.879Z" fill="white"/>
<path d="M289.696 268.137C276.114 260.178 265.343 254.624 247.303 255.974C237.596 256.699 229.757 264.152 228.23 273.757C224.761 295.589 218.897 321.088 219.479 340.879C257.931 356.773 280.243 342.58 279.628 329.935C270.547 306.17 293.331 294.678 294.484 281.1C295.077 274.152 294.187 270.771 289.696 268.137Z" fill="white"/>
<path d="M261.05 235.778C263.289 243.89 260.138 251.485 258.063 257.314C258.063 257.314 266.221 268.675 272.633 282.22C284.492 273.197 280.1 264.646 280.1 264.646C272.842 260.102 275.126 252.857 278.354 247.83L261.05 235.789V235.778Z" fill="#B55B52"/>
<path opacity="0.2" d="M272.666 238.302L278.354 247.808C277.585 248.993 276.883 250.234 276.356 251.485C272.557 251.902 267.451 246.765 267.912 243.275C268.132 241.617 272.161 238.95 272.666 238.302Z" fill="black"/>
<path d="M253.89 223.078C256.954 235.185 257.997 240.366 265.376 245.492C276.465 253.186 290.673 246.776 291.277 233.999C291.826 222.496 286.721 204.637 273.808 202.024C261.082 199.456 250.827 210.97 253.89 223.078Z" fill="#B55B52"/>
<path d="M285.117 205.318C285.359 209.346 273.303 210.345 266.572 209.906C262.235 209.62 258.458 212.156 259.073 215.932C259.655 219.532 262.916 221.903 265.353 220.97C267.89 228.676 257.667 236.831 248.609 231.025C239.55 225.218 255.614 184.923 285.117 205.318Z" fill="#263238"/>
<path opacity="0.6" d="M285.117 205.318C285.359 209.346 273.303 210.345 266.572 209.906C262.235 209.62 258.458 212.156 259.073 215.932C259.655 219.532 262.916 221.903 265.353 220.97C267.89 228.676 257.667 236.831 248.609 231.025C239.55 225.218 255.614 184.923 285.117 205.318Z" fill="white"/>
<path opacity="0.2" d="M272.556 222.463C272.556 222.463 270.712 221.903 269.317 222.968C271.096 223.078 272.556 222.463 272.556 222.463Z" fill="black"/>
<path opacity="0.2" d="M272.556 223.308C272.556 223.308 270.789 223.209 269.768 224.549C271.382 224.241 272.556 223.308 272.556 223.308Z" fill="black"/>
<path opacity="0.2" d="M281.384 235.405C281.384 235.405 279.88 234.461 278.343 235.141C279.902 235.657 281.384 235.405 281.384 235.405Z" fill="black"/>
<path opacity="0.2" d="M281.769 209.906C281.769 209.906 275.543 210.29 272.469 212.156C278.003 211.333 281.769 209.906 281.769 209.906Z" fill="black"/>
<path d="M274.039 222.628C274.225 223.627 274.906 223.429 275.565 223.297C276.213 223.176 276.586 223.177 276.4 222.178C276.213 221.179 275.532 220.476 274.873 220.597C274.225 220.718 273.841 221.629 274.039 222.628Z" fill="#263238"/>
<path d="M285.315 220.498C285.502 221.497 286.04 221.354 286.699 221.223C287.357 221.091 287.863 221.047 287.676 220.048C287.489 219.049 286.808 218.347 286.15 218.468C285.502 218.588 285.118 219.499 285.315 220.498Z" fill="#263238"/>
<path d="M285.875 218.588L288.137 217.447C288.137 217.447 287.258 219.554 285.875 218.588Z" fill="#263238"/>
<path d="M282.142 221.717C282.142 221.717 284.646 225.69 286.896 227.414C285.809 228.895 283.471 228.753 283.471 228.753L282.142 221.717Z" fill="#A02724"/>
<path d="M252.716 234.087C254.374 236.085 256.789 237.128 258.908 237.293C262.103 237.534 263.081 234.537 261.675 231.848C260.413 229.433 257.228 226.393 254.275 227.403C251.365 228.402 250.838 231.815 252.727 234.098L252.716 234.087Z" fill="#B55B52"/>
<path d="M273.896 214C273.644 214.044 273.446 214.242 273.413 214.505C273.051 217.238 269.91 218.907 269.877 218.918C269.581 219.071 269.471 219.434 269.625 219.719C269.779 220.015 270.13 220.125 270.426 219.972C270.58 219.895 274.138 217.996 274.588 214.659C274.632 214.33 274.401 214.033 274.072 213.989C274.006 213.989 273.94 213.989 273.885 213.989L273.896 214Z" fill="#263238"/>
<path d="M283.46 212.408C283.251 212.408 283.053 212.507 282.943 212.694C282.768 212.979 282.856 213.341 283.141 213.517C285.952 215.24 288.455 214.099 288.554 214.044C288.851 213.901 288.982 213.55 288.84 213.253C288.697 212.957 288.346 212.836 288.049 212.968C287.95 213.012 285.996 213.879 283.767 212.507C283.668 212.452 283.569 212.419 283.46 212.419V212.408Z" fill="#263238"/>
<path d="M274.61 220.718L276.872 219.576C276.872 219.576 275.993 221.684 274.61 220.718Z" fill="#263238"/>
<path d="M250.278 268.85C251.069 273.12 251.936 277.653 252.825 282.044C253.726 286.457 254.659 290.858 255.68 295.205C256.69 299.552 257.81 303.844 259.018 308.026C260.259 312.175 261.642 316.269 263.234 319.804C263.432 320.243 263.63 320.682 263.838 321.077C264.036 321.483 264.278 321.955 264.387 322.12L264.585 322.493L264.881 322.921C265.057 323.206 265.321 323.525 265.573 323.832C266.605 325.105 267.978 326.488 269.482 327.817C272.523 330.473 276.059 333.074 279.715 335.522C287.039 340.473 295 345.083 302.817 349.594L302.916 349.649C305.156 350.944 305.925 353.798 304.629 356.038C303.542 357.925 301.324 358.771 299.315 358.211C294.637 356.905 290.212 355.368 285.754 353.667C281.307 351.965 276.915 350.055 272.556 347.926C268.219 345.73 263.893 343.403 259.644 340.352C257.514 338.826 255.384 337.169 253.287 335.028C252.759 334.479 252.243 333.953 251.727 333.305L250.959 332.372L250.201 331.307C249.641 330.528 249.334 329.979 248.971 329.375C248.598 328.772 248.269 328.179 247.95 327.597C245.348 322.877 243.536 318.256 241.878 313.624C240.22 309.003 238.848 304.382 237.596 299.76C236.344 295.139 235.246 290.507 234.269 285.864C233.292 281.188 232.436 276.622 231.733 271.77C230.986 266.644 234.544 261.88 239.671 261.134C244.678 260.409 249.334 263.779 250.245 268.707L250.267 268.85H250.278Z" fill="#B65B52"/>
<path d="M244.02 258.62C255.933 262.736 257.481 289.431 257.481 289.431C251.157 288.026 235.433 298.081 232.249 303.866C232.249 303.866 227.132 286.94 227.418 279.992C227.714 272.747 235.104 255.525 244.02 258.609V258.62Z" fill="white"/>
<path d="M310.185 365.829L315.214 361.734C316.422 360.758 316.597 358.979 315.609 357.783L312.634 354.172C311.47 352.767 309.91 351.757 308.154 351.274L297.316 348.288L293.506 354.128C297.481 359.462 300.599 361.241 300.599 361.241L306.726 365.895C307.758 366.674 309.186 366.652 310.185 365.84V365.829Z" fill="#B55B52"/>
<path d="M277.333 232.583C276.729 232.682 276.092 232.847 275.433 233.088C275.258 233.154 275.159 233.352 275.225 233.527C275.291 233.703 275.477 233.802 275.664 233.736C280.473 232.002 283.932 234.559 283.965 234.581C284.118 234.691 284.327 234.669 284.448 234.515C284.558 234.361 284.536 234.153 284.382 234.032C284.25 233.933 281.461 231.87 277.333 232.583Z" fill="#263238"/>
<path d="M129.443 393.381H111.809C107.67 393.381 104.31 390.011 104.31 385.884V380.132C104.31 376.586 106.835 373.502 110.305 372.788C111.875 372.459 113.116 371.515 113.61 370.253C113.808 369.737 113.95 369.166 114.038 368.541C114.137 367.827 113.863 367.081 113.314 366.532L112.743 365.961C112.325 365.544 112.095 364.995 112.095 364.402C112.095 363.195 113.083 362.207 114.291 362.207H126.94C128.148 362.207 129.136 363.195 129.136 364.402C129.136 364.995 128.905 365.544 128.488 365.961L127.928 366.521C127.357 367.092 127.094 367.926 127.225 368.749C127.313 369.287 127.445 369.792 127.621 370.253C128.115 371.515 129.344 372.459 130.926 372.788C134.395 373.502 136.921 376.597 136.921 380.132V385.884C136.921 390.022 133.55 393.381 129.421 393.381H129.443ZM114.302 363.305C113.698 363.305 113.204 363.799 113.204 364.402C113.204 364.699 113.314 364.973 113.522 365.182L114.093 365.752C114.884 366.543 115.279 367.64 115.136 368.694C115.038 369.397 114.873 370.055 114.642 370.648C114.016 372.262 112.479 373.458 110.536 373.864C107.571 374.479 105.419 377.113 105.419 380.132V385.884C105.419 389.418 108.296 392.283 111.82 392.283H129.454C132.99 392.283 135.856 389.407 135.856 385.884V380.132C135.856 377.113 133.704 374.468 130.739 373.864C128.795 373.469 127.258 372.262 126.632 370.648C126.424 370.121 126.27 369.539 126.171 368.925C125.985 367.761 126.358 366.565 127.181 365.752L127.741 365.193C127.95 364.984 128.06 364.71 128.06 364.413C128.06 363.81 127.566 363.316 126.962 363.316H114.313L114.302 363.305Z" fill="#407BFF"/>
<path opacity="0.2" d="M104.859 380.132V385.884C104.859 389.703 107.988 392.832 111.809 392.832H129.443C133.264 392.832 136.393 389.703 136.393 385.884V380.132C136.393 380.132 127.555 382.47 120.626 380.132C113.698 377.794 104.859 380.132 104.859 380.132Z" fill="#407BFF"/>
<path d="M106.693 390.955L106.418 389.89C113.336 388.123 127.939 388.123 134.824 389.89L134.549 390.955C127.797 389.22 113.479 389.22 106.693 390.955Z" fill="#407BFF"/>
<path d="M120.626 367.915C118.255 367.915 115.872 367.498 113.511 366.652L113.885 365.621C118.353 367.212 122.899 367.212 127.379 365.621L127.752 366.652C125.392 367.498 123.009 367.915 120.637 367.915H120.626Z" fill="#407BFF"/>
<path d="M119.747 383.501L118.649 383.469C119.144 365.203 111.139 313.976 104.375 292.132L105.43 291.803C112.215 313.734 120.253 365.149 119.758 383.501H119.747Z" fill="#407BFF"/>
<path d="M120.549 381.339C120.176 369.868 121.999 339.496 129.992 318.827L131.013 319.222C123.086 339.727 121.274 369.901 121.647 381.295L120.549 381.328V381.339Z" fill="#407BFF"/>
<path d="M114.884 322.482C108.043 314.711 97.5132 307.499 81.5044 305.271C86.665 314.919 102.948 321.912 114.884 322.482Z" fill="#407BFF"/>
<path d="M123.689 335.666C130.409 334.206 137.985 330.419 144.442 321.846C137.173 321.725 127.862 328.915 123.689 335.666Z" fill="white"/>
<path d="M123.69 336.214C123.514 336.214 123.349 336.127 123.239 335.984C123.108 335.808 123.108 335.567 123.217 335.38C127.489 328.487 137.019 321.166 144.453 321.308C144.661 321.308 144.848 321.429 144.936 321.616C145.024 321.802 145.002 322.022 144.881 322.186C139.237 329.672 132.155 334.392 123.799 336.203C123.756 336.203 123.723 336.214 123.679 336.214H123.69ZM143.289 322.439C136.855 322.999 129.059 328.882 124.908 334.809C132.067 332.943 138.249 328.794 143.289 322.439Z" fill="#407BFF"/>
<path d="M106.209 303.745C111.908 300.189 117.64 294.218 120.758 284.207C114.038 286.49 107.835 296.172 106.209 303.745Z" fill="#263238"/>
</g>
<defs>
<clipPath id="clip0_553_575">
<rect width="549" height="409" fill="white"/>
</clipPath>
</defs>
</svg>
