<svg width="759" height="555" viewBox="0 0 759 555" fill="none" xmlns="http://www.w3.org/2000/svg">
<g opacity="0.5">
<path d="M348.045 473.684C325.828 473.745 303.61 474.264 281.431 476.653C273.066 477.553 264.885 479.538 256.505 480.331C239.767 481.927 223.32 484.903 206.521 486.277C192.99 487.384 179.404 488.032 165.918 489.437C153.272 490.749 139.267 490.452 126.719 488.277C117.431 486.666 108.097 485.758 98.961 483.178C88.7415 480.286 77.6443 478.217 66.9974 478.294C51.817 478.401 37.0334 478.416 22.5018 483.514C17.4034 485.308 11.1603 488.254 7.28317 492.016C-1.58544 500.625 -2.78369 522.11 6.06964 531.04C20.9829 546.068 52.8015 551.967 73.7061 552.25C96.6103 552.555 118.858 550.906 141.793 549.937C163.102 549.036 184.365 547.754 205.712 547.8C249.315 547.892 292.918 547.8 336.444 544.976C377.337 542.328 418.33 543.236 459.307 543.236C500.284 543.236 543.07 543.557 584.788 548.968C602.968 551.326 621.483 552.15 639.755 553.799C656.118 555.28 671.841 553.768 688.135 552.402C701.82 551.257 715.413 547.853 727.846 542.099C737.684 537.542 755.23 523.392 758.245 512.524C766.701 482.049 639.015 482.781 619.408 482.85C597.473 482.926 575.37 483.629 553.458 482.812C544.238 482.469 535.156 480.728 526.157 478.813C517.197 476.905 508.168 477.393 499.078 476.592C461.177 473.256 423.199 473.745 385.183 473.745C372.812 473.745 360.432 473.638 348.053 473.676L348.045 473.684Z" fill="#EED5D5"/>
</g>
<path d="M239.348 72.605C240.882 72.605 242.408 72.6584 243.919 72.7653C249.025 43.2898 274.891 20.8664 306.03 20.8664C320.272 20.8664 333.407 25.5602 343.962 33.4671C355.365 13.4861 376.971 0 401.753 0C438.418 0 468.145 29.5137 468.145 65.9268C468.145 68.2318 468.023 70.5138 467.794 72.7577C469.298 72.6584 470.817 72.5974 472.351 72.5974C509.016 72.5974 538.743 102.111 538.743 138.524C538.743 174.937 509.016 204.451 472.351 204.451H239.355C202.69 204.451 172.963 174.937 172.963 138.524C172.963 102.111 202.69 72.5974 239.355 72.5974L239.348 72.605Z" fill="#8CABEF"/>
<path d="M351.381 276.057L339.33 280.193L319.829 309.417L294.857 292.71L286.919 302.128L299.52 320.819L322.195 337.015L351.381 306.463V276.057Z" fill="#3B3387"/>
<path d="M407.088 211.236L408.012 198.124L397.411 189.912L392.961 195.735L397.746 204.283L396.037 208.733L400.738 215.792L407.088 211.236Z" fill="#EAC1A4"/>
<path d="M323.05 360.163L322.195 434.355L330.102 529.865H340.848L353.716 441.743L368.423 353.477L323.05 360.163Z" fill="#292949"/>
<path d="M340.787 534.398L329.163 540.206L323.348 534.398L329.163 528.583H340.787V534.398Z" fill="#1F1F35"/>
<path d="M396.762 360.163L396.968 403.086L389.717 529.865H378.971L360.982 445.735L351.381 353.477L396.762 360.163Z" fill="#292949"/>
<path d="M379.032 534.398L390.656 540.206L396.472 534.398L390.656 528.583H379.032V534.398Z" fill="#1F1F35"/>
<path d="M407.936 386.005C408.164 392.813 408.019 401.926 405.15 402.262C404.616 402.323 404.097 402.086 403.623 401.857C398.64 399.438 395.083 396.011 390.168 393.668C385.016 391.218 379.162 389.936 373.438 389.043C364.905 387.677 356.227 386.86 347.641 386.784C340.261 386.715 332.583 390.089 325.607 391.936C322.921 392.645 320.738 394.607 318.502 396.141C315.204 398.408 313.762 399.308 314.212 394.676C314.945 387.112 315.708 379.556 316.639 372.016C318.494 356.98 321.02 341.975 325.294 327.421C326.927 321.857 328.813 316.377 330.69 310.897C332.98 304.219 335.277 297.548 337.567 290.87C340.414 282.574 345.222 276.728 353.64 273.827C360.914 271.317 369.95 270.637 377.025 274.14C384.894 278.04 388.634 291.336 392.457 298.441C395.808 304.669 400.029 321.643 401.28 328.359C402.791 336.434 404.18 344.479 405.28 352.5C406.493 361.384 407.348 370.237 407.6 379.037C407.63 380.014 407.821 382.731 407.936 385.983V386.005Z" fill="#3B3387"/>
<path d="M360.272 275.621C360.44 275.766 360.638 275.888 360.867 275.957C361.318 276.102 361.806 276.049 362.279 275.995C364.202 275.766 366.126 275.537 368.041 275.316C367.408 269.432 370.85 268.104 374.201 264.318C377.597 260.479 376.551 255.304 376.361 250.611C376.307 249.305 376.238 247.955 375.689 246.772C374.72 244.688 372.461 243.543 370.262 242.856C364.668 241.116 358.265 241.544 353.334 244.718C352.022 245.566 350.8 246.627 350.091 248.016C348.992 250.16 349.274 252.709 349.579 255.098C350.052 258.762 351.136 262.364 353.205 265.455C355.135 268.332 358.822 269.714 359.242 273.171C359.348 274.064 359.623 275.072 360.264 275.629L360.272 275.621Z" fill="#EAC1A4"/>
<path d="M349.747 250.832C350.075 252.312 350.762 253.808 350.403 255.281C348.053 254.487 346.519 252.083 345.687 249.641C345.313 248.534 345.038 247.359 345.13 246.191C345.221 245.024 345.732 243.841 346.656 243.184C347.946 242.261 350.258 242.627 350.632 244.298C351.006 245.985 349.251 248.618 349.747 250.839V250.832Z" fill="#292949"/>
<path d="M337.276 237.834C337.33 236.064 338.009 234.476 339.589 233.408C340.955 232.484 342.527 231.721 343.359 230.255C344 229.118 344.099 227.706 344.733 226.569C345.885 224.501 348.396 223.898 350.579 223.196C356.036 221.44 358.975 219.418 364.752 221.662C368.858 223.257 374.17 223.47 377.979 225.798C379.574 226.768 380.925 228.332 382.039 230.072C385.893 236.094 386.817 244.566 384.306 250.847C383.741 252.251 383.031 253.549 382.268 254.785C380.742 257.258 379.108 260.303 376.406 261.517C376.239 260.349 375.368 259.708 375.094 258.563C374.895 257.739 374.964 256.876 375.01 256.022C375.178 252.717 376.185 247.497 372.888 245.856C368.721 243.787 360.89 245.65 356.876 247.405C353.319 248.954 347.32 250.977 343.535 249.313C340.016 247.771 337.154 241.62 337.276 237.834Z" fill="#292949"/>
<path d="M373.743 273.408L410.622 262.54L396.968 216.434L408.218 208.367L435.373 261.739L427.863 280.224L392.625 298.411L373.743 273.408Z" fill="#3B3387"/>
<path d="M608.891 267.836L598.13 268.294L566.036 298.746L518.366 292.366L515.198 304.035L562.045 320.819H576.195L601.274 305.417L608.891 267.836Z" fill="#F7F7F7"/>
<path d="M518.457 299.602L512.138 304.387L507.055 304.753L506.703 303.059L509.405 301.349L499.575 301.059L497.85 296.656L508.68 291.855L519.51 292.931L518.457 299.602Z" fill="#EAC1A4"/>
<path d="M586.62 516.897L577.683 523.232L574.706 528.079C574.706 528.079 578.057 529.567 579.919 529.941C581.781 530.315 596.313 528.079 596.313 528.079V519.508L586.628 516.897H586.62Z" fill="#1F1F35"/>
<path d="M656.096 519.592L652.798 525.591C652.798 525.591 650.738 533.17 652.524 532.651C654.31 532.132 664.285 530.399 664.689 529.117C665.094 527.835 669.421 522.698 669.925 521.775C670.436 520.851 668.276 514.677 668.276 514.677L656.096 519.584V519.592Z" fill="#1F1F35"/>
<path d="M594.947 378.35L623.812 464.526L656.096 519.592L668.613 515.951L647.212 453.146C647.212 453.146 644.625 390.058 640.404 371.504L594.947 378.343V378.35Z" fill="#353A85"/>
<path d="M572.096 391.355L583.269 519.5H596.679L600.777 453.939L608.478 395.889L579.171 361.552L572.096 391.355Z" fill="#353A85"/>
<path d="M571.668 309.356C573.057 302.754 573.607 295.64 576.874 289.481C580.148 283.322 586.322 278.659 591.092 273.423C593.115 271.202 595.267 268.897 598.274 267.836C600.335 267.111 602.602 267.05 604.823 266.989C611.547 266.821 618.278 266.653 625.002 266.478C627.452 266.417 630.009 266.371 632.237 267.256C635.588 268.584 637.481 271.668 639.137 274.553C643.365 281.903 644.144 290.061 644.525 298.373C644.51 298.449 649.776 402.751 645.601 400.797C640.404 398.354 634.458 397.065 628.627 396.156C620.408 394.836 612.012 394.004 603.64 393.798L588.894 394.79H579.995C574.653 395.309 575.095 396.912 569.6 396.584C566.089 396.37 570.073 316.927 571.661 309.363L571.668 309.356Z" fill="#F7F7F7"/>
<path d="M610.31 270.37C613.646 270.225 616.989 270.08 620.324 269.935C620.507 267.279 620.469 264.6 620.225 261.952C623.049 261.135 626.323 259.853 626.964 256.983C627.17 256.083 627.063 255.144 626.956 254.22C626.514 250.42 626.071 246.619 625.628 242.818C625.476 241.505 625.308 240.147 624.667 238.994C623.529 236.972 621.171 235.979 618.904 235.453C613.134 234.117 606.708 235.025 601.976 238.597C600.717 239.544 599.564 240.711 598.946 242.162C598 244.405 598.473 246.955 598.961 249.336C599.412 251.534 599.862 253.732 600.305 255.93C600.824 258.456 601.61 261.349 603.96 262.41C605.205 262.974 606.723 262.913 607.838 263.715C609.799 265.119 609.356 268.134 610.295 270.362L610.31 270.37Z" fill="#EAC1A4"/>
<path d="M591.81 222.074C592.55 221.944 593.306 221.784 594.077 221.455C596.496 220.402 598.19 218.288 600.755 217.304C605.952 215.304 612.463 215.594 617.569 217.739C622.453 219.792 629.116 220.585 633.489 223.341C635.313 224.493 636.725 226.21 637.794 228.088C641.503 234.583 641.045 243.222 636.672 249.29C635.687 250.649 634.535 251.877 633.337 253.045C630.849 255.464 627.857 258.456 624.575 259.219C624.659 256.319 627.796 247.351 625.712 244.856C622.942 241.551 617.5 241.635 613.607 242.001C608.967 242.436 605.143 240.948 600.511 241.177C598.152 241.291 595.481 241.772 593.672 240.253C591.581 238.498 587.162 232.919 586.109 230.469C585.193 228.324 585.803 225.684 587.399 223.989C588.772 222.524 590.261 222.348 591.818 222.074H591.81Z" fill="#292949"/>
<path d="M611.211 270.286C610.86 272.729 610.112 275.507 610.112 275.507C610.112 275.507 591.512 329.092 589.742 333.374C589.345 334.328 589.154 335.351 589.154 336.389L593.428 348.928L601.9 338.449L613.401 278.407L616.195 276.01L617.172 269.92L611.211 270.294V270.286Z" fill="#D67086"/>
<path d="M620.416 296.137L615.523 325.879L562.151 339.724V353.958L626.002 347.211L637.031 329.39L635.97 283.261L620.416 296.137Z" fill="#F7F7F7"/>
<path d="M562.151 351.203L556.038 353.958L543.536 351.119L545.666 344.357L555.374 343.776L557.328 340.495L562.059 341.762L562.151 351.203Z" fill="#EAC1A4"/>
<path d="M291.208 293.122L278.905 297.732L275.845 310.798L282.988 312.424L288.774 304.509L293.528 304.212L297.993 296.999L291.208 293.122Z" fill="#EAC1A4"/>
<path d="M126.093 535.23L125.59 540.512L114.897 545.091L110.31 539.458L115.912 534.528L126.605 529.949L126.093 535.23Z" fill="#1F1F35"/>
<path d="M135.031 428.181L126.796 533.566L116.492 534.963L107.959 445.14L100.907 416.649L135.031 428.181Z" fill="#474EBB"/>
<path d="M159.668 400.522L165.842 525.751L156.447 527.522L136.863 432.76L126.086 405.33L159.668 400.522Z" fill="#474EBB"/>
<path d="M157.279 531.666L168.445 535.085L172.528 528.796L166.445 524.423L156.279 526.339L157.279 531.666Z" fill="#1F1F35"/>
<path d="M146.38 265.265C138.771 258.96 120.423 262.586 110.768 262.586C111.7 262.586 101.617 316.477 101.297 321.17C100.137 338.305 94.8248 355.637 87.4979 371.329C84.4068 377.946 80.7281 384.327 78.53 391.287C74.8895 402.827 74.8971 416.412 75.9275 428.357C86.2843 431.204 95.9925 436.538 106.647 437.92C115.416 439.057 124.262 437.447 133.07 436.668C143.48 435.745 153.967 435.989 164.392 435.188C174.818 434.386 185.35 432.471 194.577 427.555C190.448 419.572 187.273 411.139 184.633 402.56C182.007 394.042 178.634 384.579 177.672 375.702C176.81 367.681 176.665 359.514 175.497 351.379C174.138 341.915 172.505 332.481 170.238 323.185C167.643 312.561 164.224 302.136 160.027 292.031C156.829 284.345 153.013 271.752 147.006 265.829C146.808 265.631 146.602 265.448 146.38 265.265Z" fill="#DDDAE8"/>
<path d="M130.208 236.14C135.031 237.018 140.977 241.139 142.137 246.222C142.694 248.672 141.9 250.924 142.602 253.526C143.968 258.655 137.763 266.203 143.907 269.768C147.067 271.599 151.005 271.004 154.6 270.355C155.035 270.279 155.493 270.187 155.836 269.913C156.401 269.455 156.5 268.6 156.287 267.905C156.073 267.211 155.607 266.623 155.211 266.012C150.99 259.67 152.013 250.565 150.372 243.345C148.731 236.132 144.861 228.951 137.718 225.989C134.153 228.294 131.566 232.057 130.681 236.209L130.223 236.14H130.208Z" fill="#292949"/>
<path d="M136.26 267.18C140.9 265.195 143.968 260.471 144.983 255.533C145.991 250.587 145.189 245.443 143.831 240.589C139.29 224.424 119.003 229.057 114.271 242.879C110.15 254.922 122.774 272.957 136.26 267.187V267.18Z" fill="#EAC1A4"/>
<path d="M112.646 276.072C114.92 274.652 117.156 273.171 118.477 270.531C120.606 266.257 119.713 259.617 119.965 254.984C120.232 250.099 120.675 244.772 124.025 241.208C126.216 238.88 128.902 238.239 131.948 237.926C134.031 237.712 134.176 238.498 135.84 237.224C137.115 236.255 138.053 233.591 138.237 232.064C138.55 229.492 137.305 226.92 135.466 225.096C132.642 222.288 129.467 221.044 125.59 221.288C111.982 222.15 102.472 231.072 99.778 244.665C98.4805 251.198 100.45 258.182 99.0072 264.494C98.1218 268.386 95.9085 271.118 95.2674 275.24C93.6036 285.932 88.9632 299.815 90.3294 310.607C90.3828 311.004 90.4667 311.447 90.7873 311.683C91.4437 312.172 92.3061 311.432 92.7869 310.768C95.5879 306.89 98.3889 303.006 101.19 299.129C102.289 297.602 103.403 296.053 104.044 294.29C105.632 289.886 104.159 284.498 106.891 280.704C108.387 278.636 110.532 277.377 112.638 276.072H112.646Z" fill="#292949"/>
<path d="M91.2377 379.64C90.8485 382.358 93.0236 389.31 95.5728 390.822C101.457 394.31 99.3202 385.54 99.2668 382.342C100.389 382.663 101.465 383.006 102.61 383.098C103.655 383.182 100.557 373.802 99.5263 372.932C97.0458 370.833 95.2904 371.909 92.2757 372.237C91.9857 374.702 91.5964 377.175 91.2377 379.64Z" fill="#EAC1A4"/>
<path d="M98.6482 280.697L67.8447 334.481L89.7491 381.457L97.1752 371.642L89.3522 329.589L118.454 311.813L115.271 277.278L98.6482 280.697Z" fill="#DDDAE8"/>
<path d="M150.532 270.37L177.855 314.026L192.837 293.213L206.995 295.594L200.278 329.367L181.694 343.158L150.532 324.475V270.37Z" fill="#DDDAE8"/>
<path d="M298.897 341.701L202.409 333.48C198.759 333.169 195.549 335.876 195.238 339.525L194.26 351.001C193.949 354.651 196.656 357.861 200.305 358.172L296.793 366.393C300.443 366.704 303.653 363.998 303.964 360.348L304.942 348.873C305.253 345.223 302.547 342.012 298.897 341.701Z" fill="#3D5092"/>
<path d="M203.164 296.175L137.588 288.474C118.484 286.23 101.014 300.029 98.7705 319.133L94.9926 351.333C92.7487 370.436 106.548 387.906 125.651 390.15L191.227 397.851C210.33 400.095 227.8 386.296 230.044 367.192L233.822 334.992C236.066 315.889 222.267 298.419 203.164 296.175ZM213.238 332.573L209.46 364.773C208.56 372.443 201.317 378.16 193.646 377.267L128.071 369.566C120.4 368.665 114.684 361.423 115.577 353.752L119.355 321.552C120.255 313.882 127.498 308.165 135.168 309.066L200.744 316.767C208.415 317.667 214.131 324.91 213.238 332.58V332.573Z" fill="#5D66D3"/>
<path d="M366.905 302.769H300.879C281.638 302.769 265.9 318.507 265.9 337.747V370.169C265.9 389.41 281.638 405.147 300.879 405.147H366.905C386.145 405.147 401.883 389.41 401.883 370.169V337.747C401.883 318.507 386.145 302.769 366.905 302.769ZM381.154 370.169C381.154 377.893 374.629 384.418 366.905 384.418H300.879C293.155 384.418 286.629 377.893 286.629 370.169V337.747C286.629 330.024 293.155 323.498 300.879 323.498H366.905C374.629 323.498 381.154 330.024 381.154 337.747V370.169Z" fill="#5D66D3"/>
<path d="M577.515 359.369L575.592 327.009C574.447 307.806 557.801 293.03 538.599 294.167L472.687 298.09C453.484 299.235 438.708 315.881 439.846 335.084L441.769 367.444C442.914 386.647 459.56 401.423 478.762 400.285L544.674 396.362C563.876 395.218 578.652 378.572 577.515 359.369ZM543.445 375.672L477.533 379.595C469.825 380.052 462.925 373.924 462.467 366.215L460.544 333.855C460.086 326.146 466.215 319.247 473.923 318.789L539.835 314.866C547.543 314.408 554.443 320.537 554.901 328.245L556.824 360.606C557.282 368.314 551.153 375.214 543.445 375.672Z" fill="#5D66D3"/>
<path d="M465.749 337.542H368.912C365.249 337.542 362.28 340.511 362.28 344.174V355.691C362.28 359.354 365.249 362.323 368.912 362.323H465.749C469.412 362.323 472.382 359.354 472.382 355.691V344.174C472.382 340.511 469.412 337.542 465.749 337.542Z" fill="#3D5092"/>
<path d="M291.208 293.122L278.905 297.732L275.845 310.798L282.988 312.424L288.774 304.509L293.528 304.212L297.993 296.999L291.208 293.122Z" fill="#EAC1A4"/>
<path d="M192.837 293.213L204.263 292.198L211.597 301.319L206.598 305.295L199.058 301.25L195.203 302.815L188.968 298.823L192.837 293.213Z" fill="#EAC1A4"/>
</svg>
