<svg width="500" height="518" viewBox="0 0 500 518" fill="none" xmlns="http://www.w3.org/2000/svg">
<path d="M293.85 150.82L434.07 128.3" stroke="#F7D900" stroke-width="1.5" stroke-miterlimit="10"/>
<path d="M69.73 164.9L293.85 150.82" stroke="#F7D900" stroke-width="1.5" stroke-miterlimit="10"/>
<path d="M90.73 161.49L181.79 68.2302L343.22 54.7202L434.07 128.3L405.92 249.93L293.85 150.82L341.72 60.1602" stroke="#F7D900" stroke-width="1.5" stroke-miterlimit="10"/>
<path d="M308.01 47.2002V77.9602C308.01 79.2802 309.08 80.3502 310.4 80.3502H368.17C370.11 80.3502 371.68 78.7502 371.63 76.8102C371.47 69.5402 371.13 53.0902 371.25 46.8702C371.28 45.5202 370.19 44.4302 368.84 44.4302L310.38 44.8102C309.06 44.8102 308 45.8902 308 47.2002H308.01Z" fill="#4D9299"/>
<path d="M300.23 40.02V70.78C300.23 72.1 301.3 73.17 302.62 73.17H360.39C362.33 73.17 363.9 71.57 363.85 69.63C363.69 62.36 363.35 45.91 363.47 39.69C363.5 38.34 362.41 37.25 361.06 37.25L302.6 37.63C301.28 37.63 300.22 38.71 300.22 40.02H300.23Z" fill="#E86746"/>
<path d="M326.399 46.73L337.779 53.88L325.979 60.39L326.399 46.73Z" fill="#F7D900"/>
<path d="M304.55 67.7598H357.77" stroke="black" stroke-width="1.5" stroke-linecap="round" stroke-linejoin="round"/>
<path d="M457.549 131.05C455.609 131.32 453.589 129.6 453.549 127.64C453.519 125.56 455.569 123.93 457.559 124.11C458.019 124.15 458.269 123.66 458.199 123.27C457.919 121.8 457.669 120.31 457.159 118.91C457.149 118.87 457.129 118.84 457.109 118.82C457.119 118.47 456.909 118.11 456.459 118.11C454.889 118.11 452.979 118.79 451.479 118.09C450.109 117.45 449.859 115.68 450.239 114.36C450.479 113.55 450.939 112.81 451.449 112.14C451.949 111.49 452.629 110.94 453.069 110.25C453.539 109.52 453.199 108.86 452.499 108.48C451.589 107.98 450.679 107.5 449.759 107.02C449.379 106.82 448.899 106.99 448.779 107.42C448.199 109.49 445.779 110.7 443.839 109.63C442.969 109.15 442.289 108.34 442.049 107.37C441.709 105.99 442.289 104.53 442.769 103.25C442.929 102.84 442.529 102.48 442.159 102.45C440.909 102.35 439.679 102.08 438.489 101.67C437.989 101.5 437.609 102.1 437.839 102.52C438.349 103.46 437.319 104.61 436.609 105.12C435.799 105.7 434.779 105.99 433.789 105.93C431.889 105.82 430.299 104.27 429.859 102.45C430.229 102.07 429.899 101.26 429.239 101.41C427.809 101.75 426.379 102.08 424.959 102.42C424.589 102.51 424.369 103.01 424.589 103.33C425.639 104.85 425.179 107.23 423.499 108.11C421.779 109.02 419.459 107.91 418.929 106.09C418.799 105.65 418.229 105.48 417.899 105.82C416.879 106.86 415.849 107.9 414.829 108.95C414.599 109.18 414.559 109.62 414.829 109.85C416.359 111.15 416.779 113.59 415.589 115.26C414.409 116.92 411.939 117.32 410.229 116.28C409.859 116.05 409.409 116.28 409.279 116.67C408.689 118.43 408.239 120.23 407.919 122.05C407.849 122.47 408.209 123.05 408.709 122.84C410.539 122.08 412.359 123.56 412.299 125.47C412.229 127.64 410.189 128.89 408.189 128.87C407.769 128.87 407.549 129.25 407.609 129.63C407.759 130.56 407.919 131.49 408.079 132.42C408.229 133.27 408.329 134.12 408.729 134.88C408.729 135.21 409.109 135.54 409.469 135.46C410.039 135.33 410.569 135.1 411.149 134.99C411.719 134.88 412.329 134.86 412.909 134.94C414.029 135.08 415.169 135.57 415.409 136.78C415.779 138.61 414.609 140.81 412.699 141.13C412.329 141.19 412.139 141.71 412.339 142.01C412.869 142.78 413.459 143.51 414.099 144.19C414.549 144.67 415.239 145.41 415.919 145.67C416.099 146.05 416.599 146.28 416.949 145.88C418.199 144.48 420.449 142.83 422.319 144.19C424.079 145.47 423.569 147.91 422.569 149.47C422.359 149.79 422.569 150.26 422.929 150.35C424.439 150.73 425.989 151.25 427.549 151.32C427.869 151.54 428.399 151.48 428.549 151C428.989 149.59 430.189 148.53 431.619 148.17C433.029 147.81 435.459 148.34 435.329 150.23C435.289 150.84 434.869 151.69 435.839 151.84C436.229 151.9 436.709 151.75 437.099 151.69C437.569 151.61 438.039 151.51 438.499 151.4C438.969 151.29 439.429 151.18 439.889 151.04C440.189 150.95 440.649 150.87 440.849 150.58C441.029 150.32 441.009 149.96 440.909 149.6C441.049 149.46 441.139 149.26 441.089 149C440.769 147.38 441.679 145.53 443.309 145.03C444.959 144.52 446.739 145.47 447.419 147.01C447.609 147.43 448.159 147.38 448.449 147.14L451.809 144.41C452.149 144.14 452.009 143.58 451.679 143.39C449.909 142.33 449.259 139.73 450.429 138C451.619 136.23 454.259 135.94 455.919 137.16C456.269 137.41 456.709 137.13 456.829 136.79C457.409 135.17 457.889 133.51 458.289 131.83C458.409 131.32 457.989 130.99 457.519 131.06L457.549 131.05ZM432.349 141.52C424.719 141.52 418.539 135.23 418.539 127.47C418.539 119.71 424.719 113.42 432.349 113.42C439.979 113.42 446.159 119.71 446.159 127.47C446.159 135.23 439.979 141.52 432.349 141.52Z" fill="#AEDBD5"/>
<path d="M406.85 134.55C405.43 134.74 403.94 133.48 403.92 132.05C403.89 130.52 405.399 129.33 406.859 129.46C407.199 129.49 407.379 129.13 407.329 128.85C407.119 127.78 406.94 126.68 406.57 125.65C406.57 125.62 406.55 125.6 406.53 125.58C406.54 125.32 406.38 125.06 406.049 125.06C404.899 125.06 403.49 125.56 402.4 125.05C401.4 124.58 401.209 123.28 401.49 122.32C401.67 121.72 402 121.18 402.38 120.69C402.75 120.21 403.24 119.81 403.57 119.3C403.91 118.77 403.66 118.28 403.15 118C402.48 117.64 401.81 117.28 401.14 116.93C400.86 116.78 400.51 116.91 400.42 117.22C400 118.74 398.219 119.62 396.799 118.84C396.159 118.49 395.66 117.89 395.49 117.18C395.24 116.17 395.669 115.1 396.019 114.16C396.139 113.86 395.85 113.59 395.57 113.57C394.65 113.5 393.75 113.3 392.88 113C392.51 112.87 392.23 113.32 392.4 113.62C392.77 114.31 392.02 115.15 391.5 115.53C390.9 115.96 390.16 116.17 389.43 116.12C388.04 116.04 386.869 114.9 386.549 113.57C386.819 113.29 386.58 112.69 386.1 112.81C385.05 113.06 384.01 113.3 382.96 113.55C382.69 113.61 382.52 113.98 382.69 114.22C383.46 115.34 383.12 117.08 381.89 117.73C380.63 118.4 378.93 117.58 378.54 116.25C378.45 115.93 378.02 115.8 377.78 116.05C377.03 116.81 376.28 117.58 375.53 118.35C375.36 118.52 375.34 118.85 375.53 119.01C376.65 119.96 376.96 121.75 376.09 122.98C375.22 124.2 373.41 124.49 372.16 123.73C371.89 123.56 371.56 123.73 371.46 124.01C371.03 125.3 370.69 126.62 370.47 127.96C370.42 128.27 370.679 128.7 371.049 128.54C372.389 127.98 373.73 129.07 373.68 130.47C373.63 132.06 372.13 132.98 370.66 132.96C370.35 132.96 370.19 133.24 370.24 133.52C370.35 134.2 370.469 134.89 370.579 135.57C370.689 136.19 370.76 136.82 371.06 137.38C371.06 137.62 371.34 137.86 371.6 137.81C372.02 137.72 372.409 137.55 372.829 137.47C373.249 137.39 373.7 137.38 374.12 137.43C374.94 137.53 375.78 137.89 375.95 138.78C376.22 140.13 375.36 141.73 373.96 141.97C373.69 142.01 373.55 142.4 373.7 142.61C374.09 143.17 374.52 143.71 374.99 144.21C375.32 144.56 375.83 145.1 376.32 145.29C376.45 145.57 376.819 145.74 377.079 145.44C377.999 144.42 379.639 143.2 381.019 144.2C382.309 145.14 381.94 146.93 381.2 148.08C381.05 148.32 381.2 148.66 381.46 148.72C382.56 149 383.7 149.38 384.85 149.43C385.08 149.59 385.469 149.55 385.579 149.2C385.909 148.16 386.789 147.39 387.829 147.12C388.869 146.86 390.649 147.24 390.549 148.63C390.519 149.08 390.21 149.7 390.92 149.81C391.2 149.85 391.56 149.75 391.84 149.7C392.18 149.64 392.53 149.57 392.87 149.49C393.21 149.41 393.55 149.33 393.89 149.23C394.11 149.16 394.45 149.1 394.59 148.9C394.72 148.71 394.71 148.44 394.63 148.18C394.73 148.08 394.8 147.93 394.76 147.74C394.53 146.55 395.19 145.2 396.39 144.83C397.6 144.46 398.91 145.15 399.41 146.28C399.55 146.59 399.95 146.55 400.17 146.38L402.64 144.38C402.89 144.18 402.78 143.77 402.54 143.63C401.24 142.85 400.77 140.95 401.63 139.68C402.5 138.39 404.44 138.17 405.66 139.06C405.92 139.25 406.239 139.04 406.329 138.79C406.759 137.6 407.11 136.38 407.4 135.15C407.49 134.78 407.179 134.54 406.829 134.58L406.85 134.55ZM388.359 142.28C382.739 142.28 378.19 137.64 378.19 131.92C378.19 126.2 382.749 121.56 388.359 121.56C393.969 121.56 398.53 126.2 398.53 131.92C398.53 137.64 393.969 142.28 388.359 142.28Z" fill="#AEDBD5"/>
<path d="M434.719 117.88C432.699 117.4 430.579 117.53 428.669 118.51C426.969 119.38 425.479 120.78 424.489 122.41C422.389 125.85 422.659 130.37 425.209 133.51C427.839 136.74 432.489 137.74 436.309 136.25C440.079 134.78 442.569 131.11 442.519 127.06C442.489 124.9 441.649 122.79 440.239 121.16C439.539 120.34 438.689 119.64 437.759 119.1C436.809 118.55 435.779 118.13 434.709 117.88H434.719Z" stroke="black" stroke-width="1.5" stroke-linecap="round" stroke-linejoin="round"/>
<path d="M321.95 160.41C321.46 158.46 320.42 156.71 319.01 155.31C321.87 151.57 322.77 146.32 321.07 141.9C319 136.51 313.22 132.78 307.46 133.11C305.77 127.46 300.51 123.06 294.65 122.4C288.79 121.73 282.68 124.84 279.76 129.96C279.48 127.53 277.29 125.62 274.9 125.11C272.51 124.6 270 125.26 267.82 126.36C262.59 128.99 261.89 130.74 260.48 139.8C252.19 142.65 250.81 149.42 252.96 155.43C255.1 161.44 263.05 164.53 268.69 161.56C268.69 166.17 271.84 170.62 276.19 172.16C279.62 173.38 283.59 172.69 286.55 170.6C286.64 171.03 286.76 171.46 286.93 171.86C287.63 173.5 289.12 174.85 290.74 175.56C296.48 178.09 301.18 172.45 305.53 179.17C307.15 181.67 307.75 184.68 308.18 187.63C310.15 186.32 311.23 183.95 311.5 181.6C311.76 179.24 311.31 176.87 310.76 174.56C314.58 172.92 316.76 174.28 319.74 170.31C321.85 167.5 322.81 163.87 321.95 160.42V160.41Z" fill="#E86746"/>
<path d="M314.089 157.44C315.309 157.59 316.589 157.23 317.549 156.46C318.199 155.94 318.779 155.2 319.599 155.09C319.049 156.14 316.769 157.03 315.589 157.15C314.409 157.27 313.129 157.32 312.229 158.08C311.449 158.73 311.129 159.8 311.149 160.81C311.169 161.82 311.479 162.8 311.789 163.77" stroke="black" stroke-width="1.5" stroke-linecap="round" stroke-linejoin="round"/>
<path d="M292.029 169.95C296.089 171.85 301.289 170.92 304.449 167.74" stroke="black" stroke-width="1.5" stroke-linecap="round" stroke-linejoin="round"/>
<path d="M273.529 156.29C273.779 159.71 276.079 162.89 279.229 164.22C282.389 165.55 286.269 164.95 288.879 162.74" stroke="black" stroke-width="1.5" stroke-linecap="round" stroke-linejoin="round"/>
<path d="M302.219 147.57C301.279 147.52 300.589 148.57 300.639 149.51C300.689 150.45 301.239 151.28 301.749 152.06C302.669 153.47 303.529 154.95 303.879 156.59C304.229 158.23 303.999 160.08 302.909 161.35C301.809 162.64 300.039 163.14 298.359 163.32" stroke="black" stroke-width="1.5" stroke-linecap="round" stroke-linejoin="round"/>
<path d="M291.1 145.66C293.27 142.73 296.98 141 300.63 141.21C304.28 141.42 307.75 143.59 309.56 146.76" stroke="black" stroke-width="1.5" stroke-linecap="round" stroke-linejoin="round"/>
<path d="M306.79 133.4C306.3 134.69 305.92 136.02 305.68 137.38" stroke="black" stroke-width="1.5" stroke-linecap="round" stroke-linejoin="round"/>
<path d="M283.3 132.07C284.75 131.95 286.29 131.85 287.57 132.55C289.37 133.53 290.06 135.76 291.49 137.23" stroke="black" stroke-width="1.5" stroke-linecap="round" stroke-linejoin="round"/>
<path d="M295.519 126.17C294.989 127.15 295.269 128.35 295.559 129.43C295.859 130.53 296.149 131.62 296.449 132.72C296.639 133.41 296.829 134.1 297.209 134.7C298.009 135.93 299.489 136.5 300.879 136.99" stroke="black" stroke-width="1.5" stroke-linecap="round" stroke-linejoin="round"/>
<path d="M311.069 141.32C312.469 141.48 313.629 142.53 314.309 143.76C314.989 144.99 315.259 146.4 315.519 147.78" stroke="black" stroke-width="1.5" stroke-linecap="round" stroke-linejoin="round"/>
<path d="M292.5 155.95C290.05 156.21 287.89 154.47 286.05 152.84C284.41 151.39 282.71 149.85 281.94 147.8C281.43 146.44 281.38 144.95 281.42 143.5C281.47 141.71 281.8 139.69 283.27 138.68" stroke="black" stroke-width="1.5" stroke-linecap="round" stroke-linejoin="round"/>
<path d="M275.629 148.33C274.289 147.85 272.909 147.37 271.489 147.33C270.059 147.29 268.549 147.75 267.649 148.85C266.909 149.76 266.669 150.98 266.569 152.15C266.459 153.32 266.459 154.52 266.079 155.64C265.699 156.76 264.859 157.8 263.699 158.02" stroke="black" stroke-width="1.5" stroke-linecap="round" stroke-linejoin="round"/>
<path d="M261.42 139.56C260.92 140.41 261.42 141.51 262.08 142.24C262.74 142.97 263.59 143.57 263.98 144.47" stroke="black" stroke-width="1.5" stroke-linecap="round" stroke-linejoin="round"/>
<path d="M272.389 129.27C269.999 130.25 268.169 132.8 268.559 135.35C268.729 136.41 269.239 137.39 269.809 138.31C270.289 139.1 270.829 139.87 271.549 140.45C272.689 141.37 274.169 141.71 275.599 142.03" stroke="black" stroke-width="1.5" stroke-linecap="round" stroke-linejoin="round"/>
<path d="M310.77 174.96C311.29 173.31 310.45 171.57 309.64 170.04" stroke="black" stroke-width="1.5" stroke-linecap="round" stroke-linejoin="round"/>
<path d="M427.14 276.83H387.32C384.36 276.83 382.13 274.46 382.34 271.54L387.95 194.54C388.16 191.62 390.74 189.25 393.7 189.25H433.52C436.48 189.25 438.71 191.62 438.5 194.54L432.89 271.54C432.68 274.46 430.1 276.83 427.14 276.83Z" fill="#E86746"/>
<path d="M424.439 273.15H391.039C388.559 273.15 386.689 270.98 386.869 268.3L391.579 197.77C391.759 195.09 393.919 192.92 396.399 192.92H429.799C432.279 192.92 434.149 195.09 433.969 197.77L429.259 268.3C429.079 270.98 426.919 273.15 424.439 273.15Z" fill="#F7D900"/>
<path d="M406.07 273.15H391.04" stroke="black" stroke-width="1.5" stroke-linecap="round" stroke-linejoin="round"/>
<path d="M431.91 228.67L429.26 268.31C429.08 270.99 426.92 273.16 424.44 273.16H412.59" stroke="black" stroke-width="1.5" stroke-linecap="round" stroke-linejoin="round"/>
<path d="M418.03 192.92H429.79C432.27 192.92 434.14 195.09 433.96 197.77L433.03 211.68" stroke="black" stroke-width="1.5" stroke-linecap="round" stroke-linejoin="round"/>
<path d="M391.58 197.77C391.76 195.09 393.92 192.92 396.4 192.92H406.43" stroke="black" stroke-width="1.5" stroke-linecap="round" stroke-linejoin="round"/>
<path d="M390.3 215.23L387.85 251.25" stroke="black" stroke-width="1.5" stroke-linecap="round" stroke-linejoin="round"/>
<path d="M409.75 205.12H425.81" stroke="black" stroke-width="1.5" stroke-linecap="round" stroke-linejoin="round"/>
<path d="M399.72 205.12H405.99" stroke="black" stroke-width="1.5" stroke-linecap="round" stroke-linejoin="round"/>
<path d="M409.72 210.74H425.45" stroke="black" stroke-width="1.5" stroke-linecap="round" stroke-linejoin="round"/>
<path d="M399.35 210.74H405.92" stroke="black" stroke-width="1.5" stroke-linecap="round" stroke-linejoin="round"/>
<path d="M396.45 251.53H422.55" stroke="black" stroke-width="1.5" stroke-linecap="round" stroke-linejoin="round"/>
<path d="M395.729 257.69H421.819" stroke="black" stroke-width="1.5" stroke-linecap="round" stroke-linejoin="round"/>
<path d="M215.256 87.1561C222.977 69.3811 214.827 48.7122 197.052 40.9907C179.277 33.2693 158.608 41.4194 150.887 59.1944C143.165 76.9694 151.315 97.6384 169.09 105.36C186.865 113.081 207.534 104.931 215.256 87.1561Z" stroke="black" stroke-width="1.5" stroke-linecap="round" stroke-linejoin="round"/>
<path d="M208.449 85.248C215.113 71.2324 209.154 54.4683 195.138 47.8042C181.123 41.1402 164.358 47.0997 157.694 61.1153C151.03 75.1308 156.99 91.895 171.005 98.559C185.021 105.223 201.785 99.2636 208.449 85.248Z" fill="#E86746"/>
<path d="M199.641 83.1781C205.163 74.0284 202.222 62.1349 193.072 56.6133C183.922 51.0916 172.029 54.0328 166.507 63.1825C160.985 72.3322 163.927 84.2257 173.076 89.7473C182.226 95.269 194.119 92.3278 199.641 83.1781Z" fill="#F7D900"/>
<path d="M193.605 76.9536C195.694 71.1374 192.673 64.7288 186.857 62.6394C181.04 60.55 174.632 63.5712 172.542 69.3874C170.453 75.2035 173.474 81.6122 179.29 83.7016C185.107 85.7909 191.515 82.7698 193.605 76.9536Z" fill="#E86746"/>
<path d="M182.88 52.79L180.94 74.8099C180.92 75.0199 181.11 75.19 181.31 75.15L202.27 71.53C202.58 71.48 202.64 71.0499 202.35 70.92L189.85 65.2699C189.78 65.2399 189.73 65.19 189.69 65.12L183.49 52.68C183.35 52.39 182.91 52.47 182.88 52.8V52.79Z" fill="#222221"/>
<path d="M186.9 63.67C189.81 60.61 208.42 39.74 213.4 34.2C213.89 33.65 214.74 33.61 215.29 34.11L218.28 36.82C218.83 37.32 218.87 38.18 218.36 38.72L191.29 67.63C190.94 67.99 190.38 68.02 190 67.69C189.18 66.97 187.81 65.75 186.96 65.01C186.56 64.66 186.54 64.06 186.9 63.68V63.67Z" fill="#222221"/>
<path d="M162.54 92.3499C159.34 88.9099 157.01 84.6899 155.85 80.1299" stroke="black" stroke-width="1.5" stroke-linecap="round" stroke-linejoin="round"/>
<path d="M189.771 100.4C185.451 101.44 180.891 101.47 176.561 100.47" stroke="black" stroke-width="1.5" stroke-linecap="round" stroke-linejoin="round"/>
<path d="M207.071 58.5396C214.641 71.0096 211.931 87.5395 198.891 96.3195" stroke="black" stroke-width="1.5" stroke-linecap="round" stroke-linejoin="round"/>
<path d="M176.12 45.9497C182.22 44.3897 188.74 44.9397 194.49 47.4997" stroke="black" stroke-width="1.5" stroke-linecap="round" stroke-linejoin="round"/>
<path d="M116.92 164.62C109.99 165.28 103.07 167.08 96.0799 166.13C95.5199 166.05 95.3599 165.33 95.5799 164.91C98.9199 158.7 102.78 152.5 107.35 146.97C107.59 146.68 107.48 146.24 107.13 146.11C101.38 143.95 94.7699 142.72 87.7399 142.72C65.4699 142.72 47.4199 155.03 47.4199 170.21C47.4199 185.39 65.4699 197.7 87.7399 197.7C110.01 197.7 128.06 185.39 128.06 170.21C128.06 168.02 127.67 165.88 126.96 163.84C123.61 164.18 120.21 164.3 116.91 164.61L116.92 164.62Z" fill="#AEDBD5"/>
<path d="M101.93 159.76C109.54 160.47 117.16 158.48 124.7 157.76C128.35 157.41 132.1 157.27 135.8 156.91C132.48 149.45 125.33 143.13 115.9 139.01C110.47 145.35 105.9 152.51 101.93 159.76Z" fill="#E86746"/>
<path d="M135.459 156.95C124.549 156.44 112.849 160.03 101.939 159.75" stroke="black" stroke-width="1.5" stroke-linecap="round" stroke-linejoin="round"/>
<path d="M47.4199 170.22C47.4199 185.4 65.4699 197.71 87.7399 197.71C110.01 197.71 128.06 185.4 128.06 170.22C128.06 168.03 127.67 165.89 126.96 163.85" stroke="black" stroke-width="1.5" stroke-linecap="round" stroke-linejoin="round"/>
<path d="M87.7398 142.73C65.4698 142.73 46.7798 154.95 46.7798 170.13C46.7798 185.31 65.5598 196.96 87.8298 196.96" fill="#AEDBD5"/>
<path d="M96.0698 166.13C95.6698 166.08 95.4098 165.21 95.5698 164.91C98.0698 160.26 99.7198 157.76 102.8 153C98.5198 151.32 93.0198 150.35 87.7298 150.35C71.6298 150.35 58.5898 159.25 58.5898 170.22C58.5898 181.19 71.6398 190.09 87.7298 190.09C103.82 190.09 116.87 181.19 116.87 170.22C116.87 168.63 116.29 166.2 115.77 164.72C113.35 164.97 101.11 166.82 96.0598 166.13H96.0698Z" fill="#4D9299"/>
<path d="M63.06 159.74C59.1 163.46 57.57 169.55 59.29 174.7" stroke="black" stroke-width="1.5" stroke-linecap="round" stroke-linejoin="round"/>
<path d="M84.3696 189.73C91.2896 190.01 98.2796 188.67 104.61 185.85" stroke="black" stroke-width="1.5" stroke-linecap="round" stroke-linejoin="round"/>
<path d="M111.01 181.76C113.01 180.47 114.42 178.32 114.82 175.98" stroke="black" stroke-width="1.5" stroke-linecap="round" stroke-linejoin="round"/>
<mask id="mask0_574_1463" style="mask-type:luminance" maskUnits="userSpaceOnUse" x="0" y="0" width="500" height="500">
<path d="M500 0H0V500H500V0Z" fill="white"/>
</mask>
<g mask="url(#mask0_574_1463)">
<path d="M188.09 237.9C187.93 239.09 188.22 240.33 189.01 241.24C189.5 241.81 183.36 246.87 182.72 247.32C180.46 248.93 178.15 250.99 175.14 250.24C172.24 249.52 170.56 246.58 169.21 243.91C167.63 240.77 166.01 237.53 165.78 234.02C165.53 230.3 166.87 226.67 168.47 223.3C169.79 220.53 171.54 216.59 174.37 215.11C176.1 214.2 178.21 213.84 180.15 213.88C181.14 213.9 182.14 214.03 183.1 214.27C183.63 214.4 184.25 214.64 184.73 214.89C185.72 215.41 185.32 215.5 184.84 216.47C184.01 218.16 183.88 220.2 184.51 221.98C185.3 224.18 187.25 225.92 189.52 226.45C188.55 227.45 187.52 228.55 187.32 229.93C187.05 231.85 188.43 233.57 189.73 235.01C188.8 235.68 188.23 236.76 188.08 237.9H188.09Z" stroke="black" stroke-width="1.5" stroke-linecap="round" stroke-linejoin="round"/>
<path d="M338.189 376.45C338.879 361.85 338.969 346.38 341.869 332.06C344.459 319.25 351.959 308.83 358.249 297.63C358.419 297.34 358.579 297.02 358.569 296.68C358.539 295.86 357.559 295.47 356.749 295.3C348.989 293.66 341.089 292.77 333.209 291.88C322.589 290.69 311.959 289.49 301.339 288.3C292.639 287.32 284.249 285.38 275.429 284.77C258.579 283.61 217.889 287.68 202.819 296.11C191.159 302.64 207.839 313.01 204.269 325.89C195.549 357.34 194.949 390.4 194.639 423.04C194.379 450.22 194.269 477.41 194.319 504.6C194.309 497.48 256.429 504.97 261.619 505.47C276.999 506.95 292.369 508.67 307.779 509.77C314.759 510.27 319.089 511.09 324.499 506.5C332.199 499.96 342.879 524.81 344.349 515.3C346.149 503.68 338.389 453.86 337.929 442.1C337.069 420.22 337.149 398.3 338.179 376.43L338.189 376.45Z" fill="#4D9299"/>
<path d="M290.039 427.69C284.419 427.63 284.319 436.37 289.949 436.42C295.569 436.48 295.669 427.74 290.039 427.69Z" stroke="black" stroke-width="1.5" stroke-miterlimit="10"/>
<path d="M218.039 448.6C217.689 447.24 216.849 446.25 215.719 445.47C214.819 444.85 213.389 444.72 212.359 445C211.339 445.27 210.239 446.04 209.729 446.98C209.459 447.47 209.259 448.01 209.169 448.57C208.889 448.97 208.669 449.4 208.569 449.83C208.299 450.95 208.349 452.2 208.979 453.2C209.199 453.5 209.429 453.79 209.649 454.09C210.189 454.64 210.829 455.02 211.569 455.23C212.629 455.39 213.109 455.53 214.169 455.26C214.639 455.14 215.109 454.95 215.529 454.7C216.709 454.01 217.519 452.89 217.949 451.61C218.269 450.66 218.299 449.56 218.059 448.59L218.039 448.6Z" stroke="black" stroke-width="1.5" stroke-miterlimit="10"/>
<path d="M244.709 424.14C239.089 424.08 238.989 432.82 244.619 432.87C250.239 432.93 250.339 424.19 244.709 424.14Z" stroke="black" stroke-width="1.5" stroke-miterlimit="10"/>
<path d="M258.949 457.98C257.109 454.98 252.679 453.79 249.909 456.22C247.389 458.43 245.479 463.73 248.519 466.35C249.859 467.51 251.399 468.28 253.219 468.27C254.959 468.26 256.479 467.64 257.809 466.55C260.309 464.5 260.589 460.65 258.959 457.99L258.949 457.98Z" stroke="black" stroke-width="1.5" stroke-miterlimit="10"/>
<path d="M293.56 459.43C292.4 459.49 291.31 459.85 290.46 460.68C289.73 461.39 289.18 462.54 289.16 463.58C289.12 463.82 289.1 464.06 289.11 464.3L289.18 465.7C289.24 466.81 289.58 468.01 290.43 468.8C291.28 469.6 292.32 470.08 293.51 470.11C295.27 470.15 296.97 469.22 297.88 467.72C298.43 466.82 298.69 465.85 298.71 464.8C298.76 462.04 296.48 459.28 293.57 459.43H293.56Z" stroke="black" stroke-width="1.5" stroke-miterlimit="10"/>
<path d="M328.129 445.28C328.109 444.7 327.939 444.16 327.629 443.65C327.409 443.35 327.179 443.06 326.959 442.76C326.419 442.21 325.779 441.83 325.039 441.62C324.649 441.56 324.269 441.51 323.879 441.45C323.089 441.45 322.349 441.64 321.669 442.02C321.459 442.17 321.259 442.32 321.049 442.47C320.539 442.74 320.129 443.11 319.809 443.58C319.419 444 319.149 444.49 319.009 445.06C318.819 445.64 318.789 446.22 318.909 446.8C318.929 447.38 319.099 447.92 319.409 448.43C319.629 448.73 319.859 449.02 320.079 449.32C320.619 449.87 321.259 450.25 321.999 450.46C322.389 450.52 322.769 450.57 323.159 450.63C323.949 450.63 324.689 450.44 325.369 450.06C325.579 449.91 325.779 449.76 325.989 449.61C326.499 449.34 326.909 448.97 327.229 448.5C327.619 448.08 327.889 447.59 328.029 447.02C328.219 446.44 328.249 445.86 328.129 445.28Z" stroke="black" stroke-width="1.5" stroke-miterlimit="10"/>
<path d="M274.459 405.36C271.339 405.48 268.219 405.82 265.099 405.83C264.739 406.26 264.459 406.74 264.369 407.27C264.179 408.41 264.129 409.09 264.319 410.22C264.419 410.84 264.679 411.47 264.979 412.03C265.719 413.42 267.049 414.53 268.549 415.01C271.619 415.99 275.179 414.08 275.989 410.92C276.479 409.01 276.049 407.12 274.759 405.64C274.669 405.54 274.559 405.46 274.459 405.36Z" stroke="black" stroke-width="1.5" stroke-miterlimit="10"/>
<path d="M214.89 483.33C213.24 479.3 208.02 478.06 204.82 481.12C203.84 482.06 203.37 483.28 203.29 484.55C202.73 485.25 202.39 486.11 202.47 487.07C202.65 489.17 203.49 490.86 205.34 491.95C206.8 492.81 208.76 492.97 210.37 492.51C214.19 491.41 216.41 487.05 214.88 483.33H214.89Z" stroke="black" stroke-width="1.5" stroke-miterlimit="10"/>
<path d="M262.71 491.34C262.48 490.64 262.14 489.97 261.72 489.37C261.7 489.34 261.68 489.32 261.67 489.29C261.12 488.53 260.43 487.87 259.59 487.4C254.55 484.59 250.02 490.72 252.43 495.17C252.75 495.77 253.19 496.34 253.69 496.8C254.98 497.99 256.65 498.75 258.43 498.7C259.42 498.67 260.3 498.39 261.09 497.79C261.9 497.18 262.3 496.48 262.68 495.54C263.18 494.27 263.13 492.61 262.71 491.33V491.34Z" stroke="black" stroke-width="1.5" stroke-miterlimit="10"/>
<path d="M320.53 490.22C320.05 488.27 318.36 486.62 316.45 486.11C312.26 484.99 308.7 489.11 309 493.09C309.09 494.27 309.4 495.32 310.25 496.19C314.28 500.31 321.86 495.63 320.53 490.22Z" stroke="black" stroke-width="1.5" stroke-miterlimit="10"/>
<path d="M215.279 415.16C215.179 415.11 215.069 415.07 214.959 415.02C214.929 415.01 214.899 415 214.879 414.99C214.229 415.37 213.599 415.72 213.039 416.06C210.189 417.79 207.039 418.95 203.889 420.03C203.559 421.96 204.139 424.12 205.489 425.52C208.669 428.81 213.969 427.79 216.469 424.26C218.459 421.46 218.759 416.82 215.269 415.16H215.279Z" stroke="black" stroke-width="1.5" stroke-miterlimit="10"/>
<path d="M245.309 201.89C241.489 203.11 237.739 204.75 235.259 207.47C233.379 209.54 232.299 212.2 231.389 214.85C227.269 226.89 225.959 239.89 227.569 252.51C228.129 256.86 229.109 261.37 231.919 264.74C232.879 265.89 235.149 266.54 236.539 267.11C240.169 268.6 244.369 268.41 248.219 268.48C247.119 268.46 248.829 279.7 248.769 280.56C248.509 284.1 244.699 286.89 241.249 286.55C245.339 292.54 250.809 297.77 257.509 300.56C264.209 303.35 272.199 303.47 278.529 299.91C281.429 298.21 283.929 295.92 286.589 293.87C289.479 291.64 292.399 289.46 295.349 287.31C292.909 286.65 291.479 284.07 290.979 281.59C290.129 277.3 290.139 272.85 290.019 268.5C289.899 263.92 289.749 259.34 289.639 254.76C289.319 242.04 289.209 229.29 290.239 216.59C290.639 211.62 290.199 206 286.599 202.55C283.889 199.95 279.899 199.29 276.159 198.89C268.179 198.03 259.989 197.8 252.249 199.94C250.109 200.53 247.689 201.13 245.299 201.89H245.309Z" fill="white"/>
<path d="M183.38 237.36C183.31 237.25 183.24 237.14 183.18 237.02C181.81 234.63 181.87 231.5 183.31 229.16C182.19 228.61 181.36 227.6 180.75 226.51C179.84 224.87 179.36 222.94 179.69 221.1C180.26 217.94 183.35 216.08 186.25 215.34C180.44 207.85 170.37 204.1 160.95 206.04C152.46 207.79 143.78 203.95 135.19 206.68C128.86 208.7 123.04 213.46 121.4 219.9C120.23 224.5 121.28 229.43 123.31 233.72C124.65 236.54 126.13 239.2 127.48 242.05C128.92 245.09 130.73 247.96 132.86 250.56C135.25 253.49 137.92 256.27 141.08 258.32C147.48 262.49 154.23 263.59 161.78 262.3C162.84 262.12 163.89 261.91 164.94 261.67C170.53 260.39 176.06 258.26 180.64 254.76C182.76 253.14 184.98 251.09 186.35 248.77C187.68 246.51 190.06 243.62 190.03 240.89C187.41 240.95 184.81 239.56 183.38 237.36Z" fill="#E86746"/>
<path d="M223.14 290.04C218.4 290.51 213.67 291.16 209.05 292.33C186.81 297.97 168.41 322.47 153.8 339C147.51 346.12 141.57 353.5 135.69 360.95C131.58 366.15 124.42 368.82 121.29 374.52C132.1 345.19 146.72 316.51 151.4 285.31C151.97 281.54 152.5 277.77 153.04 273.99C153.24 272.58 153.84 271.39 153.24 270.03C152.72 268.85 151.64 267.88 150.52 267.27C148.85 266.36 146.92 266.07 145.03 265.84C135.46 264.69 125.72 264.95 116.21 266.56C111.51 267.36 106.86 268.48 102.32 269.94C100.54 270.51 98.5598 270.87 96.8398 271.51C95.0198 272.19 93.3598 274.08 92.1898 275.57C81.6298 288.96 72.8698 302.77 66.2498 318.66C59.8298 334.09 53.9198 349.97 51.1798 366.52C48.6598 381.7 45.3798 397.07 47.8998 412.56C49.5798 422.95 53.9998 433.03 61.2698 440.64C68.5398 448.25 78.7698 453.21 89.2998 453.22C98.4398 453.22 107.17 449.65 115.43 445.73C131.86 437.94 147.53 428.55 162.16 417.77C177.27 406.64 190.29 393.89 205.88 383.47C210.48 380.4 215.13 377.28 218.77 373.13C221.43 370.1 223.67 366.45 225.58 362.41C225.92 362.18 226.26 361.95 226.6 361.72C227.61 361.04 227.55 359.96 226.99 359.2C232.89 344.9 235.25 326.78 237.56 313.52C239.39 303.02 241.89 289.14 242.51 289.15C236.04 289.09 229.57 289.38 223.13 290.01L223.14 290.04Z" fill="#4D9299"/>
<path d="M145.19 275.9C145.02 276.07 143.48 276.75 143.28 276.91C141.46 278.36 137.54 278.17 135.24 278.55C130.57 279.32 127.78 278.75 122.73 278.32C119.87 278.08 116.73 277.17 114.8 275.07C112.77 272.86 111.98 269.82 111.26 266.9C110.28 262.93 109.33 258.95 108.45 254.95C107.71 251.6 107.03 248.2 107.12 244.77C107.25 240.04 108.9 235.35 111.81 231.62C113.28 229.74 115.04 228.11 116.8 226.51C119.44 224.12 122.12 221.76 125.06 219.76C128.29 217.57 131.83 215.82 135.54 214.59C137.54 213.93 139.76 213.42 141.72 214.17C143.69 214.93 145.08 217.45 143.96 219.23C145.59 218.96 147.26 218.7 148.87 219.06C150.48 219.43 152.02 220.59 152.32 222.21C152.61 223.8 151.64 225.4 150.32 226.33C149 227.26 147.39 227.65 145.82 228.03C148.58 227.14 151.54 226.89 154.4 227.31C155.98 227.54 157.63 228.03 158.67 229.24C161.34 232.35 156.72 236.72 153.99 237.8C150.11 239.34 145.68 239.06 141.82 240.64C139.39 241.63 137.32 243.31 135.31 244.99C135.05 245.21 134.77 245.45 134.67 245.77C134.23 247.2 136.77 247.14 138.03 246.33C143.76 242.62 150.74 240.88 157.54 241.44C159.25 241.58 161.11 241.95 162.22 243.26C164.16 245.55 162.52 249.29 159.93 250.79C157.34 252.29 154.19 252.33 151.25 252.86C148.3 253.39 145.11 254.76 144.11 257.58C142.24 262.83 149.67 271.46 145.21 275.88L145.19 275.9Z" fill="white"/>
<path d="M247.3 269C251.8 268.07 255.81 265.04 257.94 260.97" stroke="black" stroke-width="1.5" stroke-miterlimit="10"/>
<path d="M238.089 228.19C237.929 231.51 237.629 235.16 235.299 237.54C234.529 238.32 233.549 238.96 233.119 239.97C232.499 241.41 233.429 243.29 234.949 243.67" stroke="black" stroke-width="1.5" stroke-miterlimit="10"/>
<path d="M229.729 250.12C230.059 253.57 233.509 256.4 236.949 256.06C240.399 255.72 243.22 252.27 242.88 248.83" fill="#1B1D1C"/>
<path d="M294.419 217.83C294.699 210.81 291.209 204.79 285.169 201.24C280.349 198.41 274.759 195.73 269.259 194.96C262.239 193.98 255.679 191.28 248.589 190.62C247.539 190.52 246.439 190.46 245.479 190.89C244.169 191.48 243.399 192.91 243.209 194.33C243.019 195.75 243.299 197.19 243.589 198.6C241.389 197.54 238.909 197.09 236.479 197.3C235.719 197.37 234.929 197.51 234.339 198C233.309 198.85 233.259 200.45 233.669 201.72C234.079 202.99 234.849 204.14 235.189 205.43C233.399 205.78 231.599 206.14 229.809 206.49C227.469 206.95 224.599 207.98 224.429 210.36C224.339 211.66 225.189 212.88 226.279 213.59C227.369 214.3 228.669 214.6 229.939 214.89C233.559 215.71 237.259 216.17 240.889 216.94C242.409 217.26 244.029 217.48 245.509 217.84C246.409 218.06 249.119 219.62 249.909 219.33C248.929 219.68 248.729 221.09 249.289 221.97C249.849 222.85 250.869 223.29 251.849 223.64C254.499 224.58 257.259 225.15 260.009 225.71C259.749 227.51 259.879 229.37 260.389 231.12C260.569 231.73 260.809 232.36 261.279 232.79C261.749 233.22 262.509 233.4 263.039 233.04C263.289 232.87 263.519 232.58 263.829 232.61C264.049 232.63 264.219 232.83 264.349 233.01C265.189 234.18 265.439 236.02 265.819 237.37C266.109 238.42 266.599 239.58 266.719 240.66C266.819 241.57 266.379 242.44 266.459 243.05C266.509 243.43 266.829 243.71 267.139 243.94C273.379 248.59 282.709 245.54 289.629 249.11C291.159 240.62 292.059 231.99 293.699 223.59C294.069 221.7 294.349 219.76 294.419 217.82V217.83Z" fill="#1B1D1C"/>
<path d="M262.7 232.62C263.25 231.24 264.58 230.28 266.01 229.86C267.44 229.44 268.96 229.5 270.44 229.66C271.16 229.74 271.89 229.84 272.53 230.16C273.3 230.54 273.9 231.21 274.36 231.95C276.12 234.8 275.66 238.82 273.31 241.2C270.96 243.58 266.94 244.09 264.07 242.36" fill="white"/>
<path d="M269.37 232.83C267.55 233.05 265.94 234.48 265.52 236.27" stroke="black" stroke-width="1.5" stroke-miterlimit="10"/>
<path d="M231.73 229.84C231.67 229.66 231.57 229.5 231.43 229.36C231.3 229.21 231.14 229.11 230.96 229.05C230.78 228.96 230.59 228.91 230.39 228.92C230.26 228.94 230.13 228.95 229.99 228.97C229.74 229.04 229.52 229.16 229.33 229.35C229.25 229.45 229.17 229.55 229.1 229.65C228.96 229.88 228.89 230.13 228.89 230.4V230.5C228.88 230.7 228.92 230.9 229.01 231.07C229.07 231.25 229.17 231.41 229.31 231.55C229.44 231.7 229.6 231.8 229.78 231.86C229.96 231.95 230.15 232 230.35 231.99C230.48 231.97 230.61 231.96 230.75 231.94C231 231.87 231.22 231.75 231.41 231.56C231.49 231.46 231.57 231.36 231.65 231.26C231.79 231.03 231.86 230.78 231.86 230.51V230.41C231.87 230.21 231.83 230.01 231.74 229.84H231.73Z" fill="black"/>
<path d="M247.61 229.92C245.7 229.9 245.67 232.87 247.58 232.89C249.49 232.91 249.52 229.94 247.61 229.92Z" fill="black"/>
<path d="M295.55 290.33C315.78 291.66 335.98 293.39 356.17 295.12C376.42 296.86 400.1 306.34 417.19 317.34C447.33 336.75 459.28 354.38 461.71 389.65C463.92 421.79 467.85 480.7 463.66 512.66C462.97 517.74 454.21 517.55 450.64 517.62C434.91 517.92 419.18 517.81 403.46 517.29C403.7 489.44 402.21 435.08 402.45 407.23C402.67 381 382.18 369.76 360.13 364.51C345.65 361.07 331.44 356.51 317.66 350.9C313.64 349.26 309.52 347.44 306.66 344.18C303.06 340.08 302.02 334.4 301.12 329.03C299.12 317.13 297.55 302.24 295.55 290.34V290.33Z" fill="#4D9299"/>
<path d="M155.9 271.14C149.6 275.93 141.64 278.22 133.74 278.62C125.84 279.03 117.94 277.64 110.27 275.66C106.89 274.79 103.11 273.74 99.71 272.94" stroke="black" stroke-width="1.5" stroke-miterlimit="10"/>
<path d="M149.92 227.3C145.35 228.38 140.72 229.48 136.56 231.66C132.4 233.84 128.68 237.25 127.13 241.68" stroke="black" stroke-width="1.5" stroke-miterlimit="10"/>
<path d="M143.58 219.04C138.59 220.45 133.58 222.05 129.2 224.83C124.82 227.61 121.08 231.69 119.69 236.69" stroke="black" stroke-width="1.5" stroke-miterlimit="10"/>
<path d="M339.26 369.66C336.89 363.72 333.63 358.13 329.62 353.15" stroke="black" stroke-width="1.5" stroke-miterlimit="10"/>
<path d="M194.66 402.91C194.08 390.88 193.5 378.85 192.92 366.81" stroke="black" stroke-width="1.5" stroke-miterlimit="10"/>
<path d="M245.58 285.15C243.55 286.47 241.14 287.19 238.72 287.18" stroke="black" stroke-width="1.5" stroke-miterlimit="10"/>
<path d="M295.57 287.5C291.9 289.99 288.35 292.68 284.95 295.54C282.43 297.66 279.95 299.9 277.02 301.42C269.79 305.16 258.64 301.91 251.55 297.91" stroke="black" stroke-width="1.5" stroke-miterlimit="10"/>
<path d="M224.53 289.12C225.58 298.63 225.45 308.23 225.32 317.8C224.96 345.1 224.6 372.41 224.24 399.71C224.15 406.46 219.48 412.47 213.74 416.01C208 419.55 201.27 421.06 194.68 422.52" stroke="black" stroke-width="1.5" stroke-miterlimit="10"/>
<path d="M311.48 288.84C310.75 321.27 310.59 356.62 311.04 389.05C311.1 392.98 311.18 397.03 312.75 400.64C316.53 409.35 328.08 413.36 337.36 415.37" stroke="black" stroke-width="1.5" stroke-miterlimit="10"/>
<path d="M305.4 288.07C304.04 326.81 302.13 365.53 299.67 404.21L299.11 406.61C277.2 404.42 258.65 406.38 235.13 406.86H233.58C233.18 397.77 232.95 389.4 232.55 380.31C232.23 372.99 231.91 365.67 232.22 358.35C232.53 351.05 233.48 343.79 233.93 336.49C234.45 328.01 234.31 319.5 234.17 311.01C234.04 303.01 233.9 295 233.77 287" stroke="black" stroke-width="1.5" stroke-miterlimit="10"/>
<path d="M234.78 344.21C235.15 344.23 235.55 344.26 235.84 344.48C236.09 344.67 236.23 344.98 236.33 345.28C236.86 346.83 236.81 348.5 236.73 350.13C236.57 353.34 236.32 356.55 235.98 359.74C235.86 360.84 235.63 362.1 234.67 362.65C234.2 362.92 233.64 362.96 233.09 362.98C229.42 363.15 225.73 362.95 222.1 362.41C221.63 362.34 221.15 362.26 220.77 361.97C220.23 361.56 220.04 360.83 219.92 360.16C219.02 355.5 218.97 350.69 219.76 346.01C220.21 343.33 223.68 344.11 225.71 344.07C228.73 344.02 231.76 344.07 234.78 344.21Z" fill="#4D9299"/>
<path d="M237.12 351.05C231.11 351 225.1 350.96 219.08 350.91" stroke="black" stroke-width="1.5" stroke-miterlimit="10"/>
<path d="M226.76 351.03C227.4 353.12 227.13 355.34 227.08 357.52C227.06 358.22 227.16 359.05 227.8 359.37C228.39 359.66 229.14 359.3 229.49 358.76C229.84 358.22 229.9 357.56 229.98 356.92C230.19 355.02 230.58 353.13 230.97 351.25" stroke="black" stroke-width="1.5" stroke-miterlimit="10"/>
<path d="M313.77 343.64C314.14 343.66 314.54 343.69 314.83 343.91C315.08 344.1 315.22 344.41 315.32 344.71C315.85 346.26 315.8 347.93 315.72 349.56C315.56 352.77 315.31 355.98 314.97 359.17C314.85 360.27 314.62 361.53 313.66 362.08C313.19 362.35 312.63 362.39 312.08 362.41C308.41 362.58 304.72 362.39 301.09 361.84C300.62 361.77 300.14 361.69 299.76 361.4C299.22 360.99 299.03 360.26 298.91 359.59C298.02 354.93 297.96 350.12 298.75 345.44C299.2 342.76 302.67 343.54 304.7 343.5C307.72 343.45 310.75 343.5 313.77 343.64Z" fill="#4D9299"/>
<path d="M306 350.19C305.97 352.47 305.94 354.74 305.91 357.02C305.91 357.59 306 358.31 306.54 358.47C306.9 358.58 307.3 358.35 307.51 358.03C307.71 357.71 307.77 357.32 307.82 356.94C308.11 354.84 308.4 352.74 308.68 350.64" stroke="black" stroke-width="1.5" stroke-miterlimit="10"/>
<path d="M298.12 350.34C298.68 350.68 299.38 350.7 300.04 350.7C304.89 350.73 309.73 350.76 314.58 350.79C314.91 350.79 315.24 350.79 315.57 350.81" stroke="black" stroke-width="1.5" stroke-miterlimit="10"/>
<path d="M313.77 343.64C314.14 343.66 314.54 343.69 314.83 343.91C315.08 344.1 315.22 344.41 315.32 344.71C315.85 346.26 315.8 347.93 315.72 349.56C315.56 352.77 315.31 355.98 314.97 359.17C314.85 360.27 314.62 361.53 313.66 362.08C313.19 362.35 312.63 362.39 312.08 362.41C308.41 362.58 304.72 362.39 301.09 361.84C300.62 361.77 300.14 361.69 299.76 361.4C299.22 360.99 299.03 360.26 298.91 359.59C298.02 354.93 297.96 350.12 298.75 345.44C299.2 342.76 302.67 343.54 304.7 343.5C307.72 343.45 310.75 343.5 313.77 343.64Z" stroke="black" stroke-width="1.5" stroke-miterlimit="10"/>
<path d="M447.59 354.05C449.96 354.75 451.56 357.42 451.05 359.84" stroke="black" stroke-width="1.5" stroke-miterlimit="10"/>
<path d="M125.55 371.68C119.71 379.52 112.13 386.06 103.51 390.67" stroke="black" stroke-width="1.5" stroke-miterlimit="10"/>
<path d="M75.9199 438.41C78.4799 440.08 81.2499 441.43 84.1399 442.44" stroke="black" stroke-width="1.5" stroke-miterlimit="10"/>
<path d="M149.33 208.63C153.39 210.96 158.63 211.08 162.79 208.94" stroke="black" stroke-width="1.5" stroke-miterlimit="10"/>
<path d="M163.64 192.19C161.11 194.17 159.26 196.93 158.04 199.9C156.82 202.87 156 207.22 155.65 210.41" stroke="black" stroke-width="1.5" stroke-miterlimit="10"/>
<path d="M180.63 247.3C177.86 249.63 175.18 252.06 172.59 254.58" stroke="black" stroke-width="1.5" stroke-linecap="round" stroke-linejoin="round"/>
<path d="M157.78 258.63C159.69 258.5 161.61 258.37 163.52 258.24" stroke="black" stroke-width="1.5" stroke-linecap="round" stroke-linejoin="round"/>
<path d="M146.96 253.97C145.37 254.37 144.33 255.99 144.12 257.61C143.91 259.23 144.36 260.86 144.84 262.42" stroke="black" stroke-width="1.5" stroke-linecap="round" stroke-linejoin="round"/>
<path d="M135.48 245.67C134.7 246.49 134.15 247.51 133.88 248.61" stroke="black" stroke-width="1.5" stroke-linecap="round" stroke-linejoin="round"/>
<path d="M77.35 298.47C77.08 298.41 76.8 298.35 76.53 298.28C74.01 304.14 73.3 310.77 74.51 317.04" stroke="black" stroke-width="1.5" stroke-linecap="round" stroke-linejoin="round"/>
<path d="M73.5 348.48C77.63 347.08 81.64 345.34 85.49 343.3" stroke="black" stroke-width="1.5" stroke-linecap="round" stroke-linejoin="round"/>
<path d="M137.59 332.92C137.02 333.57 136.34 334.12 135.57 334.52" stroke="black" stroke-width="1.5" stroke-linecap="round" stroke-linejoin="round"/>
<path d="M399 388.67C398.89 388.69 398.79 388.72 398.68 388.74C399.7 390.96 400.73 393.18 401.75 395.41" stroke="black" stroke-width="1.5" stroke-linecap="round" stroke-linejoin="round"/>
<path d="M402.97 407.25C402.73 411.67 402.49 416.1 402.25 420.52" stroke="black" stroke-width="1.5" stroke-linecap="round" stroke-linejoin="round"/>
<path d="M459.41 439.3C458.74 439.92 458.13 440.6 457.52 441.28C453.46 445.84 449.39 450.4 445.33 454.96" stroke="black" stroke-width="1.5" stroke-linecap="round" stroke-linejoin="round"/>
<path d="M447.68 425.61C447.06 430.09 446.45 434.57 445.83 439.04" stroke="black" stroke-width="1.5" stroke-linecap="round" stroke-linejoin="round"/>
<path d="M351.04 293.85C356.88 296.58 362.11 300.62 366.22 305.6" stroke="black" stroke-width="1.5" stroke-linecap="round" stroke-linejoin="round"/>
<path d="M234.779 344.21C235.149 344.23 235.549 344.26 235.839 344.48C236.089 344.67 236.229 344.98 236.329 345.28C236.859 346.83 236.809 348.5 236.729 350.13C236.569 353.34 236.319 356.55 235.979 359.74C235.859 360.84 235.629 362.1 234.669 362.65C234.199 362.92 233.639 362.96 233.089 362.98C229.419 363.15 225.729 362.95 222.099 362.41C221.629 362.34 221.149 362.26 220.769 361.97C220.229 361.56 220.039 360.83 219.919 360.16C219.019 355.5 218.969 350.69 219.759 346.01C220.209 343.33 223.679 344.11 225.709 344.07C228.729 344.02 231.759 344.07 234.779 344.21Z" stroke="black" stroke-width="1.5" stroke-miterlimit="10"/>
</g>
</svg>
