<svg width="466" height="410" viewBox="0 0 466 410" fill="none" xmlns="http://www.w3.org/2000/svg">
<path d="M386.53 380.41C394.82 367.73 406.24 329.25 408.24 323.83C427.03 273.1 467.13 168.71 399.71 136.21C362.53 118.3 318.09 131.87 278.85 128.41C251.84 126.03 224.19 118.09 204.91 97.4799C189.19 80.6799 179.07 57.9498 161.2 43.9798C123.44 14.4598 72.8401 44.7198 48.9501 77.7498C19.2401 118.84 11.9301 183.7 17.3601 232.5C19.1901 248.91 23.6101 266.77 37.1301 276.24C56.3801 289.73 82.9301 279.46 102.9 267.08C110.97 262.08 119.38 256.58 128.87 256.28C138.36 255.98 148.78 263.47 147.62 272.89C146.68 280.55 139.15 285.37 132.39 289.1C117.7 297.21 103.01 305.31 88.3101 313.42C75.1301 320.69 61.5101 328.34 52.6601 340.53C42.1801 354.96 35.7701 376.07 54.4901 380.4C61.8401 382.1 71.6701 380.4 79.2001 380.4H386.52L386.53 380.41Z" fill="#B4E8E8"/>
<path d="M179.04 186.29H138.72C122.06 186.29 108.43 173.9 108.43 158.75C108.43 143.6 122.06 131.21 138.72 131.21H179.04C195.7 131.21 209.33 143.6 209.33 158.75C209.33 173.9 195.7 186.29 179.04 186.29Z" fill="#252222"/>
<path d="M179.78 130.96H139.66C133.8 130.96 128.31 132.38 123.59 134.84C125.63 152.33 131.99 169.57 138.46 186.27C138.86 186.28 139.26 186.3 139.66 186.3H179.78C197.16 186.3 211.38 173.85 211.38 158.63C211.84 143.99 198.38 132.5 179.78 130.96Z" fill="#B1A3B9"/>
<path d="M163.28 173.18V214.27" stroke="#252222" stroke-width="2.07" stroke-linecap="round" stroke-linejoin="round"/>
<path d="M301.43 379.49H93.9002L77.8502 341.73L53.7202 284.94L32.8202 235.77C24.7702 216.82 40.3302 196.49 63.0502 196.3L200.24 195.15C213.92 195.05 226.23 202.55 231.08 213.96L236.92 227.69V227.71L237.75 229.67L239.49 233.76L254.55 269.21L255.17 270.66L258.97 279.6L262.62 288.18L267.03 298.58L301.42 379.49H301.43Z" fill="#B1A3B9"/>
<path d="M64.5303 219.91C85.3203 271.48 105 323.8 125.77 375.23" stroke="#161616" stroke-width="1.35" stroke-linecap="round" stroke-linejoin="round"/>
<path d="M67.94 358.7V358.74C67.91 358.79 67.91 358.78 67.94 358.7Z" fill="#161616"/>
<path d="M195.31 278.5C168.96 285.52 141.32 294.72 117.43 307.87C103.61 315.48 90.0102 324.35 80.7502 337.12C80.5202 337.44 79.2502 339.53 77.8502 341.74L53.7202 284.95C60.6602 272.78 75.9502 264.12 85.5302 261.95C99.3402 258.82 114.47 264.01 124.25 274.26C128.71 265.21 140.06 261.11 149.57 257.71C154.15 256.07 158.95 254.76 163.82 254.91C177.51 255.32 188.19 266.82 195.32 278.51L195.31 278.5Z" fill="#161616"/>
<path d="M350.3 369.21L424.81 350.05L377.8 299.97L313.58 290.82L350.3 369.21Z" fill="#AEC3C9"/>
<path d="M121.62 381.06L355.78 380.44C355.26 360.56 353.98 344.34 347.34 325.59C340.69 306.84 327.99 289.45 309.9 281.2C304.83 278.89 299.44 277.33 294.49 274.78C278.09 266.33 267.3 245.87 270.79 227.75H215.16C216.77 243.71 208.29 260.24 194.39 268.24C183.58 274.46 170.55 275.59 159.29 280.93C142.13 289.07 130.75 306.38 125.34 324.59C123.63 330.35 122.44 336.22 121.61 342.16C121.61 342.16 121.61 342.16 121.61 342.17C121.41 343.63 121.23 345.1 121.06 346.57C121.02 346.89 120.99 347.21 120.96 347.52C120.82 348.81 120.7 350.1 120.59 351.39C120.57 351.59 120.55 351.8 120.54 352C120.42 353.52 120.31 355.04 120.22 356.56C120.21 356.73 120.2 356.89 120.19 357.06C120.11 358.4 120.05 359.73 119.99 361.07C119.98 361.4 119.96 361.73 119.95 362.06C119.89 363.44 119.85 364.81 119.81 366.19C119.81 366.29 119.81 366.4 119.81 366.5C119.77 368.01 119.74 369.53 119.71 371.04C119.71 371.37 119.7 371.71 119.69 372.04C119.67 373.24 119.65 374.44 119.64 375.65C119.64 376.04 119.64 376.43 119.63 376.82C119.62 378.23 119.6 379.65 119.59 381.06H120.83H121.63H121.62Z" fill="#E9CEB7"/>
<path d="M368.61 328.91C378.51 327.55 388.5 325.19 397.72 321.19L377.8 299.97L313.59 290.82L331.56 329.2C343.85 330.71 356.4 330.59 368.61 328.91Z" fill="#161616"/>
<path d="M262.22 227.75C260.29 241 260.56 254.93 262.76 268.16C265.17 282.67 270.04 298.1 280.49 308.76C285.35 313.71 291.65 317.33 298.03 320.25C304.93 323.41 312.34 325.65 319.8 327.24C329.32 329.27 339.11 330.25 348.89 330.25C348.41 328.71 347.9 327.16 347.34 325.59C340.69 306.84 327.99 289.45 309.9 281.2C304.83 278.89 299.44 277.33 294.49 274.78C278.09 266.33 267.3 245.87 270.79 227.75H262.22Z" fill="#161616"/>
<path d="M201.73 262.78H280.23C272.47 252.88 268.47 239.8 270.79 227.75H215.16C216.46 240.66 211.16 253.94 201.73 262.78Z" fill="white"/>
<path d="M276.71 221.16C268.73 239.05 247.74 247.07 229.86 239.09C225.15 236.98 221.11 233.97 217.88 230.35C212.98 224.86 209.91 217.97 209.07 210.71C209.02 210.18 208.96 209.64 208.93 209.12C208.52 203.51 209.47 197.73 211.93 192.25C219.91 174.35 240.9 166.32 258.78 174.32C266.49 177.76 272.38 183.63 275.94 190.63C280.61 199.84 281.25 211 276.71 221.18V221.16Z" fill="white"/>
<path d="M214.4 217.51C211.25 212.23 206.53 207.51 202.14 206.27C195.13 204.29 187.85 208.37 185.88 215.38C184.6 219.93 185.9 224.94 189.24 228.28C192.07 231.11 195.69 231.34 199.37 232.18C203.26 233.06 206.22 236.34 210.07 236.8C214.15 237.29 217.76 233.3 218.04 229.2C218.27 225.82 216.78 221.51 214.4 217.51Z" fill="white"/>
<path d="M191.87 218.67C196.3 216.81 201.75 217.68 205.37 220.83C203.76 222.38 203.17 224.91 203.92 227.01C204.67 229.12 206.73 230.69 208.96 230.87" stroke="#161616" stroke-width="1.01" stroke-linecap="round" stroke-linejoin="round"/>
<path d="M185.4 272.28C172.49 278.99 133.27 284.9 119.59 289.54C102.11 295.46 78.76 302.86 61.17 324.55C48.02 340.77 39.93 360.68 35.71 381.13H180.4C179.34 351.35 204.96 294.75 185.4 272.28Z" fill="#E9CEB7"/>
<path d="M220.91 192.27C235.38 188.14 250.27 183.8 262.01 174.39C269.85 168.11 275.87 159.88 281.62 151.63C285.45 146.13 289.27 140.43 290.93 133.94C292.59 127.45 291.7 119.91 287.04 115.1C282.69 110.61 275.95 109.29 269.7 109.55C260.41 109.94 250.84 113.71 245.45 121.29C239.83 129.2 239.63 139.56 238.68 149.22C237.73 158.88 235.11 169.54 226.88 174.68C218.02 180.21 209.46 182.21 204.71 192.71C201.05 200.81 204.15 207.58 209.14 214.25C212.9 219.28 224.45 236.29 228.97 222.98C231.93 214.28 224.87 199.78 220.91 192.27Z" fill="#161616"/>
<path d="M252.74 163.95C251.84 179.44 250.94 194.93 250.03 210.42C249.23 224.12 249.01 239.52 258.42 249.51C262.74 254.1 268.58 256.89 274.28 259.59C283.87 264.13 293.47 268.67 303.06 273.2C313.26 265.5 325.21 259.28 335.41 251.58C331.14 249.77 326.73 248.04 322.46 246.23C318.61 244.6 314.47 242.71 312.52 239.01C311.22 236.53 311.11 233.62 311.05 230.83C310.77 218.27 310.71 205.7 310.88 193.14C310.91 190.72 310.94 188.24 310.11 185.97C309.28 183.7 307.33 181.9 304.97 181.38C298.05 179.87 295.78 188.68 296.18 191.07C296.17 182.15 297.12 170.14 297.11 161.22C297.11 157.65 297.28 147.93 297.11 147.23C296.18 143.5 292.94 141.06 289.65 141.63C287.06 142.08 284.99 143.5 283.12 147.23C282.3 143.87 278.46 141.63 273.79 141.63C264.46 141.63 266.33 160.29 266.33 160.29C264.46 158.42 263.82 156.85 258.98 157.72C256.12 158.24 252.91 160.89 252.73 163.97L252.74 163.95Z" fill="white"/>
<path d="M262.71 156.67C264.69 157.41 266.08 159.28 266.75 161.28C267.43 163.28 267.49 165.43 267.54 167.55C267.86 180.78 267.92 194.02 267.71 207.25" stroke="#161616" stroke-width="1.01" stroke-linecap="round" stroke-linejoin="round"/>
<path d="M282.48 205.77V144.71" stroke="#161616" stroke-width="1.01" stroke-linecap="round" stroke-linejoin="round"/>
<path d="M296.66 205.77L297.03 158.77" stroke="#161616" stroke-width="1.01" stroke-linecap="round" stroke-linejoin="round"/>
<path d="M312.53 238.99C312.53 238.99 287.48 236.47 283.91 264.13L312.53 238.99Z" fill="white"/>
<path d="M322.47 246.22L427.67 286.15C450.33 294.75 456.67 323.8 439.65 341.06C424.38 356.54 399.89 358.02 382.87 344.48L280.19 262.53L322.47 246.23V246.22Z" fill="white"/>
<path d="M222.61 234.75C222.61 234.75 232.29 251.21 259.34 246.55" stroke="#161616" stroke-width="1.01" stroke-linecap="round" stroke-linejoin="round"/>
<path d="M233.04 210.45C234.47 212.49 236.75 213.9 239.2 214.28C241.66 214.66 244.26 214 246.23 212.49" stroke="#161616" stroke-width="1.01" stroke-linecap="round" stroke-linejoin="round"/>
<path d="M231.18 203.92C236.18 202.21 240.18 197.83 241.42 192.7" stroke="#161616" stroke-width="2.8" stroke-linecap="round" stroke-linejoin="round"/>
<path d="M250.44 224.17C246.69 223.84 242.83 225.85 240.95 229.12C239.36 231.89 239.56 230.65 239.79 233.84C240.02 237.1 242.75 239.79 245.85 240.8C248.96 241.81 252.35 241.4 255.51 240.56C252.55 235.21 250.94 230.27 250.43 224.17H250.44Z" fill="#161616"/>
<path d="M251.72 231.46C251.08 229.16 250.66 226.77 250.45 224.17C246.7 223.84 242.84 225.85 240.96 229.12C240.08 230.65 239.75 230.96 239.67 231.46H251.72Z" fill="white"/>
<path d="M283.72 264.47C272.17 259.5 259.72 250.24 254.8 238.67C249.88 227.1 248.7 214.19 249.82 201.67C250.49 194.17 251.95 186.68 251.29 179.18" stroke="#161616" stroke-width="1.01" stroke-linecap="round" stroke-linejoin="round"/>
<path d="M349.79 318.21C351.99 336.85 361.76 354.48 376.4 366.23" stroke="#161616" stroke-width="1.01" stroke-linecap="round" stroke-linejoin="round"/>
<path d="M195.51 266.63C198.48 273.78 206.28 277.65 213.79 279.53C219.54 280.97 225.58 281.61 231.43 280.61C237.28 279.61 242.94 276.86 246.8 272.36C256.28 281.73 272.29 283.91 284.88 279.51" stroke="#161616" stroke-width="1.01" stroke-linecap="round" stroke-linejoin="round"/>
<path d="M253.78 300.89L261.08 280.31L257.57 278.09C256.41 277.43 255.28 276.72 254.19 275.95L247.56 271.75C245.87 273.69 243.83 275.34 241.69 276.74C239.04 278.47 236.16 279.88 233.18 281.01L244.67 302.19L215.49 364.72L251.71 406.41L282.2 368.89L253.8 300.88L253.78 300.89Z" fill="#161616"/>
<path d="M6.41016 380.41H438.81" stroke="#161616" stroke-width="1.26" stroke-linecap="round" stroke-linejoin="round"/>
<path d="M446.22 379.79L465.07 316.34C467.07 309.62 462.02 302.87 454.99 302.87H352.45C348.2 302.87 344.36 305.43 342.73 309.35L315.07 378.73" fill="#A8A5E4"/>
<path d="M461.85 324.7C454.59 325.11 447.45 327.72 441.94 332.52C436.1 337.6 432.56 344.69 431.23 352.26C431.2 352.43 430.99 352.57 430.83 352.57C426.59 352.39 422.48 353.49 418.86 355.68C412.13 359.75 407.48 366.64 403.65 373.33C402.51 375.33 401.45 377.37 400.41 379.42L446.23 379.79L462.61 324.68C462.36 324.68 462.12 324.69 461.87 324.71L461.85 324.7Z" fill="#161616"/>
<path d="M266.85 381.57H444.33C445.89 381.57 447.17 380.29 447.17 378.73C447.17 377.17 445.89 375.89 444.33 375.89H266.85C265.29 375.89 264.01 377.17 264.01 378.73C264.01 380.29 265.29 381.57 266.85 381.57Z" fill="#9E93F6"/>
<path opacity="0.73" d="M410.64 346.74C408.3 355.85 401.92 362.12 396.38 360.75C390.85 359.38 388.26 350.89 390.6 341.78C392.94 332.67 399.32 326.4 404.86 327.77C410.39 329.14 412.98 337.63 410.64 346.74Z" stroke="white" stroke-width="0.77" stroke-linecap="round" stroke-linejoin="round"/>
<path d="M334.42 200.41C332 206.86 326.52 212.09 319.97 214.2C329.79 219.06 342.08 215.21 348.92 206.66C343.18 207.87 338.15 204.94 334.42 200.42V200.41Z" fill="white"/>
<path d="M345.65 216.32C355.939 216.32 364.28 207.979 364.28 197.69C364.28 187.401 355.939 179.06 345.65 179.06C335.361 179.06 327.02 187.401 327.02 197.69C327.02 207.979 335.361 216.32 345.65 216.32Z" fill="white"/>
<path d="M338.21 192.74C348.284 192.74 356.45 184.573 356.45 174.5C356.45 164.426 348.284 156.26 338.21 156.26C328.137 156.26 319.97 164.426 319.97 174.5C319.97 184.573 328.137 192.74 338.21 192.74Z" fill="white"/>
<path d="M360.51 188.08C368.712 188.08 375.36 181.431 375.36 173.23C375.36 165.028 368.712 158.38 360.51 158.38C352.309 158.38 345.66 165.028 345.66 173.23C345.66 181.431 352.309 188.08 360.51 188.08Z" fill="white"/>
<path d="M390.121 199.496C392.659 188.842 386.08 178.148 375.427 175.61C364.773 173.072 354.079 179.651 351.541 190.305C349.003 200.958 355.582 211.652 366.235 214.19C376.889 216.728 387.583 210.149 390.121 199.496Z" fill="white"/>
<path d="M377.09 184.75C382.629 184.75 387.12 180.259 387.12 174.72C387.12 169.181 382.629 164.69 377.09 164.69C371.551 164.69 367.06 169.181 367.06 174.72C367.06 180.259 371.551 184.75 377.09 184.75Z" fill="white"/>
<path d="M349.36 167.19C347.34 174.36 342.59 180.72 336.28 184.69C335.76 185.02 335.15 185.34 334.55 185.19C333.05 184.8 333.71 182.49 334.79 181.39C337.29 178.85 340.55 177.07 344.03 176.33C344.86 176.15 345.74 176.04 346.52 176.34C348.42 177.06 348.73 179.61 348.5 181.64C347.53 190.45 338.19 205.28 334.81 203.38C330.04 201.46 341.75 186.96 348.82 181.45C352.33 178.71 356.17 176.18 360.52 175.24C361.43 175.04 362.46 174.94 363.21 175.49C364.19 176.21 364.21 177.64 364.07 178.85C362.77 189.93 349.69 211.18 342.93 208.37C336.56 204.16 360.58 179.44 374.81 178.04C376.14 177.91 377.66 177.93 378.56 178.91C379.27 179.68 379.38 180.81 379.34 181.86C379.06 188.85 362.82 206.81 359.48 203.37C357.09 200.41 380.65 187.91 384.31 192.75" stroke="#161616" stroke-width="1.03" stroke-linecap="round" stroke-linejoin="round"/>
<path d="M117.14 144.43C152.901 144.43 181.89 128.8 181.89 109.52C181.89 90.2396 152.901 74.6099 117.14 74.6099C81.3797 74.6099 52.3901 90.2396 52.3901 109.52C52.3901 128.8 81.3797 144.43 117.14 144.43Z" fill="white"/>
<path d="M131.86 119C129.76 129.72 132.11 141.24 138.23 150.28C144.35 159.33 154.17 165.79 164.9 167.83C157.1 164.37 153.84 154.3 156.02 146.05C158.19 137.8 164.58 131.27 171.6 126.41" fill="white"/>
<path d="M149.61 91.51H87.8801C84.3601 91.51 81.5201 94.36 81.5201 97.87V99.51H74.3101V117.92H81.5201V119.56C81.5201 123.08 84.3701 125.92 87.8801 125.92H149.61C153.13 125.92 155.97 123.07 155.97 119.56V97.86C155.97 94.34 153.12 91.5 149.61 91.5V91.51Z" stroke="#161616" stroke-width="1.15" stroke-linecap="round" stroke-linejoin="round"/>
<path d="M148.97 97.4399H140.56V120H148.97V97.4399Z" fill="#9D2F1A"/>
<path d="M137.46 97.4399H129.05V120H137.46V97.4399Z" fill="#BEBEEF"/>
<path d="M125.75 97.4399H117.34V120H125.75V97.4399Z" fill="#BEBEEF"/>
<path d="M113.85 97.4399H105.44V120H113.85V97.4399Z" fill="#BEBEEF"/>
<path d="M101.96 97.4399H93.5503V120H101.96V97.4399Z" fill="#BEBEEF"/>
<path opacity="0.73" d="M163.88 279C159.52 309.55 144.45 329.92 114.19 336.04C105.01 337.9 95.3002 337.99 86.4702 334.89C77.6402 331.79 69.7802 325.23 66.4102 316.5" stroke="white" stroke-width="1.26" stroke-linecap="round" stroke-linejoin="round"/>
<path opacity="0.73" d="M117.14 380.61C132.2 356.97 152.26 336.53 175.6 321.01C179.71 318.28 184.68 315.6 189.34 317.23C196.5 319.74 196.84 329.88 194.31 337.03C189.74 349.95 173.81 374.3 162.35 373.24C161.12 367.93 171.28 357.17 175.7 354C197.45 338.39 223.89 332.36 250.33 335.76C269.07 338.17 303.06 347.34 307.31 375.89" stroke="white" stroke-width="1.26" stroke-linecap="round" stroke-linejoin="round"/>
<path d="M34.4701 362.93C23.2801 362.93 14.1201 353.77 14.1201 342.58V302.95C14.1201 291.76 23.2801 282.6 34.4701 282.6C45.6601 282.6 54.8201 291.76 54.8201 302.95V342.58C54.8201 353.77 45.6601 362.93 34.4701 362.93Z" fill="#848134"/>
<path d="M53.3 393.95H16.24L0 332.93H70.56L53.3 393.95Z" fill="#161616"/>
<path d="M2.02979 339.37H69.5498" stroke="#D4A88A" stroke-width="0.93" stroke-linecap="round" stroke-linejoin="round"/>
<path d="M13.3999 284.73L21.9699 294.73" stroke="#161616" stroke-linecap="round" stroke-linejoin="round"/>
<path d="M34.4702 276.87V290.8" stroke="#161616" stroke-linecap="round" stroke-linejoin="round"/>
<path d="M58.7499 286.51L45.8999 295.44" stroke="#161616" stroke-linecap="round" stroke-linejoin="round"/>
<path d="M61.2499 314.36H48.3999" stroke="#161616" stroke-linecap="round" stroke-linejoin="round"/>
<path d="M11.2598 314.36H23.0498" stroke="#161616" stroke-linecap="round" stroke-linejoin="round"/>
<path d="M34.1099 335.07V302.94" stroke="#161616" stroke-linecap="round" stroke-linejoin="round"/>
<path d="M93.2901 221.31C93.7601 238.42 94.0601 257.2 83.3901 269.41C72.7201 281.62 59.7001 291.58 46.0601 300.35C46.3401 300.35 43.7601 301.66 44.0501 301.66H142.49C164.06 280.35 174.42 252.22 172.62 221.95C172.56 220.97 172.01 219.64 171.08 219.96L93.2901 221.31Z" fill="#D38E2C"/>
<path d="M99.8901 247.38H163.28" stroke="#161616" stroke-width="1.06" stroke-linecap="round" stroke-linejoin="round"/>
<path d="M98.8101 254.89H162.2" stroke="#161616" stroke-width="1.06" stroke-linecap="round" stroke-linejoin="round"/>
<path d="M98.8101 262.78H162.2" stroke="#161616" stroke-width="1.06" stroke-linecap="round" stroke-linejoin="round"/>
<path d="M83.4399 278.18H146.84" stroke="#161616" stroke-width="1.06" stroke-linecap="round" stroke-linejoin="round"/>
<path d="M76.7202 287.32H140.12" stroke="#161616" stroke-width="1.06" stroke-linecap="round" stroke-linejoin="round"/>
<path d="M67.9502 294.63H103.28" stroke="#161616" stroke-width="1.06" stroke-linecap="round" stroke-linejoin="round"/>
<path d="M110.21 244.03C114.038 244.03 117.14 239.611 117.14 234.16C117.14 228.709 114.038 224.29 110.21 224.29C106.383 224.29 103.28 228.709 103.28 234.16C103.28 239.611 106.383 244.03 110.21 244.03Z" fill="#161616"/>
<path d="M114.24 234.43C114.24 237.98 112.43 240.86 110.21 240.86C107.99 240.86 106.18 237.98 106.18 234.43C106.18 230.88 107.99 228 110.21 228C112.43 228 114.24 230.88 114.24 234.43Z" stroke="#D38E2C" stroke-width="1.06" stroke-linecap="round" stroke-linejoin="round"/>
<path d="M117.8 226.44H142.16" stroke="#161616" stroke-width="1.06" stroke-linecap="round" stroke-linejoin="round"/>
<path d="M119.41 231.98H143.76" stroke="#161616" stroke-width="1.06" stroke-linecap="round" stroke-linejoin="round"/>
<path d="M392.44 215.45C386.91 229.84 380.65 245.57 367.54 252.02C354.43 258.48 340.15 262.25 325.77 264.82C326 264.92 323.41 265.11 323.64 265.21L405.52 299.32C430.85 289.07 449.21 269.26 458.2 243.46C458.49 242.63 458.49 241.33 457.61 241.27L392.44 215.44V215.45Z" fill="#D38E2C"/>
<path d="M388.89 239.42L441.62 261.38" stroke="#161616" stroke-width="0.96" stroke-linecap="round" stroke-linejoin="round"/>
<path d="M385.39 245.29L438.12 267.25" stroke="#161616" stroke-width="0.96" stroke-linecap="round" stroke-linejoin="round"/>
<path d="M382.66 251.85L435.39 273.82" stroke="#161616" stroke-width="0.96" stroke-linecap="round" stroke-linejoin="round"/>
<path d="M364.54 259.34L417.27 281.3" stroke="#161616" stroke-width="0.96" stroke-linecap="round" stroke-linejoin="round"/>
<path d="M355.79 264.61L408.52 286.58" stroke="#161616" stroke-width="0.96" stroke-linecap="round" stroke-linejoin="round"/>
<path d="M345.96 267.66L375.34 279.9" stroke="#161616" stroke-width="0.96" stroke-linecap="round" stroke-linejoin="round"/>
<path d="M407.82 234.4C405.93 238.94 401.82 241.54 398.63 240.21C395.45 238.88 394.4 234.13 396.28 229.6C398.17 225.06 402.28 222.46 405.47 223.79C408.65 225.12 409.7 229.87 407.82 234.4Z" fill="#161616"/>
<path d="M405.32 233.62C404.09 236.58 401.59 238.35 399.74 237.57C397.89 236.8 397.38 233.78 398.61 230.82C399.84 227.86 402.34 226.09 404.19 226.87C406.04 227.64 406.55 230.66 405.32 233.62Z" stroke="#D38E2C" stroke-width="0.95" stroke-linecap="round" stroke-linejoin="round"/>
<path d="M411.05 228.2L431.31 236.64" stroke="#161616" stroke-width="0.96" stroke-linecap="round" stroke-linejoin="round"/>
<path d="M410.46 233.37L430.72 241.81" stroke="#161616" stroke-width="0.96" stroke-linecap="round" stroke-linejoin="round"/>
<path d="M8.93002 169.85C7.14002 186.35 17.54 203.41 33.02 209.38C38.92 211.66 45.73 212.38 51.51 209.79C58.23 206.78 62.59 199.19 61.81 191.87H144.81C142 198.91 136.42 205.73 129.81 209.43H52.89" fill="#D38E2C"/>
<path d="M8.6101 169.85H93.3501C91.9001 173.78 90.7501 178.8 91.2701 182.96C91.7801 187.12 93.5701 191.17 96.5701 194.09C98.5701 196.04 101.04 197.44 103.48 198.81C105.57 199.99 107.67 201.17 109.91 202.02C110.34 202.18 111.08 202.08 110.94 201.64L103.99 208.59C103.53 207.75 102.54 207.39 101.58 207.48C100.62 207.57 99.7401 208.02 98.8901 208.47H36.8301C29.8101 204.05 24.0901 197.55 19.7001 190.51C15.3101 183.47 11.8301 177.49 8.6001 169.84L8.6101 169.85Z" fill="#D38E2C"/>
<path d="M30.8099 169.85C30.5899 173.31 31.3099 176.76 33.0999 179.79C35.1999 183.34 38.4699 186.06 41.9699 188.15C45.8899 190.49 50.1999 192.14 54.5899 193.39C55.9599 193.78 57.3399 194.13 58.7299 194.45C58.7299 194.29 58.7499 194.13 58.7499 193.97C58.6499 193.42 58.5499 192.87 58.3799 192.33C58.3399 192.22 58.3599 192.1 58.4199 192C58.3099 191.73 58.4499 191.35 58.8299 191.35H94.3199C92.6699 188.86 91.6399 185.93 91.2699 182.95C90.7599 178.79 91.8999 173.77 93.3499 169.84H30.8099V169.85Z" fill="#161616"/>
<path d="M57.6801 190.24C60.3401 197.91 56.5901 207.26 49.3701 210.96" stroke="#161616" stroke-width="1.18" stroke-linecap="round" stroke-linejoin="round"/>
<path d="M37.3802 181.85H21.2002" stroke="#161616" stroke-width="1.18" stroke-linecap="round" stroke-linejoin="round"/>
<path d="M24.8203 186.78H44.5803" stroke="#161616" stroke-width="1.18" stroke-linecap="round" stroke-linejoin="round"/>
<path d="M33.3301 191.65H52.6401" stroke="#161616" stroke-width="1.18" stroke-linecap="round" stroke-linejoin="round"/>
<path d="M38.3203 196.44H58.0803" stroke="#161616" stroke-width="1.18" stroke-linecap="round" stroke-linejoin="round"/>
<path d="M81.9803 180.05H40.7803" stroke="#161616" stroke-width="1.37" stroke-linecap="round" stroke-linejoin="round"/>
<path d="M36.4702 181.85H74.3902" stroke="#D38E2C" stroke-width="1.86" stroke-linecap="round" stroke-linejoin="round"/>
<path d="M44.5801 186.78H82.5001" stroke="#D38E2C" stroke-width="1.86" stroke-linecap="round" stroke-linejoin="round"/>
<path d="M391.07 137.65L396.08 168.74L410.12 150.85L413.62 208.6L429.86 119L415.63 137.65L413.13 98.23L391.07 137.65Z" fill="#D38E2C"/>
<path d="M195.51 0L255.52 86.25L259.34 61.29L292.55 113.15L299.27 86.26L319.96 121.17C319.96 121.17 306 88.7 323.62 70.99L301.43 45.74L291.69 63.18L245.69 7.54L244.32 42.9L195.51 0Z" fill="#D38E2C"/>
<path d="M305.882 50.6026L300.092 58.0835L327.975 79.6654L333.766 72.1845L305.882 50.6026Z" fill="#161616"/>
<path d="M297.37 82.0902C306.8 68.7202 316.12 55.2902 325.33 41.7702C320.41 37.5502 313.85 35.2602 306.89 35.9402C293.33 37.2602 283.41 49.3202 284.73 62.8802C285.55 71.2902 290.5 78.3002 297.38 82.1002L297.37 82.0902Z" fill="#161616"/>
<path d="M404.7 39.7123L396.941 34.2998L376.768 63.2184L384.526 68.6309L404.7 39.7123Z" fill="#161616"/>
<path d="M372.84 32.77C386.66 41.52 400.54 50.17 414.5 58.69C418.47 53.57 420.43 46.9 419.41 39.98C417.42 26.5 404.88 17.19 391.41 19.18C383.05 20.41 376.29 25.71 372.84 32.77Z" fill="#161616"/>
<path d="M390.137 142.961C414.849 127.315 422.199 94.5976 406.552 69.8855C390.906 45.1733 358.188 37.8242 333.476 53.4707C308.764 69.1173 301.415 101.834 317.062 126.547C332.708 151.259 365.425 158.608 390.137 142.961Z" fill="#161616"/>
<path d="M382.576 135.199C403.003 123.727 410.262 97.8672 398.79 77.4404C387.317 57.0137 361.458 49.7547 341.031 61.227C320.605 72.6993 313.346 98.5587 324.818 118.985C336.29 139.412 362.15 146.671 382.576 135.199Z" fill="white"/>
<path d="M355.86 70.98L365.19 101.52L333.7 100.39" stroke="#161616" stroke-width="0.9" stroke-linecap="round" stroke-linejoin="round"/>
<path d="M349.48 47.8502L343.99 33.6602" stroke="#161616" stroke-width="0.9" stroke-linecap="round" stroke-linejoin="round"/>
<path d="M333.03 37.5298L354.63 28.8198" stroke="#161616" stroke-width="0.9" stroke-linecap="round" stroke-linejoin="round"/>
<path d="M231.4 96.0402C234.106 96.0402 236.3 93.8464 236.3 91.1402C236.3 88.434 234.106 86.2402 231.4 86.2402C228.694 86.2402 226.5 88.434 226.5 91.1402C226.5 93.8464 228.694 96.0402 231.4 96.0402Z" stroke="#161616" stroke-width="1.15" stroke-linecap="round" stroke-linejoin="round"/>
<path d="M215.48 63.6501C215.48 65.3501 214.1 66.7201 212.41 66.7201C210.72 66.7201 209.34 65.3401 209.34 63.6501C209.34 61.9601 210.72 60.5801 212.41 60.5801C214.1 60.5801 215.48 61.9601 215.48 63.6501Z" stroke="#161616" stroke-width="1.15" stroke-linecap="round" stroke-linejoin="round"/>
<path d="M445.27 164.68C449.219 164.68 452.42 161.479 452.42 157.53C452.42 153.581 449.219 150.38 445.27 150.38C441.321 150.38 438.12 153.581 438.12 157.53C438.12 161.479 441.321 164.68 445.27 164.68Z" stroke="#161616" stroke-width="1.15" stroke-linecap="round" stroke-linejoin="round"/>
<path d="M452.16 184.74C453.728 184.74 455 183.469 455 181.9C455 180.332 453.728 179.06 452.16 179.06C450.591 179.06 449.32 180.332 449.32 181.9C449.32 183.469 450.591 184.74 452.16 184.74Z" stroke="#161616" stroke-width="1.15" stroke-linecap="round" stroke-linejoin="round"/>
<path d="M342.72 240.3C342.72 242.32 341.09 243.95 339.07 243.95C337.05 243.95 335.42 242.32 335.42 240.3C335.42 238.28 337.05 236.65 339.07 236.65C341.09 236.65 342.72 238.28 342.72 240.3Z" stroke="#161616" stroke-width="1.15" stroke-linecap="round" stroke-linejoin="round"/>
<path d="M368.47 229.61C368.47 230.64 367.64 231.47 366.61 231.47C365.58 231.47 364.75 230.64 364.75 229.61C364.75 228.58 365.58 227.75 366.61 227.75C367.64 227.75 368.47 228.58 368.47 229.61Z" stroke="#161616" stroke-width="1.15" stroke-linecap="round" stroke-linejoin="round"/>
<path d="M204.66 119.03C204.66 120.2 203.71 121.15 202.54 121.15C201.37 121.15 200.42 120.2 200.42 119.03C200.42 117.86 201.37 116.91 202.54 116.91C203.71 116.91 204.66 117.86 204.66 119.03Z" stroke="#161616" stroke-width="1.15" stroke-linecap="round" stroke-linejoin="round"/>
<path d="M222.61 136.63C222.61 137.89 221.59 138.9 220.34 138.9C219.09 138.9 218.07 137.88 218.07 136.63C218.07 135.38 219.09 134.36 220.34 134.36C221.59 134.36 222.61 135.38 222.61 136.63Z" stroke="#161616" stroke-width="1.15" stroke-linecap="round" stroke-linejoin="round"/>
<path d="M12.54 261.44C14.7823 261.44 16.6 259.622 16.6 257.38C16.6 255.138 14.7823 253.32 12.54 253.32C10.2977 253.32 8.47998 255.138 8.47998 257.38C8.47998 259.622 10.2977 261.44 12.54 261.44Z" stroke="#161616" stroke-width="1.15" stroke-linecap="round" stroke-linejoin="round"/>
<path d="M35.8602 285.72C35.8602 285.4 35.6002 285.14 35.2802 285.14C34.9602 285.14 34.7002 285.4 34.7002 285.72C34.7002 286.04 34.9602 286.3 35.2802 286.3C35.6002 286.3 35.8602 286.04 35.8602 285.72Z" stroke="#161616" stroke-width="1.15" stroke-linecap="round" stroke-linejoin="round"/>
<path d="M246.39 408.54C250.68 409.86 255.34 409.32 259.67 408.14C269.52 405.45 278.41 399.41 284.55 391.25C284.95 390.72 284.82 389.55 284.26 389.89C302.67 399.12 321.43 404.67 342.02 404.64C351.61 404.63 361.33 403.53 370.22 399.95C379.11 396.36 387.16 390.09 391.55 381.56H250.74L246.4 408.55L246.39 408.54Z" fill="#161616"/>
<path d="M189.97 380.08V346.81" stroke="#161616" stroke-width="1.06" stroke-linecap="round" stroke-linejoin="round"/>
<path d="M251.79 346.81H65.0801V408.73H251.79V346.81Z" fill="#D38E2C"/>
<path d="M65.0801 358.73H251.79" stroke="#161616" stroke-width="1.06" stroke-linecap="round" stroke-linejoin="round"/>
<path d="M65.0801 366.62H251.79" stroke="#161616" stroke-width="1.06" stroke-linecap="round" stroke-linejoin="round"/>
<path d="M65.0801 376.73H149.97" stroke="#161616" stroke-width="1.06" stroke-linecap="round" stroke-linejoin="round"/>
<path d="M164.74 388.91H227.23" stroke="#161616" stroke-width="1.06" stroke-linecap="round" stroke-linejoin="round"/>
<path d="M65.08 388.91L52.29 403.93L118.35 388.91H65.08Z" fill="#E9CEB7"/>
<path d="M65.08 358.73L41.46 374.13L107.52 359.1L65.08 358.73Z" fill="white"/>
<path d="M176.58 377.77L206.96 399.28L227.23 377.77H176.58Z" fill="#E9CEB7"/>
<path d="M168.74 377.77H242.97" stroke="#161616" stroke-width="1.06" stroke-linecap="round" stroke-linejoin="round"/>
<path d="M251.79 399.28H218.02L261.25 408.73L251.79 399.28Z" fill="#E9CEB7"/>
<path d="M213.2 399.28H251.79" stroke="#161616" stroke-width="1.06" stroke-linecap="round" stroke-linejoin="round"/>
<path d="M170.34 347V408.73" stroke="#161616" stroke-width="1.06" stroke-linecap="round" stroke-linejoin="round"/>
<path d="M20.5999 242.66C22.2071 242.66 23.5099 241.357 23.5099 239.75C23.5099 238.143 22.2071 236.84 20.5999 236.84C18.9928 236.84 17.6899 238.143 17.6899 239.75C17.6899 241.357 18.9928 242.66 20.5999 242.66Z" stroke="#161616" stroke-width="1.15" stroke-linecap="round" stroke-linejoin="round"/>
</svg>
