<svg width="380" height="383" viewBox="0 0 380 383" fill="none" xmlns="http://www.w3.org/2000/svg">
<path d="M142.525 334.158C137.037 322.512 190.35 303.997 253.286 295.263C316.233 286.528 372.86 289.891 370.449 302.535" stroke="black" stroke-width="1.12" stroke-linecap="round" stroke-linejoin="round"/>
<path d="M235.871 85.3965C235.871 85.3965 227.912 77.6602 221.485 82.0453C221.485 82.0453 227.817 80.5717 234.374 88.926" fill="#242F50"/>
<path d="M297.999 149.129C296.407 137.281 286.44 118.588 289.125 111.053C294.019 105.254 299.887 96.1154 297.547 89.6626C292.76 76.0558 279.574 79.0742 275.535 80.3695C275.452 69.5672 283.803 66.7627 283.803 66.7627C275.084 67.4282 273.041 75.2239 272.577 79.0386C269.572 76.3291 262.872 71.3973 253.642 71.231C240.908 71.0052 233.816 77.7789 234.303 87.1551C225.358 90.1855 220.274 95.4975 222.246 102.628C224.253 109.865 232.687 116.056 232.925 127.892C213.978 149.83 222.246 169.533 222.246 169.533H299.365C299.365 169.533 299.59 160.977 297.999 149.129Z" fill="#242F50"/>
<path d="M337.723 287.526C327.376 285.589 305.827 287.645 305.827 287.645L303.974 282.071C254.462 286.813 215.701 277.698 215.701 277.698C215.332 279.516 214.952 281.394 214.584 283.295C214.691 286.433 214.762 289.297 214.786 291.804C224.515 296.879 238.437 301.335 257.396 301.335V312.161C257.396 312.161 302.846 327.158 314.19 326.16C325.535 325.162 361.896 312.363 361.896 312.363C362.075 300.396 352.132 290.236 337.723 287.538V287.526Z" fill="#242F50"/>
<path d="M310.793 292.755C308.084 277.686 304.057 264.424 299.46 253.349L308.856 196.616C322.565 199.349 341.524 202.379 341.524 202.379L351.289 164.423C351.289 164.423 298.759 143.507 276.13 155.569C269.085 159.325 251.112 158.362 244.448 154.999C214.738 140.014 160.748 162.307 160.748 162.307L171.059 198.874L212.018 195.38C212.018 195.38 217.376 234.667 219.193 247.573C219.193 247.573 210.022 272.303 209.108 283.379C209.108 283.379 261.257 297.485 310.781 292.743L310.793 292.755Z" fill="#5FA3FA"/>
<path d="M269.441 134.107H249.651L244.626 158.837C244.626 158.837 249.485 164.53 259.546 164.53C269.608 164.53 274.466 158.837 274.466 158.837L269.441 134.107Z" fill="white"/>
<g style="mix-blend-mode:multiply">
<path d="M271.628 144.827C269.798 146.942 266.068 149.996 259.547 150.305C253.025 149.996 249.295 146.942 247.478 144.827L249.663 134.107H269.442L271.628 144.827Z" fill="#E2E2E2"/>
</g>
<path d="M284.73 120.097C283.47 125.658 281.736 131.41 279.408 135.26C277.495 138.421 275.072 140.679 272.589 142.295C265.141 147.156 255.329 147.156 247.869 142.295C245.386 140.679 242.963 138.421 241.05 135.26C237.712 129.746 235.586 120.334 234.362 113.145C238.318 111.623 244.056 108.403 246.883 102.093C251.433 91.9321 249.758 100.12 260.223 101.487C270.7 102.853 272.969 101.035 276.866 100.286C276.866 104.291 279.645 117.506 284.718 120.097H284.73Z" fill="white"/>
<path d="M304.698 314.562L302.192 330.878C302.192 330.878 300.006 331.033 296.193 331.211C292.095 331.401 286.096 331.663 278.885 331.829V331.853C256.148 332.411 221.295 332.269 195.256 327.539C156.079 320.421 148.916 303.427 149.866 294.669C150.71 286.778 161.888 269.63 197.074 276.035C219.216 280.075 249.579 293.373 272.506 302.726C285.585 308.061 296.312 311.793 301.432 313.492C303.534 314.193 304.71 314.562 304.71 314.562H304.698Z" fill="white"/>
<g style="mix-blend-mode:multiply" opacity="0.6">
<path d="M304.711 314.562L302.192 330.89C302.192 330.89 300.007 331.032 296.193 331.223C292.095 331.413 286.096 331.662 278.886 331.841V331.864C262.35 332.256 239.411 332.292 218.124 330.474C218.124 330.474 252.977 318.768 267.446 314.502C274.193 312.506 284.172 311.282 292.891 310.545C296.478 311.828 299.401 312.827 301.432 313.504C303.535 314.205 304.711 314.562 304.711 314.562Z" fill="#E2E2E2"/>
</g>
<path d="M361.765 311.436C360.364 303.617 348.021 287.289 313.37 296.142C291.572 301.715 262.207 317.105 239.981 328.038C231.214 332.352 223.517 335.822 217.945 338.234C217.945 338.234 212.148 337.081 203.227 336.333C199.2 336 193.736 337.295 183.045 344.295C176.309 347.171 169.419 348.573 165 350.308C164.965 350.308 161.888 350.831 158.621 352.031C155.331 353.243 153.881 354.455 153.228 357.319C152.67 359.708 155.01 364.64 156.4 364.295C156.067 368.122 158.645 369.334 158.645 369.346C158.289 372.174 160.688 374.349 161.056 374.218C160.938 375.359 161.413 378.484 163.598 378.924C163.693 379.696 163.741 381.265 165.606 382.643C166.568 383.345 168.778 382.893 170.571 382.346C178.97 380.552 222.115 361.372 222.115 361.372C245.517 359.672 293.152 353.932 318.799 347.408C357.382 337.569 363.345 320.111 361.777 311.448L361.765 311.436Z" fill="white"/>
<path d="M237.867 124.922C237.047 121.844 235.028 115.748 235.028 115.748C235.028 115.748 235.539 110.97 235.954 107.381C236.869 103.745 237.297 100.822 236.905 99.7283C236.287 97.9933 233.959 97.2684 233.092 98.5875C231.5 101.024 227.485 111.232 227.306 112.527C227.021 114.63 226.012 121.107 225.453 123.603C210.889 135.629 177.058 147.204 165.523 153.918C137.501 170.222 148.596 184.863 150.793 187.169C163.421 200.419 186.157 185.184 198.167 172.956C214.406 156.425 224.966 146.669 230.145 140.656C230.145 140.656 236.548 137.067 237.986 134.595C239.423 132.123 238.698 128.012 237.879 124.934L237.867 124.922Z" fill="white"/>
<path d="M356.682 164.673C349.875 158.351 332.199 151.03 317.457 140.786C309.058 134.952 300.446 127.857 296.193 123.876C296.063 122.723 296.241 115.213 296.158 114.452C295.908 112.301 293.283 104.482 292.974 103.329C292.416 101.202 289.387 95.4144 288.769 94.844C288.353 94.4637 285.526 94.7133 285.086 97.09C284.932 97.91 285.502 99.3955 285.965 100.655C285.716 101.796 285.787 103.46 286.547 105.516C287.082 108.712 286.916 114.226 286.916 114.226C286.916 114.226 284.255 120.073 283.114 123.044C281.974 126.027 280.81 130.032 281.974 132.646C283.138 135.261 286.963 136.437 289.125 139.503C301.408 156.592 333.886 207.395 357.988 191.316C366.22 185.826 365.425 172.813 356.682 164.685V164.673Z" fill="white"/>
<path d="M157.719 363.796C157.719 363.796 163.029 362.655 166.664 360.457" stroke="black" stroke-width="0.5" stroke-linecap="round" stroke-linejoin="round"/>
<path d="M159.501 369.108C159.501 369.108 164.276 367.765 167.507 365.947" stroke="black" stroke-width="0.5" stroke-linecap="round" stroke-linejoin="round"/>
<path d="M161.662 373.933C161.662 373.933 167.008 372.281 169.621 370.582" stroke="black" stroke-width="0.5" stroke-linecap="round" stroke-linejoin="round"/>
<path d="M164.383 378.662C164.383 378.662 169.099 377.296 171.439 375.478" stroke="black" stroke-width="0.5" stroke-linecap="round" stroke-linejoin="round"/>
<g style="mix-blend-mode:multiply">
<path d="M212.03 195.392L210.735 186.598L208.918 195.665L212.03 195.392Z" fill="#5FA3FA"/>
</g>
<g style="mix-blend-mode:multiply">
<path d="M308.856 196.616L310.995 183.865L312.931 197.4L308.856 196.616Z" fill="#5FA3FA"/>
</g>
<path d="M370.461 302.536C370.461 302.536 399.006 166.075 354.306 85.848C312.729 11.2421 216.413 24.6113 216.413 24.6113C216.413 24.6113 118.85 38.1468 99.1428 121.261C77.9505 210.627 142.537 334.17 142.537 334.17" stroke="black" stroke-width="0.95" stroke-linecap="round" stroke-linejoin="round"/>
<path d="M330.286 326.505C330.286 326.505 338.887 174.417 306.528 92.4673C276.427 16.2689 213.42 25.0153 213.42 25.0153C213.42 25.0153 155.153 33.0963 146.921 114.618C138.071 202.273 187.725 346.327 187.725 346.327" stroke="black" stroke-width="0.95" stroke-linecap="round" stroke-linejoin="round"/>
<path d="M284.088 337.105C284.088 337.105 273.017 183.556 254.165 99.7402C236.643 21.795 216.556 24.5877 216.556 24.5877C216.556 24.5877 194.924 27.5942 199.272 107.358C203.94 193.146 235.052 343.903 235.052 343.903" stroke="black" stroke-width="0.95" stroke-linecap="round" stroke-linejoin="round"/>
<path d="M222.459 4.59919C220.856 -1.15252 213.158 0.119035 213.158 0.119035C213.158 0.119035 205.401 0.99843 205.437 6.96405C205.46 12.9297 210.877 25.7403 210.877 25.7403L216.555 24.5876L222.329 24.1479C222.329 24.1479 224.063 10.3509 222.459 4.59919Z" fill="black"/>
<path d="M370.461 302.536C367.895 315.964 322.636 332.696 259.701 341.431C196.753 350.166 148.892 347.622 142.537 334.158" stroke="black" stroke-width="1.12" stroke-linecap="round" stroke-linejoin="round"/>
<path d="M188.651 97.0781C188.651 97.0781 172.923 90.4113 163.729 73.1561C173.577 66.6676 179.873 56.7804 179.873 45.7167C179.873 26.1561 160.237 10.3032 136.003 10.3032C111.77 10.3032 92.1338 26.1561 92.1338 45.7167C92.1338 65.2773 111.77 81.1301 136.003 81.1301C142.477 81.1301 148.619 79.9893 154.154 77.9572C160.593 85.8361 171.534 94.939 188.651 97.0899V97.0781Z" fill="white" stroke="black" stroke-linecap="round" stroke-linejoin="round"/>
<path d="M130.432 26.0848C117.579 26.0848 107.007 49.0917 121.559 57.1013C136.111 65.1109 166.806 40.3453 153.454 23.3278C144.77 12.2641 117.104 15.7579 115.785 31.7771C114.11 52.1814 135.647 75.9964 155.188 62.9837C169.419 53.5005 165.998 31.076 148.382 29.745C130.765 28.414 133.806 67.7491 149.712 56.1744C165.618 44.5996 118.957 17.5167 110.749 41.0939C103.764 61.1418 124.172 82.8295 138.534 67.8204C152.04 53.6907 148.892 26.1086 130.444 26.0967L130.432 26.0848Z" fill="white" stroke="black" stroke-width="0.88" stroke-linecap="round" stroke-linejoin="round"/>
<path d="M80.9084 242.582L10.311 197.4L0 221.774L80.9084 242.582Z" fill="url(#paint0_linear_574_1608)"/>
<defs>
<linearGradient id="paint0_linear_574_1608" x1="-871.164" y1="-449.727" x2="3974.98" y2="3172.45" gradientUnits="userSpaceOnUse">
<stop stop-color="#E4816F"/>
<stop offset="1" stop-color="#E25E52"/>
</linearGradient>
</defs>
</svg>
