<svg width="434" height="474" viewBox="0 0 434 474" fill="none" xmlns="http://www.w3.org/2000/svg">
<mask id="mask0_553_157" style="mask-type:luminance" maskUnits="userSpaceOnUse" x="0" y="0" width="434" height="440">
<path d="M155.13 36.43L137.09 119.58L190.54 131.18L178.41 160.8L200.63 170.69L196.51 220.7L236.99 279.1L218.3 237.6L211.87 218.77L219.82 162.92L194.68 151.12C194.68 151.12 224.14 107.83 222.33 108.2C220.52 108.58 192.82 93.53 192.82 93.53L214.87 29.72L358.06 0L433.77 364.93L76.09 439.14L0 72.4C0 72.4 157.55 35.93 155.13 36.43Z" fill="white"/>
</mask>
<g mask="url(#mask0_553_157)">
<path d="M389.31 285.07L88.4198 347.49L32.5298 86.44L333.42 24.02L389.31 285.07Z" fill="#F9E8F1" stroke="#F9E8F1" stroke-miterlimit="10"/>
<path d="M321.936 39.92L49.3887 96.4609L97.4856 328.305L370.033 271.764L321.936 39.92Z" fill="#EE999A"/>
</g>
<path d="M82.7098 106.36C77.5798 112.6 74.0398 120.14 72.5398 128.08C71.4598 133.76 71.3998 139.62 70.1098 145.26C68.6798 151.48 65.7698 157.35 65.0298 163.68C64.0598 171.97 67.1398 180.64 73.1198 186.47C71.7398 181.21 72.6098 175.57 74.6698 170.54C76.5098 174.67 78.2898 178.61 81.4798 181.82C84.6598 185.03 88.6798 187.5 93.1098 188.41C92.2498 185.91 92.2698 183.39 92.5298 180.76C96.1598 183.38 100.32 185.66 104.71 186.57C109.1 187.48 113.95 186.86 117.53 184.16C117.81 177.52 117.12 171.92 116.51 165.31C115.74 157.05 115.52 148.74 115.85 140.46C116.21 131.33 117.2 121.89 114.07 113.31C113.85 112.72 113.61 112.12 113.15 111.68C112.74 111.29 112.21 111.06 111.68 110.85C102.79 107.28 92.2998 106.82 82.7298 106.38L82.7098 106.36Z" fill="#512524"/>
<path d="M140.18 101.29C146.9 105.13 150.71 103.53 156.11 113.93C161.51 124.33 158.91 130.73 162.51 138.14C166.11 145.54 176.31 156.95 168.71 171.15C168.71 171.15 166.91 160.95 162.91 158.35C162.91 158.35 164.45 171.35 153.58 177.76L152.11 174.36C152.11 174.36 144.31 181.36 136.91 181.76L126.63 156.75L140.19 101.3L140.18 101.29Z" fill="#512524"/>
<path d="M146.57 194.56C127.57 214.56 103.57 202.56 103.57 202.56C109.74 197.81 111.18 192.17 110.99 187.54C110.78 182.42 108.57 178.56 108.57 178.56L112.57 177.56L137.57 160.56C135.88 166.97 136.36 172.93 137.74 178.01C140.43 187.98 146.57 194.56 146.57 194.56Z" fill="white"/>
<g style="mix-blend-mode:multiply" opacity="0.39">
<path d="M137.74 178.01C134.39 180.4 130.67 182.3 126.81 183.75C121.72 185.66 116.38 186.81 110.99 187.54C110.78 182.42 108.57 178.56 108.57 178.56L112.57 177.56L137.57 160.56C135.88 166.97 136.36 172.93 137.74 178.01Z" fill="#939292"/>
</g>
<path d="M174.92 204.71C182.76 202.62 205.73 218.67 205.73 218.67C205.73 218.67 211.4 261.77 210.79 276.68C210.19 291.59 200.79 301.2 192.59 301.43C184.4 301.66 176.54 289.45 175.53 277.83L153.57 254.92C153.57 254.92 166.03 207.07 174.91 204.7L174.92 204.71Z" fill="white"/>
<g style="mix-blend-mode:multiply" opacity="0.39">
<path d="M37.4399 421.3C36.7199 427.93 39.2499 434.83 44.1299 439.53C44.4999 439.89 44.9299 440.25 45.4499 440.27C46.1999 440.3 46.7699 439.63 47.0599 438.96C47.9099 436.96 47.3199 434.7 47.4099 432.54C47.5799 428.39 50.2199 424.78 51.9099 420.96C54.1599 415.87 54.7299 410.1 53.5399 404.69C53.3099 403.66 52.9799 402.57 52.1499 401.88C51.2699 401.15 49.9999 401.03 48.8499 401.14C43.3899 401.68 39.3999 406.46 37.1699 411.33C35.2499 415.52 34.1299 420.06 33.8999 424.64" fill="#939292"/>
</g>
<path d="M79.5698 210.88C66.7398 210.57 63.0098 271.94 62.2698 298.27C61.5298 324.59 50.0998 367.86 46.7598 385.66L68.9998 391.99L95.3198 302.98C95.3198 302.98 103.84 211.47 79.5598 210.88H79.5698Z" fill="white"/>
<path d="M79.0198 358.96C79.0198 358.96 76.9998 430.27 82.1898 469.39H128.31L126.63 401.97L151.36 469.39H202.31C202.31 469.39 191.73 387.51 181.35 358.96H79.0298H79.0198Z" fill="#F0C18C"/>
<path d="M184.17 362.98C173.07 383.03 134.19 391.98 134.19 391.98L120.62 362.05L112.07 389.2C91.4899 386.43 75.1699 363.6 75.1699 363.6C76.6599 338.02 90.0699 302.51 90.0699 302.51L87.2899 289.24C87.2899 289.24 80.1999 282.14 76.1899 268.26C72.1799 254.38 81.1199 248.82 83.8999 237.41C86.6799 225.99 79.5699 210.87 79.5699 210.87C86.8899 208.84 97.3899 203.1 103.71 199.41C106.98 197.51 109.12 196.16 109.12 196.16L117.82 195.79L123.69 200.3L129.48 195.29L146.57 194.56L149.67 195.67L174.92 204.7C151.47 237.41 175.53 277.82 175.53 277.82L167.51 305.9C177.39 327.81 184.17 362.98 184.17 362.98Z" fill="#C495CD"/>
<path d="M142.43 116.43C137.46 102.14 120.34 92.63 105.61 95.75C96.3099 97.72 85.7799 105.66 81.7599 114.39C79.6899 118.9 79.5499 124.02 79.5799 128.98C79.6399 141.37 80.5699 154.21 86.4899 165.11C92.4099 176.01 104.52 184.45 116.83 182.54C126.22 181.08 133.98 173.9 138.25 165.45C142.52 157 143.79 147.38 144.35 137.94C144.78 130.71 144.82 123.28 142.44 116.43H142.43Z" fill="white"/>
<path d="M149.67 195.67C149.67 195.67 144.05 212.71 134.94 219.69L125.07 209.03L110.88 220.47C110.88 220.47 103.42 210.77 103.57 200.11C103.57 200.11 103.6 199.85 103.71 199.41C104.1 197.71 105.62 193.26 110.88 190.45L117.82 195.79L123.69 200.3L129.48 195.29L140.65 185.62C140.65 185.62 146.56 189.49 149.67 195.67Z" fill="#C495CD"/>
<path d="M68.84 386.62C69.93 390.23 69.34 396.22 68.07 399.77C66.8 403.32 63.77 405.48 62.49 409.03C60.68 414.09 60.02 419.49 59.73 424.85C59.62 426.95 59.52 429.18 58.37 430.95C57.22 432.72 54.58 433.7 52.95 432.37C51.35 431.07 51.77 427.18 51.82 425.32C51.9 422.6 52.3 419.91 52.74 417.23C53.15 414.74 53.54 411.94 52.04 409.92C51.82 409.63 51.56 409.35 51.21 409.25C50.91 409.16 50.58 409.22 50.28 409.31C47.84 409.98 45.99 412.03 44.82 414.27C43.1 417.58 42.1 421.4 41.14 424.99C40.09 428.91 39.57 432.94 38.89 436.93C38.66 438.26 37.92 439.96 36.6 439.72C35.97 439.61 35.53 439.05 35.17 438.52C31.37 432.76 31.82 425.24 33.11 418.46C35.36 406.6 40.5 395.98 46.77 385.67C48.27 383.2 51.02 383.11 53.91 383C58.43 382.82 64.7 384.83 68.84 386.64V386.62Z" fill="white"/>
<path d="M181.25 217.13C177.76 211.6 175.89 204.72 176.44 198.16C177.01 191.46 175.74 184.87 177.53 178.17C177.99 176.44 178.67 174.56 179.77 173.15C179.9 172.99 180.03 172.83 180.22 172.74C180.66 172.55 181.15 172.89 181.42 173.28C182.77 175.27 182.18 177.96 182.08 180.24C182.03 181.46 181.98 182.7 182.23 183.9C182.35 184.49 183.69 186.49 183.63 186.79C184.88 179.87 186.71 173.09 189.59 166.67C190.3 165.07 191.14 163.48 192.44 162.31C193.57 161.29 195.08 160.25 196.45 161.5C197.11 162.1 197.54 162.92 198.26 163.44C198.39 163.54 198.54 163.62 198.71 163.63C199.1 163.64 199.33 163.23 199.63 162.98C200.55 162.23 202.72 164.28 203.03 165.02C203.8 166.87 203.05 168.35 202.69 170.1C202.27 172.18 202.31 174.67 202.95 176.69C203.05 173.98 203.82 171.3 205.17 168.94C205.4 168.53 205.69 168.11 206.14 167.96C207.17 167.62 207.95 168.95 208.13 170.02C208.51 172.29 208.28 174.62 208.06 176.91L206.05 197.3C209.43 194.01 209.22 186.68 213.32 184.35C214.48 183.69 216.24 183.62 216.9 184.79C217.23 185.37 217.18 186.09 217.09 186.76C216.5 191.07 214.68 195.13 214.09 199.44C213.66 202.55 213.88 205.75 213.16 208.8C212.18 212.92 209.43 216.58 205.75 218.66L181.27 217.13H181.25Z" fill="white"/>
<path d="M87.3397 127.46C84.8997 125.92 82.6497 124 81.1197 121.56C79.5897 119.12 78.4197 114.5 79.0597 111.69C76.6297 113.09 74.6597 115.59 73.4097 118.04C72.7697 119.3 69.7897 126 70.6297 127.2C68.0197 123.43 65.1697 116.94 66.4297 112.25C67.0197 110.06 68.7097 108.34 70.4497 106.88C78.3197 100.28 89.3297 96.3498 99.4097 94.9598C110.07 93.4898 121.01 94.6798 131.32 97.6498C135.69 98.9098 140.12 100.57 143.36 103.76C146.87 107.22 148.59 112.1 149.5 116.94C150.08 120.01 150.38 123.2 149.61 126.23C148.85 129.26 145.11 132.96 142.21 134.13C141.83 137.12 141.36 140.23 139.62 142.68C138.88 143.72 137.77 144.66 136.5 144.55C136.59 141.02 136.43 137.47 136.02 133.96C135.85 132.5 135.21 130.82 134.51 129.53C132.76 130.44 130.64 129.64 128.89 128.74C119.04 123.68 109.82 114.21 104.86 104.3C102.77 110.61 102.93 117.79 104.54 124.24C100.54 123.02 97.2797 119.94 95.2397 116.3C93.1997 112.65 91.1297 111.31 90.7897 107.15C86.0997 114.52 86.5897 120.1 87.3497 127.45L87.3397 127.46Z" fill="#512524"/>
<path d="M140.24 158.32C143.7 158.51 147.25 158.11 150.38 156.63C153.51 155.16 156.19 152.53 157.26 149.24C158.07 146.76 157.93 144.06 157.47 141.49C157.02 138.99 156.26 136.49 154.75 134.44C153.24 132.39 150.9 130.85 148.36 130.77C146.16 130.7 144.05 131.7 142.24 132.96C139.94 141.14 141.14 149.86 140.24 158.31V158.32Z" fill="white"/>
<path d="M94.23 137.55C94.23 139.67 93.23 141.39 92 141.39C90.77 141.39 89.77 139.67 89.77 137.55C89.77 135.43 90.77 133.71 92 133.71C93.23 133.71 94.23 135.43 94.23 137.55Z" fill="#3A2323"/>
<path d="M112.79 138.63C114.022 138.63 115.02 136.91 115.02 134.79C115.02 132.669 114.022 130.95 112.79 130.95C111.558 130.95 110.56 132.669 110.56 134.79C110.56 136.91 111.558 138.63 112.79 138.63Z" fill="#3A2323"/>
<path d="M86.5299 100.15C79.4499 101.37 71.7599 102.58 65.6599 106.65C63.2299 108.27 60.9999 110.59 60.4799 113.57C60.0099 116.27 60.8199 119.05 63.0899 120.69C63.9799 121.33 64.8299 119.86 63.9499 119.22C61.9299 117.77 61.6299 114.85 62.4899 112.66C63.5299 110 66.0899 108.21 68.5299 106.93C74.2399 103.95 80.6999 102.87 86.9799 101.79C88.0599 101.6 87.5999 99.9701 86.5299 100.15Z" fill="#512524"/>
<path d="M139.7 103.33C138.17 99.8399 138.33 95.6899 139.9 92.2399C141.46 88.8199 145.17 84.8399 149.32 85.7799C150.39 86.0199 150.84 84.3799 149.77 84.1399C144.93 83.0499 140.5 87.0599 138.54 91.1399C136.56 95.2399 136.4 99.9999 138.22 104.18C138.66 105.18 140.12 104.32 139.69 103.32L139.7 103.33Z" fill="#512524"/>
<path d="M138.97 102.36C140.02 99.44 142.66 97.23 145.69 96.61C146.14 96.52 146.4 95.99 146.28 95.56C146.15 95.09 145.69 94.87 145.23 94.97C141.6 95.72 138.57 98.44 137.32 101.91C137.16 102.34 137.5 102.84 137.91 102.96C138.38 103.09 138.8 102.8 138.96 102.37L138.97 102.36Z" fill="#512524"/>
<path d="M160.34 136.08C164.38 140.22 168.5 144.44 171.16 149.64C173.73 154.65 174.75 160.86 172.3 166.11C171.84 167.1 173.31 167.96 173.77 166.97C176.34 161.46 175.6 155.15 173.1 149.75C170.44 144 165.91 139.36 161.54 134.88C160.77 134.1 159.57 135.3 160.34 136.08Z" fill="#512524"/>
<path d="M72.8697 143.82C65.4797 154.05 57.3797 167.2 62.5097 180.24C63.7097 183.31 65.6297 186.15 68.5797 187.75C69.5397 188.27 70.3997 186.81 69.4397 186.28C66.1697 184.5 64.3297 181.01 63.4097 177.53C62.3897 173.69 62.4997 169.62 63.3397 165.76C65.0497 157.89 69.6997 151.11 74.3397 144.69C74.9797 143.8 73.5097 142.95 72.8697 143.83V143.82Z" fill="#512524"/>
<path d="M132.52 126.97C134.1 131.43 135.92 136.56 133.91 141.2C133.48 142.19 134.94 143.06 135.38 142.06C137.6 136.92 135.93 131.52 134.16 126.52C133.8 125.5 132.15 125.94 132.52 126.97Z" fill="#512524"/>
<path d="M147.59 136.34C144.5 140.48 143.29 145.61 142.41 150.61C142.25 151.5 143.47 152.17 143.96 151.26C145.56 148.3 148.2 146 151.38 144.88C152.4 144.52 151.96 142.88 150.93 143.24C147.34 144.5 144.31 147.04 142.5 150.4C143.02 150.62 143.54 150.84 144.05 151.05C144.9 146.18 146.05 141.22 149.06 137.19C149.71 136.31 148.24 135.46 147.59 136.33V136.34Z" fill="#3A2323"/>
<path d="M99.64 133C99.24 138.02 98.9 143.04 98.65 148.07C98.55 150.01 98.78 151.83 100.55 152.95C102.33 154.07 104.48 153.75 106.43 153.36C107.5 153.14 107.05 151.5 105.98 151.72C104.36 152.05 102.08 152.48 100.85 151.01C100.21 150.24 100.3 149.2 100.34 148.27C100.38 147.29 100.44 146.31 100.5 145.33C100.73 141.22 101.02 137.11 101.35 133C101.44 131.91 99.74 131.92 99.65 133H99.64Z" fill="#3A2323"/>
<path d="M124.3 161.28C123.91 161.84 123.31 162.22 122.73 162.57C117.45 165.77 110.6 166.78 104.59 168.35C104.32 168.42 104.05 168.49 103.79 168.56C102.21 168.99 100.07 169.17 99.9901 166.96C99.9301 165.29 100.6 164.15 101.56 162.84C104.11 159.34 108.03 156.88 112.29 156.09C112.76 156 113.59 155.95 114.61 155.96C117.92 155.99 123.23 156.65 124.58 158.66C125.05 159.35 125.04 160.22 124.3 161.28Z" fill="#3A2323"/>
<path d="M124.3 161.28C123.91 161.84 123.31 162.22 122.73 162.57C117.45 165.77 110.6 166.78 104.59 168.35C105.12 166.96 105.85 165.63 106.61 164.35C108.42 161.32 110.56 158.33 113.59 156.52C113.92 156.32 114.26 156.14 114.61 155.96C117.92 155.99 123.23 156.65 124.58 158.66C125.05 159.35 125.04 160.22 124.3 161.28Z" fill="#EE999A"/>
<path d="M110.29 170.43C112.59 170.14 114.87 169.68 117.09 169C118.13 168.68 117.69 167.04 116.64 167.36C114.57 167.99 112.44 168.47 110.29 168.73C109.83 168.79 109.44 169.08 109.44 169.58C109.44 170 109.83 170.49 110.29 170.43Z" fill="#3A2323"/>
<path d="M85.9799 131.5C87.6299 134.49 91.5199 136 94.7499 134.85C95.1799 134.7 95.4699 134.27 95.3399 133.8C95.2299 133.38 94.7299 133.05 94.2899 133.21C91.7699 134.11 88.7599 133.03 87.4399 130.64C86.9099 129.68 85.4399 130.54 85.9699 131.5H85.9799Z" fill="#3A2323"/>
<path d="M108.53 132.62C111.68 133.29 115.11 131.77 116.64 128.91C117.16 127.95 115.69 127.09 115.17 128.05C113.99 130.24 111.35 131.48 108.98 130.98C108.53 130.89 108.06 131.11 107.93 131.57C107.81 131.99 108.07 132.52 108.52 132.62H108.53Z" fill="#3A2323"/>
<path d="M103.24 199.37C106.45 204.5 109.68 209.62 112.94 214.72C113.31 215.31 114.02 215.22 114.41 214.72C118 210.07 121.4 205.29 124.62 200.38C125.22 199.46 123.75 198.61 123.15 199.52C119.93 204.43 116.53 209.21 112.94 213.86H114.41C111.15 208.76 107.92 203.64 104.71 198.51C104.13 197.58 102.66 198.44 103.24 199.37Z" fill="#3A2323"/>
<path d="M123.44 200.2C126.02 203.65 129.28 206.45 132.51 209.28C134.11 210.69 135.71 212.11 137.19 213.65C137.76 214.25 138.62 215.63 139.62 215.08C140.37 214.67 140.27 213.44 139.4 213.25C138.33 213.03 137.88 214.67 138.95 214.89C138.98 214.89 139 214.9 139.03 214.91C138.83 214.71 138.63 214.51 138.44 214.32C138.49 214.13 138.54 213.94 138.59 213.75C138.87 213.68 139.14 213.6 139.42 213.53C139.26 213.49 138.9 212.97 138.75 212.81C138.46 212.51 138.17 212.21 137.88 211.91C137.26 211.29 136.62 210.68 135.98 210.09C134.71 208.93 133.41 207.81 132.12 206.67C129.55 204.41 126.98 202.09 124.93 199.34C124.28 198.47 122.81 199.32 123.46 200.2H123.44Z" fill="#3A2323"/>
<path d="M140.45 214.48C142.2 211.42 143.82 208.29 145.29 205.08C145.99 203.54 146.66 201.99 147.3 200.42C147.91 198.93 148.38 197.29 149.54 196.11C150.31 195.33 149.11 194.13 148.34 194.91C147.25 196.02 146.68 197.42 146.12 198.84C145.44 200.54 144.73 202.23 143.98 203.9C142.48 207.22 140.81 210.46 139 213.61C138.45 214.56 139.92 215.42 140.47 214.47L140.45 214.48Z" fill="#3A2323"/>
<path d="M123.03 200.79C121.36 205.77 122.26 211.04 122.61 216.15C122.98 221.68 122.98 227.23 122.74 232.77C122.24 243.9 120.76 254.94 119.36 265.98C117.95 277.06 116.75 288.15 116.18 299.31C115.61 310.48 115.57 321.67 116.04 332.84C116.29 338.65 116.63 344.47 117.24 350.26C117.77 355.31 118.45 360.45 120.01 365.3C120.34 366.34 121.98 365.89 121.65 364.85C120.24 360.47 119.57 355.85 119.06 351.29C118.51 346.34 118.18 341.37 117.92 336.4C117.34 325.37 117.27 314.32 117.71 303.29C118.15 292.19 119.17 281.14 120.54 270.13C121.9 259.22 123.45 248.32 124.19 237.34C124.6 231.26 124.76 225.15 124.49 219.06C124.23 213.22 122.79 206.93 124.69 201.24C125.04 200.2 123.4 199.75 123.05 200.79H123.03Z" fill="#3A2323"/>
<path d="M130.72 216.19C130.72 217.37 129.76 218.33 128.58 218.33C127.4 218.33 126.44 217.37 126.44 216.19C126.44 215.01 127.4 214.05 128.58 214.05C129.76 214.05 130.72 215.01 130.72 216.19Z" fill="white"/>
<path d="M130.95 238.03C130.95 239.21 129.99 240.17 128.81 240.17C127.63 240.17 126.67 239.21 126.67 238.03C126.67 236.85 127.63 235.89 128.81 235.89C129.99 235.89 130.95 236.85 130.95 238.03Z" fill="white"/>
<path d="M129.15 260.53C129.15 261.71 128.19 262.67 127.01 262.67C125.83 262.67 124.87 261.71 124.87 260.53C124.87 259.35 125.83 258.39 127.01 258.39C128.19 258.39 129.15 259.35 129.15 260.53Z" fill="white"/>
<path d="M125.88 279.55C125.88 280.73 124.92 281.69 123.74 281.69C122.56 281.69 121.6 280.73 121.6 279.55C121.6 278.37 122.56 277.41 123.74 277.41C124.92 277.41 125.88 278.37 125.88 279.55Z" fill="white"/>
<path d="M124.08 298.68C124.08 299.86 123.12 300.82 121.94 300.82C120.76 300.82 119.8 299.86 119.8 298.68C119.8 297.5 120.76 296.54 121.94 296.54C123.12 296.54 124.08 297.5 124.08 298.68Z" fill="white"/>
<path d="M121.27 318.94C122.452 318.94 123.41 317.982 123.41 316.8C123.41 315.618 122.452 314.66 121.27 314.66C120.088 314.66 119.13 315.618 119.13 316.8C119.13 317.982 120.088 318.94 121.27 318.94Z" fill="white"/>
<path d="M123.63 334.02C123.63 335.2 122.67 336.16 121.49 336.16C120.31 336.16 119.35 335.2 119.35 334.02C119.35 332.84 120.31 331.88 121.49 331.88C122.67 331.88 123.63 332.84 123.63 334.02Z" fill="white"/>
<path d="M125.21 351.35C125.21 352.53 124.25 353.49 123.07 353.49C121.89 353.49 120.93 352.53 120.93 351.35C120.93 350.17 121.89 349.21 123.07 349.21C124.25 349.21 125.21 350.17 125.21 351.35Z" fill="white"/>
<path d="M168.76 301.22C165.65 305.58 161.75 309.37 157.31 312.36C156.41 312.97 157.26 314.44 158.17 313.83C162.87 310.67 166.95 306.69 170.23 302.08C170.87 301.19 169.39 300.34 168.76 301.22Z" fill="#3A2323"/>
<path d="M166.49 306.15C165.31 308.72 163.93 311.18 162.34 313.52C162.08 313.9 162.27 314.46 162.64 314.68C163.06 314.93 163.54 314.76 163.8 314.38C165.38 312.04 166.77 309.58 167.95 307.01C168.14 306.59 168.07 306.09 167.65 305.85C167.28 305.64 166.68 305.74 166.49 306.15Z" fill="#3A2323"/>
<path d="M77.0601 249.96C71.8101 262.44 74.4501 277.11 83.6801 286.99C86.0801 289.56 88.8801 291.76 91.9401 293.49C92.8901 294.03 93.7501 292.56 92.8001 292.02C81.9201 285.85 75.3701 273.89 76.1101 261.38C76.3401 257.6 77.2301 253.89 78.7001 250.4C79.1201 249.39 77.4801 248.95 77.0601 249.95V249.96Z" fill="#3A2323"/>
<path d="M85.8699 290.11C86.6499 292.79 88.4699 295.12 90.8999 296.5C91.2999 296.73 91.8299 296.59 92.0599 296.19C92.2899 295.8 92.1499 295.26 91.7599 295.03C90.7099 294.43 89.8599 293.7 89.0699 292.71C89.0099 292.64 88.9799 292.59 88.8799 292.45C88.7899 292.33 88.7099 292.2 88.6299 292.08C88.4699 291.83 88.3099 291.57 88.1699 291.3C88.0999 291.17 88.0299 291.03 87.9699 290.9C87.9299 290.82 87.8899 290.74 87.8599 290.65C87.8999 290.75 87.8399 290.59 87.8199 290.56C87.6999 290.27 87.5999 289.97 87.5099 289.66C87.3799 289.22 86.9099 288.94 86.4599 289.07C86.0199 289.19 85.7399 289.67 85.8699 290.12V290.11Z" fill="#3A2323"/>
<path d="M119.93 405.24C124.74 403.68 129.54 402.12 134.35 400.56C135.39 400.22 134.94 398.58 133.9 398.92L119.48 403.6C118.44 403.94 118.89 405.58 119.93 405.24Z" fill="#3A2323"/>
<path d="M119.3 410.27C118.72 418 118.79 425.78 118.86 433.52C118.94 442.41 119.17 451.3 119.4 460.18C119.51 464.22 119.62 468.26 119.69 472.29C119.71 473.38 121.41 473.39 121.39 472.29C121.08 455.65 120.36 439.01 120.56 422.36C120.61 418.33 120.7 414.29 121 410.27C121.08 409.18 119.38 409.18 119.3 410.27Z" fill="#3A2323"/>
<path d="M176.07 377.05C180.02 390.31 183.08 403.83 185.2 417.51C185.82 421.5 186.35 425.49 186.81 429.5C186.93 430.57 188.63 430.59 188.51 429.5C186.92 415.61 184.41 401.83 180.95 388.28C179.95 384.36 178.87 380.47 177.71 376.6C177.4 375.55 175.76 376 176.07 377.05Z" fill="#3A2323"/>
<path d="M187.51 439.79C188.38 443.37 188.75 447.1 189.23 450.75C189.86 455.57 190.44 460.41 190.99 465.24C191.18 466.96 191.38 468.68 191.54 470.4C191.64 471.48 193.34 471.49 193.24 470.4C192.43 461.76 191.36 453.12 190.07 444.54C189.81 442.8 189.57 441.05 189.15 439.34C188.89 438.28 187.25 438.73 187.51 439.79Z" fill="#3A2323"/>
<path d="M89 242.47C91.76 242.5 94.54 242.77 97.29 242.93C101.48 243.17 105.67 243.41 109.86 243.65C110.83 243.71 111.8 243.76 112.77 243.82L111.92 242.97C111.25 249.47 110.67 255.98 110.28 262.5C110.15 264.63 110.04 266.76 110.04 268.89C110.12 268.69 110.21 268.49 110.29 268.29C109 269.49 107.6 270.58 106.16 271.58C104.92 272.44 103.62 273.24 102.25 273.89C101.11 274.43 99.73 275.05 98.44 274.97C96.3 274.83 94.29 273.23 92.73 271.88C91.1 270.46 89.61 268.88 88.23 267.22C88 266.95 87.78 266.67 87.55 266.39C87.41 266.21 87.28 266.01 87.25 266.01C87.25 266.01 87.19 265.94 87.19 265.93C87.15 266.08 87.24 266.34 87.3 266.32C87.32 266.32 87.32 266.07 87.33 266.05C87.56 264.96 87.57 263.76 87.68 262.65C88.1 258.55 88.5299 254.46 88.9499 250.36C89.2499 247.45 89.55 244.55 89.85 241.64C89.96 240.55 88.26 240.56 88.15 241.64C87.7 246.04 87.24 250.44 86.79 254.84C86.5 257.69 86.2 260.54 85.91 263.4C85.81 264.37 85.29 266.02 85.82 266.91C86.31 267.73 87.07 268.49 87.69 269.2C88.78 270.45 89.94 271.66 91.18 272.77C93.42 274.78 96.49 277.19 99.71 276.57C103.66 275.81 107.3 273.06 110.32 270.54C110.67 270.25 111.07 269.96 111.38 269.62C111.78 269.18 111.75 268.75 111.76 268.17C111.78 266.45 111.87 264.74 111.96 263.02C112.34 256.33 112.95 249.65 113.63 242.98C113.68 242.5 113.2 242.15 112.78 242.13C105.92 241.73 99.0599 241.34 92.1999 240.96C91.1399 240.9 90.07 240.8 89.01 240.79C87.92 240.78 87.92 242.48 89.01 242.49L89 242.47Z" fill="#3A2323"/>
<path d="M83.8098 239.49C85.1898 236.96 86.3898 234.34 87.4098 231.64C87.5698 231.21 87.2298 230.71 86.8198 230.59C86.3398 230.46 85.9398 230.75 85.7698 231.18C84.8098 233.74 83.6598 236.22 82.3498 238.62C81.8198 239.58 83.2898 240.44 83.8198 239.48L83.8098 239.49Z" fill="#3A2323"/>
<path d="M196.08 164.09C193.08 171.89 191.31 180.1 190.79 188.44C190.72 189.53 192.42 189.53 192.49 188.44C192.99 180.25 194.77 172.2 197.72 164.54C198.11 163.52 196.47 163.08 196.08 164.09Z" fill="#3A2323"/>
<path d="M201.93 173.44C200.34 180.06 199.23 186.77 198.58 193.55C198.48 194.64 200.18 194.63 200.28 193.55C200.91 186.93 202.02 180.36 203.57 173.9C203.83 172.84 202.19 172.38 201.93 173.45V173.44Z" fill="#3A2323"/>
<path d="M181.24 182.09C181.69 185.18 182.13 188.27 182.58 191.36C182.65 191.81 183.22 192.06 183.63 191.95C184.12 191.82 184.29 191.36 184.22 190.9C183.77 187.81 183.33 184.72 182.88 181.63C182.81 181.18 182.24 180.93 181.83 181.04C181.34 181.17 181.17 181.63 181.24 182.09Z" fill="#3A2323"/>
<path d="M175.36 200.8C175.28 208.75 177.43 216.62 181.56 223.41C182.13 224.34 183.6 223.49 183.03 222.55C179.05 216 176.98 208.46 177.06 200.8C177.07 199.71 175.37 199.7 175.36 200.8Z" fill="#3A2323"/>
<path d="M181.42 222.82C180.86 230.19 178.93 237.33 177.48 244.55C176.05 251.67 175.13 258.91 174.75 266.16C174.53 270.37 174.49 274.6 174.63 278.82C174.66 279.91 176.36 279.92 176.33 278.82C176.1 271.42 176.4 264.01 177.26 256.65C178.12 249.32 179.76 242.18 181.27 234.97C182.11 230.95 182.81 226.91 183.12 222.81C183.2 221.72 181.5 221.72 181.42 222.81V222.82Z" fill="#3A2323"/>
<path d="M164.4 250.34C165.98 258.79 169.1 266.91 173.59 274.25C174.16 275.18 175.63 274.33 175.06 273.39C170.65 266.16 167.6 258.21 166.04 249.89C165.84 248.82 164.2 249.27 164.4 250.34Z" fill="#3A2323"/>
<path d="M231.03 166.33L233.61 166.15L239.39 154.72C239.19 154.47 237.35 154.05 237.35 154.05C237.35 154.05 233.73 156.66 233.54 157.03C233.35 157.4 230.09 163.21 230 164.32C229.91 165.43 231.03 166.33 231.03 166.33Z" fill="#F4BED9"/>
<path d="M231.75 158.53C229.3 162.32 228.72 166.31 230.46 167.43C232.2 168.55 235.59 166.38 238.04 162.59C240.49 158.8 241.07 154.81 239.33 153.69C237.59 152.57 234.2 154.74 231.75 158.53ZM234.93 160.59C232.95 163.66 230.84 165.82 230.23 165.43C229.62 165.03 230.72 162.22 232.71 159.16C234.69 156.09 236.8 153.93 237.41 154.32C238.02 154.72 236.92 157.53 234.93 160.59Z" fill="white"/>
<path d="M234.97 162.65L237.07 166.37L239.58 165.56L241.9 160.61L240.21 158.44L236.55 159.53L234.97 162.65Z" fill="#C495CD"/>
<path d="M238.63 162.04C239.72 162.04 239.73 160.34 238.63 160.34C237.53 160.34 237.53 162.04 238.63 162.04Z" fill="white"/>
<path d="M237.87 163.31C237.87 163.31 237.83 163.25 237.81 163.23C237.78 163.18 237.75 163.14 237.7 163.11C237.66 163.07 237.61 163.05 237.56 163.03C237.5 163.01 237.45 163.01 237.39 163.03C237.33 163.03 237.28 163.05 237.23 163.08C237.2 163.1 237.17 163.12 237.14 163.15C237.09 163.2 237.05 163.27 237.03 163.34C237.03 163.38 237.02 163.42 237.01 163.45C237.01 163.53 237.03 163.6 237.07 163.66L237.13 163.74C237.13 163.74 237.19 163.83 237.24 163.86C237.28 163.9 237.33 163.92 237.38 163.94C237.44 163.96 237.49 163.96 237.55 163.94C237.61 163.94 237.66 163.92 237.71 163.89C237.74 163.87 237.77 163.85 237.8 163.82C237.85 163.77 237.89 163.7 237.91 163.63C237.91 163.59 237.92 163.55 237.93 163.52C237.93 163.44 237.91 163.37 237.87 163.31Z" fill="white"/>
<path d="M224.46 166.36C219.42 169.63 214.88 173.63 211.02 178.25C210.32 179.08 211.52 180.29 212.22 179.45C215.98 174.95 220.39 171.02 225.31 167.83C226.22 167.24 225.37 165.76 224.45 166.36H224.46Z" fill="#3A2323"/>
<path d="M223.12 162.2C221.43 163.03 219.79 163.97 218.22 165C217.85 165.24 217.66 165.76 217.92 166.16C218.16 166.53 218.68 166.73 219.08 166.47C220.66 165.44 222.29 164.5 223.98 163.67C224.38 163.47 224.52 162.87 224.28 162.51C224.02 162.1 223.54 161.99 223.12 162.21V162.2Z" fill="#3A2323"/>
<path d="M244.57 153C244.64 153.08 244.71 153.16 244.78 153.24C244.72 153.17 244.76 153.22 244.79 153.26C244.82 153.3 244.85 153.35 244.88 153.39C245.01 153.58 245.13 153.78 245.23 153.98C245.28 154.08 245.33 154.17 245.37 154.27C245.43 154.4 245.33 154.16 245.37 154.29C245.39 154.34 245.41 154.39 245.43 154.44C245.51 154.66 245.57 154.88 245.62 155.1C245.64 155.21 245.66 155.31 245.68 155.42C245.69 155.49 245.69 155.52 245.68 155.43C245.68 155.48 245.69 155.54 245.7 155.59C245.72 155.8 245.73 156.02 245.72 156.23C245.72 156.34 245.72 156.44 245.7 156.55C245.7 156.57 245.67 156.78 245.69 156.68C245.7 156.59 245.68 156.75 245.68 156.77C245.64 157 245.59 157.22 245.52 157.44C245.39 157.87 245.67 158.39 246.11 158.49C246.57 158.59 247.02 158.35 247.16 157.9C247.81 155.79 247.24 153.43 245.76 151.8C245.46 151.47 244.86 151.47 244.56 151.8C244.24 152.15 244.24 152.65 244.56 153H244.57Z" fill="#3A2323"/>
<path d="M248.31 152.42C248.57 153.16 248.77 153.92 248.89 154.69C248.91 154.79 248.92 154.89 248.94 155C248.92 154.86 248.95 155.11 248.95 155.13C248.97 155.32 248.99 155.51 249 155.7C249.03 156.1 249.03 156.5 249.03 156.9C249.03 157.34 249.43 157.77 249.88 157.75C250.35 157.73 250.72 157.38 250.73 156.9C250.76 155.23 250.5 153.55 249.95 151.97C249.8 151.55 249.36 151.23 248.9 151.38C248.49 151.51 248.15 151.98 248.31 152.43V152.42Z" fill="#3A2323"/>
<path d="M52.8499 402.14C54.5799 412.4 47.3599 422.59 51.8599 432.67C52.3099 433.67 53.7699 432.8 53.3299 431.81C51.2599 427.19 52.0199 421.94 53.0199 417.15C54.0899 412.05 55.3699 406.92 54.4799 401.69C54.2999 400.61 52.6599 401.07 52.8399 402.14H52.8499Z" fill="#3A2323"/>
<path d="M49.1401 404.14C46.6301 409.77 42.3001 414.37 40.0101 420.11C38.7701 423.21 38.4501 426.49 38.6801 429.81C38.9001 432.88 39.8501 436.48 37.8401 439.16C37.1801 440.04 38.6601 440.88 39.3101 440.02C41.1901 437.51 40.8201 434.27 40.5201 431.34C40.1601 427.88 40.2101 424.48 41.4101 421.18C43.5501 415.31 48.0701 410.68 50.6001 405C51.0401 404.01 49.5801 403.14 49.1301 404.14H49.1401Z" fill="#3A2323"/>
<path d="M47.5497 413.05C47.5797 417.01 45.6797 420.57 44.7397 424.33C43.7997 428.12 44.1697 431.96 46.1297 435.38C46.6797 436.33 48.1397 435.47 47.5997 434.52C45.5697 430.99 45.6097 427.22 46.7597 423.41C47.7897 419.99 49.2797 416.69 49.2497 413.05C49.2497 411.96 47.5397 411.95 47.5497 413.05Z" fill="#3A2323"/>
<path d="M244.78 214.42C231.95 214.11 225.08 266.89 224.34 293.22C223.6 319.54 212.17 362.81 208.83 380.61L231.07 386.94L257.39 297.93C257.39 297.93 269.05 215.01 244.77 214.42H244.78Z" fill="white"/>
<path d="M231.28 386.28C233.09 400.41 230.87 417.35 220.79 427.41C220.05 428.15 219.26 428.91 218.25 429.15C217.24 429.39 215.97 428.83 215.83 427.8C215.01 429.37 213.24 430.49 211.48 430.25C210.31 430.09 209.67 429.11 208.63 428.79C207.48 428.44 206.61 429.2 205.52 428.11C201.31 423.9 200.3 417.28 201.05 411.57C201.91 405.07 204.73 399.31 206.95 393.14C204.64 394.73 202.56 396.67 200.81 398.86C200.18 399.66 199.56 400.51 198.71 401.06C197.85 401.61 196.66 401.79 195.84 401.18C194.83 400.44 194.82 398.95 194.94 397.7C195.07 396.36 195.23 395.01 195.71 393.76C196.76 391.08 199.15 389.21 201.32 387.31C205.23 383.87 208.69 379.92 211.57 375.58C215.25 375.2 218.88 376.62 222.18 378.28C225.49 379.94 227.96 384.64 231.28 386.26V386.28Z" fill="white"/>
<path d="M325.43 195.87C307.97 212.53 281.21 198.12 281.21 198.12C285.53 191.07 286.5 182.88 286.37 176.41C286.26 169.79 285 164.96 285 164.96L321.94 159.67C318.86 165.11 318.73 171.85 319.71 178.02C321.23 187.62 325.43 195.87 325.43 195.87Z" fill="white"/>
<g style="mix-blend-mode:multiply" opacity="0.39">
<path d="M319.71 178.02C312.64 179.15 305.44 179.43 298.3 178.88C294.24 178.57 290.11 177.94 286.37 176.41C286.26 169.79 285 164.96 285 164.96L321.94 159.67C318.86 165.11 318.73 171.85 319.71 178.02Z" fill="#939292"/>
</g>
<path d="M273.13 148.12C267.73 148.6 262.67 144.65 260.37 139.74C258.86 136.52 258.31 132.67 259.73 129.4C261.14 126.13 264.85 123.77 268.31 124.61C270.78 125.21 272.63 127.18 274.33 129.06C274.53 135.95 272.93 141.23 273.13 148.12Z" fill="white"/>
<path d="M327.5 148.57C332.74 149.97 338.4 146.94 341.51 142.5C343.55 139.59 344.75 135.88 343.91 132.42C343.08 128.96 339.83 125.99 336.28 126.23C333.75 126.4 331.58 128.02 329.58 129.59C328.2 136.35 328.88 141.82 327.5 148.57Z" fill="white"/>
<path d="M365.32 217.59C378.15 217.28 386.62 266.89 387.36 293.21C388.1 319.53 399.53 362.8 402.87 380.6L380.63 386.93L354.31 297.92C354.31 297.92 341.05 218.17 365.33 217.59H365.32Z" fill="white"/>
<path d="M380.41 386.28C378.6 400.41 380.82 417.35 390.9 427.41C391.64 428.15 392.43 428.91 393.44 429.15C394.45 429.39 395.72 428.83 395.86 427.8C396.68 429.37 398.45 430.49 400.21 430.25C401.38 430.09 402.02 429.11 403.06 428.79C404.21 428.44 405.08 429.2 406.17 428.11C410.38 423.9 411.39 417.28 410.64 411.57C409.78 405.07 406.96 399.31 404.74 393.14C407.05 394.73 409.13 396.67 410.88 398.86C411.51 399.66 412.13 400.51 412.98 401.06C413.84 401.61 415.03 401.79 415.85 401.18C416.86 400.44 416.87 398.95 416.75 397.7C416.62 396.36 416.46 395.01 415.98 393.76C414.93 391.08 412.54 389.21 410.37 387.31C406.46 383.87 403 379.92 400.12 375.58C396.44 375.2 392.81 376.62 389.51 378.28C386.2 379.94 383.73 384.64 380.41 386.26V386.28Z" fill="white"/>
<path d="M250.97 370.61L248.64 469.57H299.54L306.23 415.7L309.14 469.57H361.5L358.01 364.79L250.97 370.61Z" fill="#A44800"/>
<path d="M344.36 376.79C347.25 384.32 351.62 391.19 357.25 396.96C358.02 397.74 359.22 396.54 358.45 395.76C353.03 390.2 348.77 383.59 346 376.34C345.61 375.33 343.97 375.77 344.36 376.79Z" fill="#3A2323"/>
<path d="M262.01 372.11C262.3 382.11 256.1 390.47 250.37 398.07C249.71 398.94 251.19 399.79 251.84 398.93C257.77 391.08 264.02 382.43 263.72 372.11C263.69 371.02 261.99 371.01 262.02 372.11H262.01Z" fill="#3A2323"/>
<path d="M300.02 420.97C305.52 417.46 311.18 414.21 317 411.25C317.97 410.75 317.12 409.29 316.14 409.78C310.33 412.74 304.66 415.99 299.16 419.5C298.24 420.09 299.09 421.56 300.02 420.97Z" fill="#3A2323"/>
<path d="M297.39 382.71C297.88 394 298.83 405.26 300.25 416.47C300.39 417.54 302.09 417.55 301.95 416.47C300.53 405.26 299.57 394 299.09 382.71C299.04 381.62 297.34 381.61 297.39 382.71Z" fill="#3A2323"/>
<path d="M312.62 378.96C312.94 389.99 312.86 401.03 312.4 412.05C312.35 413.14 314.05 413.14 314.1 412.05C314.57 401.03 314.64 389.99 314.32 378.96C314.29 377.87 312.59 377.86 312.62 378.96Z" fill="#3A2323"/>
<path d="M274.83 113.52C271.13 128.22 271.14 143.84 274.88 158.53C275.37 160.45 275.95 162.42 277.22 163.94C278.45 165.42 280.22 166.35 281.99 167.12C296.01 173.24 313.2 171.4 325.61 162.44C326.85 161.54 328.08 160.55 328.84 159.22C329.5 158.07 329.78 156.73 330.04 155.43C332.4 143.55 334.29 131.47 333.63 119.37C333.42 115.49 332.92 111.55 331.24 108.05C324.88 94.8201 310.84 93.9001 298.01 93.2201C284.46 92.5101 277.9 101.34 274.84 113.51L274.83 113.52Z" fill="white"/>
<path d="M284.03 192.18C284.03 192.18 302.09 200.69 323.36 191.11C323.36 191.11 364.12 199.86 376.63 214.11C389.14 228.36 393.5 294.58 393.5 294.58C393.5 294.58 375.76 306.61 356.56 306.32L362.09 372.93C362.09 372.93 297.22 399.11 246.61 370.89L252.43 312.71C252.43 312.71 228.29 310.67 215.78 300.49C215.78 300.49 215.61 237.08 233.76 215.3C247.11 199.29 284.04 192.16 284.04 192.16L284.03 192.18Z" fill="#FA7B04"/>
<path d="M332.7 142.44C332.7 142.44 336.35 114.65 332.87 107.35C329.39 100.05 317.24 88.2402 295.35 91.8902C295.35 91.8902 281.63 89.9802 275.2 106.65C268.77 123.32 271.73 137.39 271.73 137.39L274.16 137.22C274.16 137.22 275.55 112.03 277.98 108.21C277.98 108.21 284.06 108.04 288.4 102.3C292.74 96.5702 294.82 94.1602 294.82 94.1602C295.43 98.2102 297.36 102.05 300.26 104.95C303.15 107.85 306.99 109.79 311.04 110.41C310.73 109.27 310.43 108.13 310.12 106.98C311.62 110.65 314.95 113.58 318.34 115.63C321.73 117.68 325.51 118.98 329.25 120.27C330.85 127.37 329.82 134.26 329.2 141.51C329.17 141.84 329.15 142.19 329.3 142.48C329.65 143.11 330.56 143.03 331.27 142.86" fill="#3A2323"/>
<path d="M294.71 92.97C293.25 95.46 293.63 98.65 294.24 101.35C294.88 104.21 296.11 106.93 297.8 109.32C298.43 110.21 299.9 109.36 299.27 108.46C297.76 106.33 296.64 103.96 296.01 101.42C295.42 99.06 294.89 96.05 296.19 93.83C296.74 92.88 295.28 92.03 294.72 92.97H294.71Z" fill="#3A2323"/>
<path d="M294.87 92.2099L293.18 85.5999C292.91 84.5399 291.27 84.9899 291.54 86.0499C292.1 88.2499 292.66 90.4599 293.23 92.6599C293.5 93.7199 295.14 93.2699 294.87 92.2099Z" fill="#3A2323"/>
<path d="M295.77 92.7501C296.02 90.3901 296.69 88.0601 297.7 85.9201C297.9 85.5101 297.81 85.0001 297.4 84.7601C297.03 84.5401 296.43 84.6501 296.24 85.0601C295.08 87.4901 294.36 90.0701 294.07 92.7501C294.02 93.2101 294.5 93.6001 294.92 93.6001C295.42 93.6001 295.72 93.2101 295.77 92.7501Z" fill="#3A2323"/>
<path d="M271.31 139.75C272.82 139.11 274.32 138.48 275.83 137.84C276.24 137.67 276.36 137.03 276.13 136.68C275.85 136.25 275.41 136.19 274.97 136.37C273.46 137.01 271.96 137.65 270.45 138.28C270.04 138.45 269.92 139.09 270.15 139.44C270.43 139.87 270.87 139.93 271.31 139.74V139.75Z" fill="#3A2323"/>
<path d="M272.08 141.58C273.14 141.5 274.15 141.21 275.1 140.71C275.49 140.5 275.65 139.92 275.4 139.55C275.14 139.15 274.66 139.02 274.24 139.25C274.06 139.35 273.88 139.43 273.69 139.51C273.76 139.48 273.83 139.45 273.89 139.42C273.36 139.64 272.8 139.8 272.22 139.87C272.3 139.86 272.37 139.85 272.45 139.84C272.33 139.86 272.2 139.87 272.08 139.88C271.85 139.9 271.65 139.96 271.48 140.13C271.33 140.28 271.22 140.52 271.23 140.73C271.25 141.16 271.61 141.62 272.08 141.58Z" fill="#3A2323"/>
<path d="M327.23 144.23C328.82 144.92 330.46 145.35 332.18 145.51C332.62 145.55 333.05 145.09 333.03 144.66C333.01 144.16 332.66 143.85 332.18 143.81C331.99 143.79 331.79 143.77 331.6 143.75C331.76 143.77 331.53 143.74 331.49 143.73C331.38 143.71 331.27 143.69 331.16 143.68C330.8 143.62 330.45 143.54 330.1 143.45C329.75 143.36 329.4 143.26 329.06 143.14C328.87 143.08 328.69 143.01 328.51 142.94C328.43 142.91 328.35 142.88 328.28 142.85C328.23 142.83 328.18 142.81 328.13 142.79C328.2 142.82 328.2 142.82 328.1 142.78C327.69 142.6 327.17 142.65 326.94 143.08C326.75 143.45 326.81 144.05 327.24 144.24L327.23 144.23Z" fill="#3A2323"/>
<path d="M327.96 146.94C328.77 147.06 329.58 147.18 330.39 147.31C330.62 147.35 330.83 147.35 331.04 147.22C331.22 147.12 331.38 146.91 331.43 146.71C331.48 146.49 331.47 146.25 331.34 146.06C331.23 145.89 331.05 145.7 330.83 145.67C330.02 145.55 329.21 145.43 328.4 145.3C328.17 145.26 327.96 145.26 327.75 145.39C327.57 145.49 327.41 145.7 327.36 145.9C327.31 146.12 327.32 146.36 327.45 146.56C327.56 146.73 327.74 146.92 327.96 146.95V146.94Z" fill="#3A2323"/>
<path d="M263.16 132.17C266.23 133.39 267.01 137.2 267.61 140.05C267.76 140.77 268.82 140.87 269.16 140.25C269.88 138.96 269.09 137.65 267.99 136.91C266.86 136.14 265.55 135.58 264.29 135.06C263.87 134.88 263.36 135.25 263.24 135.65C263.11 136.14 263.41 136.52 263.83 136.7C264.76 137.08 265.66 137.53 266.54 138.02C266.92 138.24 268.01 138.79 267.68 139.39C268.2 139.46 268.72 139.53 269.23 139.59C268.47 136 267.34 132.01 263.59 130.52C263.16 130.35 262.66 130.71 262.54 131.11C262.41 131.59 262.71 131.99 263.13 132.16L263.16 132.17Z" fill="#3A2323"/>
<path d="M338.55 132.21C337.81 132.33 337.31 132.94 336.93 133.54C336.52 134.2 336.16 134.88 335.84 135.58C335.18 137.01 334.67 138.5 334.33 140.05C334.24 140.46 334.42 140.89 334.82 141.05C335.24 141.22 335.62 141.05 335.88 140.7C336.68 139.65 338 138.94 339.3 138.81C339.76 138.77 340.15 138.45 340.15 137.96C340.15 137.53 339.76 137.07 339.3 137.11C337.33 137.3 335.61 138.26 334.42 139.84C334.94 140.06 335.46 140.28 335.97 140.5C336.25 139.19 336.65 137.9 337.2 136.67C337.48 136.04 337.79 135.43 338.14 134.84C338.27 134.61 338.43 134.33 338.56 134.15C338.73 133.93 338.77 133.89 339 133.85C339.45 133.78 339.71 133.21 339.59 132.8C339.46 132.32 339 132.13 338.54 132.21H338.55Z" fill="#3A2323"/>
<path d="M292.81 126.46C292.81 128.58 291.81 130.3 290.58 130.3C289.35 130.3 288.35 128.58 288.35 126.46C288.35 124.34 289.35 122.62 290.58 122.62C291.81 122.62 292.81 124.34 292.81 126.46Z" fill="#3A2323"/>
<path d="M310.47 130.3C311.702 130.3 312.7 128.581 312.7 126.46C312.7 124.339 311.702 122.62 310.47 122.62C309.239 122.62 308.24 124.339 308.24 126.46C308.24 128.581 309.239 130.3 310.47 130.3Z" fill="#3A2323"/>
<path d="M298.17 119.17C297.77 124.92 297.38 130.67 296.98 136.42C296.89 137.76 296.73 139.1 296.71 140.44C296.7 141.4 296.85 142.4 297.5 143.15C299.06 144.95 301.56 144.38 303.51 143.67C304.53 143.3 304.09 141.65 303.06 142.03C301.18 142.72 298.36 143.36 298.41 140.44C298.45 138.12 298.72 135.79 298.88 133.47C299.21 128.7 299.54 123.93 299.87 119.16C299.95 118.07 298.25 118.07 298.17 119.16V119.17Z" fill="#3A2323"/>
<path d="M284.37 122.17C286.56 122.52 288.75 122.82 290.95 123.08C291.48 123.14 292.01 123.2 292.54 123.26C293.02 123.31 293.53 123.42 294.02 123.39C295.2 123.32 295.35 122.03 295.62 121.12C295.93 120.07 294.29 119.62 293.98 120.67C293.96 120.74 293.6 121.86 293.62 121.87C293.93 121.73 293.97 121.67 293.73 121.68L293.53 121.66C293.26 121.63 293 121.61 292.73 121.58C291.87 121.49 291 121.39 290.14 121.29C288.36 121.07 286.58 120.82 284.81 120.54C284.36 120.47 283.9 120.66 283.76 121.13C283.65 121.53 283.9 122.1 284.35 122.18L284.37 122.17Z" fill="#3A2323"/>
<path d="M305.11 120.23C304.31 121.24 304.73 122.58 305.91 123.06C306.6 123.34 307.39 123.3 308.12 123.32C309.04 123.34 309.96 123.35 310.88 123.35C314.4 123.34 317.92 123.16 321.43 122.82C322.51 122.72 322.52 121.01 321.43 121.12C318.79 121.38 316.14 121.54 313.48 121.61C312.15 121.64 310.83 121.66 309.5 121.64C308.89 121.64 308.27 121.62 307.66 121.61C307.39 121.61 307.09 121.63 306.83 121.57C306.67 121.55 306.53 121.5 306.4 121.41C306.37 121.27 306.34 121.27 306.31 121.43C306.98 120.58 305.79 119.37 305.11 120.23Z" fill="#3A2323"/>
<path d="M310.38 154.55C305.24 155.62 300.11 156.69 294.97 157.76C294.58 157.84 294.03 157.94 293.45 157.98C292.07 158.08 290.53 157.86 290.55 156.27C290.6 152.03 298.55 149.88 301.75 149.39C303.22 149.17 305.32 149.12 307.42 149.33C309.8 149.56 312.17 150.12 313.58 151.13C314.1 151.5 314.41 151.84 314.55 152.14C315.26 153.61 311.94 154.22 310.38 154.55Z" fill="#3A2323"/>
<path d="M310.38 154.55C305.24 155.62 300.11 156.69 294.97 157.76C294.58 157.84 294.03 157.94 293.45 157.98C293.97 157.29 294.67 156.7 295.34 156.15C298.11 153.88 300.95 151.56 304.3 150.25C305.32 149.85 306.36 149.55 307.42 149.33C309.8 149.56 312.17 150.12 313.58 151.13C314.1 151.5 314.41 151.84 314.55 152.14C315.26 153.61 311.94 154.22 310.38 154.55Z" fill="#EE999A"/>
<path d="M278.11 194.42C281.7 200.6 289.42 200.88 295.75 200.99C303.08 201.12 310.6 201.12 317.65 198.8C321.25 197.62 324.61 195.85 327.51 193.4C328.35 192.69 327.14 191.5 326.31 192.2C321.38 196.37 314.97 198.27 308.64 198.94C305.18 199.31 301.69 199.36 298.21 199.32C294.8 199.29 291.28 199.39 287.91 198.75C284.59 198.11 281.33 196.57 279.58 193.55C279.03 192.6 277.56 193.46 278.11 194.41V194.42Z" fill="#3A2323"/>
<path d="M284.36 192.39C283.47 193.72 282.7 195.12 282.07 196.59C281.98 196.81 281.92 197.01 281.98 197.25C282.03 197.45 282.19 197.66 282.37 197.76C282.74 197.95 283.34 197.89 283.53 197.45C284.17 195.98 284.93 194.58 285.82 193.25C286.07 192.88 285.9 192.29 285.52 192.09C285.09 191.86 284.62 192 284.36 192.39Z" fill="#3A2323"/>
<path d="M287.4 194.15C286.72 195.31 286.25 196.61 286.07 197.94C286.04 198.18 286.03 198.38 286.16 198.6C286.26 198.78 286.47 198.94 286.67 198.99C287.07 199.08 287.65 198.87 287.72 198.4C287.8 197.78 287.95 197.17 288.15 196.57C288.2 196.42 288.26 196.27 288.32 196.12C288.33 196.09 288.4 195.88 288.33 196.09C288.36 196.01 288.4 195.93 288.43 195.86C288.56 195.57 288.71 195.29 288.87 195.01C289.1 194.63 288.97 194.06 288.56 193.85C288.15 193.63 287.64 193.75 287.4 194.15Z" fill="#3A2323"/>
<path d="M291.65 194.17C290.94 195.68 290.38 197.26 290.01 198.89C289.91 199.32 290.14 199.83 290.6 199.94C291.03 200.04 291.54 199.81 291.65 199.35C291.82 198.59 292.03 197.83 292.29 197.09C292.42 196.72 292.55 196.35 292.7 195.99C292.73 195.91 292.76 195.83 292.8 195.76C292.74 195.89 292.87 195.6 292.88 195.58C292.96 195.4 293.04 195.22 293.12 195.05C293.31 194.65 293.24 194.11 292.82 193.89C292.44 193.69 291.86 193.77 291.66 194.19L291.65 194.17Z" fill="#3A2323"/>
<path d="M295.48 195.84C294.91 197.3 294.64 198.87 294.67 200.43C294.67 200.87 295.06 201.3 295.52 201.28C295.97 201.26 296.38 200.91 296.37 200.43C296.37 200.05 296.37 199.67 296.4 199.29C296.41 199.13 296.43 198.97 296.45 198.81C296.43 198.99 296.47 198.67 296.48 198.63C296.49 198.55 296.51 198.47 296.52 198.39C296.65 197.67 296.85 196.97 297.12 196.28C297.28 195.86 296.94 195.33 296.53 195.23C296.04 195.12 295.66 195.38 295.48 195.82V195.84Z" fill="#3A2323"/>
<path d="M299.23 196.38C299.28 197.46 299.33 198.55 299.38 199.63C299.4 200.07 299.76 200.5 300.23 200.48C300.67 200.46 301.1 200.11 301.08 199.63C301.03 198.55 300.98 197.46 300.93 196.38C300.91 195.94 300.55 195.51 300.08 195.53C299.64 195.55 299.21 195.9 299.23 196.38Z" fill="#3A2323"/>
<path d="M303.91 195.46C304.3 197.1 304.84 198.69 305.5 200.25C305.67 200.66 306.31 200.78 306.66 200.55C307.09 200.27 307.15 199.83 306.97 199.39C307.02 199.51 306.9 199.22 306.89 199.2C306.86 199.12 306.83 199.04 306.79 198.96C306.72 198.77 306.64 198.59 306.57 198.4C306.43 198.04 306.31 197.67 306.19 197.3C305.95 196.55 305.73 195.79 305.55 195.02C305.45 194.59 304.93 194.29 304.5 194.43C304.05 194.58 303.8 195.01 303.91 195.48V195.46Z" fill="#3A2323"/>
<path d="M309.74 195.3C310.21 196.98 310.93 198.6 311.87 200.07C312.11 200.44 312.64 200.63 313.03 200.37C313.4 200.13 313.59 199.61 313.33 199.21C312.89 198.52 312.49 197.79 312.15 197.04C312.11 196.94 312.06 196.84 312.02 196.74C312.08 196.89 311.98 196.64 311.98 196.64C311.9 196.44 311.82 196.23 311.75 196.02C311.61 195.63 311.49 195.24 311.38 194.84C311.26 194.41 310.77 194.1 310.33 194.25C309.89 194.39 309.61 194.84 309.74 195.3Z" fill="#3A2323"/>
<path d="M315.69 194.03C316.31 195.4 317.04 196.71 317.86 197.97C318.1 198.34 318.62 198.53 319.02 198.27C319.39 198.03 319.58 197.51 319.32 197.11C318.5 195.85 317.78 194.53 317.15 193.17C316.96 192.76 316.35 192.63 315.99 192.87C315.57 193.14 315.49 193.6 315.69 194.03Z" fill="#3A2323"/>
<path d="M320.43 191.74C320.97 193.25 321.84 194.63 323 195.75C323.32 196.06 323.89 196.09 324.2 195.75C324.51 195.42 324.54 194.88 324.2 194.55C323.95 194.3 323.7 194.05 323.48 193.77C323.43 193.71 323.37 193.6 323.31 193.56C323.35 193.59 323.4 193.68 323.33 193.59C323.31 193.56 323.28 193.53 323.26 193.49C323.15 193.34 323.05 193.19 322.95 193.04C322.76 192.75 322.59 192.45 322.44 192.15C322.36 191.99 322.26 191.82 322.21 191.66C322.22 191.71 322.27 191.8 322.23 191.7C322.22 191.66 322.2 191.62 322.18 191.59C322.14 191.5 322.11 191.4 322.07 191.31C321.92 190.89 321.48 190.57 321.02 190.72C320.61 190.85 320.27 191.32 320.43 191.77V191.74Z" fill="#3A2323"/>
<path d="M248.88 251.56C249.92 257.26 250.95 262.96 251.99 268.65C252.19 269.72 253.82 269.27 253.63 268.2C252.59 262.5 251.56 256.8 250.52 251.11C250.32 250.04 248.69 250.49 248.88 251.56Z" fill="#3A2323"/>
<path d="M251.97 251.22C252.94 270.17 252.69 289.19 251.21 308.11C250.79 313.49 250.27 318.85 249.65 324.21C249.53 325.29 251.23 325.29 251.35 324.21C253.52 305.36 254.48 286.37 254.2 267.39C254.12 262 253.94 256.61 253.67 251.22C253.61 250.13 251.91 250.12 251.97 251.22Z" fill="#3A2323"/>
<path d="M351.37 252.34C353.43 270.36 354.67 288.47 355.08 306.6C355.19 311.71 355.24 316.82 355.23 321.93C355.23 323.02 356.93 323.03 356.93 321.93C356.98 303.79 356.22 285.66 354.62 267.59C354.17 262.5 353.65 257.41 353.07 252.33C352.95 251.26 351.25 251.24 351.37 252.33V252.34Z" fill="#3A2323"/>
<path d="M354.62 258.45C354.21 261.49 353.81 264.53 353.4 267.56C353.34 268.02 353.83 268.41 354.25 268.41C354.76 268.41 355.04 268.02 355.1 267.56C355.51 264.52 355.91 261.48 356.32 258.45C356.38 257.99 355.89 257.6 355.47 257.6C354.96 257.6 354.68 257.99 354.62 258.45Z" fill="#3A2323"/>
<path d="M310.51 244.17C303.4 259.65 297.7 275.76 293.51 292.27C293.24 293.33 294.88 293.78 295.15 292.72C299.3 276.35 304.93 260.37 311.98 245.03C312.43 244.04 310.97 243.18 310.51 244.17Z" fill="#3A2323"/>
<path d="M271.14 368.13C291.69 371.8 313.24 368.61 331.94 359.36C337.26 356.73 342.33 353.6 347.06 350.02C347.92 349.37 347.08 347.89 346.2 348.55C329.8 360.94 309.44 367.76 288.9 367.94C283.1 367.99 277.3 367.51 271.58 366.49C270.51 366.3 270.05 367.94 271.13 368.13H271.14Z" fill="#3A2323"/>
<path d="M326.04 371.51C328.3 371.68 330.54 370.92 332.69 370.34C334.91 369.74 337.12 369.09 339.32 368.39C343.71 367 348.05 365.43 352.32 363.7C353.32 363.29 352.88 361.65 351.87 362.06C347.73 363.74 343.52 365.27 339.26 366.63C337.19 367.29 335.12 367.91 333.03 368.48C330.79 369.1 328.4 369.98 326.05 369.81C324.96 369.73 324.96 371.43 326.05 371.51H326.04Z" fill="#3A2323"/>
<path d="M310 414.53C311.21 421.24 311.8 428.07 312.34 434.85C312.95 442.59 313.39 450.35 313.71 458.11C313.85 461.66 313.97 465.22 314.04 468.77C314.06 469.86 315.76 469.87 315.74 468.77C315.45 454.08 314.69 439.32 313.1 424.71C312.71 421.15 312.27 417.6 311.64 414.07C311.45 412.99 309.81 413.45 310 414.52V414.53Z" fill="#3A2323"/>
<path d="M218.93 388.06C214.91 394.37 213.7 402.21 215.59 409.44C215.87 410.5 217.51 410.05 217.23 408.99C215.45 402.18 216.62 394.86 220.4 388.92C220.99 387.99 219.52 387.14 218.93 388.06Z" fill="#3A2323"/>
<path d="M216.72 427.87C219.02 423.96 220.77 419.73 221.9 415.33C222.17 414.27 220.53 413.82 220.26 414.88C219.17 419.15 217.48 423.22 215.25 427.02C214.69 427.96 216.16 428.82 216.72 427.88V427.87Z" fill="#3A2323"/>
<path d="M213.69 412.62C211.85 417.89 210.98 423.46 211.13 429.04C211.16 430.13 212.86 430.14 212.83 429.04C212.69 423.6 213.54 418.21 215.33 413.07C215.69 412.04 214.05 411.59 213.69 412.62Z" fill="#3A2323"/>
<path d="M206.99 409.82C206.16 416.1 206.41 422.46 207.7 428.66C207.92 429.73 209.56 429.28 209.34 428.21C208.09 422.16 207.88 415.95 208.69 409.82C208.83 408.74 207.13 408.75 206.99 409.82Z" fill="#3A2323"/>
<path d="M207.9 388.77C205.7 394.36 203.91 400.09 202.53 405.94C202.28 407 203.92 407.46 204.17 406.39C205.55 400.55 207.34 394.81 209.54 389.22C209.94 388.2 208.3 387.76 207.9 388.77Z" fill="#3A2323"/>
<path d="M400.82 387.82C404.44 392.36 406.66 397.97 407.13 403.75C407.22 404.83 408.92 404.84 408.83 403.75C408.31 397.48 405.95 391.54 402.02 386.62C401.34 385.77 400.14 386.97 400.82 387.82Z" fill="#3A2323"/>
<path d="M389.65 388.79C392.57 393.59 393.91 399.16 393.53 404.76C393.46 405.85 395.16 405.85 395.23 404.76C395.63 398.88 394.18 392.96 391.12 387.93C390.55 387 389.08 387.85 389.65 388.79Z" fill="#3A2323"/>
<path d="M388.89 410C389.53 411.15 389.79 412.45 390.15 413.7C390.54 415.06 390.96 416.41 391.42 417.75C392.32 420.36 393.35 422.91 394.5 425.42C394.96 426.41 396.42 425.55 395.97 424.56C394.8 422.01 393.76 419.4 392.87 416.74C392.43 415.45 392.03 414.14 391.66 412.83C391.31 411.57 390.99 410.3 390.35 409.15C389.82 408.19 388.35 409.05 388.88 410.01L388.89 410Z" fill="#3A2323"/>
<path d="M394.63 407.81C396.19 415.02 400.24 421.6 400.75 429.05C400.82 430.14 402.52 430.14 402.45 429.05C401.93 421.42 397.87 414.73 396.27 407.36C396.04 406.29 394.4 406.74 394.63 407.81Z" fill="#3A2323"/>
<path d="M400.85 406.17C403.5 412.31 405.27 418.8 406.16 425.43C406.31 426.51 407.94 426.05 407.8 424.98C406.89 418.19 405.03 411.6 402.31 405.32C401.88 404.32 400.41 405.18 400.84 406.18L400.85 406.17Z" fill="#3A2323"/>
<path d="M375.55 190.67C379.49 190.43 383.77 190.1 387.47 191.76C390.71 193.21 393.06 196.04 394.8 199.06C396.78 202.49 398.43 206.47 398.31 210.5C398.22 213.74 396.58 217.35 393.43 218.67C392.13 219.21 391.89 221.1 393.43 221.56C398.4 223.04 402.64 226.75 404.64 231.56C406.84 236.85 406.13 243 403.06 247.78C402.01 249.41 404.61 250.92 405.65 249.29C409.22 243.73 409.95 236.51 407.39 230.4C405.02 224.74 400.1 220.41 394.24 218.66V221.55C401.02 218.71 402.37 210.85 400.42 204.43C398.49 198.08 394.46 191.31 388.03 188.76C384.08 187.19 379.7 187.41 375.55 187.66C373.63 187.78 373.62 190.78 375.55 190.66V190.67Z" fill="#F0C18C"/>
<path d="M342.36 56.4199C338.28 53.0299 333.96 49.5999 328.48 49.1199C323.65 48.6899 319.23 51.2299 317.24 55.6499C315.35 59.8499 315.91 64.5899 318.28 68.4799C320.72 72.4799 325.08 76.0899 329.84 76.6599C334.6 77.2299 338.33 74.2399 339.78 70.0399C341.23 65.8399 339.4 61.3999 335.94 58.7999C328.11 52.9099 317.27 59.3599 316.4 68.4599C316.02 72.3699 317.49 76.6299 320.62 79.1099C324.44 82.1299 329.91 81.8699 334.2 80.0599C338.2 78.3799 341.68 75.1699 343.07 70.9899C343.81 68.7499 343.97 66.0099 342.86 63.8699C341.84 61.8899 339.8 60.7999 337.66 60.4599C333.21 59.7599 328.47 61.2999 324.91 63.9699C323.14 65.2999 321.6 66.8999 320.39 68.7599C319.18 70.6199 318.16 72.6999 318.33 74.8599C318.99 83.5099 340.85 77.4799 334.89 66.8899C332.5 62.6399 327.08 60.6199 322.45 60.3499C318.12 60.0999 312.2 61.3999 310.07 65.6599C307.66 70.4699 313.11 74.5899 316.73 76.7799C320.91 79.3099 325.98 80.4099 330.76 79.0299C332.97 78.3899 334.98 77.2299 336.63 75.6199C337.31 74.9599 337.17 73.7199 336.33 73.2599C332.83 71.3599 328.16 72.8599 326.82 76.7199C326.21 78.4799 326.42 80.5099 327.29 82.1399C327.76 83.0199 328.42 83.7099 329.21 84.2999C329.64 84.6199 330.14 84.8899 330.53 85.2699C330.67 85.4099 330.79 85.5299 330.88 85.6999C330.97 85.8699 330.85 86.0599 331.08 85.8799C329.56 87.0299 331.06 89.6399 332.59 88.4699C334 87.3999 334.33 85.6199 333.42 84.0799C332.51 82.5399 330.53 82.1099 329.79 80.4699C328.37 77.2999 331.74 74.1699 334.8 75.8299L334.5 73.4699C328.7 79.1199 319.9 76.2999 314.65 71.4299C313.42 70.2799 311.82 68.7999 312.73 66.9899C313.5 65.4699 315.24 64.5299 316.8 64.0299C320.43 62.8599 324.53 63.0699 327.98 64.7199C330.8 66.0699 334.53 69.3099 332 72.6099C330.91 74.0399 329.16 74.9999 327.46 75.4999C325.76 75.9999 323.62 76.2699 322.01 75.5999C320.58 75.0099 321.6 72.7799 322.08 71.8199C322.81 70.3499 323.77 69.0199 324.94 67.8499C327.33 65.4599 330.51 63.8099 333.88 63.3699C335.45 63.1699 337.24 63.1299 338.69 63.8199C340.44 64.6499 340.79 66.5299 340.59 68.3099C340.23 71.5799 337.96 74.3799 335.26 76.0999C332.24 78.0199 328.27 79.0199 324.78 77.9399C321.82 77.0199 320.02 74.3399 319.49 71.3899C318.34 64.9899 324.28 58.0299 331.01 59.6799C334.06 60.4299 336.88 62.9699 337.25 66.2099C337.58 69.0799 335.8 72.1899 333.12 73.2999C329.56 74.7699 325.55 72.1999 323.1 69.7599C320.65 67.3199 318.89 63.9899 319.06 60.4599C319.21 57.2999 320.96 54.0699 323.91 52.7299C327.69 51.0099 332.03 52.6399 335.28 54.7299C337.03 55.8599 338.63 57.1799 340.22 58.5099C341.69 59.7399 343.83 57.6199 342.34 56.3899L342.36 56.4199Z" fill="#F0C18C"/>
<path d="M40.4101 97.6199C44.9201 99.3799 49.4301 101.15 53.9401 102.91C54.6901 103.21 55.5901 102.59 55.7901 101.86C56.0201 101.01 55.5001 100.31 54.7401 100.01C50.2301 98.2499 45.7201 96.4799 41.2101 94.7199C40.4601 94.4199 39.5601 95.0399 39.3601 95.7699C39.1301 96.6199 39.6501 97.3199 40.4101 97.6199Z" fill="#F0C18C"/>
<path d="M50.4899 66.01C54.3699 75.48 58.9499 84.64 64.2399 93.4C65.2399 95.05 67.8299 93.54 66.8299 91.89C61.6699 83.36 57.1499 74.45 53.3799 65.22C52.6599 63.46 49.7599 64.23 50.4899 66.02V66.01Z" fill="#F0C18C"/>
<path d="M72.25 76.7697C72.03 80.4797 72.76 84.1297 74.23 87.5297C74.55 88.2697 75.64 88.4397 76.28 88.0697C77.05 87.6197 77.14 86.7597 76.82 86.0197C75.56 83.1297 75.06 79.9597 75.25 76.7797C75.3 75.9997 74.53 75.2497 73.75 75.2797C72.9 75.3197 72.3 75.9397 72.25 76.7797V76.7697Z" fill="#F0C18C"/>
<path d="M48.2699 258.18C44.3799 269.68 45.1099 282.39 50.1099 293.43C50.9099 295.19 53.4899 293.66 52.6999 291.92C48.0199 281.61 47.5299 269.69 51.1599 258.98C51.7799 257.15 48.8799 256.36 48.2699 258.18Z" fill="#F0C18C"/>
<path d="M36.37 280.32C35.9 285.91 38.07 291.6 42.08 295.52C43.46 296.87 45.59 294.75 44.2 293.4C40.71 289.99 38.96 285.17 39.37 280.32C39.44 279.51 38.63 278.82 37.87 278.82C37 278.82 36.44 279.51 36.37 280.32Z" fill="#F0C18C"/>
</svg>
