<svg width="638" height="420" viewBox="0 0 638 420" fill="none" xmlns="http://www.w3.org/2000/svg">
<g clip-path="url(#clip0_575_1675)">
<path d="M314.61 419.66C368.999 419.66 413.09 410.965 413.09 400.24C413.09 389.514 368.999 380.82 314.61 380.82C260.221 380.82 216.13 389.514 216.13 400.24C216.13 410.965 260.221 419.66 314.61 419.66Z" fill="#EBEBEB"/>
<path d="M505.48 417.21C555.533 417.21 596.11 410.413 596.11 402.03C596.11 393.646 555.533 386.85 505.48 386.85C455.426 386.85 414.85 393.646 414.85 402.03C414.85 410.413 455.426 417.21 505.48 417.21Z" fill="#EBEBEB"/>
<path d="M199.79 329.48C339.98 328.87 497.23 328.86 637.42 329.48C497.23 330.1 339.98 330.09 199.79 329.48Z" fill="#263238"/>
<path d="M571.96 403.41C569.79 404.11 507.85 403.31 505.51 401.78C504.61 401.21 504.2 392.18 504.02 381.25C504.02 381.14 504.02 381.02 504.02 380.91C503.98 378.66 503.95 376.34 503.94 373.99C503.94 373.67 503.94 373.34 503.93 373.02C503.84 357.25 504.09 340.89 504.09 340.89L545.53 341.3L544.28 373.13L544.23 374.39L543.98 380.98L543.96 381.66C543.96 381.66 567.53 392.57 569.93 394.53C572.3 396.48 574.14 402.72 571.96 403.42V403.41Z" fill="#DD6A57"/>
<path d="M571.96 403.41C569.79 404.11 507.85 403.31 505.51 401.78C504.61 401.21 504.2 392.18 504.02 381.25C504.02 381.14 504.02 381.02 504.02 380.91C503.98 378.66 503.95 376.34 503.94 373.99C503.94 373.67 503.94 373.34 503.93 373.02L544.28 373.13L544.23 374.39L543.98 380.98L543.96 381.66C543.96 381.66 567.53 392.57 569.93 394.53C572.3 396.48 574.14 402.72 571.96 403.42V403.41Z" fill="#EBEBEB"/>
<path d="M571.96 403.41C570.61 403.85 546.62 403.7 527.83 403.17C516.1 402.85 506.41 402.36 505.51 401.78C504.62 401.22 504.21 392.44 504.03 381.71C504.03 381.56 504.03 381.41 504.03 381.26C504.03 381.15 504.03 381.02 504.03 380.91L544 380.99L543.98 381.67C543.98 381.67 567.55 392.58 569.94 394.53C572.32 396.48 574.15 402.73 571.98 403.42L571.96 403.41Z" fill="#FFC727"/>
<path d="M571.29 401C560.85 400.61 518.71 400.01 508.37 400.42C508.29 400.42 508.29 400.48 508.37 400.49C518.71 401.1 560.85 401.36 571.29 401.18C571.51 401.18 571.51 401.02 571.29 401.01V401Z" fill="#263238"/>
<path d="M548.43 381.15C544.33 380.33 539.3 380.9 536.12 383.78C536 383.89 536.16 384.06 536.29 384.03C540.36 382.8 544.16 382.03 548.41 381.67C548.71 381.64 548.73 381.21 548.43 381.15Z" fill="#263238"/>
<path d="M551.38 382.98C547.28 382.16 542.25 382.73 539.07 385.61C538.95 385.72 539.11 385.9 539.24 385.85C543.31 384.62 547.11 383.85 551.36 383.49C551.66 383.46 551.68 383.03 551.38 382.97V382.98Z" fill="#263238"/>
<path d="M554.32 384.8C550.22 383.98 545.19 384.55 542.01 387.43C541.89 387.54 542.05 387.72 542.18 387.67C546.25 386.44 550.05 385.67 554.3 385.31C554.6 385.28 554.62 384.85 554.32 384.79V384.8Z" fill="#263238"/>
<path d="M553.89 372.26C552.3 370.02 549.28 370.98 547.55 372.4C544.74 374.7 542.26 378.31 541.1 381.73C541.07 381.81 541.13 381.87 541.19 381.88C541.19 382.19 541.47 382.53 541.83 382.4C545.24 381.19 549.03 380.31 551.97 378.09C553.68 376.79 555.39 374.39 553.89 372.26ZM546.63 379.5C544.97 380.14 543.28 380.69 541.65 381.39C542.91 379.57 544.09 377.71 545.54 376.02C546.23 375.21 546.95 374.4 547.75 373.7C548.99 372.6 553.86 370.3 553.07 374.8C552.64 377.28 548.62 378.75 546.63 379.51V379.5Z" fill="#263238"/>
<path d="M530.68 380.52C534.05 382.01 537.94 381.98 541.54 382.38C541.91 382.42 542.1 382.03 542.04 381.73C542.1 381.7 542.15 381.64 542.1 381.56C540.18 378.5 536.94 375.55 533.68 373.96C531.67 372.98 528.51 372.74 527.48 375.29C526.51 377.7 528.72 379.65 530.69 380.52H530.68ZM528.86 377.57C527.06 373.37 532.33 374.49 533.79 375.28C534.73 375.78 535.62 376.41 536.47 377.03C538.27 378.34 539.84 379.88 541.49 381.36C539.74 381.06 537.97 380.91 536.21 380.67C534.11 380.39 529.85 379.89 528.86 377.57Z" fill="#263238"/>
<path d="M527.84 403.17C516.11 402.85 506.42 402.36 505.52 401.78C504.63 401.22 504.22 392.44 504.04 381.71C508.85 386 520.8 396.66 527.84 403.17Z" fill="#263238"/>
<path d="M491.38 162.46C491.38 162.46 500.68 267.13 502.2 275.11C502.55 276.93 502.77 286.82 502.91 299.54C503.23 327.28 503.04 377.33 503.04 377.33H546.7C546.7 377.33 545.4 290.63 543.47 274.67C541.54 258.7 529.18 162.46 529.18 162.46H491.38Z" fill="#263238"/>
<path d="M544.73 369.72C537.92 369.58 539.87 369.52 533.06 369.46C529.73 369.43 507.81 369.24 504.7 369.75C504.63 369.76 504.63 369.88 504.7 369.89C507.82 370.41 529.73 370.22 533.06 370.18C539.87 370.11 537.92 370.06 544.73 369.92C544.86 369.92 544.86 369.72 544.73 369.72Z" fill="#37474F"/>
<path d="M511.34 320.15C511.29 313.82 511.24 307.48 511.2 301.15C511.16 295.02 511.16 288.88 510.87 282.75C510.28 270.34 507.76 258.14 505.97 245.87C504.18 233.6 502.69 221.28 501.33 208.95C499.81 195.12 498.47 181.26 497.05 167.42C497.05 167.33 496.89 167.33 496.9 167.42C498.96 192.14 501.25 216.85 504.67 241.42C505.52 247.53 506.45 253.63 507.46 259.72C508.48 265.88 509.49 272.05 509.98 278.28C510.46 284.38 510.53 290.5 510.6 296.61C510.66 302.94 510.73 309.27 510.79 315.6C510.93 329.66 511.06 351.3 511.2 365.35C511.2 365.62 511.62 365.61 511.62 365.34C511.52 352.8 511.43 332.68 511.33 320.14L511.34 320.15Z" fill="#37474F"/>
<path d="M482.18 162.46C482.18 162.46 500.69 267.13 502.2 275.11C502.55 276.93 502.77 286.82 502.91 299.54V299.58L523.73 162.46H482.18Z" fill="#37474F"/>
<path d="M521.26 407.1C519.04 407.65 457.31 402.46 455.09 400.77C454.23 400.14 454.47 391.1 455.06 380.19C455.06 380.08 455.07 379.96 455.08 379.85C455.2 377.6 455.33 375.29 455.5 372.94C455.52 372.62 455.54 372.29 455.56 371.97C456.59 356.23 458 339.93 458 339.93L499.3 343.28L495.8 374.94L495.66 376.19L494.94 382.75L494.87 383.42C494.87 383.42 517.61 395.97 519.86 398.09C522.09 400.2 523.48 406.56 521.26 407.1Z" fill="#DD6A57"/>
<path d="M521.26 407.1C519.04 407.65 457.31 402.46 455.09 400.77C454.23 400.14 454.47 391.1 455.06 380.19C455.06 380.08 455.07 379.96 455.08 379.85C455.2 377.6 455.33 375.29 455.5 372.94C455.52 372.62 455.54 372.29 455.56 371.97L495.8 374.94L495.66 376.19L494.94 382.75L494.87 383.42C494.87 383.42 517.61 395.97 519.86 398.09C522.09 400.2 523.48 406.56 521.26 407.1Z" fill="#EBEBEB"/>
<path d="M521.26 407.1C519.04 407.65 457.31 402.46 455.09 400.77C454.23 400.14 454.47 391.1 455.06 380.19C455.06 380.08 455.07 379.96 455.08 379.85L494.94 382.75L494.87 383.42C494.87 383.42 517.61 395.97 519.86 398.09C522.09 400.2 523.48 406.56 521.26 407.1Z" fill="#FFC727"/>
<path d="M520.76 404.649C510.38 403.519 468.39 399.939 458.04 399.609C457.96 399.609 457.95 399.659 458.04 399.679C468.31 401.019 510.32 404.259 520.76 404.819C520.98 404.829 520.99 404.669 520.77 404.649H520.76Z" fill="#263238"/>
<path d="M499.37 383.23C495.34 382.12 490.28 382.33 486.9 384.98C486.77 385.08 486.92 385.27 487.05 385.24C491.2 384.31 495.04 383.81 499.3 383.75C499.6 383.75 499.65 383.31 499.36 383.23H499.37Z" fill="#263238"/>
<path d="M502.17 385.259C498.14 384.149 493.08 384.359 489.7 387.009C489.57 387.109 489.72 387.299 489.85 387.269C494 386.339 497.84 385.839 502.1 385.779C502.4 385.779 502.45 385.339 502.16 385.259H502.17Z" fill="#263238"/>
<path d="M504.98 387.29C500.95 386.18 495.89 386.39 492.51 389.04C492.38 389.14 492.53 389.33 492.66 389.3C496.81 388.37 500.65 387.87 504.91 387.81C505.21 387.81 505.26 387.37 504.97 387.29H504.98Z" fill="#263238"/>
<path d="M505.44 374.75C504.02 372.4 500.94 373.14 499.11 374.44C496.15 376.53 493.42 379.96 492.02 383.29C491.99 383.37 492.04 383.43 492.1 383.45C492.09 383.76 492.34 384.12 492.7 384.02C496.19 383.05 500.03 382.45 503.12 380.44C504.92 379.27 506.79 376.99 505.45 374.76L505.44 374.75ZM497.68 381.46C495.98 381.98 494.26 382.41 492.58 382.99C493.97 381.27 495.28 379.49 496.84 377.91C497.59 377.16 498.36 376.39 499.21 375.75C500.52 374.74 505.54 372.79 504.44 377.22C503.83 379.66 499.72 380.84 497.69 381.46H497.68Z" fill="#263238"/>
<path d="M481.7 381.34C484.95 383.06 488.84 383.32 492.4 383.96C492.77 384.03 492.99 383.65 492.95 383.34C493.01 383.32 493.06 383.26 493.02 383.18C491.32 379.99 488.3 376.82 485.16 375.01C483.22 373.89 480.09 373.42 478.88 375.89C477.74 378.23 479.81 380.33 481.71 381.33L481.7 381.34ZM480.1 378.26C478.61 373.95 483.78 375.44 485.18 376.32C486.08 376.89 486.92 377.58 487.73 378.26C489.43 379.69 490.89 381.34 492.43 382.93C490.7 382.5 488.95 382.23 487.21 381.87C485.13 381.44 480.93 380.64 480.1 378.26Z" fill="#263238"/>
<path d="M496.72 379.68L453.1 377.83C453.1 377.83 465.01 282.11 465.23 276.22C465.8 260.96 475.95 162.42 475.95 162.42H529.23C529.23 162.42 525.87 185.17 520.12 199.59C520.12 199.59 515.74 200.95 508.97 204.68C508.97 204.68 503.98 269.85 503.79 277.98C503.42 294.05 496.72 379.69 496.72 379.69V379.68Z" fill="#263238"/>
<path d="M495.56 371.69C488.76 371.26 490.72 371.29 483.91 370.93C480.58 370.76 458.7 369.64 455.56 370.02C455.49 370.02 455.49 370.14 455.56 370.16C458.65 370.81 480.55 371.54 483.88 371.65C490.69 371.87 488.74 371.74 495.55 371.88C495.68 371.88 495.69 371.69 495.55 371.68L495.56 371.69Z" fill="#37474F"/>
<path d="M479.85 168.26C477.87 193.08 475.84 217.9 473.57 242.69C471.29 267.57 468.63 292.42 465.38 317.19C463.57 331.03 461.56 350.52 459.41 364.32C459.4 364.41 459.54 364.45 459.55 364.36C463.94 339.85 467.18 309.45 469.93 284.71C472.68 259.98 474.92 235.17 476.93 210.37C478.06 196.34 479.09 182.3 480.16 168.26C480.18 168.06 479.86 168.06 479.85 168.26Z" fill="#37474F"/>
<path d="M522.02 198.6C517.5 200.15 513.14 202.36 508.97 204.68C508.81 204.77 508.91 205.02 509.09 204.95C513.49 203.06 517.97 201.26 522.25 199.13C522.59 198.96 522.36 198.49 522.01 198.61L522.02 198.6Z" fill="#37474F"/>
<path d="M523.41 168.44C523.4 168.29 523.13 168.25 523.13 168.42C523.17 173.64 522.83 178.23 522.39 183.11C522.19 185.37 520.36 197.89 516.44 196.97C515.78 196.82 515.45 196.17 515.34 195.18C515.22 193.99 515.66 192.53 515.86 191.34C516.3 188.72 516.65 186.09 516.87 183.45C517.29 178.51 517.31 173.57 516.71 168.65C516.69 168.49 516.46 168.5 516.46 168.66C516.46 175.5 516.29 182.32 515.26 189.09C514.77 192.34 513.13 197.24 516.53 197.74C520 198.25 522.24 190.04 522.66 187.8C523.84 181.54 523.89 174.77 523.39 168.43L523.41 168.44Z" fill="#37474F"/>
<path d="M516.55 197.31C516.2 198.15 515.91 199.02 515.67 199.9C515.48 200.58 515.23 201.32 515.3 202.03C515.32 202.17 515.5 202.18 515.57 202.09C516.03 201.51 516.22 200.71 516.48 200.02C516.78 199.22 517.09 198.42 517.37 197.61C517.55 197.07 516.76 196.79 516.55 197.31Z" fill="#37474F"/>
<path d="M498.78 172.54C498.74 172 498.78 171.43 498.61 170.92C498.58 170.84 498.48 170.85 498.45 170.92C498.3 171.37 498.31 171.86 498.27 172.32C498.21 172.86 498.14 173.39 498.09 173.93C497.97 175.03 497.78 176.13 497.51 177.2C497 179.24 495.99 181.09 494.51 182.59C493.07 184.05 491.33 185.13 489.44 185.93C487.33 186.82 485.11 187.16 482.93 187.8C482.84 187.83 482.87 187.96 482.96 187.96C485.31 188.03 487.83 187.41 490 186.57C491.95 185.82 493.81 184.69 495.29 183.2C496.82 181.65 497.85 179.77 498.37 177.66C498.63 176.58 498.75 175.49 498.79 174.38C498.82 173.76 498.82 173.16 498.77 172.54H498.78Z" fill="#37474F"/>
<path d="M551.59 168.85C552.31 178.59 553.81 190.66 548.94 200.54C547.99 202.48 546.46 203.11 546.46 203.11C544.36 207.58 541.62 207.93 541.62 207.93C538.39 211.49 535.53 211.46 535.53 211.46C535.53 211.46 533 216.68 529.6 215.68C525.78 214.57 530.07 207.46 530.04 202.1C529.97 189.83 526.43 170.6 526.05 167.06L551.58 168.84L551.59 168.85Z" fill="white"/>
<path d="M538.99 189.22C538.94 192.83 538.99 196.38 538.44 199.97C537.85 203.9 536.62 207.59 535.46 211.37C535.42 211.49 535.58 211.55 535.64 211.44C538.82 204.92 540.04 196.41 539.16 189.22C539.14 189.05 539 189.04 539 189.22H538.99Z" fill="#263238"/>
<path d="M546.39 188.1C546.14 191.61 545.67 197.78 541.49 207.91C541.48 207.94 541.53 207.98 541.55 207.94C545.14 201.72 546.66 195.23 546.56 188.11C546.56 187.89 546.41 187.86 546.39 188.1Z" fill="#263238"/>
<path d="M550.38 187.57C549.73 193.52 548.57 197.2 546.43 203.1C546.42 203.13 546.47 203.16 546.49 203.13C549.63 196.67 550.04 193.98 550.59 187.56C550.61 187.34 550.41 187.33 550.38 187.56V187.57Z" fill="#263238"/>
<path d="M529.03 187.33C528.39 185.74 527.55 186.06 526.69 188.99C525.82 191.96 524.94 204.26 520.66 203.58C516.37 202.91 518.7 185.75 519.7 180.74C521.38 172.34 526.48 166.38 526.48 166.38C526.86 169.82 528.19 180.58 529.02 187.32L529.03 187.33Z" fill="white"/>
<path d="M525.82 168.11C525.65 164.46 527.2 147.96 527.51 140.71C527.62 138.28 517.96 115.28 515.41 106.31C513.01 97.8898 515.63 96.8798 521.99 102.54C528.35 108.19 543.79 131.79 546.88 138.62C549.97 145.45 552.81 171.02 551.08 176.52C549.9 180.26 525.98 171.72 525.82 168.12V168.11Z" fill="white"/>
<path d="M525.36 163.23L553.41 172.74C553.41 172.74 551.32 145.55 546.77 136.96C542.22 128.37 532.93 114.34 524.04 103.33C515.15 92.3196 510.98 98.7696 516.5 111.7C520.9 122 526.41 140.26 526.42 141.73C526.43 143.2 525.36 163.24 525.36 163.24V163.23Z" fill="#FFC727"/>
<path d="M551.95 166.319C551.03 165.789 549.99 165.449 549 165.059C548 164.669 547.01 164.279 546 163.919C544.03 163.199 542.06 162.479 540.07 161.799C536.12 160.439 532.16 159.089 528.1 158.089C528.01 158.069 527.97 158.209 528.06 158.239C531.95 159.919 535.96 161.299 539.96 162.699C541.94 163.389 543.93 164.069 545.92 164.759C546.89 165.099 547.87 165.419 548.86 165.729C549.85 166.049 550.85 166.439 551.88 166.619C552.07 166.649 552.12 166.399 551.97 166.309L551.95 166.319Z" fill="#263238"/>
<path d="M525.36 163.23C525.36 163.23 526.44 143.19 526.42 141.72C526.41 140.25 520.9 121.99 516.5 111.69C512.83 103.11 513.45 97.3795 516.88 97.7295L549.23 171.32L525.36 163.23Z" fill="#263238"/>
<path d="M531.94 167.74C531.02 168.79 472.24 169.85 471.92 169.48C471.05 168.46 486.1 107.78 499.64 96.5696C502.55 94.1596 513.09 94.6496 514.55 95.4496C517.92 97.3096 520.98 101.08 523.35 107.9C528.09 121.55 532.73 166.83 531.93 167.75L531.94 167.74Z" fill="#FFC727"/>
<path d="M491.72 107.44C477.51 131.51 471.54 176.13 481.45 177.91C490.5 179.54 515.88 170.28 526.03 165.25C529.01 163.77 517.04 140.79 513.85 142.36C509.99 144.27 499.91 148.16 499.48 148.23C498.57 148.37 501.91 118.82 502.56 107.62C503.46 92.0199 497.06 98.3899 491.72 107.43V107.44Z" fill="white"/>
<path d="M546.25 128.28C548.29 130.27 546.96 132.91 546.96 132.91C546.96 132.91 549.2 133.33 550.46 135.12C551.9 137.17 549.32 140.33 549.32 140.33C549.32 140.33 551.5 141.22 552.64 143.25C553.82 145.35 551.67 148.91 551.67 148.91C551.67 148.91 553.24 150.86 552.97 153.32C552.51 157.52 546.7 160.33 543.02 162.15C539.34 163.97 526 165.8 523.72 166.36L513.04 142.75C513.04 142.75 527.21 129.9 531.84 128.37C535.74 127.08 543.95 126.05 546.25 128.29V128.28Z" fill="white"/>
<path d="M546.6 132.61C542.13 132.98 538.01 134.66 533.8 136.1C533.71 136.13 533.76 136.28 533.85 136.25C538.02 134.77 542.42 134.14 546.64 132.83C546.76 132.79 546.72 132.61 546.6 132.62V132.61Z" fill="#263238"/>
<path d="M549.09 140.06C548.08 140.17 547.11 140.62 546.18 140.99C545.17 141.39 544.17 141.81 543.18 142.25C541.19 143.12 539.22 144.04 537.28 145.01C537.19 145.05 537.24 145.2 537.33 145.16C539.31 144.3 541.31 143.46 543.33 142.68C544.34 142.29 545.35 141.91 546.37 141.53C547.31 141.18 548.34 140.89 549.19 140.34C549.32 140.26 549.24 140.04 549.09 140.06Z" fill="#263238"/>
<path d="M551.59 148.95C550.71 149.01 549.8 149.57 549.01 149.93C548.11 150.35 547.21 150.76 546.31 151.16C544.51 151.97 542.7 152.78 540.87 153.53C540.78 153.57 540.83 153.71 540.92 153.68C542.79 152.93 544.66 152.21 546.52 151.44C547.43 151.06 548.34 150.68 549.25 150.3C550.02 149.97 551.03 149.65 551.63 149.05C551.66 149.02 551.63 148.96 551.59 148.96V148.95Z" fill="#263238"/>
<path d="M500.27 147.23C498.73 146.43 503.05 118.34 503.15 105.97C503.25 93.6098 497.99 95.4998 491.57 106.91C484.7 119.14 474.55 145.01 476.36 168.85C476.93 176.3 476.64 181.77 493.22 177.65C510.23 173.43 521.52 168.49 521.52 168.49L511.84 143.01C511.84 143.01 500.7 147.46 500.25 147.22L500.27 147.23Z" fill="#FFC727"/>
<path d="M515.61 169.63C511.09 159.71 507.84 148.6 507.14 146.7C507.11 146.61 507.26 146.57 507.28 146.66C507.87 148.56 512.96 160.85 515.77 169.59C515.8 169.69 515.66 169.73 515.61 169.63Z" fill="#263238"/>
<path d="M488.09 152.19C489.01 151.63 490.08 151.24 491.08 150.82C492.02 150.42 492.95 150.01 493.89 149.61C494.3 149.44 494.7 149.27 495.11 149.1C495.07 149.1 495.03 149.11 494.99 149.11C494.41 149.16 493.82 149.21 493.23 149.26C492.64 149.3 492.05 149.31 491.47 149.39C491.37 149.4 491.35 149.25 491.44 149.24C492.02 149.19 492.59 149.05 493.17 148.95C493.77 148.85 494.37 148.76 494.97 148.67C495.5 148.59 496.03 148.54 496.56 148.48C497.47 148.1 498.38 147.74 499.3 147.38C499.28 145.42 499.51 143.42 499.67 141.47C499.83 139.42 500.01 137.38 500.23 135.34C500.44 133.34 500.7 131.34 500.99 129.35C501.14 128.35 501.76 122.29 502.05 120.68C502.07 120.58 502.2 120.6 502.19 120.71C502.16 122.28 501.54 128.5 501.46 129.5C501.41 130.23 501.35 130.96 501.29 131.69C501.31 131.65 501.33 131.61 501.35 131.57C501.62 130.98 501.88 130.38 502.14 129.79C502.67 128.58 503.19 127.36 503.6 126.11C503.63 126 503.8 126.06 503.77 126.17C503.41 127.46 503.07 128.76 502.66 130.03C502.46 130.67 502.23 131.3 501.99 131.92C501.75 132.51 501.53 133.18 501.17 133.71C501.17 133.71 501.16 133.71 501.15 133.72C501.1 134.32 501.06 134.92 501.01 135.52C500.85 137.53 500.68 139.53 500.53 141.54C500.39 143.38 500.33 145.25 500.11 147.08C501.99 146.37 503.88 145.7 505.77 145.01C506.73 144.66 507.7 144.32 508.67 143.98C509.7 143.61 510.82 143.36 511.82 142.93C511.91 142.89 511.98 143.03 511.89 143.06C510.87 143.42 509.89 143.98 508.89 144.41C507.95 144.81 507.01 145.21 506.07 145.6C504.08 146.43 502.09 147.27 500.09 148.07C498.11 148.86 496.11 149.56 494.1 150.27C493.1 150.63 492.09 150.97 491.08 151.33C490.12 151.67 489.13 152.08 488.13 152.28C488.07 152.29 488.05 152.21 488.1 152.18L488.09 152.19Z" fill="#263238"/>
<path d="M476.43 169.549C476.01 167.469 475.9 165.349 475.86 163.239C475.82 161.119 475.95 159.009 476.09 156.899C476.28 154.789 476.53 152.689 476.85 150.609L477.4 147.489C477.63 146.459 477.84 145.419 478.09 144.399C477.89 146.499 477.64 148.589 477.43 150.689C477.23 152.779 476.98 154.869 476.85 156.969C476.65 159.059 476.53 161.159 476.45 163.259C476.4 164.309 476.38 165.359 476.38 166.409C476.36 167.459 476.38 168.509 476.44 169.569L476.43 169.549Z" fill="#263238"/>
<path d="M514.07 104.48C510.77 105.5 504.66 100.76 502.11 96.7596C501.94 96.4796 502.36 85.0196 502.21 82.7396C502.18 82.2696 516.76 85.2596 516.76 85.2596C516.76 85.2596 515.67 90.1296 515.96 94.1096C515.99 94.4396 517.26 103.5 514.07 104.48Z" fill="white"/>
<path d="M516.75 85.2598C516.75 85.2598 516.54 86.1998 516.33 87.5998C511.97 92.3898 505.43 92.5698 502.12 92.2898C502.19 88.7298 502.3 84.0998 502.21 82.7398C502.17 82.2798 516.76 85.2498 516.76 85.2498L516.75 85.2598Z" fill="#263238"/>
<path d="M516.07 94.8598L512.95 103.49L502 93.0898L499.12 96.6498C499.12 96.6498 510.06 113.39 510.1 112.62L513.35 105.16L518.59 110.09L517.73 97.2898L516.06 94.8598H516.07Z" fill="#EBEBEB"/>
<path d="M518.53 103.74C518.32 101.63 518.16 99.5001 517.85 97.4101C517.84 97.3401 517.72 97.3101 517.71 97.3901C517.36 99.4501 518.22 107.5 518.27 109.44C518.27 109.44 518.25 109.43 518.25 109.42C518.03 109.21 513.4 105.09 513.36 105.16C512.64 106.35 510.25 111.78 510.09 112.28C508.36 109.62 501.74 99.9601 499.72 97.4601C499.66 97.3901 499.55 97.4601 499.6 97.5401C501.15 100.36 509.91 113.37 510.04 113.33C510.13 113.39 513.1 106.7 513.44 105.45C514.23 106.35 518.92 111.01 518.93 110.7C518.96 108.58 518.76 105.86 518.55 103.75L518.53 103.74Z" fill="#263238"/>
<path d="M501.79 57.7197C501.79 57.7197 497.09 59.6597 496.23 64.4297C495.36 69.1997 496.45 74.1997 496.86 74.4497C497.27 74.6997 501.8 57.7197 501.8 57.7197H501.79Z" fill="#263238"/>
<path d="M520.18 63.7897C521.83 68.8397 519.43 83.5697 515.88 86.9097C510.73 91.7597 502.15 92.3697 497.99 86.1497C493.96 80.1197 497.43 60.9797 501.41 57.9297C507.28 53.4397 517.75 56.3197 520.19 63.7797L520.18 63.7897Z" fill="white"/>
<path d="M507.58 73.3901C507.58 73.3901 507.65 73.4401 507.65 73.4901C507.53 74.5001 507.57 75.6801 508.45 76.0901C508.48 76.1001 508.47 76.1501 508.44 76.1501C507.33 75.9001 507.3 74.3301 507.58 73.3901Z" fill="#263238"/>
<path d="M508.58 72.4C510.22 72.42 510.07 75.7 508.55 75.68C507.05 75.67 507.21 72.38 508.58 72.4Z" fill="#263238"/>
<path d="M502.12 72.6201C502.12 72.6201 502.04 72.6601 502.04 72.7101C502.04 73.7301 501.85 74.8901 500.92 75.2001C500.89 75.2001 500.89 75.2601 500.92 75.2601C502.05 75.1501 502.27 73.6001 502.11 72.6301L502.12 72.6201Z" fill="#263238"/>
<path d="M501.25 71.5299C499.62 71.3399 499.37 74.6199 500.88 74.7899C502.37 74.9599 502.62 71.6899 501.25 71.5299Z" fill="#263238"/>
<path d="M507.89 81.5599C507.65 81.7999 507.4 82.1299 507.03 82.1599C506.68 82.1899 506.26 82.0299 505.94 81.8999C505.91 81.8899 505.88 81.9199 505.9 81.9499C506.16 82.3399 506.72 82.5899 507.19 82.4999C507.65 82.4199 507.88 82.0199 507.99 81.5999C508.01 81.5399 507.93 81.5199 507.89 81.5499V81.5599Z" fill="#263238"/>
<path d="M502.79 77.33C502.79 77.33 502.49 78.84 502.45 79.55C502.45 79.62 504.49 79.56 506.55 80.39C506.86 80.51 506.87 80.25 506.53 80.02C505.85 79.55 504.96 79.08 503.1 78.96C503.06 78.76 503.6 76.65 503.49 76.64C503.1 76.58 502.31 76.81 501.84 76.91C502.37 73.76 503.4 70.71 503.88 67.57C503.9 67.46 503.73 67.41 503.7 67.51C502.39 70.62 501.71 74.24 501.08 77.48C501 77.88 502.5 77.43 502.8 77.33H502.79Z" fill="#263238"/>
<path d="M510.55 70.3096C510.15 70.0996 509.74 69.9596 509.33 69.7896C508.86 69.5996 508.5 69.3896 507.98 69.4996C507.7 69.5596 507.47 69.9096 507.51 70.1896C507.58 70.8296 508.1 71.2096 508.66 71.4696C509.27 71.7496 509.8 71.8096 510.45 71.6396C511.07 71.4796 511.09 70.5896 510.56 70.3096H510.55Z" fill="#263238"/>
<path d="M499.49 67.0898C499.9 66.8998 500.32 66.7898 500.74 66.6498C501.22 66.4798 501.59 66.2998 502.1 66.4398C502.38 66.5098 502.58 66.8798 502.53 67.1498C502.42 67.7898 501.88 68.1398 501.31 68.3598C500.69 68.5998 500.15 68.6298 499.51 68.4198C498.9 68.2198 498.93 67.3398 499.48 67.0898H499.49Z" fill="#263238"/>
<path d="M518.63 77.8598C516.81 78.0898 515.73 72.5498 515.52 70.4598C515.33 68.6098 515.74 62.9298 515.72 62.5398C515.7 62.1398 507.33 66.1598 503.2 64.1298C499.07 62.0998 496.85 57.6798 497.1 55.8498C497.36 54.0198 503.57 50.3298 508.29 50.9098C513.01 51.4898 518.3 58.5398 518.3 58.5398C518.3 58.5398 516.6 55.5998 516.71 55.3998C516.82 55.1998 519.63 56.9398 519.81 59.1898C519.81 59.1898 519.68 56.3798 519.92 56.3698C520.16 56.3598 522.1 59.0798 521.26 60.7398C521.26 60.7398 523.56 63.5698 523.37 66.1898C523.17 68.8098 520.77 77.5898 518.64 77.8598H518.63Z" fill="#263238"/>
<path d="M500.26 62.6697C501.48 63.5097 502.69 64.4097 504.11 64.8597C505.65 65.3397 507.36 65.2297 508.93 64.9297C510.54 64.6197 512.05 64.0197 513.47 63.2097C514.71 62.4997 515.87 61.5897 517.17 60.9997C517.5 60.8497 517.76 61.3297 517.53 61.5697C515.3 63.9097 511.8 65.5697 508.62 65.9997C505.28 66.4497 502.43 65.2197 500.23 62.7097C500.22 62.6997 500.23 62.6597 500.25 62.6797L500.26 62.6697Z" fill="#263238"/>
<path d="M517.06 76.5299C517.06 76.5299 520.39 71.7899 522.54 72.9699C524.7 74.1599 522.19 81.04 519.66 81.98C517.13 82.92 516.21 80.5899 516.21 80.5899L517.06 76.5299Z" fill="white"/>
<path d="M521.77 74.9202C521.77 74.9202 521.82 74.9702 521.78 74.9902C520 75.7102 519.07 77.3502 518.41 79.0502C518.94 78.3902 519.66 78.0402 520.54 78.6602C520.59 78.6902 520.54 78.7702 520.49 78.7502C519.76 78.5902 519.24 78.7202 518.75 79.3002C518.4 79.7102 518.16 80.2302 517.91 80.7102C517.83 80.8702 517.54 80.7802 517.6 80.6002C517.6 80.5902 517.6 80.5702 517.61 80.5602C517.57 78.3002 519.33 75.1402 521.76 74.9102L521.77 74.9202Z" fill="#263238"/>
<path d="M514.28 74.28C512.99 74.28 513.68 71.84 513.95 70.99C514.21 70.13 514.28 68.25 514.28 68.25C514.28 68.25 514.35 70.13 514.62 70.99C514.89 71.84 515.58 74.28 514.28 74.28Z" fill="white"/>
<path d="M244.72 399.29C246.97 400.02 311.07 399.43 313.49 397.85C314.42 397.27 314.88 387.92 315.11 376.61C315.11 376.49 315.11 376.37 315.11 376.26C315.16 373.93 315.2 371.53 315.21 369.1C315.21 368.76 312.28 334.84 312.28 334.84L270.38 335.11L273.51 369.36L273.74 376.18L273.76 376.88C273.76 376.88 249.33 388.08 246.84 390.1C244.38 392.1 242.46 398.56 244.7 399.29H244.72Z" fill="white"/>
<path d="M314.97 382.48C314.7 391 314.26 397.37 313.49 397.85C311.07 399.42 246.96 400.02 244.71 399.28C242.46 398.56 244.38 392.1 246.85 390.1C247.81 389.32 252.04 387.18 256.87 384.84C254.35 387.57 253.09 390.58 259.82 390.58C271.79 390.58 292.66 388.61 314.97 382.48Z" fill="#263238"/>
<path d="M271.72 375.6H317.89C317.89 375.6 308.59 267.77 308.96 265.89C309.42 263.48 312.15 252.56 315.77 238.31C316.91 233.85 318.13 229.06 319.41 224.1C322.85 210.69 326.65 196.03 329.95 183.27C334.91 164.16 338.78 149.31 338.78 149.31H299.65C299.65 149.31 295.09 163.76 289.34 182.57C279.98 213.13 267.46 255.2 266.23 265.43C264.23 281.94 271.71 375.6 271.71 375.6H271.72Z" fill="#A6A6A6"/>
<path d="M273.77 367.73C280.82 367.58 278.79 367.53 285.85 367.46C289.3 367.43 311.98 367.23 315.2 367.76C315.27 367.77 315.27 367.89 315.2 367.9C311.98 368.43 289.3 368.24 285.85 368.2C278.8 368.13 280.82 368.07 273.77 367.93C273.64 367.93 273.64 367.73 273.77 367.72V367.73Z" fill="#263238"/>
<path d="M300.27 259.31C301.78 252.64 304.05 246.1 306.01 239.55C310.01 226.24 314.05 212.94 318.09 199.64C320.11 192.99 322.13 186.34 324.18 179.7C325.21 176.35 326.24 172.99 327.29 169.64C328.32 166.36 329.49 163.11 330.41 159.81C330.79 158.47 330.99 159.2 330.51 160.91C329.54 164.35 328.58 167.8 327.57 171.23C325.58 178.03 323.58 184.83 321.57 191.63C317.57 205.16 313.51 218.66 309.46 232.17C307.43 238.94 305.38 245.71 303.35 252.49C302.38 255.73 301.43 258.98 300.85 262.32C300.25 265.8 300.22 269.32 300.44 272.83C300.88 279.89 301.7 286.95 302.35 293.99C303 301.05 303.66 308.11 304.31 315.17C305.61 329.22 306.91 343.28 308.18 357.33C308.34 359.11 308.5 360.89 308.63 362.68C308.68 363.28 308.25 363.35 308.19 362.78C306.67 348.88 305.02 334.82 303.72 320.91C302.42 307.06 301.12 293.21 299.83 279.36C299.51 275.88 299.13 272.4 299.13 268.9C299.13 265.66 299.54 262.46 300.25 259.3L300.27 259.31Z" fill="#263238"/>
<path d="M304.1 149.31C306.82 170.32 311.99 209.72 315.77 238.31C324.6 203.68 338.78 149.31 338.78 149.31H304.1Z" fill="#263238"/>
<path d="M294.49 399.29C296.74 400.02 360.84 399.43 363.26 397.85C364.19 397.27 364.65 387.92 364.88 376.61C364.88 376.49 364.88 376.37 364.88 376.26C364.93 373.93 364.97 371.53 364.98 369.1C364.98 368.76 364.98 368.43 365 368.1C365.15 351.78 363.97 334.85 363.97 334.85L322.07 335.12L323.24 368.07L323.28 369.37L323.51 376.19L323.53 376.89C323.53 376.89 299.1 388.09 296.61 390.11C294.15 392.11 292.23 398.57 294.47 399.3L294.49 399.29Z" fill="white"/>
<path d="M364.74 382.48C364.47 391 364.03 397.37 363.26 397.85C360.84 399.42 296.73 400.02 294.49 399.28C292.24 398.56 294.16 392.1 296.63 390.1C297.59 389.32 301.82 387.18 306.65 384.84C304.13 387.57 302.87 390.58 309.6 390.58C321.56 390.58 342.44 388.61 364.75 382.48H364.74Z" fill="#263238"/>
<path d="M300.92 149.31C300.92 149.31 301.82 168.03 306.11 182.86C306.45 184.09 306.83 185.29 307.23 186.45C307.23 186.45 311.69 188.07 318.51 192.25C318.51 192.25 318.96 207.31 319.41 224.11C319.91 242.89 320.43 263.83 320.32 268.28C319.93 284.9 322.4 376.29 322.4 376.29L368.56 376.48C368.56 376.48 360.22 274.42 360.27 268.33C360.36 258.54 358.03 215.29 356.24 183.74C355.14 164.3 351.93 149.32 351.93 149.32H300.93L300.92 149.31Z" fill="#A6A6A6"/>
<path d="M323.98 368.07C331.03 367.95 329.01 367.89 336.06 367.85C339.51 367.83 362.19 367.73 365.41 368.28C365.48 368.29 365.48 368.41 365.41 368.42C362.18 368.94 339.51 368.65 336.06 368.6C329.01 368.5 331.03 368.45 323.98 368.28C323.85 368.28 323.85 368.08 323.98 368.07Z" fill="#263238"/>
<path d="M350.36 156C351.21 181.75 352.11 207.5 353.26 233.24C354.42 259.07 360.48 351.52 362.03 365.88C362.04 365.98 361.89 366.01 361.88 365.91C358.52 340.37 356.65 302.56 354.99 276.85C353.34 251.15 352.22 225.4 351.34 199.66C350.84 185.1 350.47 170.54 350.03 155.97C350.03 155.76 350.34 155.78 350.35 155.99L350.36 156Z" fill="#263238"/>
<path d="M305.31 185.33C309.91 187.16 314.31 189.65 318.51 192.24C318.67 192.34 318.55 192.6 318.37 192.51C313.92 190.35 309.37 188.26 305.04 185.86C304.7 185.67 304.96 185.19 305.31 185.33Z" fill="#263238"/>
<path d="M305.05 169.45C305.35 171.09 305.75 172.71 306.11 174.35C306.44 175.88 306.69 177.44 307.09 178.95C307.48 180.42 308.11 181.76 309.23 182.81C309.83 183.37 310.49 183.86 311.13 184.37C311.47 184.65 311.85 184.91 312.21 185.19C312.16 184.97 312.13 184.75 312.09 184.53C311.98 183.91 311.88 183.29 311.77 182.66C311.54 181.28 311.32 179.89 311.11 178.51C310.69 175.79 310.31 173.04 309.74 170.34C309.72 170.23 309.88 170.19 309.91 170.3C310.59 172.97 311.34 175.61 311.93 178.31C312.22 179.63 313.25 186.15 313.3 186.61C313.35 187.09 313.39 187.56 313.4 188.04C313.42 188.51 313.51 189.04 313.4 189.5C313.37 189.62 313.23 189.6 313.18 189.52C312.94 189.1 312.88 188.56 312.77 188.1C312.65 187.63 312.55 187.16 312.46 186.69C312.43 186.52 312.41 186.34 312.38 186.17C311.74 185.78 311.14 185.26 310.54 184.83C309.89 184.36 309.23 183.9 308.62 183.39C307.45 182.4 306.71 181.19 306.28 179.73C305.83 178.21 305.69 176.61 305.51 175.04C305.3 173.19 305.15 171.32 304.89 169.48C304.87 169.37 305.04 169.33 305.06 169.44L305.05 169.45Z" fill="#263238"/>
<path d="M284.86 122.24C285.44 122.36 288.13 122.94 292.06 123.79C293.92 121.53 296.39 117.39 296.89 110.94C296.97 109.87 298.3 116.34 295.71 124.57C303.31 126.2 313.66 128.42 322.71 130.27C323.56 126.76 324.5 123.54 324.5 123.54C324.33 126.15 324.43 128.56 324.67 130.68C325.91 130.94 327.12 131.18 328.29 131.41C329.07 125.86 331.83 116.45 331.83 116.45C331.38 123.27 332.5 129 333.44 132.43C339.2 133.54 343.01 134.17 342.82 133.85C336 122.2 343.48 117.66 342.67 108.38C341.7 97.27 332.92 93.86 334.7 85.99C336.13 79.58 339.15 68.04 331.48 63.99C331.48 63.99 326.24 55.48 315.07 57.5C301.27 59.98 302.58 80.83 300.94 84.71C298.59 90.25 295.46 91.76 292.15 97.96C288.79 104.23 290.98 109.23 290.47 113.82C289.94 118.4 283.4 121.94 284.85 122.23L284.86 122.24Z" fill="#263238"/>
<path d="M343.36 132.49C342.54 130.48 341.86 128.41 341.63 126.32C341.34 124.23 342.01 122.27 342.8 120.27C343.59 118.28 344.46 116.26 345.07 114.1C345.65 111.95 346.01 109.64 345.69 107.34C345.41 105.05 344.54 102.85 343.31 100.96C342.1 99.0503 340.6 97.4203 339.16 95.8203C337.74 94.2003 336.32 92.6003 335.39 90.7103C334.42 88.8403 334.03 86.6803 334.17 84.5103C333.68 86.6303 333.83 88.9403 334.66 91.0303C335.48 93.1303 336.82 94.9403 338.17 96.6503C339.52 98.3603 340.89 100.01 341.96 101.8C343.02 103.59 343.77 105.52 343.99 107.55C344.21 109.57 343.99 111.64 343.45 113.67C342.94 115.71 342.16 117.71 341.48 119.8C341.15 120.85 340.82 121.92 340.65 123.04C340.47 124.17 340.53 125.36 340.76 126.45C341.25 128.64 342.17 130.66 343.36 132.49Z" fill="#263238"/>
<path d="M306.41 63.5303C304.94 65.7803 304.07 68.3603 303.2 70.8903C302.38 73.4403 301.68 76.0303 301.01 78.6103L299.99 82.4603C299.65 83.7503 299.25 84.9403 298.69 86.0803C297.59 88.3703 295.84 90.2203 293.91 92.0703C292.97 93.0203 292 94.0003 291.15 95.1103C290.3 96.2203 289.57 97.4203 288.99 98.6903C288.45 99.9803 288 101.27 287.66 102.6C287.31 103.93 287.12 105.33 287.11 106.71C287.09 108.1 287.23 109.44 287.31 110.75C287.39 112.05 287.36 113.37 287.19 114.65C286.91 117.19 285.1 119.45 282.76 120.7C285.27 119.79 287.4 117.57 288 114.8C288.29 113.45 288.41 112.09 288.42 110.73C288.44 109.37 288.35 108.05 288.45 106.77C288.61 104.23 289.41 101.7 290.47 99.3803C291.04 98.2403 291.69 97.1603 292.48 96.1603C293.26 95.1503 294.17 94.2403 295.12 93.3103C296.06 92.3703 297.03 91.4103 297.91 90.3303C298.79 89.2503 299.58 88.0703 300.16 86.7903C300.74 85.5103 301.14 84.1503 301.44 82.8503C301.77 81.5403 302.04 80.2303 302.31 78.9303C302.86 76.3203 303.38 73.7103 304 71.1303C304.59 68.5403 305.28 65.9703 306.39 63.5403L306.41 63.5303Z" fill="#263238"/>
<path d="M319.65 111.77C305.01 127.87 293.11 135.59 281.35 135.59C270.17 135.59 246.28 108.45 244.53 104.86C243.02 101.78 262.63 84.8799 265.64 86.9799C270.69 90.4999 287.03 110.89 288.76 110.98C290.56 111.08 296.85 106.87 312.19 99.6799C321.49 95.3299 329.79 100.61 319.65 111.76V111.77Z" fill="white"/>
<path d="M246.78 107.55C244.61 105.21 235.62 93.6098 233.84 89.8198C232.06 86.0298 227.72 74.7598 230.49 73.0998C233.26 71.4398 234.79 74.6398 234.79 74.6398C234.79 74.6398 233.71 69.5898 236.65 68.1698C239.58 66.7498 241.8 71.8098 241.8 71.8098C241.8 71.8098 241.07 66.5398 244.1 65.3398C247.13 64.1398 248.51 69.5898 248.51 69.5898C248.51 69.5898 247.62 64.8098 250.53 64.8598C254.03 64.9298 254.68 73.9398 256.95 77.9698C257.47 78.8898 268.77 95.7898 268.77 95.7898L246.79 107.53L246.78 107.55Z" fill="white"/>
<path d="M248.37 69.1298C248.86 75.7498 250.22 78.5598 254.11 83.8198C254.19 83.9198 254.05 84.0598 253.96 83.9598C249.69 79.1598 247.47 75.8798 248.05 69.1398C248.08 68.8098 248.35 68.8198 248.37 69.1398V69.1298Z" fill="white"/>
<path d="M241.76 71.28C242.87 78.11 244.32 81.18 247.98 86.98C248.03 87.06 247.9 87.16 247.84 87.08C243.77 81.69 241.63 78.36 241.42 71.39C241.42 71.07 241.71 70.97 241.76 71.28Z" fill="white"/>
<path d="M234.97 74.9295C236.52 81.4695 237.96 84.8995 242.25 90.0695C242.35 90.1895 242.18 90.3495 242.07 90.2395C237.19 85.3895 235.36 81.1195 234.78 74.9995C234.74 74.5795 234.88 74.5195 234.97 74.9295Z" fill="white"/>
<path d="M273.8 97.39C273.8 97.39 273.65 89.07 272.78 85.43C271.91 81.79 263.67 69.42 260.9 71.04C257.32 73.14 260.67 81.22 262.82 84.96C262.82 84.96 254.53 89.81 255.68 96.13C256.83 102.45 273.79 97.38 273.79 97.38L273.8 97.39Z" fill="white"/>
<path d="M260.1 71.9401C258.22 76.2101 261.37 80.9401 263.19 84.7301C263.33 85.0201 263.15 85.2301 262.9 85.2901C259.56 87.5601 255.51 91.7201 255.46 95.9801C255.46 96.1001 255.28 96.1201 255.27 95.9901C254.7 91.4201 258.35 87.0001 262.16 84.7501C260.23 80.9001 257.28 76.0101 260.06 71.9101C260.08 71.8901 260.11 71.9101 260.1 71.9301V71.9401Z" fill="white"/>
<path d="M294.43 106.3L306.17 128.22C306.17 128.22 322.1 112.75 324.64 106.3C327.18 99.8496 324.44 95.1696 313.11 98.6196C301.78 102.07 294.43 106.3 294.43 106.3Z" fill="#455A64"/>
<path d="M308.89 123.64C308.31 122.45 307.8 121.22 307.2 120.04C306.6 118.86 305.99 117.69 305.36 116.53C304.09 114.19 302.82 111.85 301.49 109.54C300.74 108.24 299.96 106.96 299.14 105.7C299.1 105.64 299 105.68 299.03 105.75C301.18 110.57 303.8 115.19 306.4 119.78C307.16 121.11 308.02 122.37 308.8 123.68C308.83 123.74 308.91 123.68 308.88 123.63L308.89 123.64Z" fill="#263238"/>
<path d="M324.64 106.31C322.1 112.76 306.17 128.22 306.17 128.22L298.26 113.46L324.36 99.0298C325.86 100.62 325.84 103.27 324.64 106.31Z" fill="#263238"/>
<path d="M355.61 157.79C353.76 158.65 296.71 155.55 296.71 155.55L303 135.8C303 135.8 299.41 130.11 299.81 124C299.85 123.42 299.98 122.77 300.2 122.05C300.28 121.77 300.37 121.48 300.48 121.18C302.19 116.37 306.86 109.46 310.72 104.73C312.33 102.75 313.79 101.17 314.84 100.27C319.06 96.66 323.37 96.18 327.43 97.74C329.18 98.42 330.89 99.48 332.51 100.84C335.91 103.69 338.96 107.85 341.39 112.51C343.93 117.4 346.44 124.44 348.62 131.51C348.7 131.76 348.77 132 348.84 132.25C352.77 145.07 355.61 157.79 355.61 157.79Z" fill="#455A64"/>
<path d="M308.16 108.04C306.95 109.86 305.63 111.61 304.37 113.39C304.9 112.11 305.43 110.82 306.01 109.56C306.02 109.53 305.99 109.51 305.97 109.54C305.09 111.07 304.3 112.64 303.73 114.31C302.8 115.67 301.92 117.06 301.18 118.54C300.29 120.31 299.59 122.18 299.34 124.15C299.09 126.12 299.34 128.14 299.9 130.04C300.54 132.25 301.53 134.32 302.56 136.37C302.7 136.64 303.07 136.41 302.96 136.15C301.47 132.56 299.82 128.78 300.17 124.8C300.51 120.87 302.52 117.32 304.47 113.99C305.65 111.98 306.85 109.96 308.28 108.12C308.34 108.05 308.21 107.96 308.15 108.04H308.16Z" fill="#263238"/>
<path d="M330.7 99.4601H315.84C316.25 99.1601 316.66 98.8901 317.07 98.6401H329.37C329.82 98.8901 330.26 99.1601 330.7 99.4601ZM334.29 102.47H312.64C312.41 102.73 312.17 103 311.93 103.29H335.07C334.82 103.01 334.55 102.74 334.29 102.47ZM337.54 106.29H309.48C309.28 106.55 309.07 106.83 308.85 107.11H338.13C337.94 106.83 337.74 106.56 337.54 106.29ZM340.06 110.12H306.66C306.47 110.39 306.29 110.66 306.1 110.94H340.53C340.38 110.66 340.23 110.39 340.06 110.12ZM342.11 113.95H304.15C303.98 114.23 303.81 114.5 303.65 114.77H342.49C342.37 114.49 342.24 114.22 342.11 113.95ZM343.8 117.77H301.98C301.84 118.05 301.7 118.32 301.58 118.59H344.13C344.02 118.31 343.91 118.04 343.8 117.77ZM345.29 121.6H300.33C300.28 121.75 300.23 121.9 300.19 122.05C300.15 122.18 300.12 122.3 300.09 122.42H345.6C345.49 122.15 345.39 121.87 345.29 121.6ZM346.65 125.42H299.79C299.79 125.69 299.81 125.97 299.84 126.24H346.93C346.84 125.97 346.74 125.7 346.65 125.42ZM347.91 129.25H300.33C300.39 129.53 300.47 129.8 300.55 130.07H348.17C348.08 129.79 348 129.52 347.91 129.25ZM349.1 133.08H301.62C301.75 133.37 301.87 133.65 301.99 133.9H349.35C349.26 133.63 349.18 133.35 349.1 133.08ZM350.22 136.9H302.65L302.39 137.72H350.46C350.38 137.45 350.3 137.18 350.22 136.9ZM351.31 140.73H301.43L301.17 141.55H351.53C351.46 141.28 351.38 141.01 351.31 140.73ZM352.34 144.55H300.21L299.95 145.37H352.55C352.48 145.1 352.41 144.83 352.34 144.55ZM353.33 148.38H298.99L298.73 149.2H353.54C353.47 148.93 353.4 148.66 353.33 148.38ZM354.29 152.21H297.77L297.51 153.03H354.49C354.43 152.77 354.36 152.49 354.29 152.21ZM355.2 156.03H305.82C310.4 156.27 316.27 156.56 322.36 156.85H355.4C355.34 156.62 355.28 156.34 355.2 156.03Z" fill="#263238"/>
<path d="M325.43 99.6798C325.17 100.67 320.19 107 315.64 106.64C314.16 106.52 314.45 98.3898 314.45 98.3898L314.33 97.7898L312.72 89.3198L322.8 83.2998L324.25 82.5098C324.25 82.5098 324.54 84.8598 324.87 87.7798C324.89 87.9198 324.9 88.0498 324.92 88.1998C324.94 88.3598 324.97 88.5198 324.98 88.6798C325.04 89.1198 325.09 89.5598 325.13 90.0098C325.17 90.3498 325.2 90.6798 325.23 91.0298C325.26 91.3898 325.29 91.7298 325.32 92.0898C325.57 95.6198 325.54 99.2698 325.43 99.6898V99.6798Z" fill="white"/>
<path d="M324.87 87.7798C322.25 94.3898 316.82 96.9498 314.33 97.7898L312.72 89.3198L322.8 83.2998L324.25 82.5098C324.25 82.5098 324.54 84.8598 324.87 87.7798Z" fill="white"/>
<path d="M301.11 74.7298C298.15 89.5598 306.7 93.0098 309.9 93.6498C312.8 94.2298 322.77 95.8198 327.25 81.3698C331.73 66.9198 325.77 60.8498 319.19 59.1798C312.62 57.5098 304.07 59.8898 301.11 74.7298Z" fill="white"/>
<path d="M303.67 73.9003C304.03 73.9003 304.36 73.8503 304.71 73.8203C305.11 73.7803 305.43 73.7903 305.76 73.5303C305.93 73.3903 305.96 73.0603 305.84 72.8803C305.56 72.4603 305.06 72.3803 304.57 72.4003C304.05 72.4303 303.65 72.5803 303.26 72.9303C302.88 73.2703 303.19 73.8903 303.66 73.9003H303.67Z" fill="#263238"/>
<path d="M313.75 74.82C313.4 74.73 313.1 74.6 312.76 74.48C312.38 74.34 312.07 74.27 311.82 73.94C311.69 73.76 311.74 73.43 311.9 73.29C312.28 72.95 312.78 73 313.24 73.15C313.74 73.31 314.08 73.56 314.37 73.99C314.65 74.41 314.19 74.94 313.74 74.83L313.75 74.82Z" fill="#263238"/>
<path d="M311.17 77.4199C311.17 77.4199 311.24 77.4799 311.23 77.5199C311.04 78.5299 311 79.7299 311.87 80.1999C311.9 80.2099 311.89 80.2699 311.85 80.2599C310.75 79.9299 310.82 78.3499 311.16 77.4199H311.17Z" fill="#263238"/>
<path d="M312.24 76.49C313.9 76.61 313.53 79.92 311.99 79.8C310.48 79.69 310.85 76.38 312.24 76.49Z" fill="#263238"/>
<path d="M312.87 76.7398C313.14 76.9598 313.38 77.3198 313.73 77.3898C314.13 77.4698 314.47 77.1598 314.77 76.8598C314.8 76.8298 314.83 76.8598 314.82 76.8998C314.76 77.5298 314.44 78.1598 313.75 78.1698C313.12 78.1898 312.74 77.5798 312.65 76.9198C312.63 76.7998 312.76 76.6398 312.86 76.7198L312.87 76.7398Z" fill="#263238"/>
<path d="M305.54 76.3003C305.54 76.3003 305.45 76.3403 305.45 76.3803C305.38 77.4103 305.12 78.5703 304.16 78.8203C304.13 78.8203 304.13 78.8803 304.16 78.8803C305.31 78.8403 305.63 77.2903 305.54 76.3003Z" fill="#263238"/>
<path d="M304.73 75.1302C303.1 74.8302 302.62 78.1202 304.14 78.4002C305.63 78.6702 306.1 75.3802 304.73 75.1302Z" fill="#263238"/>
<path d="M304.02 75.2502C303.73 75.3902 303.43 75.6702 303.12 75.6402C302.76 75.6102 302.54 75.2202 302.36 74.8402C302.34 74.8002 302.31 74.8302 302.3 74.8702C302.19 75.5002 302.3 76.1802 302.89 76.3902C303.43 76.5802 303.91 76.1002 304.15 75.4902C304.19 75.3802 304.13 75.1902 304.02 75.2402V75.2502Z" fill="#263238"/>
<path d="M310.24 86.07C309.98 86.29 309.71 86.61 309.34 86.62C308.98 86.62 308.57 86.44 308.25 86.29C308.22 86.28 308.18 86.31 308.2 86.34C308.44 86.75 308.99 87.04 309.47 86.98C309.94 86.93 310.2 86.54 310.34 86.12C310.36 86.06 310.28 86.03 310.24 86.07Z" fill="#263238"/>
<path d="M306.42 81.8501C306.42 81.8501 306.02 83.3501 305.93 84.0701C305.93 84.1401 306.09 84.1901 306.33 84.2401C306.34 84.2401 306.35 84.2501 306.36 84.2401C307.61 84.6001 308.94 84.3202 309.84 83.3702C309.9 83.3102 309.82 83.2202 309.75 83.2602C308.71 83.8402 307.64 83.8901 306.51 83.7701C306.48 83.5601 307.28 81.2201 307.17 81.2001C306.78 81.1201 305.97 81.2902 305.49 81.3702C306.23 78.2202 307.47 75.2101 308.17 72.0701C308.19 71.9601 308.03 71.9001 307.99 72.0001C306.47 75.0601 305.53 78.6602 304.68 81.9002C304.57 82.3001 306.12 81.9401 306.42 81.8601V81.8501Z" fill="#263238"/>
<path d="M306.44 83.9801C306.44 83.9801 306.96 85.0401 307.85 85.5601C308.18 85.7501 308.54 85.8701 308.96 85.8401C309.81 85.7801 309.97 85.0401 309.94 84.3701C309.92 83.8201 309.76 83.3301 309.76 83.3301C309.76 83.3301 308.37 84.2201 306.45 83.9901L306.44 83.9801Z" fill="#263238"/>
<path d="M307.85 85.5499C308.18 85.7399 308.54 85.8599 308.96 85.8299C309.81 85.7699 309.97 85.0299 309.94 84.3599C309.05 84.2899 308.08 84.7199 307.85 85.5499Z" fill="#FF9BBC"/>
<path d="M327.15 82.1899C323.88 80.4499 323.9 76.9299 323.9 76.9299C319.83 74.9499 317.74 71.5999 317.52 71.2599C317.61 71.5799 318.23 73.8699 318.58 75.0299C309.05 72.7599 306.44 65.2599 306.44 65.2599C303.17 68.2199 302.45 70.1799 301.95 71.1499C301.95 71.1499 302.17 65.2499 305.39 61.4499C309.34 56.7999 314.36 57.9599 314.36 57.9599C314.36 57.9599 321.94 56.0999 327.43 62.6899C333.34 69.7999 327.15 82.1899 327.15 82.1899Z" fill="#263238"/>
<path d="M311.36 73.08C312.85 74.02 314.52 74.68 316.2 75.13C316.21 75.13 316.22 75.11 316.2 75.11C313.53 74.21 311.17 72.67 309.35 70.5C308.58 69.58 307.93 68.58 307.42 67.5C306.88 66.37 306.37 65.03 306.32 63.77C306.32 63.67 306.17 63.68 306.17 63.77C306.22 65.1 306.27 66.33 306.75 67.6C307.2 68.8 307.88 69.93 308.73 70.89C309.49 71.75 310.38 72.47 311.35 73.08" fill="#263238"/>
<path d="M324.66 82.0397C324.66 82.0397 328.46 77.7097 330.46 79.1197C332.46 80.5297 329.24 87.0597 326.63 87.7097C324.03 88.3597 323.37 85.9697 323.37 85.9697L324.65 82.0497L324.66 82.0397Z" fill="#D3766A"/>
<path d="M329.5 80.9599C329.5 80.9599 329.54 81.0199 329.5 81.0299C327.67 81.5499 326.57 83.0699 325.73 84.6799C326.32 84.0899 327.07 83.8099 327.87 84.5299C327.91 84.5699 327.87 84.6299 327.81 84.6199C327.11 84.3899 326.58 84.4499 326.03 84.9699C325.64 85.3399 325.35 85.8299 325.05 86.2699C324.95 86.4199 324.68 86.2999 324.76 86.1299C324.76 86.1199 324.77 86.0999 324.78 86.0899C324.98 83.8499 327.07 80.9199 329.49 80.9599H329.5Z" fill="#263238"/>
<path d="M334.92 104C341.45 111.53 359.74 138.81 355.5 146.18C351.43 153.25 342.2 155.24 336.88 145.75C333.07 138.95 326.63 118.69 325.03 108.98C323.74 101.1 328.88 97.0397 334.91 104.01L334.92 104Z" fill="white"/>
<path d="M328.83 128.14L350.46 120.19C350.46 120.19 338.32 103.58 332.73 100.41C327.14 97.2497 322.49 99.1497 324.2 110C325.91 120.85 328.84 128.14 328.84 128.14H328.83Z" fill="#455A64"/>
<path d="M346.6 117.11C345.43 117.49 344.24 117.8 343.08 118.2C341.92 118.6 340.77 119.01 339.62 119.44C337.31 120.3 335 121.16 332.71 122.09C331.42 122.61 330.14 123.17 328.88 123.75C328.82 123.78 328.85 123.88 328.91 123.86C333.61 122.51 338.19 120.7 342.74 118.9C344.06 118.38 345.33 117.75 346.63 117.2C346.69 117.18 346.65 117.1 346.59 117.12L346.6 117.11Z" fill="#263238"/>
<path d="M330.04 127.64C329.61 127.72 329.2 127.88 328.79 128.03C328.2 126.75 326.81 121.13 326.48 119.69C325.83 116.81 325.29 113.91 324.62 111.04C324.6 110.96 324.46 110.98 324.47 111.06C324.67 112.65 324.92 114.24 325.2 115.83C324.9 115.07 324.63 114.31 324.38 113.54C324.37 113.5 324.3 113.52 324.31 113.56C324.58 114.53 324.91 115.46 325.3 116.37C325.53 119.31 328.21 128.68 328.29 128.64C328.72 128.44 329.68 127.98 330.08 127.72C330.13 127.69 330.09 127.63 330.04 127.64Z" fill="#263238"/>
<path d="M319.35 72.19L313.2 98.47C312.93 99.24 313.33 99.86 314.08 99.85L325.83 102.24C326.58 102.23 327.41 101.59 327.68 100.82L333.83 74.54C334.1 73.77 333.7 73.15 332.95 73.16L321.2 70.77C320.45 70.78 319.62 71.42 319.35 72.19Z" fill="#A6A6A6"/>
<path d="M320.36 72.3302L314.21 98.6102C313.94 99.3802 314.34 100 315.09 99.9902L326.84 102.38C327.59 102.37 328.42 101.73 328.69 100.96L334.84 74.6802C335.11 73.9102 334.71 73.2902 333.96 73.3002L322.21 70.9102C321.46 70.9202 320.63 71.5602 320.36 72.3302Z" fill="#DBDBDB"/>
<path d="M324.08 73.4698C324.08 74.0998 323.56 74.6098 322.93 74.6098C322.3 74.6098 321.79 74.0898 321.79 73.4598C321.79 72.8298 322.31 72.3198 322.94 72.3198C323.57 72.3198 324.08 72.8398 324.08 73.4698Z" fill="#263238"/>
<path d="M340.03 148.12C343.85 155.21 353.97 151.16 355.5 146.18C359.09 134.48 356.86 115.05 354.72 104.19C354.03 100.7 330.3 104.16 330.44 107.96C330.61 112.53 332.53 134.21 340.02 148.12H340.03Z" fill="white"/>
<path d="M354.46 109.37C354.46 109.37 356.47 101.86 354.67 93.6901C353.42 88.0401 349.34 76.0601 332.93 70.7001C329.04 69.4301 322.59 70.3801 328.19 74.7601C332.17 77.8801 335.64 78.6501 337.62 80.8801C337.62 80.8801 329.56 83.0601 328.44 87.0101C327.94 88.7701 326.68 93.6201 326.24 97.5401C326.24 97.5401 327.07 97.8601 328.17 98.1301C328.17 98.1301 327.38 102.96 330.44 107.96L354.45 109.37H354.46Z" fill="white"/>
<path d="M352.62 88.4903C350.18 86.6903 344.95 82.9603 339.6 81.4003C333.67 79.6703 321.77 77.9203 320.53 82.3203C319.62 85.5403 324.11 86.6103 324.11 86.6103C324.11 86.6103 319.04 86.9303 318.86 90.0203C318.69 92.8403 322.21 93.4503 322.21 93.4503C322.21 93.4503 319.17 94.1703 319.53 96.9103C319.97 100.21 326.27 98.1603 329.6 101.12C330.35 101.78 352.61 88.5003 352.61 88.5003L352.62 88.4903Z" fill="white"/>
<path d="M338.82 87.9799C336.25 86.6599 329.64 85.1699 324.21 86.5199C324.09 86.5499 324.04 86.6599 324.16 86.6599C330.46 86.4499 336.33 87.4599 338.8 88.0399C338.83 88.0399 338.85 87.9999 338.82 87.9799Z" fill="#263238"/>
<path d="M336.89 93.9202C334.55 93.0102 327.67 91.7802 322.22 93.3302C322.1 93.3602 322.06 93.4802 322.18 93.4702C328.75 92.9802 334.38 93.5402 336.88 93.9802C336.91 93.9802 336.92 93.9302 336.89 93.9202Z" fill="#263238"/>
<path d="M337.86 143.19C337.69 142.62 337.51 142.04 337.32 141.47C336.93 140.31 336.6 139.13 336.25 137.96C335.56 135.59 334.89 133.21 334.31 130.81C333.15 126.02 332.26 121.16 331.66 116.27C331.5 114.92 331.36 113.56 331.21 112.21C331.06 110.85 331.01 109.45 330.76 108.1C330.75 108.03 330.07 106.99 329.8 106.48C329.52 105.95 329.28 105.4 329.06 104.83C328.62 103.67 328.32 102.48 328.17 101.25C328.17 101.2 328.1 101.2 328.1 101.25C328.03 102.51 328.19 104.16 328.62 105.35C329.02 106.45 329.57 107.5 330.45 108.3C330.43 108.48 330.49 110.65 330.56 111.88C330.63 113.1 330.74 114.32 330.88 115.53C331.15 117.97 331.5 120.4 331.93 122.82C332.79 127.7 333.93 132.55 335.44 137.27C335.46 137.35 335.49 137.42 335.52 137.5C335.52 137.68 335.51 137.85 335.51 138.03C335.51 138.47 335.56 138.9 335.62 139.33C335.73 140.2 335.97 141.02 336.25 141.85C336.27 141.91 336.36 141.88 336.34 141.82C336.1 140.98 336.01 140.1 335.92 139.23C335.89 138.93 335.85 138.63 335.81 138.33C336.14 139.29 336.47 140.24 336.81 141.19C337.04 141.84 337.29 142.49 337.56 143.13C337.82 143.75 338.04 144.4 338.36 144.99C338.39 145.04 338.45 145 338.44 144.95C338.3 144.35 338.06 143.77 337.88 143.17L337.86 143.19Z" fill="#263238"/>
<path d="M291.39 60.1203C292.67 58.1703 293.39 55.9803 293.39 53.6603C293.39 45.4703 284.4 38.8403 273.32 38.8403C262.24 38.8403 253.26 45.4803 253.26 53.6603C253.26 61.8403 262.24 68.4803 273.32 68.4803C278.69 68.4803 283.57 66.9203 287.16 64.3803L294.07 66.1403L291.38 60.1203H291.39Z" fill="white"/>
<path d="M291.39 60.1201C292.55 58.2801 293.23 56.1601 293.27 54.0101C293.27 51.8601 292.7 49.7201 291.57 47.9101C289.31 44.2601 285.5 41.7601 281.45 40.4901C277.37 39.1901 272.98 38.9501 268.78 39.6901C264.59 40.4001 260.52 42.2501 257.53 45.2301C256.05 46.7201 254.87 48.5201 254.26 50.5101C253.64 52.4901 253.58 54.6501 254.17 56.6501C254.75 58.6501 255.9 60.4701 257.36 61.9801C258.83 63.5001 260.59 64.7201 262.5 65.6601C264.4 66.6101 266.47 67.2401 268.56 67.6301C270.66 68.0201 272.8 68.2101 274.94 68.0801C279.21 67.8701 283.48 66.6201 287.03 64.2001L287.12 64.1401L287.22 64.1701L294.11 66.0301L293.97 66.2001L291.39 60.1301V60.1201ZM291.39 60.1201L294.19 66.0901L294.3 66.3101L294.05 66.2501L287.11 64.6001L287.3 64.5701C283.72 67.1401 279.36 68.4901 274.99 68.7901C270.61 69.0701 266.11 68.3801 262.12 66.4401C260.13 65.4701 258.27 64.2101 256.71 62.6101C255.15 61.0201 253.9 59.0701 253.26 56.9001C252.6 54.7301 252.64 52.3601 253.32 50.2001C254 48.0401 255.28 46.1101 256.86 44.5401C260.06 41.4001 264.3 39.5301 268.64 38.8101C270.82 38.4601 273.03 38.3201 275.23 38.4901C277.43 38.6801 279.6 39.1001 281.68 39.8101C283.76 40.5101 285.76 41.5101 287.53 42.8201C289.3 44.1301 290.87 45.7501 291.95 47.6701C293.07 49.5801 293.59 51.8101 293.51 54.0001C293.42 56.2001 292.63 58.3201 291.4 60.1101L291.39 60.1201Z" fill="#263238"/>
<path d="M266.1 53.6601C266.1 54.8101 265.17 55.7401 264.02 55.7401C262.87 55.7401 261.94 54.8101 261.94 53.6601C261.94 52.5101 262.87 51.5801 264.02 51.5801C265.17 51.5801 266.1 52.5101 266.1 53.6601Z" fill="#263238"/>
<path d="M275.4 53.6601C275.4 54.8101 274.47 55.7401 273.32 55.7401C272.17 55.7401 271.24 54.8101 271.24 53.6601C271.24 52.5101 272.17 51.5801 273.32 51.5801C274.47 51.5801 275.4 52.5101 275.4 53.6601Z" fill="#263238"/>
<path d="M284.7 53.6601C284.7 54.8101 283.77 55.7401 282.62 55.7401C281.47 55.7401 280.54 54.8101 280.54 53.6601C280.54 52.5101 281.47 51.5801 282.62 51.5801C283.77 51.5801 284.7 52.5101 284.7 53.6601Z" fill="#263238"/>
<path d="M525.07 26.9901C525.37 25.8601 525.34 24.6401 524.85 23.5701C524.15 22.0601 522.63 21.4301 521.09 21.1101C519.33 20.7501 517.52 20.6001 515.73 20.6401C512.16 20.7201 508.62 21.5801 505.42 23.1501C503.9 23.9001 502.44 24.8001 501.2 25.9701C501.15 26.0101 501.11 26.0601 501.07 26.1001C500.72 26.3301 500.38 26.5701 500.05 26.8201C498.79 27.7701 497.64 28.8701 496.77 30.2001C496.52 30.5901 496.28 31.0101 496.08 31.4501C495.74 32.0801 495.47 32.7301 495.31 33.4201C494.95 35.0201 495.42 36.5901 496.65 37.6801C497.93 38.8301 499.64 39.2201 501.32 39.3001C502.76 39.3601 504.21 39.2701 505.65 39.1001C506.48 39.0501 507.31 38.9701 508.11 38.8501C508.63 38.7801 509.16 38.7001 509.68 38.6101C509.92 40.7201 510.76 42.8001 511.55 44.7401C511.57 44.7901 511.65 44.7701 511.63 44.7201C510.86 42.7601 510.08 40.6801 509.93 38.5701C512.59 38.1101 515.23 37.4401 517.66 36.2801C519.13 35.5801 520.52 34.6801 521.7 33.5601C522.71 32.6001 523.73 31.2501 523.66 29.7901C524.13 29.2501 524.52 28.6601 524.79 27.9901C524.93 27.6501 525.02 27.3101 525.07 26.9701V26.9901ZM505.99 38.4501C503.67 38.6101 500.97 38.4701 498.85 37.3201C500.32 37.6901 501.83 37.9101 503.35 37.9801C505.05 38.0601 506.76 37.9401 508.43 37.6601C508.62 37.6601 508.81 37.6401 508.99 37.6201C509.19 37.6001 509.4 37.5701 509.6 37.5401C509.6 37.6501 509.6 37.7601 509.61 37.8701C508.71 38.0701 507.81 38.2301 506.9 38.3601C506.6 38.3901 506.29 38.4201 505.99 38.4401V38.4501ZM514.65 22.8801C516.16 22.9901 517.74 23.2801 519.12 23.9201C520.36 24.5001 521.55 25.5001 521.55 26.9801C521.55 27.0401 521.54 27.1101 521.53 27.1701C521.05 26.9701 520.54 26.8401 520.06 26.7701C519.93 26.7501 519.79 26.7401 519.66 26.7301C519.09 26.4001 518.47 26.1601 517.83 25.9801C517.02 24.9201 515.83 24.1901 514.58 23.7601C513.44 23.3601 512.22 23.1801 511 23.1601C511.47 23.0501 511.94 22.9501 512.41 22.8601C513.16 22.8201 513.91 22.8201 514.66 22.8801H514.65ZM521.08 30.5601C520.96 30.4001 520.82 30.2601 520.66 30.1301C520.82 29.9601 520.97 29.7701 521.11 29.5801C521.15 29.9101 521.14 30.2401 521.08 30.5601ZM511.32 37.2201C512.09 37.0701 512.86 36.9001 513.62 36.7101C512.4 37.1501 511.15 37.5101 509.89 37.8101C509.89 37.7101 509.89 37.6001 509.89 37.5001C510.37 37.4201 510.85 37.3201 511.32 37.2301V37.2201ZM510.36 35.0601C510.36 35.0601 510.38 35.0101 510.39 34.9901C510.45 35.0601 510.54 35.1001 510.66 35.0601C512.39 34.5301 514.13 34.0001 515.79 33.2801C517.34 32.6101 518.89 31.7901 520.14 30.6401C520.4 30.8501 520.6 31.1201 520.7 31.4201C520.33 31.6501 519.96 31.8701 519.58 32.0801C516.68 33.6801 513.48 34.7901 510.23 35.4501C510.27 35.3201 510.31 35.1901 510.35 35.0701L510.36 35.0601ZM510.59 34.5101C511.15 33.3501 512.04 32.4201 513.19 31.7801C514.54 31.0301 516.13 30.6001 517.64 30.3001C518.28 30.1701 519.01 30.1101 519.64 30.3501C519.49 30.4801 519.35 30.6001 519.2 30.7101C516.68 32.6201 513.59 33.5901 510.6 34.5101H510.59ZM511.16 35.8901C512.99 35.4801 514.78 34.9301 516.52 34.2301C514.97 35.0501 513.36 35.7301 511.68 36.2401C511.35 36.3401 511.03 36.4301 510.7 36.5201C510.46 36.5701 510.23 36.6201 510 36.6701C509.99 36.6701 509.98 36.6701 509.97 36.6701C510 36.4801 510.03 36.3001 510.07 36.1101C510.44 36.0401 510.8 35.9701 511.17 35.8901H511.16ZM509.62 36.7301C509.11 36.8201 508.59 36.8901 508.06 36.8801C507.6 36.8801 507.1 36.8001 506.68 36.5801C507.68 36.4901 508.68 36.3601 509.67 36.1801C509.64 36.3601 509.62 36.5501 509.61 36.7301H509.62ZM519.93 32.8801C519.88 32.9401 519.83 33.0101 519.77 33.0701C519.68 33.1701 519.59 33.2601 519.5 33.3601C519.3 33.4901 519.09 33.6201 518.91 33.7401C518.26 34.1501 517.58 34.5001 516.88 34.8001C516.8 34.8301 516.72 34.8601 516.64 34.8901C517.78 34.2901 518.88 33.6201 519.93 32.8801ZM520.18 29.8201C520.18 29.8201 520.14 29.8001 520.12 29.7901C519.28 29.3901 518.33 29.4801 517.45 29.6801C515.87 30.0301 514.21 30.5401 512.82 31.3701C511.44 32.1901 510.45 33.4301 509.96 34.9601C509.9 35.1501 509.85 35.3401 509.8 35.5301C508.57 35.7601 507.33 35.9401 506.08 36.0301C505.83 35.6301 505.78 35.1201 505.88 34.6401C506.03 33.9301 506.41 33.2601 506.88 32.6701C509.91 32.2601 512.85 31.2401 515.47 29.6601C516.19 29.2301 516.89 28.7601 517.54 28.2401C517.87 27.9801 518.1 27.6901 518.2 27.3701C518.69 27.3401 519.17 27.3401 519.66 27.3901C520.21 27.7701 520.66 28.2601 520.91 28.8901C520.7 29.2201 520.45 29.5401 520.17 29.8301L520.18 29.8201ZM500.03 28.3001C500.03 28.3001 500.08 28.2201 500.11 28.1801C502.22 26.4701 504.66 25.1901 507.21 24.2701C507.27 24.2501 507.33 24.2301 507.39 24.2101C509.87 23.6601 512.63 23.5701 514.96 24.6001C515.56 24.8701 516.14 25.2101 516.63 25.6501C516.66 25.6801 516.7 25.7101 516.74 25.7501C515.37 25.4901 513.95 25.4001 512.56 25.5101C509.49 25.7501 506.47 26.8701 504.01 28.7301C502.82 29.6301 501.59 30.7301 500.86 32.0601C500.54 31.9801 500.24 31.8601 499.99 31.6501C499.03 30.8201 499.5 29.2501 500.02 28.3101L500.03 28.3001ZM517.59 26.7701C516.59 26.8901 515.6 27.1301 514.64 27.4101C511.63 28.2801 508.52 29.5801 506.48 32.0601C506.46 32.0801 506.45 32.1001 506.43 32.1201C505.82 32.1901 505.21 32.2401 504.6 32.2601C503.8 32.2901 502.99 32.2601 502.19 32.2001C501.96 32.1801 501.71 32.1701 501.46 32.1401C501.71 31.7301 502 31.3601 502.27 31.0501C503.23 29.9801 504.35 29.0601 505.57 28.3001C508 26.8101 510.82 25.9901 513.67 25.9601C514.92 25.9501 516.18 26.0901 517.39 26.4101C517.47 26.5301 517.54 26.6501 517.59 26.7701ZM517.49 27.4401C517.27 27.7201 516.93 27.9301 516.66 28.1301C516.32 28.3801 515.97 28.6201 515.62 28.8401C514.97 29.2501 514.31 29.6301 513.62 29.9801C511.7 30.9401 509.64 31.6001 507.52 31.9601C507.82 31.6601 508.13 31.3801 508.43 31.1301C509.57 30.1901 510.9 29.4801 512.27 28.9201C513.7 28.3401 515.19 27.8701 516.71 27.5801C516.97 27.5301 517.23 27.4901 517.5 27.4501L517.49 27.4401ZM501.16 32.7001C502.71 32.9601 504.37 32.9301 505.92 32.7901C505.26 33.7801 504.79 34.9901 505.24 36.0901C505.08 36.0901 504.91 36.1101 504.75 36.1201C503.62 36.1501 502.16 36.0501 501.35 35.1401C500.7 34.4101 500.79 33.5301 501.16 32.7101V32.7001ZM520.95 27.8501C520.88 27.7601 520.8 27.6801 520.72 27.5901C520.95 27.6601 521.18 27.7401 521.4 27.8401C521.36 27.9901 521.3 28.1401 521.24 28.2901C521.16 28.1401 521.06 27.9901 520.95 27.8501ZM497.2 36.0901C496.72 35.6001 496.34 35.0001 496.19 34.3201C496.01 33.5301 496.22 32.7301 496.59 32.0301C497.18 30.9101 498.1 29.9501 499.05 29.0901C498.99 29.3001 498.93 29.5201 498.9 29.7401C498.81 30.3501 498.85 30.9801 499.15 31.5301C499.45 32.0901 500 32.4101 500.6 32.5801C500.36 33.1501 500.25 33.7801 500.37 34.4001C500.51 35.0701 500.94 35.6301 501.51 36.0101C502.68 36.7701 504.21 36.7501 505.55 36.6701C505.57 36.6701 505.59 36.6701 505.6 36.6701C505.81 36.9301 506.07 37.1401 506.36 37.2801C505.18 37.3801 503.99 37.4001 502.8 37.3201C501.31 37.2201 499.84 36.9601 498.4 36.5501C498.03 36.4401 497.63 36.3401 497.28 36.1701C497.25 36.1401 497.22 36.1201 497.19 36.0901H497.2ZM521.57 30.8201C521.7 30.2001 521.69 29.5701 521.51 28.9701C521.67 28.6901 521.8 28.4101 521.9 28.1101C522.41 28.4401 522.82 28.9001 522.94 29.5101C522.59 29.9001 522.21 30.2801 521.82 30.6301C521.74 30.7001 521.65 30.7601 521.57 30.8301V30.8201ZM523.44 28.8901C523.17 28.2501 522.66 27.7801 522.06 27.4301C522.1 27.1101 522.12 26.7901 522.06 26.4701C521.83 24.9801 520.6 23.9701 519.29 23.3901C518.13 22.8701 516.89 22.5501 515.62 22.3901C515.71 22.3901 515.79 22.3701 515.88 22.3601C517.54 22.1901 519.28 22.0301 520.91 22.4701C522.25 22.8201 523.54 23.6601 524.15 24.9501C524.54 25.7801 524.52 26.6601 524.25 27.4801C524.04 27.9801 523.76 28.4601 523.43 28.9101L523.44 28.8901ZM507.45 22.9001C510.52 21.7001 513.83 21.1401 517.12 21.2501C518.74 21.3001 520.45 21.4601 522 21.9601C522.72 22.1901 523.42 22.5701 523.9 23.1701C524.1 23.4201 524.25 23.7001 524.37 24.0001C524.3 23.9101 524.24 23.8101 524.17 23.7201C521.91 20.9601 517.88 21.4301 514.74 21.8401C513.81 21.9601 512.88 22.1201 511.96 22.3101C511.09 22.3801 510.23 22.5001 509.4 22.6701C507.95 22.9601 506.51 23.4101 505.11 23.9901C505.87 23.5901 506.66 23.2301 507.46 22.9201L507.45 22.9001ZM496.43 36.5501C496.35 36.4301 496.28 36.3101 496.21 36.1801C496.24 36.2201 496.27 36.2601 496.31 36.2901C496.5 36.4601 496.71 36.5901 496.94 36.7001C497.29 37.0301 497.67 37.3301 498.08 37.5801C498.87 38.0701 499.71 38.4101 500.58 38.6601C500.49 38.6501 500.4 38.6401 500.31 38.6301C498.82 38.4201 497.32 37.8201 496.44 36.5501H496.43ZM519.17 34.7101C518.39 35.2101 517.55 35.6301 516.7 36.0001C517.06 35.8101 517.41 35.6201 517.76 35.4101C518.04 35.2401 518.32 35.0501 518.59 34.8501C519.34 34.4401 520.07 33.9601 520.7 33.3901C521.19 32.9401 521.54 32.3401 521.51 31.6801C521.51 31.6801 521.52 31.6701 521.53 31.6601C521.56 31.6401 521.59 31.6101 521.62 31.5901C522.06 31.2801 522.5 30.9401 522.9 30.5801C522.8 30.9701 522.62 31.3401 522.42 31.6801C521.66 32.9501 520.4 33.9301 519.17 34.7201V34.7101Z" fill="#263238"/>
</g>
<defs>
<clipPath id="clip0_575_1675">
<rect width="637.42" height="419.66" fill="white"/>
</clipPath>
</defs>
</svg>
