<svg width="466" height="366" viewBox="0 0 466 366" fill="none" xmlns="http://www.w3.org/2000/svg">
<path d="M422.753 295.775H354.498V364.716H422.753V295.775Z" fill="#EBEBEB"/>
<path d="M448.695 295.775H422.753V364.716H448.695V295.775Z" fill="#C7C7C7"/>
<path d="M354.498 330.246H422.753L369.445 332.021L354.498 330.246Z" fill="#C7C7C7"/>
<path d="M422.753 356.386H354.498L407.806 358.161L422.753 356.386Z" fill="#C7C7C7"/>
<path d="M354.498 310.972H397.735L359.3 312.424L354.498 310.972Z" fill="#C7C7C7"/>
<path d="M422.752 346.236H379.516L417.951 347.687L422.752 346.236Z" fill="#C7C7C7"/>
<path d="M370.868 303.301H419.64L411.513 304.172L370.868 303.301Z" fill="#C7C7C7"/>
<path d="M361.138 337.638H409.898L401.772 338.509L361.138 337.638Z" fill="#C7C7C7"/>
<path d="M391.116 317.538H422.752L428.404 319.861L391.116 317.538Z" fill="#EBEBEB"/>
<path d="M345.787 317.538H377.413L383.064 319.861L345.787 317.538Z" fill="#EBEBEB"/>
<path d="M386.378 348.525H354.742L349.091 350.848L386.378 348.525Z" fill="#EBEBEB"/>
<path d="M422.753 340.652H448.153L453.805 342.975L422.753 340.652Z" fill="#C7C7C7"/>
<path d="M431.623 330.245H451.319L448.695 328.347L431.623 330.245Z" fill="#C7C7C7"/>
<path d="M0 364.426L58.2473 364.158L116.495 364.057L233 363.867L349.495 364.057L407.742 364.158L466 364.426L407.742 364.705L349.495 364.794L233 364.984L116.495 364.794L58.2473 364.694L0 364.426Z" fill="#263238"/>
<path d="M296.665 173.536C294.785 169.315 282.834 135.872 268.737 121.825C261.268 114.377 238.545 96.3544 233.669 100.564C229.218 104.405 234.285 110.96 234.285 110.96C234.285 110.96 224.045 103.077 217.915 108.492C211.785 113.908 220.889 124.494 220.889 124.494C220.889 124.494 209.809 117.202 204.062 123.064C198.315 128.927 209.161 137.96 209.161 137.96C209.161 137.96 199.324 130.803 196.53 137.726C193.163 146.056 212.71 157.099 219.466 166.747C220.996 168.936 247.543 213.456 247.543 213.456L296.655 173.548L296.665 173.536Z" fill="white"/>
<path d="M209.097 138.429C223.46 146.592 228.389 152.767 236.272 167.495C236.42 167.786 236.867 167.607 236.729 167.294C230.27 152.142 225.139 143.443 209.437 137.681C208.673 137.402 208.418 138.05 209.097 138.429Z" fill="#263238"/>
<path d="M220.762 124.963C234.976 134.811 240.383 141.455 249.71 156.239C249.838 156.452 250.188 156.24 250.071 156.016C242.072 140.707 236.771 132.165 221.346 124.281C220.645 123.924 220.114 124.505 220.762 124.963Z" fill="#263238"/>
<path d="M234.731 111.675C247.83 122.249 254.066 129.273 261.364 144.85C261.534 145.218 262.065 144.984 261.927 144.604C255.957 127.966 248.234 119.134 235.082 111.295C234.19 110.759 233.913 111.016 234.731 111.675Z" fill="#263238"/>
<path d="M245.769 227.157C245.769 227.157 229.229 214.517 223.12 207.281C217.023 200.045 203.722 164.268 210.914 160.818C220.199 156.351 231.736 175.412 236.229 185.529C236.229 185.529 257.688 175.178 268.79 186.981C279.891 198.772 245.769 227.168 245.769 227.168V227.157Z" fill="white"/>
<path d="M213.847 160.46C225.107 162.805 230.185 176.484 235.242 185.953C235.624 186.668 236.315 186.601 236.782 186.188C246.056 182.48 260.153 180.091 268.801 186.299C269.056 186.478 269.332 186.132 269.098 185.909C260.684 177.936 246.651 179.086 236.75 183.832C231.704 174.039 226.031 160.561 213.868 160.36C213.793 160.36 213.783 160.46 213.847 160.472V160.46Z" fill="#263238"/>
<path d="M184.897 224.991C200.206 259.562 265.517 369.338 304.781 362.661C349.696 355.012 303.995 180.136 293.828 167.819C288.347 161.164 232.798 206.187 238.449 220.379C240.765 226.208 251.367 244.688 249.891 245.224C248.637 245.682 231.98 224.846 203.626 203.116C176.441 182.28 178.056 209.548 184.897 224.991Z" fill="white"/>
<path d="M184.207 227.001C202.171 269.824 266.219 356.475 290.227 361.924C314.236 367.373 319.197 359.579 325.613 334.355C332.03 309.119 309.721 203.485 309.721 203.485L238.545 224.969L240.744 232.975C240.744 232.975 221.867 216.639 205.167 202.48C188.467 188.332 169.271 191.414 184.196 227.012L184.207 227.001Z" fill="#FFC727"/>
<path opacity="0.1" d="M183.644 195.59V225.628C183.176 224.478 182.751 223.372 182.358 222.3C182.082 221.541 181.827 220.793 181.583 220.067C181.562 220 181.54 219.933 181.519 219.866V197.232C181.604 197.131 181.71 197.02 181.806 196.93C182.358 196.383 182.975 195.936 183.644 195.59ZM189.88 194.719V239.072C190.071 239.463 190.273 239.854 190.475 240.245V194.809C190.273 194.764 190.071 194.742 189.88 194.719ZM198.049 197.544C197.645 197.321 197.242 197.12 196.838 196.93C196.795 196.897 196.753 196.886 196.71 196.863V252.003H196.933C197.348 252.74 197.783 253.488 198.23 254.236C198.421 254.582 198.623 254.928 198.835 255.274V197.98C198.569 197.823 198.314 197.678 198.049 197.544ZM205.177 202.469C205.177 202.469 205.103 202.413 205.071 202.379V265.536C205.262 265.849 205.453 266.15 205.655 266.463V202.871C205.496 202.737 205.336 202.603 205.177 202.469ZM211.902 208.186V276.133C212.029 276.345 212.167 276.558 212.316 276.759C212.443 276.971 212.582 277.183 212.73 277.384C213.155 278.032 213.58 278.668 214.016 279.316V209.984C213.315 209.392 212.613 208.789 211.902 208.186ZM220.262 215.332V288.427C220.453 288.707 220.645 288.986 220.846 289.254V215.835C220.655 215.656 220.464 215.5 220.262 215.332ZM228.4 222.3C227.975 221.943 227.539 221.563 227.093 221.172V297.975C227.56 298.622 228.028 299.27 228.516 299.906C228.74 300.219 228.973 300.532 229.207 300.844V222.992C228.941 222.769 228.676 222.535 228.4 222.3ZM236.016 228.855C235.836 228.698 235.645 228.542 235.453 228.375V309.32H235.602C235.74 309.509 235.889 309.699 236.038 309.889V228.855H236.016ZM242.284 223.83V318.108H242.529C243.145 318.878 243.771 319.649 244.398 320.408V223.193L242.284 223.83ZM250.645 221.306V327.867C250.836 328.09 251.038 328.325 251.229 328.548V221.128L250.645 221.306ZM257.475 219.252V335.594C258.187 336.376 258.888 337.135 259.589 337.883V218.604L257.475 219.252ZM265.836 216.728V344.337C266.027 344.527 266.218 344.717 266.42 344.918V216.549L265.836 216.728ZM272.667 214.662V350.758C273.378 351.395 274.08 351.998 274.781 352.578V214.026L272.667 214.662ZM281.027 357.38C281.218 357.514 281.42 357.648 281.611 357.771V211.96L281.027 212.139V357.38ZM287.858 210.073V361.176C288.591 361.467 289.303 361.69 289.972 361.857V209.437L287.858 210.073ZM296.218 207.549V363.052C296.42 363.086 296.612 363.119 296.803 363.142V207.371L296.218 207.549ZM303.049 363.555C303.782 363.544 304.483 363.51 305.163 363.432V204.847L303.049 205.495V363.555ZM311.771 213.512C311.728 213.3 311.686 213.099 311.654 212.898C311.569 212.485 311.484 212.083 311.41 211.692V361.735C311.612 361.634 311.803 361.534 311.994 361.433V214.629C311.92 214.249 311.845 213.881 311.771 213.512ZM320.301 260.791C319.951 258.58 319.59 256.391 319.228 254.236C319.112 253.488 318.984 252.74 318.857 252.003C318.644 250.763 318.432 249.535 318.23 248.318V355.124C318.984 353.896 319.685 352.534 320.355 351.015V260.791H320.301ZM326.739 318.108C326.739 317.382 326.697 316.634 326.675 315.874C326.644 315.238 326.622 314.601 326.59 313.943V327.566C326.643 326.829 326.686 326.069 326.718 325.276C326.718 325.075 326.718 324.874 326.718 324.662C326.792 322.63 326.792 320.441 326.718 318.108H326.739ZM181.806 196.93C181.71 197.02 181.604 197.131 181.519 197.232C181.424 197.332 181.328 197.433 181.243 197.544H198.049C197.645 197.321 197.242 197.12 196.838 196.93H181.806ZM178.916 204.11C178.853 204.802 178.831 205.551 178.853 206.332H209.735C208.853 205.595 207.982 204.847 207.111 204.11H178.916ZM309.869 204.11H307.628L305.163 204.847L303.049 205.495L300.266 206.332H310.326C310.124 205.338 309.965 204.59 309.869 204.11ZM217.426 212.898H179.628C179.671 213.099 179.713 213.3 179.756 213.512H218.138C217.904 213.311 217.67 213.11 217.426 212.898ZM311.654 212.898H278.51L276.47 213.512H311.771C311.728 213.3 311.686 213.099 311.654 212.898ZM225.797 220.067H181.583C181.827 220.793 182.082 221.541 182.358 222.3H228.4C227.975 221.943 227.539 221.563 227.093 221.172C226.668 220.815 226.232 220.447 225.797 220.067ZM313.056 220.067H254.756L251.229 221.128L250.645 221.306L247.362 222.3H313.481C313.343 221.541 313.194 220.793 313.056 220.067ZM236.038 228.855H184.993C185.089 229.067 185.184 229.268 185.269 229.48H236.739C236.516 229.29 236.282 229.089 236.038 228.877V228.855ZM314.735 228.855H239.628L239.798 229.48H314.841C314.809 229.268 314.767 229.067 314.735 228.855ZM316.063 236.035H188.361C188.711 236.772 189.083 237.509 189.465 238.268H316.466C316.328 237.52 316.19 236.772 316.063 236.035ZM317.624 244.823H192.907C193.024 245.035 193.13 245.236 193.247 245.448H317.731C317.699 245.236 317.656 245.035 317.624 244.823ZM196.933 252.003C197.348 252.74 197.783 253.488 198.23 254.236H319.228C319.112 253.488 318.984 252.74 318.857 252.003H196.933ZM320.355 261.148V260.791H202.139C202.256 260.992 202.383 261.204 202.521 261.416H320.397C320.397 261.327 320.376 261.237 320.355 261.148ZM321.417 267.971H206.601C207.079 268.708 207.546 269.456 208.035 270.204H321.757C321.651 269.467 321.534 268.719 321.417 267.971ZM322.713 276.759H212.316C212.443 276.971 212.582 277.183 212.73 277.384H322.798C322.777 277.183 322.745 276.971 322.713 276.759ZM323.69 283.939H220.262V286.172H323.977C323.881 285.435 323.786 284.687 323.69 283.939ZM324.763 292.726H223.29C223.439 292.927 223.598 293.14 223.747 293.352H324.838C324.816 293.151 324.795 292.939 324.763 292.726ZM325.528 299.906H228.516C228.74 300.219 228.973 300.532 229.207 300.844C229.515 301.28 229.834 301.715 230.163 302.14H325.751C325.677 301.403 325.613 300.655 325.528 299.906ZM326.282 308.694H235.113C235.23 308.84 235.337 308.985 235.453 309.13V309.32H326.314C326.304 309.108 326.293 308.907 326.282 308.694ZM326.675 315.874H240.744C241.254 316.522 241.774 317.17 242.284 317.806V318.108H326.739C326.739 317.382 326.697 316.634 326.675 315.874ZM247.925 324.662C248.095 324.863 248.265 325.075 248.446 325.276H326.718C326.718 325.075 326.718 324.874 326.718 324.662H247.915H247.925ZM254.108 331.842C254.767 332.59 255.436 333.339 256.094 334.064H325.687C325.857 333.383 326.006 332.635 326.123 331.842H254.108ZM262.192 340.63C262.383 340.831 262.585 341.032 262.776 341.244H323.765C323.828 341.043 323.881 340.842 323.935 340.63H262.192ZM269.427 347.81C270.255 348.581 271.063 349.329 271.859 350.032H320.779C321.077 349.318 321.364 348.581 321.64 347.81H269.427ZM279.912 356.598C280.209 356.81 280.496 357.011 280.783 357.212H316.796C316.944 357.022 317.104 356.81 317.253 356.598H279.912Z" fill="black"/>
<path d="M310.188 222.713C305.641 224.656 300.978 226.231 296.304 227.783C288.07 230.519 279.763 232.975 271.466 235.432C267.27 236.671 263.053 237.788 258.825 238.893C254.639 239.988 250.379 240.747 246.215 241.931C246.119 241.953 246.077 241.797 246.172 241.774C248.552 241.127 250.889 240.267 253.237 239.485C255.553 238.715 257.858 237.944 260.184 237.218C268.449 234.617 276.746 232.149 285.022 229.569C289.197 228.263 293.382 227.012 297.568 225.75C301.721 224.5 305.875 223.283 310.092 222.311C310.337 222.255 310.432 222.602 310.188 222.702V222.713ZM280.029 341.322C276.491 334.678 273.294 327.867 270.138 321.022C267.026 314.255 264.126 307.354 261.385 300.409C255.871 286.473 251.07 272.203 247.118 257.697C246.013 253.644 244.972 249.568 243.952 245.493C242.911 241.339 242.019 237.151 241.063 232.964C240.924 232.361 240.669 232.35 240.765 232.942C241.966 240.423 243.017 248.173 244.866 255.498C246.714 262.834 248.786 270.114 251.112 277.306C253.428 284.497 255.999 291.599 258.803 298.6C261.608 305.568 264.561 312.513 267.929 319.202C271.721 326.728 275.694 334.131 279.912 341.401C279.965 341.501 280.103 341.401 280.05 341.311L280.029 341.322Z" fill="#263238"/>
<path opacity="0.1" d="M295.9 363.007C294.137 362.751 292.246 362.382 290.228 361.924C266.219 356.475 202.171 269.824 184.207 227.001C175.985 207.393 178.12 197.645 184.484 195.222C203.595 224.924 265.273 317.248 295.9 363.007Z" fill="black"/>
<path d="M231.066 363.733L75.7437 364.169C75.7437 364.169 93.3783 243.214 150.425 185.607C157.479 178.494 174.041 179.332 185.015 184.491C188.935 186.333 203.52 206.03 208.205 225.047C212.858 244.041 231.47 363.13 231.056 363.722L231.066 363.733Z" fill="#FFC727"/>
<path opacity="0.1" d="M77.3049 355.057V364.18H75.7539C75.7539 364.18 75.7752 364.046 75.8177 363.778C75.9451 362.907 76.3063 360.64 76.9118 357.212C76.9543 357.011 76.9862 356.81 77.0181 356.598C77.1137 356.106 77.2093 355.593 77.3049 355.057ZM83.5514 324.662V364.157H84.1357V323.69C84.0507 324.014 83.9763 324.338 83.8913 324.662H83.5514ZM90.3821 299.906V364.135H92.4962V293.932C91.8694 295.942 91.2532 297.941 90.6583 299.906H90.3821ZM98.7426 275.452V364.113H99.3269V273.833C99.1357 274.369 98.9339 274.916 98.7426 275.452ZM107.103 254.236C106.583 255.453 106.073 256.681 105.563 257.898V364.101H107.687V252.907C107.496 253.342 107.305 253.789 107.103 254.236ZM114.476 238.268C114.295 238.636 114.115 239.016 113.923 239.384V364.068H114.518V238.19C114.518 238.19 114.497 238.234 114.476 238.268ZM120.754 226.331V364.057H122.879V222.59C122.156 223.83 121.445 225.08 120.754 226.331ZM129.115 364.035H129.709V211.535C129.508 211.837 129.316 212.138 129.115 212.451V364.035ZM135.945 202.613V364.012H138.07V199.811C137.358 200.738 136.646 201.664 135.945 202.613ZM144.306 192.218V363.99H144.901V191.536C144.699 191.76 144.508 191.994 144.306 192.218ZM151.137 184.971V363.967H153.261V183.463C152.496 183.899 151.785 184.412 151.137 184.971ZM159.497 180.962V363.945H160.092V180.962H159.497ZM166.328 180.448V363.923H168.452V180.504C167.741 180.471 167.029 180.448 166.328 180.448ZM174.688 181.241V363.9H175.283V181.353C175.092 181.308 174.89 181.275 174.688 181.241ZM181.519 183.072V363.878H183.644V183.887C182.953 183.597 182.241 183.329 181.519 183.072ZM189.88 189.225V363.856H190.475V189.962C190.273 189.705 190.071 189.46 189.88 189.225ZM196.71 198.94V363.845H198.835V202.535C198.134 201.296 197.422 200.09 196.71 198.94ZM205.071 215.421V363.822H205.655V216.929C205.475 216.426 205.273 215.924 205.071 215.421ZM213.739 254.236C213.612 253.487 213.474 252.739 213.346 252.002C212.953 249.724 212.571 247.536 212.199 245.448C212.157 245.235 212.125 245.035 212.082 244.822C212.018 244.476 211.965 244.141 211.902 243.795V363.8H214.016V255.855C213.92 255.308 213.835 254.772 213.739 254.236ZM220.262 293.396V363.778H220.846V296.992C220.655 295.797 220.453 294.591 220.262 293.396ZM229.164 350.032C229.058 349.317 228.941 348.58 228.835 347.81C228.516 345.777 228.187 343.578 227.826 341.244C227.794 341.043 227.762 340.831 227.73 340.63C227.528 339.279 227.316 337.894 227.093 336.465V363.778H229.207V350.032H229.164ZM173.052 180.962H159.497V181.141C158.902 181.263 158.318 181.409 157.755 181.576H176.324C175.974 181.498 175.634 181.42 175.283 181.353C175.092 181.308 174.89 181.275 174.688 181.241L173.052 180.962ZM190.475 189.962C190.273 189.705 190.071 189.46 189.88 189.225C189.561 188.845 189.263 188.477 188.966 188.142H148.003C147.312 188.868 146.632 189.605 145.952 190.364H190.783C190.676 190.23 190.57 190.096 190.475 189.962ZM195.446 196.93H140.354C140.184 197.131 140.014 197.332 139.855 197.544H195.839C195.701 197.343 195.574 197.131 195.446 196.93ZM199.717 204.11H134.851C134.32 204.836 133.789 205.584 133.258 206.332H200.907C200.513 205.573 200.12 204.836 199.717 204.11ZM128.817 212.898C128.69 213.099 128.552 213.3 128.424 213.512H204.285C204.2 213.311 204.115 213.099 204.03 212.898H128.817ZM206.771 220.067H124.366C123.92 220.803 123.484 221.552 123.049 222.3H207.461C207.249 221.552 207.015 220.803 206.771 220.067ZM209.055 228.854H119.362C119.246 229.055 119.139 229.268 119.022 229.48H209.193C209.15 229.268 209.108 229.055 209.055 228.854ZM210.478 236.034H115.591C115.23 236.749 114.879 237.464 114.518 238.19C114.518 238.212 114.497 238.234 114.476 238.268H210.892C210.754 237.497 210.616 236.749 210.478 236.034ZM212.082 244.822H111.331C111.236 245.023 111.129 245.235 111.034 245.448H212.199C212.157 245.235 212.125 245.035 212.082 244.822ZM213.346 252.002H108.08C107.953 252.304 107.815 252.605 107.687 252.907C107.496 253.342 107.305 253.789 107.103 254.236H213.739C213.612 253.487 213.474 252.739 213.346 252.002ZM214.866 260.79H104.373C104.288 261.002 104.203 261.203 104.118 261.416H214.972C214.929 261.203 214.897 260.991 214.866 260.79ZM216.077 267.97H101.537C101.25 268.707 100.963 269.455 100.676 270.203H216.448C216.321 269.455 216.204 268.707 216.077 267.97ZM217.532 276.758H98.2646C98.1902 276.97 98.1159 277.182 98.0415 277.383H217.638C217.606 277.171 217.574 276.959 217.532 276.758ZM218.722 283.938H95.7575C95.5132 284.686 95.2582 285.434 95.0139 286.171H219.083C218.966 285.423 218.839 284.686 218.722 283.938ZM220.156 292.726H92.8786C92.8149 292.938 92.7511 293.139 92.6874 293.351H220.252C220.22 293.139 220.188 292.938 220.156 292.726ZM221.314 299.906H90.3821V300.855C90.2547 301.291 90.1272 301.715 89.9997 302.139H221.675C221.558 301.402 221.431 300.654 221.314 299.906ZM222.716 308.694H88.1088C88.0556 308.906 87.9919 309.118 87.9388 309.319H222.822C222.79 309.118 222.759 308.906 222.716 308.694ZM223.863 315.874H86.1435C85.9522 316.622 85.7504 317.37 85.5592 318.107H224.214C224.097 317.37 223.98 316.622 223.863 315.874ZM225.255 324.662H83.5514V325.276H225.351C225.319 325.075 225.287 324.863 225.255 324.662ZM226.371 331.842H82.1704C81.9898 332.601 81.8198 333.338 81.6498 334.064H226.721C226.604 333.327 226.487 332.59 226.371 331.842ZM227.73 340.63H80.1944C80.1519 340.831 80.1094 341.043 80.067 341.244H227.826C227.794 341.043 227.762 340.831 227.73 340.63ZM228.835 347.81H78.6966C78.5478 348.569 78.3991 349.317 78.261 350.032H229.164C229.058 349.317 228.941 348.58 228.835 347.81ZM230.131 356.598H77.0181C76.9862 356.81 76.9543 357.011 76.9118 357.212H230.227C230.195 357.011 230.174 356.81 230.131 356.598ZM75.8177 363.778C75.7752 364.046 75.7539 364.18 75.7539 364.18H77.3049L83.5514 364.157H84.1357L90.3821 364.135H92.4962L98.7426 364.113H105.563L107.687 364.09L113.923 364.068H120.754L122.879 364.046H129.115L129.709 364.023H135.945L138.07 364.001H144.306L144.901 363.99L151.137 363.967H153.261L159.497 363.945H160.092L166.328 363.923H168.452L174.688 363.9H175.283L181.519 363.878H183.644L189.88 363.856H196.71L198.835 363.833H205.071L205.655 363.811H211.902L214.016 363.789H219.115L75.8177 363.778Z" fill="black"/>
<path d="M209.863 232.941C211.244 237.173 212.412 241.573 213.411 246.006C213.411 245.827 213.411 245.66 213.411 245.481C213.379 242.969 213.294 240.412 213.453 237.91C213.453 237.776 213.655 237.732 213.687 237.877C214.133 240.345 214.208 242.969 214.176 245.481C214.155 246.676 214.133 247.882 214.091 249.088C214.494 251.076 214.856 253.074 215.174 255.051C215.769 258.814 219.264 283.804 219.477 286.607C219.519 287.199 219.19 287.21 219.009 286.607C218.17 283.804 213.645 258.512 212.89 254.794C211.435 247.659 210.309 240.233 209.608 232.975C209.587 232.807 209.831 232.796 209.884 232.941H209.863Z" fill="#263238"/>
<path d="M182.454 222.836C172.947 223.417 159.721 205.863 155.524 192.843C155.238 191.95 157.862 183.575 160.592 173.257C162.228 166.982 163.906 159.958 164.99 153.426L202.277 170.555C202.277 170.555 196.158 183.53 194.331 194.92C194.183 195.869 194.129 196.774 194.151 197.645C194.151 197.767 194.151 197.924 194.129 198.102C194.066 203.339 191.644 222.255 182.454 222.836Z" fill="white"/>
<path d="M194.151 197.645C194.151 197.779 194.151 197.935 194.13 198.102C192.887 198.069 191.548 197.89 190.093 197.589C168.103 192.999 166.7 163.475 166.807 154.263L202.278 170.555C202.278 170.555 196.169 183.53 194.332 194.92C194.183 195.869 194.13 196.762 194.151 197.633V197.645Z" fill="#263238"/>
<path d="M227.943 110.29C227.943 110.29 237.451 119.502 235.326 132.265C233.202 145.029 226.222 156.586 225.022 156.82C223.821 157.055 227.943 110.29 227.943 110.29Z" fill="#263238"/>
<path d="M172.829 105.187C164.67 117.984 160.017 160.997 166.944 173.112C176.983 190.688 199.27 199.163 214.961 185.072C230.163 171.415 235.283 115.259 227.008 103.602C214.812 86.439 184.886 86.2715 172.84 105.187H172.829Z" fill="white"/>
<path d="M196.901 132.221C198.08 131.752 199.238 131.528 200.449 131.205C201.809 130.825 202.861 130.378 204.253 130.892C204.996 131.16 205.495 132.265 205.304 133.058C204.879 134.89 203.318 135.783 201.692 136.308C199.929 136.877 198.431 136.844 196.731 136.107C195.074 135.403 195.35 132.846 196.901 132.232V132.221Z" fill="#263238"/>
<path d="M227.698 139.747C226.827 138.798 225.871 138.061 224.925 137.212C223.852 136.252 223.087 135.37 221.621 135.202C220.835 135.113 219.943 135.884 219.783 136.676C219.412 138.519 220.453 140.037 221.706 141.255C223.066 142.572 224.426 143.22 226.264 143.332C228.048 143.443 228.845 141.009 227.698 139.758V139.747Z" fill="#263238"/>
<path d="M195.924 168.824C196.476 169.606 196.997 170.644 197.974 170.901C198.92 171.147 200.099 170.879 201.023 170.667C201.119 170.644 201.193 170.756 201.119 170.834C200.237 171.817 198.643 172.263 197.401 171.817C196.189 171.381 195.754 170.153 195.626 168.913C195.605 168.735 195.828 168.712 195.913 168.824H195.924Z" fill="#263238"/>
<path d="M211.497 160.058C211.497 160.058 210.902 165.206 210.435 167.249C210.392 167.439 204.316 164.402 198.962 163.62C198.728 163.587 198.611 163.073 199.259 162.995C202.977 162.526 209.373 165.161 209.373 165.161C209.447 164.838 209.872 157.479 210.191 157.535C211.274 157.713 213.186 159.009 214.355 159.712C215.524 150.422 215.258 141.02 216.554 131.785C216.607 131.461 217.064 131.472 217.096 131.785C218.031 141.623 216.915 152.342 215.948 161.968C215.842 163.174 212.198 160.617 211.497 160.07V160.058Z" fill="#263238"/>
<path d="M203.52 144.593C203.52 144.481 203.286 144.693 203.265 144.816C202.882 147.731 201.979 150.991 199.324 151.505C199.239 151.516 199.228 151.672 199.324 151.672C202.436 151.773 203.594 147.418 203.52 144.593Z" fill="#263238"/>
<path d="M197.178 144.001C197.284 145.319 197.465 146.614 197.943 147.686C198.399 148.747 199.334 149.327 200.301 149.171C201.204 149.071 201.937 148.054 202.447 146.971C202.957 145.855 203.307 144.626 203.584 143.331C203.828 144.649 203.743 146.022 203.35 147.351C203.159 148.021 202.85 148.657 202.404 149.249C201.958 149.83 201.278 150.332 200.482 150.455C199.695 150.567 198.941 150.355 198.293 149.908C197.666 149.439 197.241 148.747 197.05 148.054C196.657 146.659 196.785 145.274 197.178 144.001Z" fill="#263238"/>
<path d="M218.573 146.67C218.605 146.558 218.775 146.837 218.753 146.96C218.296 149.863 218.243 153.258 220.623 154.576C220.697 154.62 220.665 154.765 220.58 154.732C217.574 153.85 217.702 149.339 218.573 146.67Z" fill="#263238"/>
<path d="M224.798 148.088C224.819 149.417 224.543 150.79 223.778 151.996C223.395 152.599 222.8 153.124 222.067 153.381C221.324 153.615 220.548 153.571 219.826 153.224C219.103 152.856 218.594 152.164 218.328 151.471C218.073 150.768 217.967 150.053 217.967 149.361C217.967 147.976 218.275 146.625 218.87 145.453C218.764 146.77 218.753 148.066 218.923 149.283C219.103 150.478 219.518 151.672 220.357 152.052C221.239 152.499 222.29 152.231 223.023 151.371C223.778 150.511 224.32 149.316 224.798 148.099V148.088Z" fill="#263238"/>
<path d="M170.099 140.093C177.631 142.025 184.908 106.795 184.908 106.795C184.908 106.795 191.707 112.568 197.932 114.667C204.146 116.767 211.763 117.705 212.889 117.66C214.015 117.615 202.149 108.872 202.149 108.872C202.149 108.872 233.488 123.757 236.717 117.76C237.843 115.672 228.346 88.1696 205.262 84.0046C188.222 80.9338 174.677 96.7007 174.677 96.7007C174.677 96.7007 164.405 104.115 163.491 109.754C162.27 117.314 162.11 138.039 170.099 140.082V140.093Z" fill="#263238"/>
<path d="M172.224 141.243C172.224 141.243 166.955 125.387 160.347 126.995C153.739 128.614 155.237 149.785 161.25 154.397C167.263 159.009 171.438 153.247 171.438 153.247L172.234 141.243H172.224Z" fill="white"/>
<path d="M160.911 133.058C160.804 133.014 160.741 133.17 160.826 133.237C165 136.631 166.254 141.958 166.711 147.228C165.797 144.984 164.161 143.421 161.357 144.481C161.208 144.537 161.272 144.772 161.41 144.783C163.46 144.917 164.756 145.676 165.627 147.686C166.243 149.104 166.488 150.746 166.785 152.276C166.891 152.778 167.709 152.767 167.688 152.209C167.688 152.164 167.688 152.119 167.688 152.086C169.494 145.81 167.189 135.593 160.911 133.058Z" fill="#263238"/>
<path d="M229.494 147.552C228.102 153.482 226.795 159.444 225.181 165.318C223.725 170.611 221.654 175.591 218.743 180.18C217.978 181.386 217.086 182.514 216.151 183.575C215.184 184.669 212.847 186.836 212.932 186.769C213.877 185.965 214.918 185.317 215.853 184.502C216.799 183.675 217.691 182.76 218.509 181.788C220.166 179.812 221.558 177.679 222.705 175.334C225.34 169.997 226.657 164.023 227.773 158.16C228.442 154.654 228.994 151.103 229.61 147.586C229.621 147.508 229.515 147.474 229.494 147.552Z" fill="#263238"/>
<path d="M194.438 195.221L184.42 219.218L156.619 187.505L148.184 197.097C148.184 197.097 174.817 246.888 175.061 244.688L185.227 224.053L198.538 239.083V202.457L194.448 195.21L194.438 195.221Z" fill="#FFC727"/>
<path d="M199.494 220.993C199.303 214.941 199.261 208.855 198.804 202.814C198.782 202.602 198.474 202.491 198.411 202.747C197.083 208.532 197.943 231.657 197.752 237.184C197.731 237.162 197.71 237.14 197.699 237.117C197.147 236.47 185.333 223.863 185.206 224.053C183.039 227.313 175.581 242.332 175.061 243.706C170.854 235.8 152.911 204.567 147.876 197.064C147.727 196.851 147.419 197.008 147.525 197.265C151.201 205.595 174.36 246.776 174.71 246.687C174.944 246.888 184.197 228.385 185.344 224.868C187.32 227.593 199.197 241.763 199.271 240.869C199.739 234.828 199.696 227.045 199.494 220.993Z" fill="#263238"/>
<path d="M82.3303 361.545C70.9103 368.613 52.787 364.906 51.0129 348.257C45.0426 292.447 88.1306 180.259 95.8112 170.79C101.293 164.023 153.017 200.827 150.574 209.972C146.633 224.701 107.752 345.8 82.3409 361.545H82.3303Z" fill="#EB9481"/>
<path d="M92.9854 178.26C92.9854 178.26 98.9344 151.383 106.222 138.273C115.974 120.72 131.272 109.799 137.943 105.623C151.87 96.913 191.282 85.97 196.254 97.3485C200.758 107.655 159.944 116.7 159.944 116.7C159.944 116.7 200.11 100.263 203.372 113.707C206.633 127.163 158.68 134.823 158.68 134.823C158.68 134.823 200.312 118.9 201.587 133.338C202.543 144.247 159.487 153.761 159.487 153.761C159.487 153.761 195.362 140.339 196.806 151.505C198.411 163.844 159.19 175.256 159.19 175.256C158.318 204.3 146.601 217.755 137.189 226.287C134.905 228.352 93.0066 178.26 93.0066 178.26H92.9854Z" fill="white"/>
<path d="M188.669 127.252C190.964 126.381 204.997 122.841 203.988 114.12C203.234 107.666 196.18 108.459 193.811 108.47C193.917 108.47 194.034 108.448 194.14 108.437C194.64 108.392 186.619 108.224 174.498 111.15C169.558 112.345 164.682 113.83 159.87 115.505C155.057 117.169 150.362 119.346 145.709 121.457C145.603 121.512 145.645 121.691 145.762 121.646C150.574 119.983 155.45 118.576 160.263 116.912C164.958 115.282 181.573 109.821 193.29 108.537C195.489 108.649 197.784 108.76 199.792 109.821C201.502 110.726 202.979 112.345 203.138 114.422C203.51 119.078 198.814 121.847 195.511 123.735C193.269 125.008 190.985 126.225 188.574 127.118C188.499 127.14 188.51 127.23 188.552 127.274C188.319 127.285 188.074 127.308 187.841 127.319C187.788 127.319 187.724 127.319 187.628 127.341C181.382 129.027 175.39 130.49 169.271 132.623C163.12 134.767 157.193 137.413 151.137 139.836C151.042 139.87 151.084 140.026 151.18 139.993C157.235 137.748 163.492 135.962 169.632 133.952C175.794 131.931 181.36 129.63 187.543 127.687C187.766 127.62 187.904 127.509 187.936 127.431C190.56 127.397 193.301 127.509 195.861 128.156C198.177 128.748 200.334 130.189 200.939 132.779C201.587 135.526 199.388 137.681 197.54 139.189C195.596 140.774 193.397 142.003 191.187 143.108C189.774 143.812 188.34 144.437 186.895 145.062C185.44 145.699 182.869 146.938 181.382 147.474C181.265 147.519 181.382 147.575 181.499 147.552C199.856 142.885 202.819 136.375 202.288 132.757C201.311 126.024 191.58 127.073 188.68 127.274L188.669 127.252Z" fill="#263238"/>
<path d="M153.071 156.486C162.133 152.276 171.693 149.618 181.35 147.463C181.828 147.352 181.669 147.754 181.18 147.888C171.651 150.623 164.395 152.924 153.209 156.809C153.039 156.865 152.88 156.564 153.071 156.474V156.486Z" fill="#263238"/>
<path d="M195.957 148.256C192.345 145.074 184.048 146.972 181.403 147.452C181.254 147.474 181.297 147.753 181.446 147.72C183.623 147.385 186.184 147.184 188.393 147.296C190.327 147.396 192.462 147.541 194.257 148.39C195.022 148.747 195.734 149.283 196.169 150.043C196.743 151.048 196.701 152.209 196.424 153.303C195.936 155.28 194.661 157.044 193.259 158.406C184.123 167.25 159.126 175.044 159.062 175.066C158.977 175.089 158.616 182.492 158.234 185.831C158.043 187.439 157.798 189.047 157.511 190.643C157.225 192.307 156.959 194.027 156.407 195.624C156.375 195.724 156.534 195.78 156.566 195.668C157.044 194.027 157.692 192.452 158.159 190.811C158.627 189.181 158.988 187.517 159.285 185.831C159.87 182.503 159.848 175.58 159.817 175.513C203.531 163.331 199.186 151.092 195.957 148.245V148.256Z" fill="#263238"/>
<path d="M88.0245 172.777L152.986 219.442C152.986 219.442 103.896 361.109 76.4558 365.375C63.9097 367.329 56.8452 363.331 51.8204 354.231C46.785 345.13 40.3367 298.164 88.0351 172.766L88.0245 172.777Z" fill="#FFC727"/>
<path opacity="0.1" d="M100.273 181.576H84.7205C84.7948 181.375 84.8692 181.163 84.9542 180.962H99.4124L100.273 181.576ZM111.374 189.549L109.409 188.142H82.309C82.0328 188.89 81.7672 189.627 81.5016 190.364H112.5L111.374 189.549ZM121.636 196.93H78.8777V197.544H122.497L121.636 196.93ZM133.396 205.383L132.801 204.948L131.633 204.11H76.6468C76.3918 204.858 76.1369 205.595 75.8819 206.332H134.724L133.396 205.383ZM143.86 212.898H73.6723C73.5979 213.099 73.5342 213.311 73.4704 213.512H144.721L143.86 212.898ZM71.3139 220.067C71.0696 220.815 70.8252 221.563 70.5915 222.3H151.987C152.338 221.295 152.603 220.547 152.773 220.067H71.3139ZM68.5306 228.855C68.4563 229.067 68.3925 229.279 68.3288 229.48H149.395C149.48 229.268 149.554 229.056 149.629 228.855H68.5306ZM66.3316 236.035C66.151 236.627 65.981 237.207 65.8004 237.788C65.758 237.944 65.7048 238.112 65.6517 238.268H146.155C146.442 237.498 146.718 236.761 146.994 236.035H66.3316ZM63.7502 244.823L63.6864 245.057C63.6439 245.191 63.6121 245.314 63.5802 245.448H143.456C143.531 245.236 143.616 245.024 143.69 244.823H63.7502ZM61.753 252.003C61.5405 252.751 61.3387 253.499 61.1475 254.236H140.068C140.365 253.477 140.652 252.74 140.939 252.003H61.753ZM59.4265 260.791C59.3628 261.003 59.3096 261.215 59.2671 261.416H137.242C137.327 261.204 137.412 260.992 137.486 260.791H59.4265ZM57.6312 267.971C57.5674 268.239 57.5037 268.507 57.4399 268.763C57.3231 269.255 57.2169 269.724 57.1 270.204H133.704C134.012 269.456 134.31 268.708 134.607 267.971H57.6312ZM55.6021 276.759C55.549 276.971 55.5065 277.183 55.464 277.384H130.74C130.825 277.183 130.921 276.971 130.995 276.759H55.6021ZM54.083 283.939C53.9236 284.687 53.7749 285.435 53.6262 286.172H127.033C127.352 285.424 127.67 284.676 127.978 283.939H54.083ZM52.3939 292.726C52.3514 292.939 52.3195 293.151 52.277 293.352H123.899C123.995 293.14 124.09 292.939 124.175 292.726H52.3939ZM51.1828 299.906C51.066 300.666 50.9598 301.403 50.8535 302.14H119.947C120.298 301.403 120.638 300.655 120.967 299.906H51.1828ZM49.9505 308.694C49.9293 308.907 49.8974 309.108 49.8762 309.32H116.612C116.718 309.108 116.813 308.895 116.909 308.694H49.9505ZM49.1644 315.874C49.1007 316.634 49.0263 317.382 48.9626 318.108H112.352C112.713 317.371 113.085 316.623 113.456 315.874H49.1644ZM48.5376 324.662C48.5376 324.874 48.5164 325.075 48.5164 325.276H108.697C108.803 325.064 108.91 324.863 109.016 324.662H48.5376ZM48.3677 331.842C48.3677 332.602 48.3783 333.339 48.3889 334.064H103.927C104.342 333.327 104.756 332.59 105.16 331.842H48.3677ZM48.7182 340.63C48.7395 340.842 48.7607 341.043 48.7714 341.244H99.7099C99.8374 341.043 99.9542 340.842 100.082 340.63H48.7182ZM49.7168 347.81C49.8868 348.614 50.0568 349.351 50.2374 350.032H94.0689V349.82C94.5364 349.161 95.0038 348.491 95.4712 347.81H49.7168ZM53.2544 356.598C53.3819 356.81 53.5306 357.011 53.6687 357.212H88.2368C88.4174 357.011 88.598 356.81 88.7786 356.598H53.2544ZM60.9775 363.778C61.838 364.214 62.7409 364.582 63.6864 364.884C64.3663 365.096 65.0674 365.274 65.8004 365.42C67.6914 365.799 69.7629 365.933 72.0469 365.833C72.2381 365.833 72.44 365.822 72.6312 365.799C73.8423 365.732 75.117 365.598 76.4556 365.386C77.2417 365.263 78.0491 365.029 78.8777 364.683C79.462 364.437 80.0675 364.135 80.673 363.778H60.9775ZM49.9505 308.694C49.9293 308.907 49.8974 309.108 49.8762 309.32C49.6 311.598 49.3663 313.786 49.1644 315.874C49.1007 316.634 49.0263 317.382 48.9626 318.108C48.782 320.419 48.6333 322.597 48.5376 324.662C48.5376 324.874 48.5164 325.075 48.5164 325.276H48.4952V337.157C48.5483 338.386 48.6333 339.547 48.7182 340.63C48.7395 340.842 48.7607 341.043 48.7714 341.244C49.0157 343.79 49.345 345.968 49.7168 347.81C49.8868 348.614 50.0568 349.351 50.2374 350.032C50.3649 350.479 50.4817 350.903 50.6092 351.294V303.781C50.3648 305.467 50.1524 307.109 49.9505 308.694ZM57.1 270.204C57.015 270.55 56.9406 270.896 56.8557 271.242V360.897C57.0469 361.087 57.2381 361.254 57.4399 361.422V268.763C57.3231 269.255 57.2169 269.724 57.1 270.204ZM65.6517 238.268C65.0037 240.49 64.3663 242.679 63.7502 244.823L63.6864 245.057V364.884C64.3663 365.096 65.0674 365.274 65.8004 365.42V237.788C65.758 237.944 65.7048 238.112 65.6517 238.268ZM72.0469 217.822V365.833C72.2381 365.833 72.44 365.822 72.6312 365.799V216.036C72.4294 216.639 72.2381 217.231 72.0469 217.822ZM79.1539 196.93H78.8777V364.683C79.462 364.437 80.0675 364.135 80.673 363.778H80.9917V191.783C80.3649 193.513 79.7594 195.233 79.1539 196.93ZM87.2382 174.854V358.295C87.4294 358.094 87.6312 357.882 87.8225 357.67V174.396H87.4082L87.2382 174.854ZM94.0689 177.121V349.82C94.5364 349.161 95.0038 348.491 95.4712 347.81C95.7049 347.464 95.9493 347.118 96.183 346.761V178.64L94.0689 177.121ZM102.429 183.129V336.688C102.621 336.353 102.823 336.007 103.014 335.672V183.553L102.429 183.129ZM109.25 188.031V324.204C109.961 322.842 110.662 321.458 111.374 320.062V189.549L109.409 188.142L109.25 188.031ZM117.61 194.038V307.22C117.801 306.796 118.003 306.372 118.205 305.947V194.462L117.61 194.038ZM124.441 198.94V292.112C125.153 290.493 125.864 288.874 126.565 287.244V200.47L124.441 198.94ZM132.801 204.948V272.404C133.003 271.924 133.194 271.443 133.396 270.963V205.383L132.801 204.948ZM139.632 209.861V255.353C139.781 254.973 139.919 254.604 140.068 254.236C140.365 253.477 140.652 252.74 140.939 252.003C141.215 251.288 141.481 250.585 141.757 249.892V211.38L139.632 209.861ZM147.993 233.333C148.194 232.774 148.396 232.227 148.588 231.702V216.293L147.993 215.868V233.333Z" fill="black"/>
<path d="M154.282 219.542C154.25 219.609 153.145 222.412 152.646 223.774C148.566 234.739 144.126 245.571 139.654 256.369C135.192 267.144 130.666 277.886 125.971 288.561C121.275 299.236 116.516 309.889 111.619 320.453C107.614 329.084 103.449 337.66 98.1697 345.521C95.5777 349.385 92.6881 352.969 89.4586 356.263C86.261 359.524 82.6598 362.215 78.8779 364.66C78.7823 364.716 78.6973 364.571 78.7929 364.515C79.7596 363.878 80.7369 363.22 81.6293 362.46C88.5982 356.598 94.1966 349.172 98.9027 341.244C103.843 332.936 107.858 324.059 111.895 315.249C116.729 304.708 121.435 294.1 126.056 283.447C130.666 272.794 135.256 262.131 139.696 251.411C144.105 240.769 148.407 230.083 152.805 219.43C152.603 219.308 149.342 216.94 148.513 216.326C148.439 216.27 148.481 216.136 148.577 216.17C149.565 216.438 154.431 219.296 154.292 219.564L154.282 219.542ZM144.71 229.502C141.088 226.566 137.316 223.875 133.524 221.195C129.7 218.492 125.875 215.79 122.03 213.133C114.402 207.862 106.849 202.491 99.2108 197.254C97.0649 195.78 94.8978 194.34 92.7306 192.91C90.5316 191.447 88.2795 190.052 86.1548 188.477C86.0698 188.41 85.9742 188.555 86.0698 188.622C89.8305 191.358 93.3255 194.474 97.0224 197.299C100.751 200.146 104.501 202.971 108.315 205.685C115.868 211.067 123.421 216.449 131.134 221.574C135.51 224.478 139.898 227.37 144.498 229.882C144.731 230.016 144.933 229.692 144.721 229.514L144.71 229.502Z" fill="#263238"/>
<path d="M277.511 358.898H126.863V366H277.511V358.898Z" fill="#455A64"/>
<path d="M277.522 358.898H201.693V366H277.522V358.898Z" fill="#37474F"/>
<path d="M209.852 365.989H356.665L375.861 261.181H229.048L209.852 365.989Z" fill="#455A64"/>
<path d="M283.917 313.585C283.482 318.777 287.136 322.976 292.076 322.976C297.016 322.976 301.36 318.766 301.796 313.585C302.232 308.392 298.577 304.194 293.637 304.194C288.698 304.194 284.353 308.404 283.917 313.585Z" fill="#A6A6A6"/>
<path d="M363.559 328.347L356.665 365.989H242.815L363.559 328.347Z" fill="#37474F"/>
<path d="M393.656 250.852C411.471 269.187 414.467 297.561 410.706 322.406C410.611 322.976 409.782 322.819 409.782 322.283C409.782 316.622 409.942 311.017 409.931 305.433C409.835 305.177 409.75 304.942 409.655 304.685C405.002 301.134 400.731 297.114 398.075 291.609C395.101 285.457 393.932 278.522 391.648 272.091C391.436 271.476 392.063 271.655 392.466 271.968C403.302 280.365 406.765 289.41 409.867 301.503C409.718 295.227 409.262 288.963 407.976 282.687C405.639 271.22 400.997 259.852 393.167 251.343C392.87 251.02 393.327 250.528 393.635 250.852H393.656Z" fill="#263238"/>
<path d="M390.309 252.996C387.239 253.108 385.327 258.256 382.937 259.763C381.673 260.567 380.44 260.511 379.559 259.205C377.19 255.732 380.44 251.444 383.489 249.054C381.301 250.004 379.495 251.656 377.137 252.125C375.713 252.404 374.598 251.846 374.268 250.316C373.227 245.582 378.879 243.471 382.756 243.371C380.876 241.997 375.49 238.268 378.348 236.425C381.248 234.583 387.569 239.92 389.63 241.685C392.657 244.264 396.269 248.128 396.407 252.17C396.588 256.893 392.657 253.99 390.299 252.996H390.309Z" fill="#FFC727"/>
<path opacity="0.1" d="M390.309 252.996C387.239 253.108 385.327 258.256 382.937 259.763C381.673 260.567 380.44 260.511 379.559 259.205C377.19 255.732 380.44 251.444 383.489 249.054C381.301 250.004 379.495 251.656 377.137 252.125C375.713 252.404 374.598 251.846 374.268 250.316C373.227 245.582 378.879 243.471 382.756 243.371C380.876 241.997 375.49 238.268 378.348 236.425C381.248 234.583 387.569 239.92 389.63 241.685C392.657 244.264 396.269 248.128 396.407 252.17C396.588 256.893 392.657 253.99 390.299 252.996H390.309Z" fill="black"/>
<path d="M391.202 253.789C387.282 251.913 379.75 254.615 379.113 253.052C377.817 249.881 383.83 247.704 387.08 247.279C384.085 246.431 378.359 245.068 378.539 242.042C378.752 238.335 387.325 241.529 391.67 245.024C397.141 249.434 397.098 253.689 396.195 254.537C394.952 255.71 391.85 254.102 391.202 253.8V253.789Z" fill="#FFC727"/>
<path d="M434.237 249.044C415.763 266.653 411.747 294.881 414.605 319.861C414.679 320.43 415.519 320.307 415.54 319.782C415.742 314.132 415.784 308.527 416.007 302.932C416.114 302.676 416.209 302.441 416.315 302.195C421.096 298.834 425.504 294.982 428.351 289.589C431.549 283.559 432.973 276.669 435.48 270.338C435.713 269.735 435.087 269.891 434.662 270.193C423.529 278.154 419.747 287.054 416.198 299.002C416.57 292.738 417.25 286.496 418.769 280.276C421.521 268.909 426.567 257.742 434.704 249.546C435.012 249.233 434.566 248.72 434.247 249.032L434.237 249.044Z" fill="#263238"/>
<path d="M437.509 251.31C440.569 251.545 442.3 256.771 444.637 258.367C445.87 259.216 447.102 259.216 448.037 257.943C450.533 254.571 447.442 250.16 444.467 247.636C446.613 248.664 448.366 250.395 450.703 250.964C452.116 251.299 453.242 250.785 453.635 249.278C454.846 244.588 449.269 242.254 445.402 241.997C447.325 240.702 452.849 237.185 450.055 235.231C447.219 233.277 440.717 238.357 438.593 240.032C435.469 242.489 431.719 246.207 431.433 250.238C431.082 254.95 435.108 252.204 437.498 251.31H437.509Z" fill="#FFC727"/>
<path opacity="0.1" d="M437.509 251.31C440.569 251.545 442.3 256.771 444.637 258.367C445.87 259.216 447.102 259.216 448.037 257.943C450.533 254.571 447.442 250.16 444.467 247.636C446.613 248.664 448.366 250.395 450.703 250.964C452.116 251.299 453.242 250.785 453.635 249.278C454.846 244.588 449.269 242.254 445.402 241.997C447.325 240.702 452.849 237.185 450.055 235.231C447.219 233.277 440.717 238.357 438.593 240.032C435.469 242.489 431.719 246.207 431.433 250.238C431.082 254.95 435.108 252.204 437.498 251.31H437.509Z" fill="black"/>
<path d="M436.595 252.07C440.579 250.35 448.005 253.354 448.706 251.813C450.119 248.697 444.18 246.274 440.951 245.727C443.968 244.99 449.747 243.873 449.683 240.836C449.598 237.129 440.919 239.965 436.457 243.293C430.838 247.48 430.71 251.723 431.592 252.617C432.792 253.834 435.947 252.36 436.606 252.081L436.595 252.07Z" fill="#FFC727"/>
<path d="M415.349 295.551C413.989 304.831 412.3 314.434 409.613 323.4C409.358 324.215 408.2 324.003 408.317 323.121C409.528 314.534 411.737 306.115 412.959 297.539C414.191 288.852 414.85 280.052 414.382 271.276C413.607 256.815 409.868 241.428 400.891 230.116C400.689 229.849 401.114 229.469 401.316 229.715C419.29 251.746 416.433 278.746 416.412 281.169C418.951 272.046 421.574 261.594 431.199 252.315C431.613 251.913 431.943 252.103 431.868 252.784C430.147 269.701 425.675 278.534 416.348 287.567C416.082 290.247 415.753 292.916 415.349 295.551Z" fill="#263238"/>
<path d="M400.731 232.651C397.502 231.144 393.04 235.465 389.842 235.767C388.153 235.923 386.9 235.231 386.602 233.399C385.806 228.542 391.234 225.817 395.547 224.946C392.827 224.768 390.15 225.538 387.484 224.779C385.869 224.31 384.988 223.149 385.37 221.384C386.56 215.924 393.433 216.728 397.502 218.671C396.206 216.248 392.413 209.526 396.259 209.135C400.147 208.755 404.152 217.644 405.448 220.558C407.349 224.846 409.251 230.764 407.456 235.03C405.384 240.021 402.696 234.929 400.721 232.651H400.731Z" fill="#FFC727"/>
<path opacity="0.1" d="M400.731 232.651C397.502 231.144 393.04 235.465 389.842 235.767C388.153 235.923 386.9 235.231 386.602 233.399C385.806 228.542 391.234 225.817 395.547 224.946C392.827 224.768 390.15 225.538 387.484 224.779C385.869 224.31 384.988 223.149 385.37 221.384C386.56 215.924 393.433 216.728 397.502 218.671C396.206 216.248 392.413 209.526 396.259 209.135C400.147 208.755 404.152 217.644 405.448 220.558C407.349 224.846 409.251 230.764 407.456 235.03C405.384 240.021 402.696 234.929 400.721 232.651H400.731Z" fill="black"/>
<path d="M401.273 233.947C398.107 229.927 389.003 228.743 389.078 226.789C389.248 222.814 396.535 223.729 400.105 225.013C397.406 222.546 392.116 218.102 393.752 215.053C395.749 211.324 403.122 219.162 405.947 225.092C409.506 232.562 407.435 236.95 406.085 237.352C404.237 237.911 401.783 234.605 401.262 233.947H401.273Z" fill="#FFC727"/>
<path d="M427.183 300.643L435.108 364.303H386.878C387.877 358.664 396.853 300.565 396.853 300.565L427.193 300.643H427.183Z" fill="#FFC727"/>
<path d="M232.831 33.5216C233.585 30.5736 233.51 27.3912 232.278 24.5885C230.536 20.6467 226.765 18.9941 222.93 18.1678C218.553 17.2298 214.059 16.839 209.597 16.9507C200.727 17.1628 191.92 19.4073 183.953 23.5053C180.16 25.4594 176.538 27.8267 173.457 30.8863C173.34 30.998 173.234 31.1208 173.117 31.2325C172.246 31.8354 171.407 32.4608 170.578 33.1196C167.444 35.5873 164.576 38.4906 162.43 41.9633C161.803 42.9795 161.219 44.085 160.72 45.2463C159.881 46.8877 159.201 48.6073 158.808 50.394C157.905 54.5813 159.084 58.6682 162.133 61.5268C165.33 64.5194 169.58 65.569 173.755 65.7589C177.324 65.9264 180.946 65.6807 184.516 65.2341C186.587 65.1112 188.638 64.8879 190.635 64.5864C191.931 64.3966 193.238 64.1844 194.534 63.9499C195.139 69.4549 197.232 74.9041 199.176 79.9625C199.229 80.0853 199.42 80.0295 199.378 79.8955C197.455 74.7813 195.522 69.3321 195.16 63.8271C201.768 62.6323 208.344 60.868 214.399 57.8531C218.064 56.0218 221.495 53.6769 224.449 50.7401C226.956 48.2388 229.495 44.6991 229.325 40.869C230.483 39.4621 231.471 37.91 232.14 36.1792C232.48 35.297 232.703 34.4037 232.841 33.5104L232.831 33.5216ZM185.387 63.4698C179.629 63.9053 172.905 63.5144 167.625 60.5107C171.29 61.4933 175.051 62.0628 178.822 62.2415C183.061 62.4425 187.289 62.141 191.464 61.4152C191.931 61.404 192.398 61.3705 192.845 61.3258C193.354 61.27 193.854 61.203 194.353 61.1137C194.353 61.404 194.364 61.6831 194.385 61.9735C192.154 62.4871 189.902 62.9226 187.65 63.2576C186.896 63.3358 186.141 63.4251 185.387 63.4809V63.4698ZM206.92 22.7795C210.66 23.0698 214.601 23.8292 218.022 25.4929C221.113 27.0004 224.066 29.6133 224.056 33.4881C224.056 33.6556 224.024 33.8231 224.013 33.9794C222.823 33.4657 221.559 33.1307 220.359 32.9409C220.029 32.8851 219.69 32.8628 219.36 32.8293C217.958 31.9583 216.396 31.333 214.813 30.864C212.806 28.0947 209.842 26.1964 206.74 25.0575C203.903 24.019 200.886 23.5388 197.827 23.4942C198.985 23.215 200.153 22.947 201.322 22.7125C203.192 22.612 205.061 22.612 206.92 22.7684V22.7795ZM222.919 42.8567C222.611 42.4435 222.26 42.0638 221.878 41.7288C222.271 41.2822 222.643 40.7909 222.993 40.2996C223.1 41.1594 223.057 42.008 222.919 42.8567ZM198.655 60.2539C200.568 59.863 202.48 59.4164 204.371 58.9139C201.343 60.0752 198.241 61.0132 195.086 61.7725C195.086 61.5045 195.086 61.2365 195.086 60.9573C196.276 60.7452 197.466 60.4883 198.645 60.2427L198.655 60.2539ZM196.276 54.6037C196.297 54.5367 196.329 54.4808 196.35 54.4138C196.499 54.5925 196.733 54.7042 197.019 54.6148C201.322 53.219 205.646 51.8344 209.778 49.9473C213.624 48.1942 217.491 46.0502 220.603 43.0576C221.241 43.5936 221.75 44.3083 221.984 45.0899C221.071 45.7041 220.146 46.2736 219.211 46.8207C211.998 51.0081 204.031 53.889 195.968 55.6198C196.063 55.2848 196.159 54.9498 196.276 54.6148V54.6037ZM196.86 53.152C198.241 50.1148 200.472 47.6805 203.319 46.0279C206.676 44.085 210.628 42.9348 214.378 42.1532C215.982 41.8182 217.788 41.6507 219.339 42.2872C218.978 42.6222 218.606 42.9348 218.245 43.2251C211.966 48.2165 204.296 50.7513 196.86 53.1632V53.152ZM198.273 56.7699C202.82 55.7091 207.282 54.2575 211.605 52.4262C207.76 54.559 203.744 56.3345 199.58 57.6744C198.772 57.9313 197.954 58.1769 197.126 58.4002C196.541 58.5231 195.957 58.6571 195.373 58.7799C195.352 58.7799 195.32 58.7799 195.299 58.7911C195.362 58.2997 195.447 57.8196 195.543 57.3283C196.456 57.1496 197.359 56.9598 198.262 56.7588L198.273 56.7699ZM194.438 58.9697C193.163 59.2042 191.878 59.3829 190.571 59.3605C189.424 59.3382 188.192 59.1484 187.15 58.5677C189.647 58.3332 192.122 57.9871 194.587 57.5293C194.523 58.0094 194.47 58.4896 194.438 58.9697ZM220.072 48.9088C219.944 49.0763 219.817 49.255 219.679 49.4113C219.466 49.6681 219.233 49.9138 218.999 50.1595C218.5 50.5056 217.99 50.8294 217.522 51.1421C215.918 52.2141 214.219 53.1297 212.476 53.9225C212.274 54.0119 212.073 54.0788 211.881 54.1682C214.718 52.6049 217.459 50.8518 220.072 48.92V48.9088ZM220.699 40.9137C220.699 40.9137 220.603 40.8579 220.561 40.8355C218.478 39.7971 216.099 40.0316 213.921 40.534C209.99 41.4497 205.869 42.7785 202.405 44.9671C198.985 47.1222 196.51 50.3381 195.299 54.3357C195.15 54.8382 195.022 55.3295 194.905 55.832C191.857 56.4461 188.755 56.9039 185.653 57.1496C185.026 56.0888 184.909 54.76 185.164 53.5094C185.546 51.6446 186.481 49.9138 187.65 48.3505C195.182 47.2785 202.512 44.6209 209.013 40.4894C210.798 39.3616 212.54 38.1333 214.165 36.771C214.973 36.0898 215.546 35.3305 215.801 34.5042C217.012 34.4149 218.224 34.4149 219.424 34.5489C220.784 35.5427 221.899 36.8268 222.526 38.4683C221.995 39.3392 221.379 40.1656 220.688 40.9137H220.699ZM170.589 36.9385C170.642 36.8268 170.716 36.7263 170.78 36.6258C176.028 32.1593 182.104 28.7982 188.436 26.3974C188.585 26.3416 188.744 26.2858 188.893 26.2299C195.044 24.8006 201.917 24.5661 207.717 27.2461C209.226 27.9384 210.649 28.8317 211.881 29.9818C211.966 30.06 212.062 30.1493 212.158 30.2387C208.737 29.5463 205.231 29.323 201.768 29.6133C194.119 30.2498 186.63 33.1642 180.5 38.0216C177.526 40.3777 174.498 43.2586 172.66 46.7202C171.864 46.5192 171.109 46.2066 170.504 45.6594C168.124 43.4931 169.272 39.3727 170.589 36.9385ZM214.261 32.9297C211.775 33.2424 209.311 33.8677 206.92 34.5935C199.431 36.8603 191.708 40.2772 186.619 46.7425C186.577 46.7984 186.534 46.8542 186.492 46.91C184.983 47.0999 183.464 47.2339 181.945 47.2897C179.948 47.3567 177.94 47.312 175.954 47.1334C175.391 47.0887 174.774 47.044 174.148 46.977C174.764 45.9162 175.486 44.9448 176.177 44.1408C178.567 41.338 181.34 38.9261 184.388 36.9608C190.422 33.0749 197.444 30.9198 204.52 30.8416C207.622 30.8081 210.755 31.1655 213.762 32.0029C213.974 32.3044 214.144 32.6171 214.261 32.9297ZM214.027 34.6829C213.486 35.4087 212.646 35.9558 211.956 36.4807C211.106 37.1283 210.245 37.7536 209.364 38.3454C207.76 39.4286 206.092 40.4224 204.392 41.3157C199.622 43.8281 194.491 45.5477 189.222 46.4857C189.955 45.7041 190.731 44.9671 191.485 44.3083C194.332 41.8405 197.636 39.9869 201.035 38.5241C204.583 37.0055 208.301 35.7883 212.062 35.0067C212.699 34.8727 213.358 34.761 214.017 34.6717L214.027 34.6829ZM173.404 48.4175C177.26 49.0987 181.382 49.0093 185.238 48.6408C185.238 48.6408 185.249 48.6408 185.26 48.6408C183.624 51.2203 182.434 54.3915 183.56 57.2613C183.146 57.2836 182.742 57.3171 182.328 57.3283C179.512 57.4064 175.9 57.1608 173.882 54.7712C172.267 52.8617 172.49 50.5503 173.393 48.4175H173.404ZM222.6 35.7437C222.42 35.5092 222.218 35.2859 222.027 35.0737C222.6 35.2524 223.163 35.4645 223.716 35.7325C223.61 36.1345 223.471 36.5142 223.312 36.905C223.1 36.5142 222.877 36.1233 222.6 35.7548V35.7437ZM163.546 57.2836C162.356 55.9883 161.421 54.425 161.038 52.6607C160.592 50.5949 161.113 48.4957 162.037 46.6644C163.503 43.75 165.798 41.2264 168.145 38.9819C167.986 39.5402 167.848 40.0986 167.774 40.6792C167.561 42.276 167.657 43.9286 168.39 45.3691C169.144 46.843 170.514 47.6805 172.002 48.1048C171.417 49.6123 171.12 51.2314 171.439 52.8506C171.789 54.6148 172.852 56.0776 174.264 57.0491C177.165 59.0479 180.978 58.9809 184.303 58.7799C184.346 58.7799 184.388 58.7799 184.442 58.7799C184.973 59.4722 185.61 59.997 186.332 60.3879C183.39 60.6558 180.437 60.7005 177.494 60.4883C173.797 60.2204 170.121 59.5615 166.563 58.4896C165.649 58.2104 164.661 57.9424 163.769 57.5069C163.694 57.4288 163.62 57.3729 163.556 57.2948L163.546 57.2836ZM224.162 43.5043C224.481 41.8852 224.459 40.2326 224.013 38.6693C224.406 37.9435 224.736 37.1953 224.98 36.4137C226.244 37.2623 227.264 38.4794 227.572 40.0651C226.712 41.0924 225.766 42.0638 224.778 42.9906C224.566 43.1581 224.364 43.3368 224.151 43.5043H224.162ZM228.815 38.4683C228.146 36.8045 226.881 35.5538 225.373 34.6605C225.479 33.8342 225.511 32.9967 225.384 32.1369C224.81 28.2399 221.75 25.6046 218.51 24.0748C215.642 22.7237 212.551 21.8862 209.385 21.4507C209.597 21.4284 209.821 21.3949 210.033 21.3726C214.165 20.9259 218.478 20.5239 222.547 21.6517C225.883 22.5785 229.102 24.7671 230.61 28.1282C231.588 30.3057 231.513 32.5948 230.855 34.7387C230.334 36.0563 229.644 37.2958 228.815 38.4683ZM189.041 22.8242C196.68 19.6864 204.902 18.2125 213.092 18.5028C217.119 18.648 221.368 19.0611 225.224 20.3676C227.02 20.9817 228.751 21.9532 229.941 23.5277C230.43 24.1753 230.812 24.9123 231.099 25.6828C230.94 25.4371 230.78 25.1803 230.6 24.9458C224.98 17.7435 214.962 18.9495 207.154 20.0326C204.849 20.3564 202.544 20.7584 200.238 21.2497C198.071 21.4284 195.936 21.7522 193.864 22.1877C190.252 22.9582 186.662 24.1307 183.209 25.6269C185.1 24.5773 187.055 23.6393 189.041 22.8242ZM161.644 58.5007C161.442 58.1881 161.262 57.8643 161.102 57.5404C161.187 57.6298 161.251 57.7414 161.347 57.8308C161.814 58.2774 162.345 58.6236 162.908 58.9139C163.779 59.7849 164.735 60.5553 165.734 61.2142C167.689 62.4871 169.792 63.3916 171.959 64.0392C171.736 64.0169 171.502 63.9946 171.279 63.9611C167.582 63.4139 163.843 61.8395 161.644 58.5119V58.5007ZM218.202 53.6769C216.248 54.9945 214.187 56.0888 212.062 57.0491C212.954 56.569 213.836 56.0665 214.697 55.5081C215.408 55.0503 216.099 54.5702 216.768 54.0565C218.627 52.9845 220.444 51.7451 222.005 50.2265C223.227 49.0428 224.109 47.4907 224.024 45.7487C224.045 45.7376 224.056 45.7264 224.077 45.7041C224.151 45.6371 224.226 45.5701 224.3 45.5142C225.394 44.6991 226.478 43.8281 227.476 42.8678C227.221 43.884 226.796 44.8554 226.287 45.7376C224.385 49.0428 221.262 51.6222 218.202 53.6769Z" fill="#263238"/>
</svg>
