<svg width="261" height="228" viewBox="0 0 261 228" fill="none" xmlns="http://www.w3.org/2000/svg">
<path d="M18.5396 131.808C-10.0416 80.541 46.608 41.1536 78.5054 27.8683C114.35 15.6473 187.544 -0.967735 193.558 30.3404C199.572 61.6486 216.613 82.4117 224.381 88.8797C266.714 124.556 250.686 163.275 237.38 178.174C218.692 219.873 139.309 202.732 101.954 188.949C66.1048 161.537 54.266 195.891 18.5396 131.808Z" fill="#FB9C17"/>
<path d="M160.337 138.191H47.3711C46.2719 138.191 45.3809 139.094 45.3809 140.207C45.3809 141.32 46.2719 142.222 47.3711 142.222H160.337C161.436 142.222 162.328 141.32 162.328 140.207C162.328 139.094 161.436 138.191 160.337 138.191Z" fill="#E4CFAE"/>
<path d="M126.464 91.0693C126.464 77.4418 119.379 65.7888 109.364 61.0464C110.239 59.9853 110.764 58.6521 110.764 57.2036C110.764 53.7483 107.817 50.9526 104.18 50.9526C102.279 50.9526 100.57 51.723 99.3681 52.9456C98.1662 51.723 96.4575 50.9526 94.556 50.9526C90.9189 50.9526 87.9725 53.7529 87.9725 57.2036C87.9725 58.6521 88.4972 59.9853 89.3717 61.0464C79.3575 65.7888 72.2717 77.4418 72.2717 91.0693C72.2717 105.601 80.3217 117.895 91.3988 121.95C92.9236 122.508 93.9371 124.003 93.9371 125.669V126.356C93.9371 128.16 92.5155 129.622 90.762 129.622C86.0082 129.622 82.1514 133.589 82.1514 138.479H116.594C116.594 133.589 112.737 129.622 107.983 129.622C106.23 129.622 104.808 128.16 104.808 126.356V125.669C104.808 124.003 105.821 122.508 107.346 121.95C118.419 117.891 126.473 105.601 126.473 91.0693H126.464Z" fill="#E4CFAE"/>
<path d="M99.3725 119.333C112.483 119.333 123.112 106.7 123.112 91.1173C123.112 75.534 112.483 62.9014 99.3725 62.9014C86.2616 62.9014 75.6331 75.534 75.6331 91.1173C75.6331 106.7 86.2616 119.333 99.3725 119.333Z" fill="#7DC6BF"/>
<mask id="mask0_215_14" style="mask-type:luminance" maskUnits="userSpaceOnUse" x="75" y="62" width="49" height="58">
<path d="M99.3206 119.323C112.401 119.323 123.005 106.691 123.005 91.1089C123.005 75.5268 112.401 62.895 99.3206 62.895C86.2402 62.895 75.6365 75.5268 75.6365 91.1089C75.6365 106.691 86.2402 119.323 99.3206 119.323Z" fill="white"/>
</mask>
<g mask="url(#mask0_215_14)">
<path d="M116.476 76.6724H94.8602V97.239C94.8602 101.505 92.7377 105.509 89.1838 107.718C84.3464 110.726 81.1739 116.265 81.4027 122.552C81.7168 131.149 88.5286 138.155 96.893 138.483C106.092 138.843 113.658 131.288 113.658 121.915C113.658 120.176 113.397 118.497 112.913 116.925H116.476V76.677V76.6724Z" fill="#181D2B"/>
<path d="M105.603 119.382C98.4725 121.398 92.0108 125.07 86.626 129.959H150.081C144.517 124.903 137.804 121.158 130.4 119.189C126.586 118.174 123.889 114.687 123.889 110.637V110.628C131.311 108.239 136.709 101.168 136.83 92.7829C137.037 92.8059 137.248 92.8198 137.463 92.8198C140.577 92.8198 143.104 90.223 143.104 87.022C143.104 83.821 140.577 81.2243 137.463 81.2243C137.252 81.2243 137.041 81.2381 136.835 81.2612V73.2817H99.8726V81.2612C99.6662 81.2381 99.4598 81.2243 99.2444 81.2243C96.1302 81.2243 93.6038 83.821 93.6038 87.022C93.6038 90.223 96.1302 92.8198 99.2444 92.8198C99.4598 92.8198 99.6707 92.8059 99.8771 92.7829C99.9937 100.85 104.997 107.699 111.984 110.338V110.863C111.984 114.862 109.354 118.317 105.603 119.378V119.382Z" fill="#DFB332"/>
<path d="M110.849 83.1523C108.942 83.1523 107.555 85.6615 107.555 89.1208C107.555 89.7527 108.053 90.26 108.663 90.26C109.274 90.26 109.772 89.748 109.772 89.1208C109.772 86.7823 110.561 85.5139 110.862 85.4309C111.136 85.5185 111.926 86.7823 111.926 89.1208C111.926 89.7527 112.424 90.26 113.034 90.26C113.644 90.26 114.142 89.748 114.142 89.1208C114.142 85.6615 112.756 83.1523 110.849 83.1523Z" fill="#181D2B"/>
<path d="M125.276 83.1523C123.369 83.1523 121.982 85.6615 121.982 89.1208C121.982 89.7527 122.48 90.26 123.09 90.26C123.701 90.26 124.199 89.748 124.199 89.1208C124.199 86.7823 124.988 85.5139 125.289 85.4309C125.563 85.5185 126.353 86.7823 126.353 89.1208C126.353 89.7527 126.851 90.26 127.461 90.26C128.071 90.26 128.569 89.748 128.569 89.1208C128.569 85.6615 127.183 83.1523 125.276 83.1523Z" fill="#181D2B"/>
<path d="M116.996 86.3857V93.1475L119.814 92.1789" stroke="#181D2B" stroke-width="2.47" stroke-linecap="round" stroke-linejoin="round"/>
<path d="M109.372 95.2373C109.372 98.7058 113.137 101.519 117.777 101.519C122.417 101.519 126.182 98.7058 126.182 95.2373" stroke="#181D2B" stroke-width="3" stroke-linecap="round" stroke-linejoin="round"/>
<path d="M105.091 96.4731C107.052 96.4731 108.641 94.8396 108.641 92.8247C108.641 90.8097 107.052 89.1763 105.091 89.1763C103.131 89.1763 101.542 90.8097 101.542 92.8247C101.542 94.8396 103.131 96.4731 105.091 96.4731Z" fill="#FA7B04"/>
<path d="M103.628 82.789C110.03 82.789 115.219 77.455 115.219 70.8752C115.219 64.2954 110.03 58.9614 103.628 58.9614C97.227 58.9614 92.0376 64.2954 92.0376 70.8752C92.0376 77.455 97.227 82.789 103.628 82.789Z" fill="#181D2B"/>
<path d="M125.675 84.9978C134.522 84.9978 141.695 77.6256 141.695 68.5316C141.695 59.4376 134.522 52.0654 125.675 52.0654C116.827 52.0654 109.655 59.4376 109.655 68.5316C109.655 77.6256 116.827 84.9978 125.675 84.9978Z" fill="#181D2B"/>
</g>
<path d="M158.824 125.667C180.547 125.667 198.182 143.859 198.182 166.269V186.706H119.47V166.269C119.47 143.859 137.105 125.667 158.828 125.667H158.824Z" fill="#D9999C"/>
<path d="M141.34 141.158C132.688 143.607 124.849 148.058 118.311 153.994H195.305C188.556 147.864 180.411 143.317 171.423 140.927C166.797 139.696 163.521 135.466 163.521 130.554V130.545C172.523 127.644 179.079 119.065 179.222 108.89C179.473 108.917 179.729 108.936 179.989 108.936C183.768 108.936 186.833 105.786 186.833 101.902C186.833 98.0184 183.768 94.8682 179.989 94.8682C179.734 94.8682 179.478 94.8866 179.231 94.9143V85.2329H134.38V94.9143C134.129 94.8866 133.878 94.8682 133.622 94.8682C129.843 94.8682 126.779 98.0184 126.779 101.902C126.779 105.786 129.843 108.936 133.622 108.936C133.882 108.936 134.138 108.917 134.389 108.89C134.528 118.677 140.6 126.993 149.076 130.19V130.826C149.076 135.678 145.886 139.871 141.336 141.158H141.34Z" fill="#DFB332"/>
<path d="M196.005 127.002C191.692 124.322 189.117 119.466 189.117 114.291V90.4307C189.924 87.8709 190.369 85.1403 190.369 82.3037C190.369 67.784 178.917 56.0132 164.791 56.0132C155.857 56.0132 147.999 60.7224 143.422 67.8578C143.323 67.8578 143.225 67.8485 143.122 67.8485C135.354 67.8485 129.058 74.3197 129.058 82.3037C129.058 85.9152 130.351 89.2131 132.478 91.7453V114.291C132.478 119.47 129.902 124.322 125.59 127.002C119.72 130.651 115.87 137.371 116.148 145C116.53 155.433 124.795 163.934 134.946 164.33C139.087 164.492 142.956 163.329 146.186 161.221C149.013 163.066 152.316 164.192 155.852 164.33C161.982 164.57 167.51 161.909 171.253 157.578C174.995 161.909 180.523 164.57 186.653 164.33C196.804 163.934 205.069 155.428 205.451 145C205.729 137.371 201.874 130.651 196.009 127.002H196.005Z" fill="#181D2B"/>
<path d="M143.398 30.4579C141.133 25.9594 135.658 24.3219 131.321 26.7138C128.403 28.3237 126.711 31.364 126.626 34.5378L126.594 34.5286L126.585 34.5608C123.962 32.8819 120.56 32.6473 117.642 34.2572C113.3 36.649 111.559 42.2744 113.998 46.6671C118.779 55.2731 137.346 54.8361 137.346 54.8361C137.346 54.8361 147.171 37.9507 143.398 30.4533V30.4579Z" fill="#FA7B04"/>
</svg>
