<svg width="127" height="127" viewBox="0 0 127 127" fill="none" xmlns="http://www.w3.org/2000/svg">
<path d="M23.2058 83.0318C17.7695 88.7464 6.86685 102.329 15.3616 109.18C17.3134 110.75 19.6811 111.588 22.1695 111.907C29.9834 113.044 37.1535 109.646 42.2074 103.781C42.63 103.318 43.3477 103.284 43.8105 103.707C44.0586 103.935 44.1827 104.247 44.1794 104.562C44.1827 105.136 44.223 105.826 44.2833 106.42C45.6617 118.691 53.3482 125.167 65.7097 124.282C72.1822 123.611 76.4111 117.41 78.269 111.648C79.0773 109.224 79.6071 106.692 79.966 104.123C80.0599 103.392 80.7339 102.875 81.465 102.979C81.9044 103.04 82.2666 103.318 82.4577 103.68C83.8126 106.279 85.6806 108.6 88.008 110.371C90.6607 112.339 94.0143 113.57 97.3177 113.087C101.02 112.587 104.022 109.351 104.431 105.649C105.155 100.179 103.24 94.6522 99.8061 90.3361C99.3298 89.7726 99.9067 88.9141 100.594 89.112C105.393 90.2388 110.648 90.0342 115.233 88.1562C122.413 85.2184 127.212 78.2596 125.19 70.3987C124.599 67.964 123.251 65.7975 121.672 63.8759C118.482 59.9656 113.972 57.3061 109.129 55.9747C108.653 55.8439 108.656 55.1397 109.129 55.0156C118.965 52.1046 129.543 44.958 123.463 33.5658C123.151 32.9688 122.785 32.3953 122.45 31.8085L122.54 31.9292C119.743 29.4039 115.779 28.5118 112.074 28.7868C108.237 29.0618 104.548 30.4838 101.184 32.335C100.272 32.8481 99.2594 31.8386 99.7054 30.9365C102.207 24.8061 104.226 16.7674 101.456 10.4592C99.6518 6.48853 95.7482 4.45958 91.6031 3.67818L89.6345 3.37971C88.4507 3.30257 87.2031 3.51385 86.0662 3.89281C78.3629 6.6998 75.1099 15.4427 73.3258 22.8677C72.9133 24.5646 70.4752 24.3198 70.3545 22.6296C69.9185 17.9211 68.5603 12.6693 64.8612 9.52356C62.6746 7.65224 59.5222 7.39065 57.2719 7.73943C56.2457 8.05467 55.2899 8.57113 54.4079 9.1949C47.3318 14.3595 47.3921 24.3399 48.7604 32.2277C49.0522 34.2633 46.1681 34.8167 45.655 32.8581C45.0547 30.4972 44.1257 28.1564 42.9721 26.01C40.7318 21.828 37.2172 18.0619 32.3913 17.3375C30.6709 17.0759 28.8298 17.1866 27.1396 17.5991C23.2158 18.29 20.0265 21.8213 19.9259 25.839C19.7515 29.4542 21.1701 32.952 23.4673 35.7188C25.0335 37.6002 26.935 39.2401 29.0142 40.6587C29.5609 41.0242 29.7051 41.7654 29.3328 42.3087C29.0813 42.6776 28.6554 42.8587 28.2395 42.8184C27.6023 42.7581 26.8914 42.7212 26.2106 42.7011C24.1414 42.6474 22.0588 42.7413 20.0064 42.9828C14.996 43.5965 9.80463 45.1626 6.20283 48.855C3.05042 51.9973 1.83305 56.6019 1.96719 60.9649C1.93366 61.5451 2.05774 62.4607 2.08792 63.0442C2.35956 67.149 4.5562 71.0225 7.63484 73.7188C10.2473 76.0362 13.554 77.4816 16.9646 78.1758C18.343 78.4541 19.7515 78.6151 21.1567 78.6185C21.3512 78.6218 21.3545 78.9102 21.1634 78.9203C19.728 78.9807 18.296 78.8801 16.8808 78.6587C13.3259 78.1121 9.85158 76.7035 7.06136 74.4029C3.93578 71.8743 1.662 68.2591 0.890669 64.275C0.746463 63.6043 0.733062 62.7658 0.632453 62.0985C0.595563 61.8168 0.558666 61.3104 0.56202 61.0119C0.548605 60.3781 0.491584 59.4491 0.551949 58.822C0.984567 45.7327 12.5445 40.8633 24.0777 40.4105C25.5667 40.3535 26.9786 40.3535 28.4844 40.4642L27.7097 42.6273C25.4661 41.155 23.35 39.4179 21.5491 37.3319C14.5198 29.2865 15.7506 16.7205 27.5084 14.5473C30.6709 13.9369 34.0648 14.2287 36.9925 15.6272C43.3846 18.7964 46.9293 25.5606 48.7537 32.1438L45.6516 32.781C44.233 24.9637 44.1525 15.9726 49.458 9.45649C51.2589 7.29004 53.6332 5.51261 56.3497 4.6675C58.1741 4.2986 60.1259 4.31201 61.9737 4.68762C67.4267 5.83792 70.7703 10.8482 72.1923 15.8619C72.8295 18.0384 73.2319 20.1848 73.3761 22.4552L70.4048 22.1802C72.588 12.9141 77.8197 1.37759 88.6854 0.609611C89.4333 0.549246 90.3019 0.69009 91.0598 0.820882C92.1128 0.971795 93.2866 1.25015 94.3128 1.53856C108.358 5.80439 106.527 21.0332 101.657 31.8453L100.178 30.4469C106.473 27.1033 114.532 25.2555 121.102 28.9243C122.081 29.4945 123.04 30.0981 123.801 30.9701C124.898 32.828 125.87 34.8502 126.327 36.9731C127.634 42.2919 125.076 47.2486 120.857 50.4278C117.456 53.0437 113.519 54.8211 109.401 55.9781L109.414 55.0156C114.408 56.4543 119.106 59.2143 122.393 63.2957C124.036 65.3247 125.468 67.6085 126.105 70.1673C127.504 75.2849 125.931 81.0599 122.165 84.7959C117.104 90.1047 109.293 91.9156 102.19 90.9431C101.53 90.8525 100.903 90.7519 100.215 90.5909L101.003 89.3669C104.29 93.2839 106.436 98.264 106.533 103.425C106.671 107.248 105.534 110.813 102.432 113.265C98.8 116.223 93.4576 116.072 89.4064 114.113C85.3787 112.225 82.2095 108.794 80.1202 104.921L82.612 104.478C81.8909 109.911 80.3751 115.472 77.1221 119.992C74.523 123.581 70.4484 126.632 65.8505 126.928C61.8664 127.149 57.7314 126.773 54.039 125.177C45.9266 121.89 41.9257 112.862 41.9324 104.512L43.9044 105.293C37.291 112.681 27.4783 116.125 17.9439 112.554C6.29003 107.265 11.4446 96.1479 17.632 88.6022C19.2954 86.5532 21.0829 84.6215 23.0079 82.8239C23.1487 82.6898 23.3567 82.9111 23.2158 83.0419L23.2058 83.0318Z" fill="#181D2B"/>
<path d="M75.8745 57.4602C77.2692 57.4602 78.3998 56.3296 78.3998 54.935C78.3998 53.5403 77.2692 52.4097 75.8745 52.4097C74.4798 52.4097 73.3492 53.5403 73.3492 54.935C73.3492 56.3296 74.4798 57.4602 75.8745 57.4602Z" fill="#181D2B"/>
<path d="M51.4902 58.3728C52.8849 58.3728 54.0155 57.2422 54.0155 55.8476C54.0155 54.4529 52.8849 53.3223 51.4902 53.3223C50.0956 53.3223 48.965 54.4529 48.965 55.8476C48.965 57.2422 50.0956 58.3728 51.4902 58.3728Z" fill="#181D2B"/>
<path d="M55.1256 68.3324C55.1256 68.3324 64.4655 84.8692 73.3493 66.7998" stroke="#181D2B" stroke-width="2" stroke-linecap="round" stroke-linejoin="round"/>
</svg>
