<svg width="64" height="58" viewBox="0 0 64 58" fill="none" xmlns="http://www.w3.org/2000/svg">
<path d="M3 43.4634V11.05C3 8.20255 3 6.77882 3.56293 5.69513C4.03731 4.78191 4.78191 4.03731 5.69513 3.56293C6.77882 3 8.20255 3 11.05 3H52.95C55.7975 3 57.2212 3 58.3049 3.56293C59.2181 4.03731 59.9627 4.78191 60.4371 5.69513C61 6.77882 61 8.20255 61 11.05V43.4634C61 49.3779 61 52.3352 59.7975 53.7392C58.7984 54.9056 57.3188 55.5482 55.7844 55.482C53.9376 55.4023 51.7766 53.3835 47.4546 49.3459L37.4954 40.042C35.5391 38.2144 34.561 37.3006 33.4443 36.9637C32.5024 36.6795 31.4976 36.6795 30.5557 36.9637C29.439 37.3006 28.4609 38.2144 26.5046 40.042L16.5454 49.3459C12.2234 53.3835 10.0624 55.4023 8.21556 55.482C6.68123 55.5482 5.20159 54.9056 4.20255 53.7392C3 52.3352 3 49.3779 3 43.4634Z" stroke="black" stroke-width="5"/>
</svg>
