<svg width="47" height="47" viewBox="0 0 47 47" fill="none" xmlns="http://www.w3.org/2000/svg">
<path d="M16.9758 8.3935C19.8794 3.18683 21.33 0.583496 23.5002 0.583496C25.6704 0.583496 27.121 3.18683 30.0246 8.3935L30.7763 9.741C31.6013 11.2214 32.0138 11.9616 32.6554 12.4497C33.2971 12.9379 34.0992 13.1189 35.7033 13.481L37.1608 13.811C42.7983 15.0875 45.6148 15.7245 46.2863 17.881C46.9554 20.0352 45.035 22.2833 41.1919 26.7772L40.1973 27.9391C39.1065 29.2156 38.5588 29.855 38.3135 30.6433C38.0683 31.4339 38.1508 32.2864 38.3158 33.9891L38.4671 35.5406C39.0469 41.5379 39.3379 44.5354 37.5825 45.8668C35.8271 47.2006 33.1871 45.9837 27.9117 43.5545L26.5435 42.9266C25.0448 42.2345 24.2954 41.8908 23.5002 41.8908C22.705 41.8908 21.9556 42.2345 20.4569 42.9266L19.091 43.5545C13.8133 45.9837 11.1733 47.1983 9.42021 45.8691C7.6625 44.5354 7.95355 41.5379 8.53334 35.5406L8.68459 33.9914C8.84959 32.2864 8.93209 31.4339 8.68459 30.6456C8.44167 29.855 7.89396 29.2156 6.80313 27.9414L5.80855 26.7772C1.96542 22.2856 0.0450047 20.0375 0.714171 17.881C1.38563 15.7245 4.20438 15.0852 9.84188 13.811L11.2994 13.481C12.9013 13.1189 13.701 12.9379 14.345 12.4497C14.9867 11.9616 15.3992 11.2214 16.2242 9.741L16.9758 8.3935Z" fill="black"/>
</svg>
