<svg width="68" height="68" viewBox="0 0 68 68" fill="none" xmlns="http://www.w3.org/2000/svg">
<path d="M47.2875 23.035L65.3888 30.1794C68.8649 31.557 68.8649 36.4748 65.3888 37.8364L47.2875 44.9808C46.2303 45.3973 45.3813 46.2463 44.9648 47.3036L37.8204 65.4049C36.4428 68.8809 31.525 68.8809 30.1634 65.4049L23.019 47.3036C22.6025 46.2463 21.7535 45.3973 20.6962 44.9808L2.61095 37.8364C-0.865139 36.4588 -0.865139 31.541 2.61095 30.1794L20.7122 23.035C21.7695 22.6185 22.6185 21.7695 23.035 20.7123L30.1634 2.61097C31.541 -0.865116 36.4588 -0.865116 37.8204 2.61097L44.9648 20.7123C45.3813 21.7695 46.2303 22.6185 47.2875 23.035Z" fill="#F8E6D0"/>
</svg>
