<svg width="130" height="123" viewBox="0 0 130 123" fill="none" xmlns="http://www.w3.org/2000/svg">
<path d="M44.77 122.915C32.0681 121.283 19.1964 116.62 10.0096 107.393C5.42245 102.74 2.13379 96.7344 0.791291 90.3143C0.263094 88.1135 0.250519 85.7523 0.78186 83.5421C2.49536 76.578 8.69538 71.0728 16.1342 72.6166C22.7995 74.0062 28.0092 78.7285 32.5869 83.4477L30.2257 84.2117C31.1595 77.6502 32.8321 71.1294 36.5075 65.5079C39.1359 61.4584 43.6098 58.3772 48.6937 58.9589C53.4538 59.4368 57.8146 62.0998 60.7039 65.8506C62.6595 68.4193 63.9517 71.469 64.417 74.6539C64.8855 78.1972 64.9924 81.7751 64.7943 85.3373C64.0869 98.3221 58.4905 111.049 49.6652 120.434L49.398 120.214C56.9217 109.968 61.5214 97.8663 61.7163 85.2147C61.7792 82.1084 61.6157 79.0021 61.1661 75.9335C60.7825 73.0756 59.6633 70.3025 57.8712 68.0451C54.6171 63.8604 48.241 60.6787 43.2326 63.4957C37.5167 66.863 34.904 75.3078 33.4955 81.5078C33.2786 82.5171 33.0805 83.5609 32.9421 84.5418L30.581 85.3059C26.4654 80.8948 21.6928 76.3202 15.6846 74.9274C9.40593 73.4843 4.27173 78.2129 2.70286 84.0168C1.64018 87.9814 2.97325 92.1881 4.35662 95.9201C7.40633 103.786 13.6598 110.031 20.8816 114.266C26.3491 117.498 32.3888 119.78 38.5542 121.333C40.6167 121.843 42.7107 122.283 44.8109 122.572L44.7763 122.915H44.77Z" fill="#181D2B"/>
<path d="M88.5065 70.3043C102.799 68.0689 119.199 61.3689 125.21 47.2428C125.936 45.5388 126.477 43.7592 126.851 41.9483C127.257 40.2191 127.232 38.4364 126.757 36.7323C125.81 33.4626 123.301 30.3531 120.041 29.2527C113.118 27.0613 106.034 33.3714 101.538 38.0308L99.1993 37.2511C98.2939 32.0383 96.6936 26.5834 93.5149 22.3107C91.616 19.742 88.67 17.8241 85.3845 18.2329C82.187 18.5724 79.0021 20.3236 76.905 22.8043C75.267 24.6781 74.198 27.0267 73.7987 29.4853C73.3743 32.1735 73.1951 34.8931 73.2422 37.6158C73.3523 48.7457 77.5873 59.3348 84.3407 68.2544L84.0797 68.4808C74.6288 59.0864 69.2022 45.3501 70.1831 31.9188C70.3246 29.9098 70.4818 27.8756 71.1357 25.9546C73.0693 19.9086 78.7286 15.246 85.0889 14.7115C94.2318 13.9538 98.907 23.6972 100.787 31.1894C101.278 33.0947 101.655 34.9371 101.913 36.9053L99.5735 36.1255C104.909 30.831 112.753 24.4109 120.783 27.1462C124.763 28.6239 127.581 32.2144 128.668 36.2199C129.725 40.1908 128.348 44.2843 126.791 47.9282C121.016 60.627 107.22 67.0691 94.2286 69.7572C92.3485 70.1376 90.4621 70.4552 88.5474 70.6439L88.5128 70.3012L88.5065 70.3043Z" fill="#181D2B"/>
<path d="M36.9886 45.5925C25.3494 44.1934 12.6129 38.7826 7.67051 27.4075C6.50094 24.5275 5.48855 21.3332 6.25255 18.2143C7.05743 15.02 9.11991 12.1149 12.2514 10.8164C18.5897 8.41123 24.752 13.6995 28.8676 17.9377L26.5064 18.7016C26.6982 17.1359 26.9749 15.6865 27.3396 14.1711C28.7575 8.16287 32.3166 0.060699 39.7616 0.730378C45.6001 1.28058 50.3696 6.3299 51.1084 12.052C52.6459 23.5246 48.546 35.7172 40.4219 43.8539L40.1546 43.6338C43.4999 38.7857 46.0025 33.466 47.2601 27.8854C48.1939 23.729 48.4769 19.4248 48.0807 15.1835C47.889 12.5991 47.3136 9.9298 45.6221 7.89562C43.5093 5.21061 39.4378 3.09153 36.1869 4.86162C31.9204 7.35169 30.0183 14.3786 29.2197 19.0286L26.8585 19.7926C24.9344 17.6673 22.8436 15.674 20.4824 14.2308C18.2565 12.8663 15.5463 11.9514 13.0562 12.8883C10.7076 13.7467 8.8621 16.155 8.16727 18.6859C7.82771 19.9844 7.80256 21.3332 8.08867 22.6537C8.88096 26.8761 10.8617 30.8093 13.7888 33.9816C17.7251 38.2733 23.0134 41.1657 28.4903 43.0805C31.257 44.0457 34.1212 44.8065 37.0232 45.2435L36.9886 45.5862V45.5925Z" fill="#181D2B"/>
</svg>
