<svg width="117" height="110" viewBox="0 0 117 110" fill="none" xmlns="http://www.w3.org/2000/svg">
<path d="M72.2402 62.2062C60.9543 48.8872 48.71 34.984 31.0309 31.221C26.4158 30.2399 20.7778 30.2689 16.8856 33.9642C13.9133 36.7848 12.8128 41.1126 13.2937 44.7821C13.7745 48.4483 15.5947 51.5787 17.5892 54.4543C24.3375 64.1974 33.3481 72.0269 43.23 78.4911C47.3545 81.1891 51.721 83.6967 56.7266 84.7101C61.7321 85.7235 67.5025 85.0909 72.2918 81.9411C73.9313 80.8632 75.4707 79.4561 76.3453 77.7037C77.6685 75.0541 77.2618 72.1463 76.6874 69.5354C72.4273 50.2555 60.4928 33.9997 43.8981 24.8793C42.0456 23.8628 40.0156 22.9075 37.7404 23.1721C34.4228 23.5594 31.3859 26.5995 30.1627 29.8978C28.9396 33.1961 29.2397 36.6557 30.1079 39.7217C31.4665 44.5174 34.1291 48.6322 36.9207 52.5534C41.7197 59.2984 46.9834 65.6723 52.6699 71.6202C57.6431 76.8226 63.1586 81.8217 70.2973 83.8065C73.9054 84.8101 77.9686 84.978 81.8317 83.5257C85.6947 82.0734 89.2996 78.8106 90.5583 74.8507C91.8912 70.6617 90.4905 66.5469 88.7252 63.0485C81.1217 47.9803 66.7893 37.9434 50.9529 32.0407C46.2863 30.3012 41.2936 28.8683 35.9977 29.5847C30.7017 30.3012 25.0216 33.6285 22.6431 38.7696C19.5062 45.5405 22.9497 52.4146 26.6611 57.717C29.4785 61.7415 32.5767 65.6884 36.8723 68.0766C41.1678 70.4648 46.9027 71.0619 51.8663 68.38C55.4098 66.463 58.1401 63.1647 60.709 59.9536C65.508 53.9605 70.2167 47.8996 74.9221 41.8388C79.0336 36.5428 83.3227 30.8627 84.3199 24.5921C64.5689 35.9038 46.7446 51.6207 32.7575 70.0647C30.863 72.5658 29.1752 76.5612 31.5472 77.8166C32.254 78.191 33.1544 78.1522 34.0161 78.0038C38.7635 77.1841 42.9008 73.3694 46.3541 69.5257C56.6201 58.0979 64.23 44.6949 71.7238 31.4501L24.644 80.1758C28.8073 80.6792 33.0382 77.3874 36.5205 74.2246C47.7256 64.0425 57.9336 52.7761 68.1189 41.5354C55.7874 50.2684 43.9659 59.8664 32.7994 70.2196C27.5357 75.0992 22.3365 80.2435 18.6413 86.3496C27.7035 86.7659 36.84 80.3726 44.0239 73.3081C49.8395 67.5926 55.0032 61.2445 60.1507 54.9157C63.3167 51.0204 66.4859 47.1283 69.6519 43.233C52.8312 51.6142 37.4596 64.0813 25.4121 79.1075C24.2084 80.6082 23.0207 82.8802 24.2342 83.9646C25.0055 84.6552 26.3093 84.3584 27.4195 84.0001C45.0373 78.3298 61.2157 64.6815 70.3199 47.7996C58.9599 57.2168 48.1194 67.3311 37.8953 78.049C35.1005 80.9794 39.3476 85.2394 42.2651 82.4316C47.2254 77.6552 51.6823 72.2721 55.5357 66.5986C64.343 53.6345 70.236 39.1795 74.9253 24.6922C56.2683 40.7641 40.1996 60.1278 27.9359 81.315C26.1835 84.3454 24.8732 88.9347 27.7455 89.9674C28.9815 90.4128 30.4758 89.877 31.8377 89.3445C43.8949 84.6359 55.881 79.6336 67.7833 74.3376C70.3361 73.2016 73.0502 71.9204 74.7155 69.5806C76.1161 67.6119 76.5357 65.2044 76.5389 62.9711C76.5486 51.9983 67.4186 44.1398 57.0138 42.4616C50.5947 41.4257 43.3591 42.3971 37.2337 46.2731C31.1083 50.1491 26.4062 57.233 26.5256 63.978C26.6159 68.9932 29.2429 73.2565 32.6768 76.3547C35.1586 78.5944 38.1632 80.363 41.639 80.8374C49.8524 81.9572 59.089 75.1541 62.8584 66.7986C66.6311 58.4432 65.7049 49.2228 62.3195 41.8872C58.8082 34.274 52.7409 28.2034 45.1825 24.7438C40.2803 22.5008 32.9576 22.0684 29.414 27.2321C27.2743 30.3496 27.5454 34.232 28.449 37.4593C30.6565 45.3662 35.8718 51.5949 41.1258 57.4782C46.8704 63.9134 53.4541 70.5036 62.5454 71.1813C63.3264 71.2394 64.1752 71.2362 64.9142 70.794C66.4762 69.8517 66.573 67.6765 66.3374 66.0241C64.2849 51.5884 55.7358 39.2634 43.4043 32.9637C40.5062 31.4824 36.0558 30.782 33.9548 33.9383C32.3799 36.3039 33.4126 39.1182 34.5841 41.274C44.153 58.9305 59.4214 72.0817 74.4444 84.936C78.5463 88.4473 82.6611 91.9651 87.2019 94.9245C88.5832 95.8249 90.2968 96.6898 92.0202 95.9282C94.6021 94.7857 94.9312 91.2196 94.5633 88.6248C91.2779 65.2818 75.4513 47.848 59.2955 32.67C49.8137 23.7627 39.9414 15.1555 28.5104 8.75258C26.5256 7.64239 24.4052 6.57737 21.9848 6.59996C19.5643 6.62255 16.7598 8.04904 15.7367 10.4534C15.159 11.8121 15.2171 13.2611 15.4108 14.6037C16.1724 19.8674 18.7833 24.363 21.5039 28.6198C30.0788 42.0292 40.2061 54.2768 51.663 65.1011C53.4896 66.8277 55.4195 68.5543 57.8916 69.2966C59.644 69.8226 62.2969 69.3385 62.8939 67.3957C63.1198 66.6631 62.9585 65.9337 62.781 65.256C60.0539 54.948 52.8538 46.599 43.2655 42.6295C42.0843 42.1421 40.5998 41.7581 39.4186 42.6359C38.1341 43.588 38.0244 45.4049 38.1954 46.8507C38.9151 52.8664 41.7487 58.0753 44.9502 62.8226C54.3448 76.758 67.1249 87.7341 79.7856 98.581C80.0212 94.1241 77.6846 90.4031 75.2706 87.1048C64.2139 71.9978 49.8879 59.7567 34.2775 49.4971C39.4057 58.9596 48.8487 65.4561 59.8248 67.0762C57.4979 54.1218 48.3517 43.6912 36.0977 40.0154C32.4315 38.9148 27.1388 39.1053 25.1637 42.9716C23.8276 45.5792 24.8829 48.3708 25.9802 50.6912C28.4878 55.9775 31.2665 61.2767 35.7427 64.8623C40.219 68.4478 46.7671 70.0324 52.7602 67.357C53.5283 67.0116 54.319 66.5695 54.816 65.8595C55.4841 64.8978 55.4453 63.7101 55.3195 62.658C54.148 52.6954 48.0613 44.2334 39.3186 40.422C38.1083 39.8927 36.6173 39.4764 35.3296 40.2767C33.3448 41.5096 33.5578 44.3431 34.1839 46.3279C38.9732 61.5026 49.3425 74.0052 63.065 81.1536C64.4172 81.8572 66.4343 82.3381 67.509 80.918C68.1673 80.0499 68.0479 78.9236 67.8349 77.978C65.692 68.493 58.1563 62.1061 50.7174 56.5713C43.6012 51.2754 36.2559 46.2666 28.7072 41.558C26.9613 40.4704 24.4472 39.5054 22.7141 41.1869C23.8792 46.883 27.1387 51.582 30.5984 55.9098C37.976 65.1366 46.5574 73.3049 56.1198 80.2048C57.5108 81.2085 59.3729 82.1928 61.077 81.1601C62.9746 80.0112 63.0876 77.368 62.8326 75.351C60.367 56.0356 51.266 38.7244 37.3499 26.8835C35.988 25.7249 34.5163 24.5857 32.6768 24.2758C30.8372 23.966 28.5265 24.7051 27.4066 26.4833C26.5449 27.8484 26.5578 29.4621 26.6676 30.9337C27.2517 38.6534 29.6528 45.9245 33.6288 52.0112C34.9746 54.0702 36.6464 56.0937 39.1217 56.623C40.8709 56.9974 42.8072 56.5713 44.6726 56.0905C55.9197 53.1924 66.9668 48.1804 77.0553 41.4063C73.9313 46.7475 68.8967 50.7719 64.0202 54.6156C54.361 62.232 44.7049 69.8452 35.0456 77.4616C51.9663 62.2708 69.0258 47.2509 86.224 32.4086L34.8552 91.4519C50.4753 78.6654 66.0954 65.8789 81.7155 53.0891C87.4762 48.3708 93.7242 42.9005 95.1668 35.9231C67.5832 41.7968 40.5675 57.0651 19.4513 78.3911C17.941 79.9176 20.1452 82.209 21.7298 80.7631C23.7695 78.8978 25.7478 76.9452 27.7003 75.0089C39.7801 63.0292 51.8598 51.0527 63.9363 39.073C48.8778 52.8987 33.8192 66.7276 18.7575 80.5534C20.4905 82.3413 23.7404 81.3344 26.361 80.2468C36.6625 75.9706 46.964 71.6945 57.2655 67.4151C63.6265 64.7751 70.0876 62.0771 75.7547 57.8332C73.2955 56.7327 72.1982 53.8023 72.3112 50.8945C72.4241 47.9868 73.544 45.0596 74.651 42.2035C69.8939 46.5409 65.1369 50.8784 60.3766 55.2191C54.3126 60.7475 47.8451 66.9342 46.0475 74.5893C44.9244 79.3851 45.8345 84.0808 47.0415 88.4667C48.7874 94.8051 51.1498 100.879 54.0899 106.578C57.0364 99.2103 57.8109 91.481 58.2176 83.942C59.2987 63.836 58.0046 44.1075 55.7713 24.6276C55.4937 22.1975 51.876 22.4621 51.9244 24.9116C52.4246 49.623 57.3946 73.7147 56.4071 98.7553C60.4831 90.3998 61.2738 81.1827 60.212 72.7336C59.1535 64.2814 56.3554 56.4455 53.5735 48.6774C52.6763 46.1666 51.1918 43.2781 48.3969 43.5621C42.5071 58.0301 41.668 73.7987 46.083 87.1015C46.5315 88.4506 47.2222 89.9319 48.6583 90.0868C50.3139 90.2675 51.8663 88.5925 52.8829 87.037C56.4716 81.5474 58.2434 75.2606 59.36 69.1062C61.5869 56.8715 61.4707 44.5949 59.0244 33.1832C58.3886 30.2108 57.2655 26.948 54.3803 26.1928C49.2199 36.2491 49.9557 47.4123 51.4887 57.5944C53.3121 69.7097 56.0908 81.6507 61.4965 92.0684C66.9377 83.2643 66.5537 72.853 65.0239 63.6359C62.4324 48.0416 57.1526 33.3381 49.4684 20.3256C46.9382 36.3976 48.5228 52.4307 54.0189 66.3759C54.8031 65.4303 55.5906 64.4815 56.3748 63.5359" stroke="#181D2B" stroke-width="2" stroke-miterlimit="10"/>
<path d="M50.7882 79.3336C59.4567 69.2806 68.2446 59.0307 73.5794 46.2216C78.9141 33.4125 80.3857 17.4341 74.2991 3.35992C67.838 3.64392 62.9067 8.53327 58.4046 13.1322C48.1354 23.6209 37.4853 33.9159 29.8786 46.9962C22.2719 60.0764 17.9215 76.542 21.4457 93.0625C22.0589 95.9316 23.211 99.1782 25.6799 100.43C27.91 101.56 30.2723 100.576 32.2765 99.5268C55.1418 87.5729 73.5503 67.0022 84.1842 41.5195C84.9201 39.7574 85.6268 37.9307 85.7108 35.9072C85.8721 32.0312 83.6195 28.0132 80.6084 25.5185C77.5973 23.0238 73.9441 21.862 70.4005 21.3682C57.5171 19.5706 45.5503 25.98 37.0367 35.3973C28.5231 44.8113 22.9173 57.0201 17.4213 69.0579C14.294 75.9062 11.1119 82.9805 10.7311 90.9874C10.4374 97.1128 12.519 104.536 17.7601 107.489C21.1714 109.409 25.0054 108.921 28.4263 108.011C50.9335 102.009 65.8726 80.8795 78.0298 59.8117C81.8509 53.1893 85.5526 46.4378 88.299 39.0861C90.3774 33.5287 91.9104 27.5065 91.465 21.1714C91.0196 14.8362 88.3313 8.12986 83.4904 4.09575C82.0994 2.93715 80.5051 1.99803 78.8689 1.82376C77.0035 1.62367 75.2963 2.41758 73.6955 3.23409C52.8892 13.8551 35.8717 30.8952 19.1285 47.7288C17.1082 49.762 15.0234 51.9016 14.1552 54.8481C13.4614 57.2008 13.6131 59.8634 13.9261 62.4549C15.2138 73.0501 19.2027 83.6162 25.2991 92.5752C38.7537 91.3585 52.2082 90.1418 65.6628 88.9251C71.9335 88.3571 79.1303 87.1082 81.5411 80.9118C83.9067 74.8251 80.3405 67.2022 76.5937 61.0833C69.1322 48.9003 59.9215 37.1949 48.1193 30.8177C41.1935 27.0741 33.7514 25.3668 26.4125 23.6983C24.6924 23.3078 22.9754 22.9173 21.2553 22.5268C27.4581 38.8892 34.3323 56.2359 47.2769 67.1958C57.5397 75.8836 70.1939 79.2659 82.3544 81.4572C92.8043 83.3387 103.625 84.5005 113.098 80.9957C113.879 80.7052 114.708 80.3276 115.047 79.5047C115.495 78.4171 114.921 77.0326 114.311 75.8869C108.489 64.9883 98.3004 57.7011 88.3507 51.5499C72.7822 41.9196 56.6458 33.7739 40.5383 25.6379C29.217 19.9224 17.8828 14.1972 6.32905 9.32722C4.63472 8.61398 2.41435 8.06855 1.55589 9.6241C1.13312 10.389 1.22994 11.4249 1.37517 12.3802C3.66332 27.5356 14.8394 40.8191 27.3968 48.5388C39.9542 56.2617 53.8703 59.4083 67.4895 62.4355" stroke="#181D2B" stroke-width="2" stroke-miterlimit="10"/>
</svg>
