<svg width="138" height="209" viewBox="0 0 138 209" fill="none" xmlns="http://www.w3.org/2000/svg">
<path d="M117.569 65.0519C108.856 63.6473 102.523 57.8885 105.911 48.6566C106.145 47.9883 106.481 47.269 106.75 46.6093C106.954 46.2092 107.541 45.077 107.758 44.6641C108.733 43.0254 109.818 41.357 110.989 39.8588C113.624 36.4537 116.641 33.3551 119.719 30.3927L119.199 31.5291C118.493 25.3191 110.742 26.6471 106.315 27.7325L106.652 27.609C105.907 27.9751 105.183 28.4518 104.485 28.92C101.131 31.2865 98.42 34.5469 96.5344 38.1818C95.8066 39.6715 95.1596 41.1995 94.6446 42.7828C94.4531 43.4681 94.2147 44.213 93.9977 44.8897C93.9423 45.094 93.6103 45.0387 93.6231 44.8259C93.6359 43.8427 93.6231 42.8424 93.721 41.8464C94.2147 36.7516 96.4025 31.8398 99.9352 28.0943C101.472 26.4939 103.179 24.9574 105.205 23.9912C109.325 22.7994 114.122 22.1099 118.093 24.2678C120.723 25.6895 122.383 28.6348 122.345 31.61C122.336 32.0527 122.136 32.4527 121.826 32.7252C119.029 35.1513 116.322 37.6753 113.866 40.4121C109.567 45.3366 103.689 52.9001 108.32 59.2761C110.589 62.1576 114.134 63.7835 117.633 64.6731C117.739 64.6944 117.812 64.8008 117.782 64.9072C117.761 65.0051 117.663 65.0647 117.569 65.0519Z" fill="#181D2B"/>
<path d="M86.7492 45.0219C83.1058 43.4683 73.9717 39.8377 70.9029 43.2597C70.5156 43.745 70.2943 44.3664 70.1878 45.0602L70.0261 45.4645C69.26 47.1032 69.3919 49.0398 70.1325 50.6785L70.439 51.3084L70.822 51.9086C70.937 52.1044 71.0944 52.3215 71.2434 52.4917C71.9329 53.4153 72.9885 54.3602 73.8908 55.0753C75.3082 56.2841 73.8525 58.5101 72.1841 57.7185C68.1916 55.6882 63.7948 56.1096 61.1134 59.902C58.5213 64.2094 63.1053 68.0188 66.2976 70.3981C66.4763 70.5087 66.3401 70.8109 66.1401 70.7471C64.8802 70.4406 63.5905 69.9767 62.4158 69.4063C58.0573 67.2314 55.5291 62.7494 57.8615 58.0207C60.3259 53.6537 64.9696 51.8192 69.7324 53.2153C71.154 53.6111 72.4564 54.1815 73.7121 54.9519L71.8691 57.5269C71.0859 56.8033 70.0559 55.7606 69.4132 54.9263C69.2344 54.6794 68.7918 54.0452 68.6258 53.8026C67.4 51.7979 66.6721 49.3803 67.102 47.0138C67.268 46.0349 67.5915 45.0985 68.1235 44.2472L67.9618 44.6515C68.3363 42.6255 69.9793 40.7911 72.0308 40.4123C76.8405 39.4674 82.8078 42.3914 86.9237 44.6899C87.1195 44.8176 86.9705 45.1283 86.7449 45.0304L86.7492 45.0219Z" fill="#181D2B"/>
<path d="M58.7723 69.1542C53.9457 72.0315 51.8005 76.573 56.0951 81.1017C56.674 81.7657 57.4486 82.4254 58.1254 83C61.3474 85.5708 64.9568 87.5671 68.664 89.3632C77.8449 93.8068 87.7494 96.4713 97.722 98.4292L95.6108 99.3315C99.3521 93.3131 103.374 87.4479 107.631 81.7742C109.052 79.8759 110.512 78.0031 112.053 76.1771C112.121 76.0963 112.245 76.0835 112.325 76.1559C112.394 76.2112 112.411 76.3048 112.376 76.3814C108.533 85.0431 103.928 93.3514 99.0031 101.434C98.5562 102.175 97.6922 102.511 96.892 102.337C91.7886 101.209 86.8045 99.5912 81.8927 97.829C74.5293 95.1561 67.3318 91.8659 60.8962 87.35C56.9251 84.4089 51.2429 79.9525 53.0604 74.3384C53.5158 73.0189 54.3713 71.9208 55.3417 71.0227C56.3207 70.1204 57.4146 69.3883 58.6021 68.8137C58.8362 68.7115 58.9894 69.0435 58.7723 69.1585V69.1542Z" fill="#181D2B"/>
<path d="M114.266 70.4753C115.441 68.3003 117.833 63.895 119.029 61.7285C119.144 61.5157 119.382 61.4178 119.608 61.4646C122.013 62.0052 124.328 62.7202 126.588 63.7077C128.295 64.4738 130.04 65.4102 131.364 66.8319C131.824 67.3341 132.245 67.93 132.522 68.6451C132.615 68.8834 132.602 69.1388 132.513 69.3559C129.449 76.8129 126.099 84.1083 122.532 91.3397C120.749 94.9491 118.961 98.5798 116.786 102.032C115.679 103.772 114.505 105.458 113.177 107.063C111.674 108.782 110.146 110.574 107.89 111.442C107.563 111.574 107.188 111.608 106.869 111.493C106.166 111.264 105.549 111.025 104.907 110.753C102.991 109.94 101.131 108.991 99.4627 107.731C98.3518 106.875 97.2495 105.867 96.5982 104.471C95.9045 103.134 96.1598 101.368 97.1473 100.282C97.2154 100.201 97.3346 100.189 97.4197 100.257C97.4878 100.312 97.5091 100.406 97.475 100.487C95.8449 104.454 101.229 106.241 104.115 107.297C105.281 107.676 106.55 108.042 107.729 108.301L106.707 108.352C108.103 107.505 109.163 106.041 110.176 104.705C111.312 103.155 112.376 101.525 113.415 99.8907C119.927 89.9479 125.435 79.2731 130.623 68.5727L130.598 69.3303C129.21 65.8529 122.796 63.6226 119.378 62.55L119.987 62.2946L117.305 66.4914L114.602 70.6753C114.471 70.8796 114.16 70.6881 114.275 70.4795L114.266 70.4753Z" fill="#181D2B"/>
<path d="M123.983 71.122C124.573 71.122 125.052 70.6437 125.052 70.0537C125.052 69.4637 124.573 68.9854 123.983 68.9854C123.393 68.9854 122.915 69.4637 122.915 70.0537C122.915 70.6437 123.393 71.122 123.983 71.122Z" fill="#181D2B"/>
<path d="M125.248 70.0531C125.154 70.3766 125.145 70.666 125.026 71.0959C124.741 72.2238 123.226 72.4111 122.328 71.7131C120.451 70.3979 121.464 66.6949 123.983 67.0694C125.52 67.3376 125.72 68.8528 125.243 70.0531H125.248ZM124.865 70.0531C124.469 69.3338 123.307 70.4234 123.988 70.9001C124.205 71.0236 124.515 70.8831 124.571 70.6405C124.652 70.2957 124.443 69.8531 124.132 69.9127C123.796 70.0616 124.069 70.4915 124.46 70.5298C124.728 70.5596 124.962 70.3127 124.865 70.0574V70.0531Z" fill="#181D2B"/>
<path d="M77.3896 17.9051C76.5213 16.2919 75.653 14.466 74.8698 12.806C74.4229 11.776 73.793 10.3544 73.2652 9.38392C72.4224 7.58775 72.3118 5.57452 72.8098 3.62086C72.8396 3.52722 72.9375 3.4719 73.0354 3.49744C74.623 4.75731 75.7041 6.52367 76.0744 8.48158C76.2957 10.2182 76.8107 12.325 77.0959 14.0616C77.3044 15.3087 77.5173 16.5516 77.6747 17.8157C77.7003 17.9732 77.4619 18.0541 77.3896 17.9051Z" fill="#181D2B"/>
<path d="M59.9173 29.405C55.8525 25.0635 51.477 20.2326 47.5357 15.7507C46.5227 14.5972 45.4671 13.4821 44.4243 12.3499C42.3345 10.0813 40.5766 7.56151 38.9677 4.9311C38.1718 3.60313 37.4099 2.2496 36.78 0.785424L37.0098 0.598145C40.7426 3.39029 43.9859 6.74428 46.7185 10.4984C48.2337 12.6989 50.5109 15.7847 52.1283 17.9597C54.7459 21.5733 57.6232 25.57 60.1514 29.2219L59.9216 29.4092L59.9173 29.405Z" fill="#181D2B"/>
<path d="M45.5565 50.6061C39.6488 46.0774 33.2387 41.0251 27.4246 36.3304C24.4324 33.917 21.2785 31.6952 18.5034 29.0223C15.7027 26.345 13.0042 23.5869 10.6547 20.4756L10.8505 20.25C12.587 21.1821 14.2087 22.242 15.8048 23.3316C18.9715 25.5321 22.0191 27.8773 24.807 30.546C26.1945 31.8783 27.5736 33.2233 28.9824 34.5257C31.0978 36.4708 35.3286 40.4207 37.4142 42.3956C40.1893 45.0601 42.9985 47.6905 45.7481 50.3805L45.5523 50.6061H45.5565Z" fill="#181D2B"/>
<path d="M34.7666 69.0568C31.485 67.882 27.9395 66.4732 24.7174 65.1112C23.8917 64.7621 23.0405 64.46 22.1934 64.145C20.4909 63.5065 18.997 62.4935 17.5966 61.3315C16.8943 60.7357 16.2176 60.093 15.6132 59.3098L15.7494 59.0459C18.533 59.2119 21.1932 60.0546 23.5342 61.5188C24.8239 62.4084 26.7435 63.5704 28.1012 64.3876C30.3188 65.7794 32.7491 67.3202 34.9028 68.7929L34.7666 69.0568Z" fill="#181D2B"/>
<path d="M17.2009 144.198C22.6021 143.164 29.2335 140.044 29.7017 133.89C29.94 130.08 28.0758 126.343 26.0327 123.211C22.7596 118.256 18.5586 113.996 14.2172 109.939C13.7405 109.526 13.6809 108.854 13.766 108.309C13.8554 107.403 14.0895 106.534 14.4427 105.696C17.4435 98.7026 26.535 99.4773 32.4938 101.601C38.3207 104.925 42.4792 111.301 43.7476 117.818C44.203 119.912 44.2668 122.078 44.1859 124.202C44.1774 124.419 43.871 124.462 43.8114 124.249C43.6198 123.513 43.4028 122.704 43.2325 121.959L43.1389 121.585C42.7516 120.495 42.4749 119.371 41.9982 118.333C40.5681 114.66 38.2867 111.25 35.4349 108.547C34.0687 107.254 32.5704 106.07 30.9317 105.159L31.2552 105.296C26.5137 103.963 18.1713 102.082 16.9029 108.675C16.8901 108.739 16.8816 108.845 16.8774 108.841L16.3964 107.671C21.6955 113.17 27.1224 119.048 30.0507 126.228C32.8258 132.881 31.3787 139.21 24.6069 142.492C23.2193 143.164 21.7551 143.683 20.2612 144.041C19.2652 144.279 18.2692 144.475 17.2477 144.577C17.1413 144.586 17.0476 144.509 17.0391 144.407C17.0306 144.305 17.1029 144.211 17.2051 144.198H17.2009Z" fill="#181D2B"/>
<path d="M51.4941 124.367C56.1335 122.073 66.3571 117.655 70.6007 122.209C71.3753 123.069 71.8052 124.163 71.9968 125.214L71.8478 124.797C73.2311 127.198 73.1545 130.258 72.0436 132.735L71.6137 133.638C71.4434 133.918 71.0008 134.625 70.8263 134.893C70.1367 135.817 69.4174 136.617 68.5917 137.417L67.1573 138.651L65.4548 135.983C71.452 132.71 78.5557 133.276 82.1481 139.664C84.7785 144.759 81.7352 149.718 76.9256 151.778C75.6019 152.365 74.2484 152.791 72.8693 153.051C72.665 153.089 72.5501 152.804 72.7288 152.693C75.6827 150.731 79.4198 148.301 79.6879 144.534C79.739 143.572 79.4496 142.401 78.9516 141.661C78.3259 140.767 77.581 139.945 76.717 139.29C74.176 137.379 70.7028 137.396 67.766 138.447C67.4723 138.549 67.136 138.698 66.8509 138.822C66.0464 139.166 65.1143 138.796 64.7695 137.992C64.4758 137.306 64.7014 136.528 65.276 136.098L66.5742 135.123C66.9658 134.765 67.3659 134.412 67.7489 134.042C67.932 133.85 68.3576 133.348 68.5321 133.165C68.6683 132.961 69.0642 132.437 69.2046 132.224L69.5707 131.56C70.4432 129.866 70.6815 127.836 69.958 126.061C69.8771 125.874 69.8218 125.691 69.7622 125.525C69.1493 119.983 60.5558 122.035 56.8613 122.992C55.1119 123.482 53.3583 124.031 51.6643 124.704C51.5664 124.746 51.4515 124.699 51.4132 124.597C51.3749 124.503 51.4174 124.401 51.5026 124.354L51.4941 124.367Z" fill="#181D2B"/>
<path d="M81.1522 151.371C84.9616 153.329 88.5369 157.47 86.7152 161.982C84.3529 167.906 75.67 172.32 70.1879 175.061C59.9599 179.82 49.0467 183.059 37.9675 185.106C37.1248 185.251 36.3118 184.834 35.916 184.127C34.6561 181.931 33.4388 179.714 32.2513 177.479C28.6972 170.745 25.2837 163.94 22.3851 156.887C22.3468 156.789 22.3936 156.674 22.4915 156.636C22.5724 156.602 22.666 156.631 22.7171 156.695C28.8334 164.799 34.273 173.38 39.3763 182.144L37.3248 181.169C48.1997 179.53 59.0406 177.177 69.2047 172.878C72.98 171.269 76.7299 169.511 80.1094 167.187C87.277 162.543 88.6135 156.802 80.9649 151.711C80.7436 151.592 80.9266 151.26 81.1437 151.375L81.1522 151.371Z" fill="#181D2B"/>
<path d="M20.2399 150.706C18.8736 148.438 16.1453 143.815 14.8003 141.53L15.3919 141.806C11.6634 142.768 4.48722 144.862 2.81448 148.514L2.81874 147.74C6.26637 155.533 9.83742 163.322 13.7788 170.877C16.2772 175.572 18.8991 180.13 21.6572 184.621C23.181 186.936 24.7175 189.707 27.0074 191.265L26.0072 191.171C28.6291 190.686 31.3574 189.988 33.792 188.907C35.0051 188.362 36.167 187.685 36.9757 186.762C37.8611 185.778 37.9887 184.472 37.4822 183.225C37.3929 183.016 37.6993 182.871 37.8185 183.042C40.1595 186.021 37.4312 189.222 34.8731 190.826C32.3576 192.474 29.5995 193.58 26.7095 194.41C26.3605 194.508 26.02 194.457 25.7093 194.317C24.9814 194.027 24.4238 193.657 23.9131 193.274C16.0517 186.821 9.91831 170.051 5.65347 160.5C3.9935 156.533 2.43143 152.537 0.916178 148.506C0.80977 148.255 0.814031 147.965 0.920439 147.731C1.25243 146.982 1.73764 146.369 2.26117 145.858C3.7679 144.411 5.69178 143.509 7.56881 142.773C10.0588 141.828 12.5913 141.176 15.2089 140.712C15.443 140.67 15.6686 140.793 15.7707 140.993L18.1841 145.748L20.5761 150.515C20.6825 150.736 20.3633 150.902 20.2399 150.698V150.706Z" fill="#181D2B"/>
<path d="M11.2152 149.665C11.2424 149.036 10.7427 148.503 10.0992 148.475C9.45573 148.447 8.91206 148.935 8.88491 149.564C8.85776 150.194 9.35741 150.727 10.0009 150.754C10.6444 150.782 11.1881 150.294 11.2152 149.665Z" fill="#181D2B"/>
<path d="M9.07556 149.574C8.96915 149.846 9.20327 150.123 9.48844 150.114C9.87151 150.114 10.2546 149.727 9.98642 149.51C9.70125 149.391 9.4714 149.829 9.52673 150.149C9.56078 150.378 9.8332 150.51 10.0162 150.395C10.6291 149.91 9.46289 148.85 9.07982 149.578L9.07556 149.574ZM8.69248 149.557C8.29664 148.31 8.62015 146.748 10.178 146.565C12.7913 146.301 13.6979 150.14 11.6762 151.413C10.7185 152.081 9.17773 151.809 8.90106 150.668C8.77763 150.221 8.7691 149.91 8.69248 149.557Z" fill="#181D2B"/>
<path d="M103.455 136.729C105.043 136.01 106.83 135.316 108.465 134.69C109.469 134.341 110.861 133.843 111.823 133.405C113.594 132.724 115.522 132.809 117.326 133.477C117.42 133.515 117.463 133.622 117.424 133.715C116.13 135.158 114.39 136.09 112.496 136.278C110.831 136.341 108.797 136.661 107.128 136.784C105.932 136.878 104.736 136.976 103.523 137.018C103.366 137.027 103.306 136.788 103.455 136.729Z" fill="#181D2B"/>
<path d="M103.042 156.84C108.712 157.223 114.922 157.75 120.595 158.325C122.055 158.474 123.524 158.563 124.988 158.674C127.929 158.895 130.798 159.534 133.628 160.351C135.046 160.777 136.463 161.241 137.851 161.875L137.808 162.168C133.377 162.683 128.921 162.462 124.562 161.59C122.072 161.019 118.472 160.33 115.931 159.849C111.751 159.006 107.141 158.057 102.996 157.125L103.038 156.831L103.042 156.84Z" fill="#181D2B"/>
<path d="M93.1548 179.164C100.054 181.015 107.588 183.143 114.458 185.182C117.99 186.225 121.608 187.033 125.039 188.404C128.499 189.766 131.892 191.243 135.101 193.18L135.007 193.461C133.122 193.282 131.296 192.946 129.478 192.567C125.865 191.784 122.298 190.822 118.859 189.464C117.143 188.783 115.432 188.089 113.704 187.442C111.121 186.484 105.928 184.514 103.362 183.514C99.9309 182.156 96.4833 180.836 93.0655 179.445L93.1591 179.164H93.1548Z" fill="#181D2B"/>
<path d="M83.7058 197.203C86.7618 198.608 90.0434 200.255 93.0228 201.838C93.789 202.243 94.5807 202.604 95.3638 202.979C96.9472 203.737 98.2879 204.847 99.518 206.095C100.135 206.733 100.723 207.418 101.225 208.24L101.067 208.491C98.3986 208.125 95.9044 207.095 93.789 205.473C92.6313 204.503 90.899 203.213 89.6646 202.306C87.6641 200.77 85.4721 199.067 83.5398 197.454L83.6972 197.203H83.7058Z" fill="#181D2B"/>
</svg>
