<svg width="722" height="569" viewBox="0 0 722 569" fill="none" xmlns="http://www.w3.org/2000/svg">
<path d="M67.7459 383.014C-16.83 434.598 0.607672 535.442 3.26586 578.505H758.115L803 320.357C798.443 301.582 735.556 204.301 713.001 181.6C677.913 146.284 624.643 208.576 607.509 167.929C590.375 127.281 548.118 79.2974 529.131 60.3863C377.295 -48.9791 257.312 14.8174 216.3 60.3863C163.076 104.315 138.15 194.663 130.403 259.75C132.985 272.813 114.682 354.387 67.7459 383.014Z" fill="#FB9C17"/>
<path d="M501.001 424.681H129.113C125.494 424.681 122.561 427.652 122.561 431.316C122.561 434.98 125.494 437.951 129.113 437.951H501.001C504.62 437.951 507.553 434.98 507.553 431.316C507.553 427.652 504.62 424.681 501.001 424.681Z" fill="#E4CFAE"/>
<path d="M389.49 269.553C389.49 224.691 366.164 186.329 333.196 170.717C336.075 167.224 337.803 162.835 337.803 158.066C337.803 146.691 328.103 137.488 316.13 137.488C309.87 137.488 304.245 140.024 300.288 144.049C296.332 140.024 290.707 137.488 284.447 137.488C272.474 137.488 262.774 146.706 262.774 158.066C262.774 162.835 264.501 167.224 267.38 170.717C234.413 186.329 211.086 224.691 211.086 269.553C211.086 317.392 237.587 357.865 274.053 371.214C279.073 373.052 282.409 377.973 282.409 383.455V385.718C282.409 391.656 277.729 396.47 271.957 396.47C256.307 396.47 243.611 409.531 243.611 425.629H356.995C356.995 409.531 344.299 396.47 328.649 396.47C322.877 396.47 318.197 391.656 318.197 385.718V383.455C318.197 377.973 321.533 373.052 326.553 371.214C363.004 357.85 389.52 317.392 389.52 269.553H389.49Z" fill="#E4CFAE"/>
<path d="M300.303 362.599C343.465 362.599 378.454 321.011 378.454 269.711C378.454 218.41 343.465 176.823 300.303 176.823C257.141 176.823 222.152 218.41 222.152 269.711C222.152 321.011 257.141 362.599 300.303 362.599Z" fill="#7DC6BF"/>
<mask id="mask0_14_48" style="mask-type:luminance" maskUnits="userSpaceOnUse" x="222" y="176" width="157" height="187">
<path d="M300.133 362.565C343.194 362.565 378.102 320.981 378.102 269.684C378.102 218.387 343.194 176.803 300.133 176.803C257.071 176.803 222.164 218.387 222.164 269.684C222.164 320.981 257.071 362.565 300.133 362.565Z" fill="white"/>
</mask>
<g mask="url(#mask0_14_48)">
<path d="M356.608 222.158H285.449V289.864C285.449 303.909 278.461 317.089 266.762 324.362C250.837 334.262 240.393 352.498 241.146 373.194C242.18 401.498 264.605 424.562 292.141 425.64C322.424 426.825 347.331 401.953 347.331 371.099C347.331 365.375 346.474 359.848 344.878 354.67H356.608V222.173V222.158Z" fill="#181D2B"/>
<path d="M320.814 362.763C297.341 369.398 276.068 381.485 258.341 397.58H467.239C448.921 380.938 426.821 368.609 402.447 362.125C389.89 358.784 381.012 347.305 381.012 333.974V333.943C405.445 326.078 423.217 302.801 423.615 275.196C424.295 275.272 424.989 275.317 425.698 275.317C435.95 275.317 444.267 266.769 444.267 256.231C444.267 245.693 435.95 237.145 425.698 237.145C425.004 237.145 424.31 237.19 423.63 237.266V210.998H301.95V237.266C301.27 237.19 300.59 237.145 299.881 237.145C289.629 237.145 281.312 245.693 281.312 256.231C281.312 266.769 289.629 275.317 299.881 275.317C300.59 275.317 301.285 275.272 301.964 275.196C302.348 301.753 318.82 324.301 341.82 332.987V334.718C341.82 347.882 333.164 359.255 320.814 362.747V362.763Z" fill="#DFB332"/>
<path d="M338.083 243.491C331.805 243.491 327.24 251.751 327.24 263.139C327.24 265.22 328.88 266.89 330.889 266.89C332.898 266.89 334.538 265.204 334.538 263.139C334.538 255.441 337.138 251.265 338.127 250.992C339.029 251.281 341.628 255.441 341.628 263.139C341.628 265.22 343.268 266.89 345.277 266.89C347.286 266.89 348.926 265.204 348.926 263.139C348.926 251.751 344.361 243.491 338.083 243.491Z" fill="#181D2B"/>
<path d="M385.577 243.491C379.298 243.491 374.734 251.751 374.734 263.139C374.734 265.22 376.373 266.89 378.382 266.89C380.391 266.89 382.031 265.204 382.031 263.139C382.031 255.441 384.631 251.265 385.621 250.992C386.522 251.281 389.122 255.441 389.122 263.139C389.122 265.22 390.762 266.89 392.771 266.89C394.78 266.89 396.42 265.204 396.42 263.139C396.42 251.751 391.855 243.491 385.577 243.491Z" fill="#181D2B"/>
<path d="M358.321 254.135V276.395L367.599 273.206" stroke="#181D2B" stroke-width="2.47" stroke-linecap="round" stroke-linejoin="round"/>
<path d="M333.223 283.274C333.223 294.692 345.617 303.955 360.892 303.955C376.166 303.955 388.56 294.692 388.56 283.274" stroke="#181D2B" stroke-width="4.94" stroke-linecap="round" stroke-linejoin="round"/>
<path d="M319.13 287.343C325.583 287.343 330.815 281.966 330.815 275.332C330.815 268.699 325.583 263.322 319.13 263.322C312.676 263.322 307.445 268.699 307.445 275.332C307.445 281.966 312.676 287.343 319.13 287.343Z" fill="#FA7B04"/>
<path d="M314.314 242.292C335.388 242.292 352.471 224.733 352.471 203.072C352.471 181.411 335.388 163.851 314.314 163.851C293.24 163.851 276.157 181.411 276.157 203.072C276.157 224.733 293.24 242.292 314.314 242.292Z" fill="#181D2B"/>
<path d="M386.891 249.565C416.017 249.565 439.629 225.296 439.629 195.358C439.629 165.42 416.017 141.151 386.891 141.151C357.765 141.151 334.153 165.42 334.153 195.358C334.153 225.296 357.765 249.565 386.891 249.565Z" fill="#181D2B"/>
</g>
<path d="M496.019 383.451C567.533 383.451 625.587 443.339 625.587 517.112V584.391H366.466V517.112C366.466 443.339 424.52 383.451 496.034 383.451H496.019Z" fill="#D9999C"/>
<path d="M438.462 434.447C409.981 442.509 384.173 457.162 362.65 476.704H616.115C593.898 456.524 567.086 441.553 537.496 433.687C522.266 429.633 511.482 415.709 511.482 399.538V399.508C541.116 389.957 562.698 361.715 563.171 328.219C563.998 328.31 564.84 328.37 565.697 328.37C578.135 328.37 588.225 318 588.225 305.215C588.225 292.43 578.135 282.059 565.697 282.059C564.855 282.059 564.013 282.12 563.2 282.211V250.339H415.55V282.211C414.723 282.12 413.895 282.059 413.053 282.059C400.615 282.059 390.525 292.43 390.525 305.215C390.525 318 400.615 328.37 413.053 328.37C413.91 328.37 414.752 328.31 415.579 328.219C416.037 360.439 436.024 387.816 463.93 398.339V400.434C463.93 416.408 453.426 430.21 438.447 434.447H438.462Z" fill="#DFB332"/>
<path d="M618.42 387.846C604.224 379.024 595.744 363.036 595.744 345.999V267.452C598.403 259.025 599.866 250.036 599.866 240.697C599.866 192.898 562.166 154.148 515.663 154.148C486.251 154.148 460.384 169.651 445.316 193.141C444.991 193.141 444.666 193.11 444.326 193.11C418.755 193.11 398.03 214.414 398.03 240.697C398.03 252.586 402.284 263.443 409.286 271.779V345.999C409.286 363.051 400.807 379.024 386.61 387.846C367.288 399.857 354.613 421.98 355.529 447.095C356.785 481.441 383.996 509.425 417.411 510.731C431.046 511.263 443.78 507.436 454.416 500.497C463.723 506.571 474.595 510.276 486.236 510.731C506.415 511.521 524.615 502.76 536.935 488.502C549.255 502.76 567.455 511.521 587.634 510.731C621.049 509.425 648.26 481.426 649.516 447.095C650.432 421.98 637.742 399.857 618.435 387.846H618.42Z" fill="#181D2B"/>
<path d="M445.235 70.0176C437.779 55.2085 419.757 49.8179 405.478 57.6918C395.871 62.9916 390.301 73.0006 390.021 83.4488L389.918 83.4185L389.888 83.5245C381.253 77.9976 370.054 77.2253 360.447 82.5251C346.153 90.399 340.421 108.918 348.452 123.379C364.189 151.71 425.312 150.271 425.312 150.271C425.312 150.271 457.657 94.6843 445.235 70.0025V70.0176Z" fill="#FA7B04"/>
</svg>
