<svg width="215" height="162" viewBox="0 0 215 162" fill="none" xmlns="http://www.w3.org/2000/svg">
<path d="M102.506 126.355C87.0315 138.437 51.6413 161.884 32.6903 148.298C28.3816 145.171 25.6023 140.409 23.9381 135.45C23.8719 135.217 22.5177 132.255 22.3788 131.922C16.9702 119.787 8.14231 100.086 2.72674 88.0429C1.25795 84.6936 2.80755 81.0111 6.12311 79.5302C11.7076 76.5797 17.4008 73.6276 23.0196 70.7352C24.4828 69.9976 24.86 68.0282 23.8614 66.7574C19.0195 59.8398 15.5411 49.6822 25.2381 45.059C26.3108 44.5407 27.4156 44.2063 28.5122 43.8928L28.329 43.9583C28.8995 43.7447 29.5553 43.6346 30.1531 43.5672C33.8834 43.2401 37.5415 45.1167 40.1938 47.5106C41.6328 48.8335 42.9575 50.3592 44.0782 51.9591C44.919 53.0438 45.6293 54.3607 46.3749 55.5138C47.5723 57.2089 49.6437 57.4003 51.3882 56.4325C56.364 54.2363 61.8929 51.7807 66.8869 49.6848L67.051 50.0215C62.3201 52.6454 56.9857 55.5085 52.1784 58.0623C51.24 58.6038 50.1992 59.0127 49.1022 59.0204C47.3735 59.0626 45.6362 58.2465 44.5567 56.8764L43.6972 55.6621C42.9731 54.5463 42.0733 53.4416 41.2291 52.4197C38.5044 49.3737 34.7747 46.3257 30.4974 46.7613C30.205 46.8075 29.9001 46.8664 29.6209 46.9584C27.7203 47.5601 25.8021 48.3839 24.5305 49.6169C20.3072 53.7241 24.3352 60.5363 27.0615 64.5454C27.3607 64.9597 27.649 65.4789 27.8527 65.9491C28.795 68.2383 28.3207 71.009 26.6265 72.8303C25.7701 73.8185 24.5347 74.3811 23.404 74.9421L20.565 76.374C16.7827 78.2889 12.9873 80.1704 9.18769 82.052C8.89685 82.207 7.43731 82.9027 7.12173 83.0832C5.67986 83.8414 5.27058 85.6228 6.02003 87.0397C11.0536 99.0211 19.5532 118.891 24.6546 130.926L25.8994 133.851L26.0599 134.23L26.2343 134.7C27.6708 139.269 30.1354 143.705 33.9631 146.575C47.0466 156.114 68.2594 146.406 80.9031 139.704C88.3222 135.659 95.4953 131.111 102.267 126.053L102.502 126.347L102.506 126.355Z" fill="#181D2B"/>
<path d="M107.957 119.152C104.159 112.29 98.9237 102.544 95.1194 95.5647L95.9798 95.1291C103.099 91.5028 111.532 84.0425 108.308 75.2503L108.352 75.3627C108.127 74.918 107.865 74.4487 107.583 74.0341C101.026 64.3949 91.7707 72.307 85.6493 78.0374C83.586 73.269 81.4636 68.4722 79.5418 63.6431C77.899 59.572 76.3146 55.4749 74.905 51.3125L75.246 51.1525C77.5746 54.8827 79.7412 58.6991 81.8497 62.5539C83.9664 66.392 85.9874 70.2774 87.971 74.1802L85.0321 73.6539C88.6131 70.0085 92.9219 66.5868 98.171 65.8941C103.549 65.1115 108.386 68.5828 110.72 73.2342C110.884 73.5584 111.056 73.9034 111.196 74.2657C111.557 75.4873 111.81 76.7565 111.862 78.0454C112.217 87.0599 104.136 93.397 96.6947 96.7601L97.129 95.5393C100.416 102.396 105.083 112.193 108.286 118.984L107.949 119.156L107.957 119.152Z" fill="#181D2B"/>
<path d="M154.553 2.92442C174.821 3.56844 221.898 9.3873 211.184 39.4093C210.889 40.1088 210.274 42.4251 210.042 43.2115C206.993 53.9426 202.006 71.6072 199.014 82.2788C198.718 83.4933 198.064 84.6293 197.092 85.4183C195.735 86.5688 193.811 86.9907 192.08 86.5556C191.916 86.5245 190.63 86.2419 190.425 86.2031C186.896 85.4426 183.372 84.6821 179.851 83.8881L177.212 83.2946C176.746 83.2135 175.711 82.8812 175.248 82.9759C174.303 83.0736 173.571 83.947 173.543 84.8812C173.344 86.7726 173.024 88.6658 172.453 90.5543C169.875 99.1848 163.272 100.869 156.327 96.7377C152.928 94.3087 151.687 89.9009 151.692 85.9563C151.633 83.9347 151.929 81.8492 152.247 79.8639C152.407 78.1866 151.204 76.9732 149.616 76.6657L145.015 75.3013C141.949 74.3917 138.891 73.4485 135.837 72.4842L135.928 72.1186C140.458 72.9522 145.511 73.9708 150.055 74.9047C150.987 75.0627 151.909 75.3758 152.646 75.9805C153.841 76.9218 154.554 78.4523 154.51 79.9897L154.412 81.2641C154.281 82.3799 154.27 83.5902 154.265 84.7083C154.395 88.1149 155.144 92.0736 158.113 94.0733C158.291 94.1838 158.489 94.2814 158.674 94.3666C160.178 94.9809 161.97 95.5366 163.422 95.4106C168.24 95.0298 169.257 88.4867 169.664 84.5195C169.709 83.8991 169.867 83.21 170.109 82.6328C171.135 80.0801 174.069 78.5505 176.75 79.1684C177.687 79.3975 179.775 79.8609 180.725 80.0982C184.868 81.0632 189.012 82.0951 193.147 83.0937C194.189 83.3505 195.326 82.6554 195.638 81.6291C195.678 81.528 196.477 78.8992 196.541 78.7224C199.436 69.3922 204.773 51.8983 207.662 42.5054L208.453 39.9185L208.557 39.582L208.706 39.1694C210.263 35.4365 211.085 31.2245 210.173 27.2976C206.895 13.988 187.781 8.69576 175.935 6.13566C168.888 4.70256 161.725 3.72759 154.546 3.30141L154.557 2.92436L154.553 2.92442Z" fill="#181D2B"/>
<path d="M147.083 4.67594C145.832 11.2895 143.946 20.542 142.633 27.2319L141.688 27.0197C135.147 25.554 125.666 25.7898 123.015 33.1985C122.392 36.1305 122.842 39.9679 126.152 41.7952C130.019 43.9408 135.126 43.5475 139.479 43.4039L138.777 45.7968C136.643 52.9594 134.352 60.0781 131.527 67.0079L131.161 66.9128C131.377 65.042 131.664 63.1912 131.959 61.3444C132.87 55.8162 133.97 50.3229 135.217 44.8652L137.135 47.1651C130.54 47.9824 121.814 46.6494 119.92 39.119C119.35 36.7908 119.482 34.4439 120.144 32.173C120.972 30.1174 122.385 28.2248 124.195 26.8917C129.429 23.1466 136.321 23.6775 142.186 25.3039L141.069 25.961C142.707 19.6977 145.058 10.7607 146.718 4.58921L147.083 4.67177L147.083 4.67594Z" fill="#181D2B"/>
<path d="M93.5024 151.076C104.39 156.225 127.365 165.221 134.344 150.655C136.8 145.372 137.356 137.354 135.724 131.729C135.124 129.657 134.236 127.656 133.058 125.83C131.072 122.887 126.848 117.865 122.917 119.92C120.204 121.631 118.94 125.1 118.717 128.194C118.576 133.388 121.201 139.049 124.653 142.842C130.743 149.544 140.225 151.595 148.984 151.55C150.872 151.513 152.897 151.429 154.786 151.41C155.702 151.396 157.131 151.425 158.047 151.362C161.256 151.189 164.454 150.564 167.509 149.577C184.451 144.114 188.078 128.823 185.359 112.809C185.009 110.632 184.559 108.47 184.058 106.316C184.044 106.262 184.077 106.203 184.136 106.19C184.19 106.176 184.241 106.209 184.258 106.259C187.591 116.758 189.373 128.926 183.966 139.08C178.411 149.421 166.034 154.029 154.788 153.6C152.619 153.577 150.305 153.687 148.131 153.618C141.374 153.445 134.403 152.099 128.666 148.339C124.856 145.824 121.783 142.197 119.967 138.02C117.642 132.807 116.732 126.715 120.143 121.758C124.41 115.246 130.619 120.879 133.754 125.36C136.384 129.052 137.857 133.532 138.087 138.059C139.271 160.528 123.514 163.934 105.399 157.04C101.234 155.468 97.207 153.551 93.3962 151.253C93.3455 151.225 93.332 151.158 93.3605 151.107C93.3892 151.061 93.4517 151.043 93.4981 151.068L93.5024 151.076Z" fill="#181D2B"/>
<path d="M191.344 116.825L183.749 106.623L184.643 106.501L178.981 118.146L183.678 106.08C183.807 105.726 184.299 105.639 184.542 105.924C184.555 105.924 192.953 115.499 192.974 115.507C193.887 116.611 192.244 117.955 191.348 116.825L191.344 116.825Z" fill="#181D2B"/>
<path d="M91.4208 8.69738C93.4896 11.5604 95.4421 14.488 97.3617 17.4495C98.0001 18.4368 98.6427 19.4197 99.2645 20.4155C99.6936 21.1169 98.9062 21.9618 98.1799 21.5495C95.0956 19.966 90.387 17.8369 87.1908 16.3346C83.5139 14.5965 79.8854 12.7362 76.1877 11.0152C72.4819 9.31097 68.7558 7.64895 64.8458 6.57588C60.9443 5.51524 56.9359 4.87492 52.9122 4.61587C40.7847 3.70555 28.2625 6.4231 23.7173 19.1024C22.3614 22.8575 21.7512 26.9198 21.8479 30.9341C21.8529 30.9926 21.8077 31.0478 21.7449 31.0487C21.6905 31.0495 21.648 31.0124 21.6389 30.9623C20.947 26.9107 21.136 22.6787 22.2657 18.6338C26.989 2.11627 44.8628 0.546885 59.1605 4.09683C65.1145 5.48739 70.8384 8.03288 76.5196 10.2356C84.1905 13.0581 91.847 16.0358 98.9546 20.127L97.87 21.261C95.5611 17.1662 93.3105 13.0454 91.2425 8.81724C91.1739 8.70937 91.3608 8.60613 91.421 8.70992L91.4208 8.69738Z" fill="#181D2B"/>
<path d="M83.8322 22.8714C86.2819 22.312 88.9791 21.774 91.4684 21.3437C94.0596 20.7194 96.6177 20.4096 99.2559 21.271C99.3484 21.299 99.363 21.4328 99.2757 21.4801C97.4521 22.4742 95.5917 22.9664 93.5908 23.0084C92.464 22.9789 90.8442 23.0279 89.7016 23.0698C87.8135 23.0976 85.7369 23.1198 83.8562 23.0804C83.739 23.0821 83.7153 22.8983 83.8363 22.8713L83.8322 22.8714Z" fill="#181D2B"/>
</svg>
