<svg width="150" height="138" viewBox="0 0 150 138" fill="none" xmlns="http://www.w3.org/2000/svg">
<path d="M149.29 19.177C143.189 10.3591 132.721 0.0292177 121.24 0.520278C117.534 0.718116 113.959 2.12415 110.956 4.2509C109.652 5.08111 108.465 6.17983 107.472 7.39511C103.381 13.355 96.7502 18.5588 89.1617 17.4989C85.3322 17.0573 81.8029 15.1955 78.7223 12.9487C77.7048 12.1891 76.6697 11.3059 75.7194 10.4722C74.5712 9.40174 73.2076 8.5009 71.8192 7.76254C60.5495 1.60838 45.6057 -2.57802 33.9616 4.86914C33.3575 5.20829 32.5838 5.85127 32.008 6.24695C31.4851 6.70268 30.6937 7.32444 30.2133 7.81903C29.1004 8.93187 27.8463 10.0836 26.9984 11.3766C18.0428 25.098 25.7443 45.0725 32.9689 58.0273C33.1384 58.3523 33.6401 59.2214 33.8097 59.5394C34.5728 60.8713 35.1204 62.3268 35.4348 63.8247C35.9682 66.492 35.7492 69.3005 34.7141 71.8194C33.3186 75.4476 30.8951 78.6377 27.8392 81.0294C24.741 83.4494 21.0244 85.1381 17.2019 86.2015C15.7429 86.6113 14.1779 86.8869 12.7365 87.3532C11.1679 87.869 9.66646 88.6144 8.3134 89.5753C3.68188 92.8891 0.70726 98.2449 0.127884 103.88C-1.02734 116.273 5.84395 128.101 12.6729 137.879L12.9378 137.703C9.82896 132.541 6.91794 127.193 4.86891 121.523C1.34669 112.224 -0.00990295 100.315 8.22154 93.1117C10.0339 91.4725 12.2313 90.3526 14.6089 89.8085C15.7217 89.5789 16.8734 89.3068 17.9721 89.049L20.2402 88.3954C24.3594 87.0777 28.4292 84.9756 31.6441 81.9833C35.509 78.3869 38.4412 73.4763 38.9641 68.1524C39.2643 64.8103 38.5083 61.3941 36.908 58.4584C36.1979 57.1477 35.3747 55.8052 34.6788 54.491C31.1636 47.9729 28.0901 41.0628 26.571 33.7923C24.8363 25.5184 25.1225 15.517 31.8949 9.56073C32.3188 9.10146 33.036 8.53975 33.5023 8.11228C34.0075 7.72721 34.7212 7.17606 35.2511 6.84397L36.159 6.26109L37.1058 5.74527C37.339 5.60396 37.823 5.3708 38.0738 5.26482C46.5702 1.3328 56.4409 3.20519 64.8419 6.54723C66.9192 7.38097 68.9541 8.33131 70.9289 9.38762C72.229 10.0624 73.4266 10.8184 74.5182 11.8076C77.1467 14.1004 80.0471 16.1883 83.2761 17.5449C87.9677 19.654 93.5884 19.767 98.2269 17.4565C101.788 15.7467 104.71 13.0547 107.066 9.96347C108.338 8.13348 109.684 6.37414 111.595 5.15179C114.432 3.07449 117.778 1.6861 121.289 1.4388L121.844 1.42819L122.953 1.41051C123.684 1.4635 124.44 1.4918 125.165 1.62251C132.28 2.76008 138.278 7.38099 143.221 12.394C145.323 14.5597 147.291 16.8807 149.025 19.3466L149.29 19.17V19.177Z" fill="#181D2B"/>
<path d="M82.4245 53.4735C80.6958 53.4735 79.2944 52.0721 79.2944 50.3434C79.2944 48.6148 80.6958 47.2134 82.4245 47.2134C84.1532 47.2134 85.5546 48.6148 85.5546 50.3434C85.5546 52.0721 84.1532 53.4735 82.4245 53.4735Z" fill="#181D2B"/>
<path d="M110.949 53.7128C109.22 53.7128 107.818 52.3114 107.818 50.5827C107.818 48.854 109.22 47.4526 110.949 47.4526C112.677 47.4526 114.079 48.854 114.079 50.5827C114.079 52.3114 112.677 53.7128 110.949 53.7128Z" fill="#181D2B"/>
<path d="M103.385 65.0355C103.385 65.0355 99.0499 53.4727 88.448 65.0355" stroke="#181D2B" stroke-width="2" stroke-linecap="round" stroke-linejoin="round"/>
</svg>
