<svg width="302" height="179" viewBox="0 0 302 179" fill="none" xmlns="http://www.w3.org/2000/svg">
<path d="M21.5158 152.968C-11.6536 93.471 54.0902 47.7606 91.1084 32.3425C132.708 18.1595 217.652 -1.12281 224.631 35.2115C231.611 71.5457 251.387 95.642 260.403 103.148C309.531 144.552 290.93 189.486 275.489 206.778C253.799 255.171 161.674 235.278 118.322 219.282C76.7171 187.47 62.9777 227.339 21.5158 152.968Z" fill="#FB9C17"/>
<path d="M195.01 160.376H57.6149C56.278 160.376 55.1942 161.424 55.1942 162.715C55.1942 164.007 56.278 165.054 57.6149 165.054H195.01C196.347 165.054 197.431 164.007 197.431 162.715C197.431 161.424 196.347 160.376 195.01 160.376Z" fill="#E4CFAE"/>
<path d="M153.812 105.69C153.812 89.875 145.194 76.3512 133.014 70.8475C134.078 69.6161 134.716 68.0688 134.716 66.3877C134.716 62.3777 131.132 59.1333 126.709 59.1333C124.396 59.1333 122.318 60.0274 120.856 61.4462C119.394 60.0274 117.316 59.1333 115.003 59.1333C110.58 59.1333 106.996 62.3831 106.996 66.3877C106.996 68.0688 107.634 69.6161 108.698 70.8475C96.5182 76.3512 87.9002 89.875 87.9002 105.69C87.9002 122.555 97.6909 136.823 111.163 141.529C113.018 142.176 114.251 143.911 114.251 145.844V146.642C114.251 148.735 112.522 150.432 110.389 150.432C104.607 150.432 99.9164 155.036 99.9164 160.711H141.807C141.807 155.036 137.116 150.432 131.334 150.432C129.201 150.432 127.472 148.735 127.472 146.642V145.844C127.472 143.911 128.705 142.176 130.56 141.529C144.027 136.817 153.823 122.555 153.823 105.69H153.812Z" fill="#E4CFAE"/>
<path d="M120.862 138.492C136.808 138.492 149.735 123.831 149.735 105.747C149.735 87.6617 136.808 73.001 120.862 73.001C104.915 73.001 91.9885 87.6617 91.9885 105.747C91.9885 123.831 104.915 138.492 120.862 138.492Z" fill="#7DC6BF"/>
<mask id="mask0_114_91" style="mask-type:luminance" maskUnits="userSpaceOnUse" x="91" y="72" width="59" height="67">
<path d="M120.798 138.479C136.708 138.479 149.604 123.819 149.604 105.735C149.604 87.6519 136.708 72.9922 120.798 72.9922C104.889 72.9922 91.9926 87.6519 91.9926 105.735C91.9926 123.819 104.889 138.479 120.798 138.479Z" fill="white"/>
</mask>
<g mask="url(#mask0_114_91)">
<path d="M141.664 88.9824H115.374V112.851C115.374 117.802 112.792 122.448 108.47 125.012C102.586 128.502 98.7276 134.931 99.006 142.227C99.388 152.205 107.673 160.336 117.846 160.716C129.034 161.133 138.236 152.365 138.236 141.488C138.236 139.47 137.92 137.522 137.33 135.697H141.664V88.9878V88.9824Z" fill="#181D2B"/>
<path d="M128.439 138.548C119.767 140.888 111.908 145.148 105.359 150.822H182.536C175.769 144.956 167.604 140.609 158.599 138.324C153.96 137.146 150.679 133.099 150.679 128.399V128.389C159.707 125.616 166.272 117.41 166.42 107.679C166.671 107.705 166.927 107.721 167.189 107.721C170.977 107.721 174.049 104.708 174.049 100.993C174.049 97.2781 170.977 94.2645 167.189 94.2645C166.933 94.2645 166.676 94.2805 166.425 94.3073V85.0469H121.47V94.3073C121.219 94.2805 120.968 94.2645 120.706 94.2645C116.918 94.2645 113.845 97.2781 113.845 100.993C113.845 104.708 116.918 107.721 120.706 107.721C120.968 107.721 121.224 107.705 121.475 107.679C121.617 117.041 127.702 124.99 136.2 128.052V128.662C136.2 133.303 133.002 137.312 128.439 138.543V138.548Z" fill="#DFB332"/>
<path d="M134.819 96.5015C132.5 96.5015 130.813 99.4134 130.813 103.428C130.813 104.161 131.419 104.75 132.161 104.75C132.904 104.75 133.509 104.156 133.509 103.428C133.509 100.714 134.47 99.2421 134.836 99.1458C135.168 99.2475 136.129 100.714 136.129 103.428C136.129 104.161 136.735 104.75 137.477 104.75C138.219 104.75 138.825 104.156 138.825 103.428C138.825 99.4134 137.139 96.5015 134.819 96.5015Z" fill="#181D2B"/>
<path d="M152.366 96.5015C150.046 96.5015 148.36 99.4134 148.36 103.428C148.36 104.161 148.966 104.75 149.708 104.75C150.45 104.75 151.056 104.156 151.056 103.428C151.056 100.714 152.016 99.2421 152.382 99.1458C152.715 99.2475 153.676 100.714 153.676 103.428C153.676 104.161 154.281 104.75 155.024 104.75C155.766 104.75 156.372 104.156 156.372 103.428C156.372 99.4134 154.685 96.5015 152.366 96.5015Z" fill="#181D2B"/>
<path d="M142.296 100.254V108.102L145.724 106.978" stroke="#181D2B" stroke-width="2.47" stroke-linecap="round" stroke-linejoin="round"/>
<path d="M133.024 110.527C133.024 114.553 137.603 117.818 143.246 117.818C148.889 117.818 153.468 114.553 153.468 110.527" stroke="#181D2B" stroke-width="3" stroke-linecap="round" stroke-linejoin="round"/>
<path d="M127.817 111.962C130.201 111.962 132.134 110.066 132.134 107.728C132.134 105.389 130.201 103.494 127.817 103.494C125.433 103.494 123.5 105.389 123.5 107.728C123.5 110.066 125.433 111.962 127.817 111.962Z" fill="#FA7B04"/>
<path d="M126.038 96.0805C133.823 96.0805 140.135 89.8902 140.135 82.2541C140.135 74.618 133.823 68.4277 126.038 68.4277C118.252 68.4277 111.94 74.618 111.94 82.2541C111.94 89.8902 118.252 96.0805 126.038 96.0805Z" fill="#181D2B"/>
<path d="M152.852 98.644C163.612 98.644 172.336 90.0884 172.336 79.5344C172.336 68.9805 163.612 60.4248 152.852 60.4248C142.091 60.4248 133.368 68.9805 133.368 79.5344C133.368 90.0884 142.091 98.644 152.852 98.644Z" fill="#181D2B"/>
</g>
<path d="M193.169 145.842C219.59 145.842 241.038 166.954 241.038 192.961V216.679H145.306V192.961C145.306 166.954 166.754 145.842 193.175 145.842H193.169Z" fill="#D9999C"/>
<path d="M171.905 163.82C161.382 166.662 151.848 171.827 143.896 178.717H237.539C229.331 171.603 219.425 166.325 208.493 163.552C202.866 162.123 198.882 157.214 198.882 151.513V151.503C209.83 148.136 217.804 138.18 217.979 126.371C218.284 126.403 218.596 126.425 218.912 126.425C223.507 126.425 227.235 122.769 227.235 118.262C227.235 113.755 223.507 110.099 218.912 110.099C218.601 110.099 218.29 110.12 217.99 110.152V98.9165H163.44V110.152C163.134 110.12 162.829 110.099 162.517 110.099C157.922 110.099 154.194 113.755 154.194 118.262C154.194 122.769 157.922 126.425 162.517 126.425C162.834 126.425 163.145 126.403 163.451 126.371C163.62 137.73 171.004 147.381 181.314 151.091V151.829C181.314 157.46 177.433 162.326 171.899 163.82H171.905Z" fill="#DFB332"/>
<path d="M238.391 147.392C233.146 144.282 230.013 138.645 230.013 132.639V104.949C230.995 101.978 231.536 98.8095 231.536 95.5175C231.536 78.6668 217.608 65.0063 200.427 65.0063C189.56 65.0063 180.004 70.4716 174.437 78.7524C174.317 78.7524 174.197 78.7417 174.071 78.7417C164.624 78.7417 156.967 86.2517 156.967 95.5175C156.967 99.7088 158.539 103.536 161.126 106.475V132.639C161.126 138.651 157.993 144.282 152.748 147.392C145.609 151.626 140.927 159.425 141.265 168.279C141.729 180.387 151.782 190.252 164.127 190.712C169.165 190.9 173.869 189.551 177.799 187.104C181.237 189.246 185.254 190.552 189.555 190.712C197.01 190.991 203.734 187.902 208.286 182.876C212.838 187.902 219.561 190.991 227.017 190.712C239.362 190.252 249.415 180.381 249.879 168.279C250.218 159.425 245.529 151.626 238.396 147.392H238.391Z" fill="#181D2B"/>
<path d="M174.407 35.348C171.652 30.1273 164.994 28.227 159.719 31.0028C156.169 32.8711 154.112 36.3996 154.008 40.0828L153.97 40.0722L153.959 40.1095C150.769 38.1611 146.631 37.8889 143.082 39.7572C137.801 42.533 135.683 49.0615 138.65 54.1593C144.465 64.1469 167.047 63.6397 167.047 63.6397C167.047 63.6397 178.997 44.0437 174.407 35.3426V35.348Z" fill="#FA7B04"/>
</svg>
