<svg width="52" height="51" viewBox="0 0 52 51" fill="none" xmlns="http://www.w3.org/2000/svg">
<path d="M19.4521 10.668C22.3661 5.55601 23.8219 3 26 3C28.178 3 29.6339 5.55601 32.5479 10.668L33.3023 11.991C34.1303 13.4445 34.5443 14.1713 35.1883 14.6505C35.8323 15.1298 36.6372 15.3075 38.2472 15.663L39.71 15.987C45.3678 17.2403 48.1945 17.8658 48.8684 19.9831C49.5399 22.0981 47.6126 24.3053 43.7556 28.7176L42.7574 29.8583C41.6626 31.1116 41.1129 31.7393 40.8668 32.5133C40.6208 33.2896 40.7036 34.1266 40.8691 35.7984L41.0209 37.3216C41.6028 43.2099 41.8949 46.1529 40.1332 47.4601C38.3714 48.7696 35.7219 47.5749 30.4274 45.1899L29.0543 44.5734C27.5502 43.8939 26.7981 43.5564 26 43.5564C25.2019 43.5564 24.4498 43.8939 22.9457 44.5734L21.5749 45.1899C16.2781 47.5749 13.6286 48.7674 11.8691 47.4624C10.1051 46.1529 10.3972 43.2099 10.9791 37.3216L11.1308 35.8006C11.2964 34.1266 11.3792 33.2896 11.1308 32.5156C10.8871 31.7393 10.3374 31.1116 9.24259 29.8606L8.24442 28.7176C4.38741 24.3076 2.46005 22.1003 3.13164 19.9831C3.80552 17.8658 6.63445 17.238 12.2923 15.987L13.7551 15.663C15.3627 15.3075 16.1654 15.1298 16.8117 14.6505C17.4557 14.1713 17.8697 13.4445 18.6977 11.991L19.4521 10.668Z" stroke="black" stroke-width="5"/>
</svg>
